<?xml version="1.0" encoding="UTF-8"?>
<svg id="Layer_2" data-name="Layer 2" xmlns="http://www.w3.org/2000/svg" viewBox="0 0 1241.27 961.53">
  <defs>
    <style>
      .cls-1 {
        fill: #faf18c;
      }

      .cls-2 {
        fill: #b9d1e6;
      }

      .cls-3 {
        fill: #ce952b;
      }

      .cls-4 {
        fill: #fdfcfc;
      }

      .cls-5 {
        fill: #f2f0f0;
      }

      .cls-6 {
        fill: #252222;
      }
    </style>
  </defs>
  <g id="Layer_1-2" data-name="Layer 1">
    <g>
      <path class="cls-6" d="M1024.39,713.19c-62.44,113.64-169.42,197.69-294.36,231.82-113.13,30.9-233.49,18.03-337.84-35.19-138.9-70.84-236.38-200.91-261.73-355.3-19.71,1.66-39.46,7.93-54.94-4.22-14.12-11.09-20.73-24.19-26.16-41.81L6.44,369.11C2.75,357.11.23,345.81,0,333.33c-.17-9.79,3.56-18.58,10.6-25.13l16.6-15.45c6.87-6.39,17.43-9.14,26.12-4.65,6.31,3.26,10.62,9.98,12.67,17.03l29.84,102.85,16.46,54.51c2.57,8.52,6.99,16.17,11.11,24l1.7.6c.27.09.54-.47.51-1.96-2.55-123.35,45.14-248.93,130.81-337.95C371.5,27.6,529.8-21.88,693.35,8.95c47.48,9.46,93.19,25.07,135.51,47.93,110.94,59.93,193.71,160.35,230.8,280.82,22.79-6.53,23.65-1.01,48.06-8.48,13.12-4.02,26.15-6.06,39.86-7.2,8.66-8.05,18.15-15.48,30.39-16.64,11.4-1.08,23.13-.14,34.27,2.94s18.81,12.87,20.9,23.78l6.93,36.1c1.43,7.46,1.52,15.5.56,22.78-2.83,21.47-31.07,23.69-48.66,27.09-9.09,1.76-15.21-2.04-23.52-3.81-9.18-1.95-20.3-.93-29.91-.5l-38.38,1.71-20.86,3.44c-.55.09-2.25.46-2.1.77l1.16,2.44c13.47,101.13-4.78,201.55-53.97,291.07ZM527.79,26.79c81.89-12.83,167.01-3.36,244.05,27.24,70.81,28.13,132.28,73.42,181.29,131.42,31.37,37.13,56.6,78.72,73.64,124.17l12.54,33.46,14.57-3.96c-31.09-98.82-90.81-182.02-174.39-242.84C800.98,39.16,709.48,9.34,612.38,6.33c-64.2-1.99-126.67,9.25-186.2,32.88-35.2,13.98-67.7,32.4-98.54,54.42-64.61,46.14-116.48,107.39-150.24,179.4-32.13,68.52-48.37,143.18-45.86,219,5.57,1.18,10.81,1.14,16.38.16-.46-59.05,6.17-111.05,26.29-166.43,9.17-25.23,19.6-48.97,32.41-72.53,32.38-59.53,77.68-110.32,133.16-149.37,58.92-41.48,116.2-65.83,188.01-77.08ZM594.82,166.86c39.99-1.32,78.86,4.6,115.34,17.71,87.82,31.58,156.72,98.78,189.54,186.71l105.45-18.53,10.3-5.75,18.79-2.78c-15.8-47.36-36.4-90.88-65.7-131.1-53.29-73.16-126.88-128.89-212.18-159.74-96.3-34.82-203.03-36.57-300.41-4.41-36.29,11.98-69.48,29.72-101.29,50.62-56.61,37.21-103.48,86.6-137.56,145.23-44.12,76.86-66.48,157.64-64.11,247.26l138.46-21.68,2.14-20.46c14.89-157.35,142.16-277.25,301.23-283.1ZM540.7,198.08c57.6-12.19,117.57-8.35,171.78,13.18,75.08,29.83,133.16,89.16,162.51,164.26,7.13-.95,13.38-2.04,19.19-3.59-46.31-124.53-168.73-205.25-300.71-199.92-113.26,4.58-214.16,69.08-264.4,170.65-19.51,39.45-29.6,82.07-31.78,126.62l20.11-3.54c1.36-15.26,2.77-29.42,5.48-44.19,20.42-111.24,106.72-199.95,217.83-223.47ZM668.9,231.87c6.54,1.51,12.47,3.78,18.07,6.84,5.12,3.85,7.73,8.21,8.59,14.75l27.6,149.01,147-25.9c-18.58-47.63-49.34-89.2-89.41-120.66-48.83-38.29-108.1-58.98-170.1-59.99-20.67-.36-40.35,1.37-60.43,5.03-100.86,18.4-183.68,90.88-214.5,188.73-7.64,24.27-12.05,49.31-13.12,75.15l148.35-24.96,18.17-97.92,17.38-92.5c.27-12.27,11.05-18.25,21.54-20.37,40.15-8.14,100.97-6.41,140.86,2.8ZM665.68,243.44c-29.03,5.61-73.49,4.25-103.17,3.05-2.9-.12-6.16-1.89-7.48-3.82,7.6-6.09,16.04-3.38,24.87-7.36-6.28-1.74-61.39,1.29-62.21,11.02,5.84,3.79,11.99,5.85,19.16,6.85,40.63,5.69,81.56,6.27,122.27,1,8.28-1.07,15.54-2.47,22.95-6.38-5.22-4.01-10.73-5.46-16.39-4.37ZM563.27,445.84l10.34-181.72-10.32-.62-4.34,74.65-6.05,107.64c4.18.34,6.98.47,10.37.05ZM600.83,448.22l-.17-183.63-24.16-.37-4.33,74.19-6.3,108.35,34.96,1.47ZM621.86,483.51c33.96-2.79,69.08-7.85,100.69-15.69,1.31-.32,1.39-4.12.56-4.64l-3.57-2.22c-16.72-10.42-20.07-34.25-7.48-49.52-4.01-3.82-4.25-7.69-5.18-12.85l-19.16-106.29c-.13-.72-2.23-2.02-2.63-1.45-.3.43-1.1,2.04-1.02,2.73l15.09,117.9c-12.27,14.96-10.74,34.73.94,50.23l-80.15,10.79c.06,3.92-.55,7.81,1.89,11.01ZM54.1,315.27c1.92,3.72,3.06,8.24,3.88,12.95-13.69,15.37-26.07,30.14-36.65,47.82-.93,1.56.43,5.59,1.42,7.43l23.55-29.55c4.99-6.26,9.18-13.02,13.58-20.21l3.37,13.17c-10.8,18.85-24.65,32.28-35.92,52.44l2.94,8.11c3.99-5.55,6.84-10.53,10.17-16.47,7.02-12.52,15.4-23.18,24.52-34.7l2.31,8c-14.79,19.35-20.15,36.14-33,56.55-.07,2.4.99,6.33,1.93,8.33,10.11-20.21,20.17-38.61,33.31-55.81l2.17,8.48-15.36,25.11c-5.34,8.72-9.98,17.14-14.38,25.95,12.19-10.94,24.54-25.95,32.89-39.75l2.41,7.98c-8.59,17.61-20.31,31.8-34.58,45.35-.69,1.96.54,5.79,1.95,7.34,13.38-12.85,24.71-26.57,35.13-42.28.52.54,2.72,5.03,1.87,6.72-3.1,6.21-7.32,13.78-10.91,19.91-12.08,20.63-28.91,22.15-20.95,32.77,17.7-12.5,24.54-24.76,35.34-42.85l3.4,9.63c-9.86,20.57-18.18,29.66-35.19,45.26.12,2.61.97,5.69,2.18,8.44,14.22-13.47,25.88-27.78,35.99-44.13,2.54,4.54,2.7,9.97,4.31,14.04l-19.81,23.08-16.87,19.08c3.43,14.64,15.34,40.49,31.75,43.21,4.06.67,8.77.79,12.46.21l69.31-10.84,106.33-16.57,181.82-27.72,7.75-46.17-147.63,25.93-100.92,17c-25.32,4.26-49.62,10.41-75.15,10.58l-9.1.06c-8.05.05-15.35-3.95-19.58-11.64-6.02-10.95-10.43-22.34-14.07-34.8l-39.22-134.21c-2.95-10.1-7.99-28.69-21.15-25.15-.96.26-3.49.08-4.43.89-6.58,5.67-14.22,12.72-20.4,19.03-12.34,12.59-6.6,29.71-2.27,45.38,14.16-14.73,26.97-28.76,39.5-43.41ZM1210.36,407.45c-22.15-15.18-37.15-45.94-35.79-73.15.44-8.9,3.18-16.85,9.28-22.58-28.45-4.57-8.54,57.7-3.2,69.93,3.28,7.52,18.18,33.5,29.71,25.8ZM1202.24,313.18c-2.76-.91-6.96-1.82-9.51-.77-10.82,4.45-6.24,34.57-.32,41.87.88-16.38-3.58-30.26,9.83-41.09ZM1215.76,374.37c-1.46-7.77-9.14-46.85-.9-48.84,1.98-.48,4.8.68,7.3,1.95-1.4-3.98-4.52-7.9-8.74-10.51-6.54-4.05-10.11,10.86-9.99,17.43.34,18.62,5.11,47.63,15.17,63.3,2.73,4.25,7.93,3.63,11.4,1.3-9.43-1.1-12.9-17.48-14.25-24.63ZM1149.12,383.23l-5.45-31.79c-.26-8,.02-15.06,1.1-22.51-16.29-4.43-1.33,49.7,4.35,54.3ZM1181.7,410.17c-.84-7.44-.88-15.16-4.06-21.72-6.28-12.92-13.08-25.15-16.58-39.09-1.36-5.42-2.38-10.13-4.73-15.76-4.12,5.15-4.74,9.94-5.27,15.82-1.71,19.31,5.13,38.56,17.49,53.35,3.35,4.01,7.24,6.55,13.14,7.4ZM1097.74,389.09c-2.28-10.07-3.9-19.63-8.14-28.64-3.46-7.36.04-16.05,5.32-22.05-2.37.36-6.15,1-7.65,1.95-16.11,12.32.63,57.25,15.6,68.44-.41-7.19-3.58-12.84-5.14-19.7ZM1074.22,413.29l2.43-.93c-3.42-4.39-6.5-8.55-8.17-13.66-4.42-13.49-11.43-42.39-4.02-55.71-1.5.31-5.38,1.54-6.97,2.79-6.94,12.96-1.17,61.18,16.73,67.51ZM1040.37,349.75c-4.33-.26-8.34,1.62-9.74,6.05-4.88,15.48-4.57,32.78,2.13,47.67,2.44,5.41,6.35,10.09,12.35,10.64-11.27-14.39-15.11-50.43-4.74-64.37ZM1140.16,405.98c-11.18-10.33-10.49-13.27-13.71-28.22l-5.95-27.6c-10.84,11.95-.39,56.58,19.66,55.82ZM1013.36,379.81c-.49-9.65,1.69-17.75,7.14-25.04-18.02-7.03-14.6,39.49-5.96,48.28l-1.18-23.24ZM817.69,442.1l193.2-30.7c-9.03-15.72-10.19-33.38-8.96-51.16l-278.18,51.07c-6.65,1.22-11.28,5.7-12.69,11.7-3.39,14.48,3.96,35.53,19.28,33.08l87.35-13.99ZM151.78,551.09c-6.29.85-10.64,1.54-15.17,2.74,16.77,102.49,66.37,195.82,140.93,267.18,47.84,45.78,104.47,81.69,166.57,105.06,87.14,32.8,182.4,38.67,272.78,16.19,185.42-46.11,328.96-201.14,355.27-391.04,6.15-44.4,5.57-88.2-.52-132.63-5.17.08-9.67.56-14.67,1.54,13.05,88.67-.44,178.48-39,258.85-30.73,64.03-75.67,120.13-131.24,164.18-83.15,65.91-186.88,100.48-292.93,97.08-58.85-1.89-116.24-14.57-170.05-38.78-82-36.89-152.54-96.35-201.68-171.75-20.15-30.91-36.55-63.67-49.8-98.02-10.16-26.35-15.72-52.67-20.49-80.61ZM157.1,550.39c3.57,29.1,10.88,55.26,20.48,81.71,13.9,35.68,31.63,69.19,52.77,101.27,48.32,71.01,115.6,127.34,193.81,162.81,54.34,24.65,112.41,37.65,172.07,39.21,93.24,2.45,185.17-24.64,262.01-77.5,66.73-45.91,120.41-108.18,155.45-181.22,37.63-78.42,51.94-170.17,38.16-255.98-4.28.21-8.64-.1-12.9.55l-122.26,18.63c14.47,114.73-37.44,227.63-132.24,292.4-17.65,12.06-35.86,22.08-55.86,30.87-41.91,17.26-86.64,26.31-131.83,25.2-148.6-3.63-276.25-110.42-302.44-257.76l-137.22,19.81ZM318.53,527.24l-18.94,2.7c17.56,101.92,86.58,186.7,180.16,227.62,112.08,49,242.96,27.26,333.83-54.51,72.94-65.64,110.63-163.54,97.82-262.19l-19.46,2.63c12.51,95.83-24.76,189.8-98.41,252.67-48.53,41.43-108.91,64.92-172.55,68.26-41.78,2.19-83.15-3.91-122.02-18.91-93.94-36.26-163.08-118.49-180.45-218.26ZM567.82,664.57c-57.52-3.32-125.47-9.22-178.92-30.91-12.26-4.97-22.84-11.62-34.11-18.89,49.73,90.34,148.65,146.56,250.31,145.23,111.95.68,212.49-64.01,259.58-165.32,21.51-46.27,29.02-98.74,22.67-150.38l-152.72,24.5,6.08,30.9c1.69,1.5,3.84,3.32,5.93,4.4l63.16,32.59c13.31,6.87,46.38,24.68,51.82,37.74,11.44,27.48-24.05,49.68-44.74,59.31-71.92,33.48-170.87,35.33-249.05,30.83ZM502.08,473.86l.26-10.52c-8.82-3.9-15.49-8.81-22.78-15.14-.94,2.69-2.45,7.83-1.22,10.19,4.86,9.33,14.02,13.11,23.74,15.47ZM506.37,467.21l-3.98,83.99c30.07,5.38,66.29,11.52,95.5,7.73,6.44-1.07,8.05-5.04,7.98-10.65l-.52-38.16c-.24-17.73.57-35.25-2.12-51.91-.35-2.17-3.56-2.79-5.67-2.9l-14.15-.77-20.95-1.13-46.61-3.67c-5.09-.4-9.11,3.77-9.24,8.42l-.25,9.05ZM498.12,547.6l.21-13.75c-12.96-4.91-35.14-11.36-30.8-29.29-6.23.67-12.81,3.29-16.17,9.23-2.1,3.73-.5,8.99,2.4,12.13,10.51,11.37,29.68,17.18,44.35,21.68ZM362.66,557.56c30.2-19.72,57.02-30.48,86-49.36l-125.43,18.2c4.16,22.56,9.78,43.31,18.88,62.89,2.31-13.89,9.12-24.27,20.55-31.73ZM738.62,540.3c6.26-2.28,12.02-5.79,16.49-10.22,3.94-3.9,4.63-9.43.32-13.25-4.43-3.93-9.98-6.8-15.52-9.01-1.05,10.93-7.06,18.33-16.67,22.48-25.51,11.01-73.94,14.85-102.45,16.22-1.3,4.89-3.56,8.48-7.43,11.7,36.79-.68,91.99-5.83,125.26-17.92ZM719.77,643.22c32.47-5.03,108.77-23.04,125.29-53.02,9.03-16.38-10.18-29.91-23.26-35.18-3.35,7.17,16.55,16.93,2.97,33.6-11.64,14.29-31.85,22.55-49.23,28.83-26.86,9.7-53.87,15.44-82.38,19.47l-50.38,7.11c-1.07.33-.84,3.87-.03,4.56,4.09,3.46,66.21-3.7,77.01-5.37ZM424.93,624.3c-16.93-6.79-38.87-14.76-50.63-27.89-13.33-14.89,8.05-28.38,17.3-37.62-1.07-1.68-4.37-2.85-6.52-2.04-11.17,4.19-21.5,10.95-27.84,20.73-6.78,10.47-4.54,22.7,5.57,29.47,18.3,12.26,39.65,17.23,60.75,21.61.98-.45,2.28-3.77,1.36-4.25Z"/>
      <path class="cls-4" d="M594.82,166.86c-159.07,5.85-286.34,125.75-301.23,283.1l-2.14,20.46-138.46,21.68c-2.37-89.62,19.99-170.41,64.11-247.26,34.09-58.63,80.95-108.02,137.56-145.23,31.81-20.91,65-38.64,101.29-50.62,97.39-32.16,204.11-30.42,300.41,4.41,85.31,30.85,158.9,86.58,212.18,159.74,29.3,40.22,49.9,83.74,65.7,131.1l-18.79,2.78-10.3,5.75-105.45,18.53c-32.83-87.93-101.73-155.13-189.54-186.71-36.48-13.12-75.35-19.04-115.34-17.71ZM629.9,142.16c2.46-19.4-4.2-9.85-3.9-19.54l1.57-50.97c4.79.08,7.69,4.38,7.52,9.03l-.38,10.81,21.06.74,1.05-36.81-89.45-2.73-.77,36.36,20.95.68.68-12.2c.23-4.18,4.03-7.24,8.13-6.73l-1.45,53.78c-5.71,7.18-5.11,3.01-4.62,16.3l39.62,1.27ZM538.76,145.99c15.06-7.98,14.98-17.46,11.19-32.05-2.32-8.96-9.07-15.17-18.34-16.6-9.79-1.51-19.54-1.8-29.51-2.28-4.73-.23-9.53-3.22-8.26-8.33,1.04-4.17,5.99-5.83,9.71-4.69,3.43,1.05,4.95,4.61,5.73,9.28l29.71-6.51-5.2-19.8c-18.85-7.11-44.74-1.14-61.13,9.38-9.19,5.9-11.89,14.57-9.58,24.67,2.67,11.69,10.82,20.41,23.49,20.74l22.97.59c3.14.08,6.68.88,8.46,3.1,1.34,1.68,2.53,5.13,2.09,7.83-.41,2.5-4.08,4.51-6.34,4.85s-6.13-1.27-6.99-3.31l-3.2-7.58-28.9,7.5,6.89,21.83c16.85,5.17,42.18-.64,57.21-8.61ZM705.46,133.07c2.94,4.87-1.1,8.25-3.86,10.69-1.71,2.61-2.49,7.12-3.17,10.68l39.11,9.89,3.09-10.8-3.07-6.04.06-73.2-43.5-10.84-30.99,60.66c-1.44,3.47-3.71,5.52-6.83,7.59l-3.32,11.39,33.26,8.21c1.23-3.78,2.98-8.02,1.92-11.62-.92-3.1-2.8-9.95,2.46-10.41,3.89-.34,11.57,1.99,14.85,3.78ZM795.9,199.23c2.7-4.53,4.36-7.09,5.58-9.94l-.68-6.55,27.51-44.87c3.08,1.11,5.3,5.38,3.66,8.3l-6.87,12.22,17.91,10.58,19.14-31.28-77.42-45.38-19.03,31.48,17.97,10.31,6.94-10.28c2.37-3.51,7.01-4.4,10.26-2.13l-25.88,42.53c-1.66,2.72-4.02,3.46-7.1,4.25-2.25,2.57-4.7,6.37-6.91,9.92l34.93,20.85ZM378.34,207.05l-.68,5.99,6.94,8.93,32.45-24.1-6.75-9.09-6.6-1.38-10.81-13.21-6.85-37.42c-.76-4.16-.33-7.83.35-12.28l-6.72-9.59-27.11,20.24c5.85,17.39,9.05,2.89,15.09,29.8l-16.52-8.86c-2.29-4.98-4.59-9.54-9.65-12.59l-30.72,24.34,8.12,9.42c1.86.2,5.9-.04,7.46.57l41.52,16.27,10.48,12.96ZM874.3,219.78l12.3,13.47,14.58-13.29-15.18-11.97,12.96-11.9c3.51,3.15,7.07,6.72,6.71,11.1-.15,1.75-3.2,4.46-4.88,6.34l18.19,18.65,20.08-19.44-41.04-41.98-12.32-12.22-8.95,8.92c.04,1.8,0,4.74-.33,6.37l-37.66,36.02-7.22.7-7.88,8.03,52.78,53.56,21.87-19.5c-6.87-7.15-12.75-12.78-19.64-18.34-2.27,1.93-5.2,4.65-7.22,4.59-4.69-.14-8.13-3.42-10.86-6.43l13.71-12.69ZM314.71,264.29l9.47-11.19c4.59-1.92,9.64,2.76,9.08,7.26l9.4,6.98,25.22-31.65-9.68-7.81c-3.34.64-5.45.74-8.34.31l-69.34-26.76-27.37,35.89,47.46,51c2.97,1.79,4.2,4.21,3.75,8.17l9.88,8.02,20.66-27.27c-2.52-2.36-6.39-5.54-9.16-6.59-5.32.81-9.6-.81-11.02-6.37ZM281.1,384.52l17.69-43.21c2.89-7.06,4.88-15.29,1.32-22.66-4.18-8.65-13.74-14.86-23.37-15.26-8.46-.35-14.56,5.17-19.59,10.95-.28-4.86.2-10.17-2.77-13.78-6.14-7.46-17.22-10.4-26.25-6.92-7.25,2.79-12.3,9.1-15.32,16.08-6.71,15.5-12.21,30.53-18.14,46.71l12.32,4.6c4.63-2.18,6.72-1.43,11.31,0l47.47,14.73c1.26.39,2.25,3.8,2.83,5.05l12.48,3.72Z"/>
      <path class="cls-1" d="M668.9,231.87c-39.89-9.21-100.71-10.94-140.86-2.8-10.48,2.13-21.27,8.1-21.54,20.37l-17.38,92.5-18.17,97.92-148.35,24.96c1.07-25.84,5.48-50.88,13.12-75.15,30.81-97.85,113.64-170.33,214.5-188.73,20.09-3.67,39.77-5.39,60.43-5.03,62,1.02,121.27,21.71,170.1,59.99,40.07,31.45,70.83,73.02,89.41,120.66l-147,25.9-27.6-149.01c-.86-6.53-3.47-10.9-8.59-14.75-5.6-3.06-11.53-5.33-18.07-6.84Z"/>
      <path class="cls-4" d="M157.1,550.39l137.22-19.81c26.19,147.35,153.84,254.14,302.44,257.76,45.19,1.1,89.92-7.94,131.83-25.2,19.99-8.8,38.2-18.81,55.86-30.87,94.8-64.77,146.71-177.67,132.24-292.4l122.26-18.63c4.25-.65,8.61-.34,12.9-.55,13.78,85.81-.54,177.55-38.16,255.98-35.04,73.04-88.73,135.31-155.45,181.22-76.84,52.86-168.76,79.95-262.01,77.5-59.65-1.57-117.72-14.56-172.07-39.21-78.21-35.48-145.49-91.8-193.81-162.81-21.14-32.08-38.86-65.59-52.77-101.27-9.61-26.45-16.91-52.6-20.48-81.71ZM993.25,507.91l20.13,3.85-11.22-17.47,9.69-18.08-19.82,5.02-14.45-13.77-1.05,19.73-18.29,9.88,18.78,6.62,2.41,20.72,13.83-16.5ZM552.32,919.91c44.15,5.37,88.29,4.59,131.98-3.37,79.07-14.4,152.21-50.24,212.04-103.73,78.23-69.92,131.36-165.52,144.49-270.56l-58.42,11.2-52.24-45.75c-12.81,139.68-117.22,250.33-250.7,282.16-26.53,6.33-51.99,8.47-79.15,8.1-129.7-1.75-245.09-74.76-298.01-192.81l-41.56,44.09-63.27-4.01c58.3,147.94,198.55,255.68,354.83,274.68ZM238.57,607.37l13.24,15.12,2.45-20.45,18.52-8.31-18.96-7.98-1.5-19.7-14.25,14.73-20.58-3.96,11.21,17-10.66,18.34,20.53-4.8Z"/>
      <path class="cls-1" d="M567.82,664.57c78.18,4.51,177.12,2.66,249.05-30.83,20.69-9.63,56.18-31.83,44.74-59.31-5.44-13.06-38.51-30.87-51.82-37.74l-63.16-32.59c-2.09-1.08-4.24-2.91-5.93-4.4l-6.08-30.9,152.72-24.5c6.36,51.64-1.16,104.11-22.67,150.38-47.09,101.31-147.63,166-259.58,165.32-101.66,1.33-200.57-54.89-250.31-145.23,11.27,7.27,21.85,13.91,34.11,18.89,53.45,21.69,121.4,27.6,178.92,30.91Z"/>
      <path class="cls-2" d="M151.78,551.09c4.76,27.93,10.32,54.25,20.49,80.61,13.24,34.35,29.65,67.1,49.8,98.02,49.15,75.4,119.68,134.86,201.68,171.75,53.81,24.21,111.2,36.89,170.05,38.78,106.05,3.4,209.78-31.17,292.93-97.08,55.57-44.05,100.51-100.15,131.24-164.18,38.56-80.36,52.05-170.17,39-258.85,5.01-.98,9.5-1.46,14.67-1.54,6.1,44.43,6.68,88.23.52,132.63-26.31,189.89-169.86,344.92-355.27,391.04-90.38,22.48-185.65,16.6-272.78-16.19-62.1-23.37-118.74-59.28-166.57-105.06-74.56-71.36-124.16-164.69-140.93-267.18,4.54-1.2,8.89-1.88,15.17-2.74Z"/>
      <path class="cls-2" d="M527.79,26.79c-71.81,11.25-129.08,35.6-188.01,77.08-55.48,39.05-100.78,89.84-133.16,149.37-12.81,23.55-23.25,47.3-32.41,72.53-20.12,55.38-26.75,107.38-26.29,166.43-5.58.98-10.81,1.01-16.38-.16-2.52-75.82,13.73-150.47,45.86-219,33.77-72.01,85.63-133.26,150.24-179.4,30.84-22.02,63.33-40.45,98.54-54.42,59.53-23.64,122-34.87,186.2-32.88,97.1,3.01,188.6,32.82,267.11,89.95,83.58,60.82,143.3,144.03,174.39,242.84l-14.57,3.96-12.54-33.46c-17.04-45.45-42.27-87.04-73.64-124.17-49-58-110.48-103.29-181.29-131.42-77.04-30.6-162.16-40.08-244.05-27.24Z"/>
      <path class="cls-3" d="M95.79,461.32l7.34,18.57c5.55,14.03,17.55,26.4,32.58,19.29l9.1-.06c25.53-.17,49.84-6.32,75.15-10.58l100.92-17,147.63-25.93-7.75,46.17-181.82,27.72-106.33,16.57-69.31,10.84c-3.69.58-8.4.46-12.46-.21-16.4-2.72-28.31-28.58-31.75-43.21l16.87-19.08,19.81-23.08Z"/>
      <path class="cls-2" d="M318.53,527.24c17.37,99.77,86.51,182.01,180.45,218.26,38.86,15,80.24,21.11,122.02,18.91,63.64-3.34,124.02-26.83,172.55-68.26,73.64-62.87,110.91-156.84,98.41-252.67l19.46-2.63c12.8,98.65-24.88,196.55-97.82,262.19-90.87,81.77-221.75,103.51-333.83,54.51-93.59-40.92-162.6-125.69-180.16-227.62l18.94-2.7Z"/>
      <path class="cls-2" d="M540.7,198.08c-111.11,23.52-197.41,112.23-217.83,223.47-2.71,14.77-4.11,28.94-5.48,44.19l-20.11,3.54c2.18-44.55,12.27-87.17,31.78-126.62,50.24-101.57,151.14-166.07,264.4-170.65,131.98-5.34,254.4,75.39,300.71,199.92-5.81,1.55-12.06,2.63-19.19,3.59-29.35-75.1-87.43-134.43-162.51-164.26-54.21-21.54-114.17-25.38-171.78-13.18Z"/>
      <path class="cls-3" d="M817.69,442.1l-87.35,13.99c-15.32,2.45-22.68-18.6-19.28-33.08,1.41-6.01,6.04-10.48,12.69-11.7l278.18-51.07c-1.24,17.78-.07,35.44,8.96,51.16l-193.2,30.7Z"/>
      <polygon class="cls-4" points="600.83 448.22 565.87 446.75 572.17 338.4 576.5 264.21 600.66 264.58 600.83 448.22"/>
      <path class="cls-5" d="M135.72,499.18c-15.04,7.11-27.04-5.26-32.58-19.29l-7.34-18.57c-1.61-4.07-1.76-9.5-4.31-14.04-10.1,16.34-21.76,30.65-35.99,44.13-1.21-2.74-2.06-5.83-2.18-8.44,17-15.6,25.32-24.69,35.19-45.26l-3.4-9.63c-10.8,18.09-17.64,30.35-35.34,42.85-7.96-10.62,8.86-12.14,20.95-32.77,3.59-6.13,7.81-13.7,10.91-19.91.84-1.69-1.36-6.18-1.87-6.72-10.42,15.71-21.75,29.44-35.13,42.28-1.4-1.55-2.63-5.39-1.95-7.34,14.27-13.55,25.99-27.74,34.58-45.35l-2.41-7.98c-8.34,13.8-20.7,28.81-32.89,39.75,4.4-8.81,9.05-17.23,14.38-25.95l15.36-25.11-2.17-8.48c-13.14,17.2-23.2,35.6-33.31,55.81-.94-2-2-5.93-1.93-8.33,12.85-20.41,18.21-37.21,33-56.55l-2.31-8c-9.13,11.53-17.51,22.19-24.52,34.7-3.33,5.94-6.18,10.92-10.17,16.47l-2.94-8.11c11.27-20.16,25.12-33.59,35.92-52.44l-3.37-13.17c-4.39,7.19-8.59,13.95-13.58,20.21l-23.55,29.55c-.99-1.84-2.36-5.87-1.42-7.43,10.58-17.68,22.96-32.45,36.65-47.82-.82-4.71-1.96-9.23-3.88-12.95.06-6.23-6.13-18.96-12.41-21.89,13.16-3.54,18.2,15.05,21.15,25.15l39.22,134.21c3.64,12.45,8.05,23.85,14.07,34.8,4.23,7.69,11.53,11.7,19.58,11.64Z"/>
      <path class="cls-3" d="M603.24,458.21c2.68,16.67,1.88,34.18,2.12,51.91l.52,38.16c.08,5.61-1.54,9.58-7.98,10.65-29.21,3.79-65.44-2.35-95.5-7.73l3.98-83.99c.14-3.01,2.32-7.06,3.92-9.06,1.97-2.47,6.78-3.4,10.3-3.08,24.67,2.2,48.44,3.86,73.01,4.61,3.52.11,6.82-.33,9.64-1.47ZM518.77,537.6c.14.93.07,2.65.09,4.43l34.59,4.05c11.88,1.39,23.31,1.51,34.45-.84-3.72-.79-7.15-1.69-9.54-1.86l13.31-.31-.5-73.05-65.7-3.19c-2.14-.1-4.16,1.28-3.77,3.28l-3,47.05c-.43,6.8-.99,14.43.07,20.44Z"/>
      <path class="cls-1" d="M362.66,557.56c-11.43,7.47-18.23,17.84-20.55,31.73-9.1-19.58-14.72-40.33-18.88-62.89l125.43-18.2c-28.98,18.88-55.8,29.64-86,49.36Z"/>
      <path class="cls-5" d="M719.77,643.22c-10.8,1.67-72.93,8.83-77.01,5.37-.81-.69-1.04-4.22.03-4.56l50.38-7.11c28.51-4.02,55.52-9.77,82.38-19.47,17.39-6.28,37.6-14.54,49.23-28.83,13.58-16.68-6.32-26.43-2.97-33.6,13.08,5.27,32.29,18.8,23.26,35.18-16.52,29.98-92.82,47.99-125.29,53.02Z"/>
      <path class="cls-5" d="M621.86,483.51c-2.44-3.2-1.83-7.08-1.89-11.01l80.15-10.79c-11.69-15.5-13.21-35.28-.94-50.23l-15.09-117.9c-.09-.69.72-2.29,1.02-2.73.4-.58,2.5.73,2.63,1.45l19.16,106.29c.93,5.15,1.17,9.03,5.18,12.85-12.59,15.27-9.23,39.11,7.48,49.52l3.57,2.22c.84.52.75,4.31-.56,4.64-31.61,7.84-66.73,12.9-100.69,15.69Z"/>
      <path class="cls-5" d="M738.62,540.3c-33.28,12.1-88.47,17.24-125.26,17.92,3.87-3.22,6.13-6.8,7.43-11.7,28.52-1.37,76.94-5.21,102.45-16.22,9.6-4.15,15.61-11.55,16.67-22.48,5.55,2.21,11.09,5.08,15.52,9.01,4.31,3.82,3.62,9.35-.32,13.25-4.47,4.43-10.22,7.94-16.49,10.22Z"/>
      <path class="cls-5" d="M563.27,445.84c-3.4.42-6.2.3-10.37-.05l6.05-107.64,4.34-74.65,10.32.62-10.34,181.72Z"/>
      <path class="cls-5" d="M665.68,243.44c5.66-1.09,11.17.36,16.39,4.37-7.41,3.91-14.67,5.31-22.95,6.38-40.71,5.26-81.64,4.68-122.27-1-7.17-1-13.31-3.07-19.16-6.85.82-9.73,55.93-12.76,62.21-11.02-8.83,3.98-17.26,1.27-24.87,7.36,1.33,1.94,4.58,3.7,7.48,3.82,29.68,1.2,74.13,2.56,103.17-3.05Z"/>
      <path class="cls-5" d="M424.93,624.3c.91.48-.39,3.8-1.36,4.25-21.1-4.37-42.45-9.35-60.75-21.61-10.11-6.77-12.35-19.01-5.57-29.47,6.34-9.78,16.67-16.54,27.84-20.73,2.15-.81,5.45.37,6.52,2.04-9.25,9.24-30.63,22.73-17.3,37.62,11.76,13.14,33.69,21.1,50.63,27.89Z"/>
      <path class="cls-5" d="M1181.7,410.17c-5.9-.85-9.79-3.4-13.14-7.4-12.36-14.79-19.2-34.04-17.49-53.35.52-5.88,1.14-10.67,5.27-15.82,2.35,5.63,3.37,10.34,4.73,15.76,3.49,13.95,10.3,26.17,16.58,39.09,3.18,6.55,3.22,14.28,4.06,21.72ZM1164.95,382.25c-1.14,9.71,3.68,17.93,11.49,22.78,3.14-.86-9.51-20.68-11.49-22.78Z"/>
      <path class="cls-5" d="M498.12,547.6c-14.67-4.49-33.84-10.31-44.35-21.68-2.9-3.14-4.5-8.4-2.4-12.13,3.35-5.94,9.94-8.56,16.17-9.23-4.34,17.92,17.84,24.38,30.8,29.29l-.21,13.75Z"/>
      <path class="cls-5" d="M1215.76,374.37c1.34,7.15,4.82,23.53,14.25,24.63-3.47,2.33-8.68,2.94-11.4-1.3-10.06-15.67-14.83-44.68-15.17-63.3-.12-6.57,3.45-21.48,9.99-17.43,4.22,2.61,7.34,6.53,8.74,10.51-2.5-1.26-5.32-2.42-7.3-1.95-8.24,1.99-.56,41.07.9,48.84Z"/>
      <path class="cls-5" d="M1210.36,407.45c-11.53,7.7-26.43-18.28-29.71-25.8-5.34-12.23-25.25-74.5,3.2-69.93-6.1,5.73-8.84,13.68-9.28,22.58-1.36,27.2,13.64,57.97,35.79,73.15Z"/>
      <path class="cls-5" d="M1097.74,389.09c1.55,6.86,4.73,12.51,5.14,19.7-14.97-11.2-31.71-56.13-15.6-68.44,1.5-.96,5.27-1.6,7.65-1.95-5.28,6.01-8.78,14.7-5.32,22.05,4.24,9.01,5.85,18.57,8.14,28.64Z"/>
      <path class="cls-5" d="M1074.22,413.29c-17.89-6.33-23.66-54.54-16.73-67.51,1.58-1.25,5.47-2.48,6.97-2.79-7.41,13.32-.4,42.22,4.02,55.71,1.68,5.11,4.75,9.28,8.17,13.66l-2.43.93Z"/>
      <path class="cls-1" d="M603.24,458.21c-2.82,1.14-6.12,1.58-9.64,1.47-24.57-.76-48.34-2.42-73.01-4.61-3.52-.31-8.33.62-10.3,3.08-1.6,2-3.78,6.05-3.92,9.06l.25-9.05c.13-4.64,4.15-8.82,9.24-8.42l46.61,3.67,20.95,1.13,14.15.77c2.11.11,5.32.73,5.67,2.9Z"/>
      <path class="cls-5" d="M1040.37,349.75c-10.37,13.93-6.53,49.98,4.74,64.37-6-.55-9.92-5.23-12.35-10.64-6.7-14.89-7.01-32.2-2.13-47.67,1.4-4.43,5.41-6.32,9.74-6.05Z"/>
      <path class="cls-5" d="M1140.16,405.98c-20.05.77-30.5-43.87-19.66-55.82l5.95,27.6c3.22,14.95,2.53,17.89,13.71,28.22Z"/>
      <path class="cls-5" d="M502.08,473.86c-9.72-2.35-18.88-6.14-23.74-15.47-1.23-2.36.28-7.5,1.22-10.19,7.29,6.33,13.96,11.25,22.78,15.14l-.26,10.52Z"/>
      <path class="cls-5" d="M1013.36,379.81l1.18,23.24c-8.64-8.8-12.06-55.31,5.96-48.28-5.45,7.29-7.63,15.39-7.14,25.04Z"/>
      <path class="cls-5" d="M1149.12,383.23c-5.68-4.6-20.64-58.73-4.35-54.3-1.07,7.45-1.35,14.51-1.1,22.51l5.45,31.79Z"/>
      <path class="cls-5" d="M1202.24,313.18c-13.41,10.83-8.95,24.72-9.83,41.09-5.92-7.3-10.5-37.42.32-41.87,2.55-1.05,6.75-.14,9.51.77Z"/>
      <path class="cls-6" d="M281.1,384.52l-12.48-3.72c-.58-1.25-1.58-4.66-2.83-5.05l-47.47-14.73c-4.59-1.42-6.68-2.17-11.31,0l-12.32-4.6c5.93-16.18,11.43-31.21,18.14-46.71,3.02-6.97,8.07-13.28,15.32-16.08,9.02-3.48,20.11-.54,26.25,6.92,2.97,3.61,2.49,8.92,2.77,13.78,5.03-5.79,11.12-11.3,19.59-10.95,9.63.4,19.19,6.61,23.37,15.26,3.56,7.37,1.58,15.6-1.32,22.66l-17.69,43.21ZM241.61,335.88c1.06-2.78,2.4-7.2.75-9.22-3.38-4.15-10.32-5.81-15.31-3.61-1.98.88-3.68,5.37-4.25,7.49l18.81,5.34ZM276.76,347.65c1.22-3.07,2.65-7.69,1.17-9.39-4-4.62-10.15-6.19-16.02-5.4-1.9,1.56-3.73,5.46-4.58,8.36l19.42,6.43Z"/>
      <path class="cls-6" d="M538.76,145.99c-15.04,7.97-40.37,13.78-57.21,8.61l-6.89-21.83,28.9-7.5,3.2,7.58c.86,2.04,4.82,3.64,6.99,3.31s5.93-2.35,6.34-4.85c.44-2.69-.75-6.15-2.09-7.83-1.77-2.22-5.32-3.02-8.46-3.1l-22.97-.59c-12.66-.33-20.82-9.06-23.49-20.74-2.31-10.1.39-18.77,9.58-24.67,16.39-10.52,42.28-16.49,61.13-9.38l5.2,19.8-29.71,6.51c-.79-4.67-2.3-8.23-5.73-9.28-3.71-1.14-8.67.52-9.71,4.69-1.27,5.11,3.53,8.1,8.26,8.33,9.96.49,19.71.77,29.51,2.28,9.27,1.43,16.02,7.64,18.34,16.6,3.78,14.59,3.87,24.07-11.19,32.05Z"/>
      <path class="cls-6" d="M314.71,264.29c1.42,5.56,5.7,7.17,11.02,6.37,2.77,1.06,6.64,4.23,9.16,6.59l-20.66,27.27-9.88-8.02c.45-3.96-.78-6.38-3.75-8.17l-47.46-51,27.37-35.89,69.34,26.76c2.9.43,5,.32,8.34-.31l9.68,7.81-25.22,31.65-9.4-6.98c.56-4.5-4.49-9.19-9.08-7.26l-9.47,11.19ZM309.05,244.75l-27.38-12.28,20.37,21.59,7-9.31Z"/>
      <path class="cls-6" d="M705.46,133.07c-3.27-1.78-10.95-4.11-14.85-3.78-5.26.46-3.37,7.3-2.46,10.41,1.06,3.6-.69,7.83-1.92,11.62l-33.26-8.21,3.32-11.39c3.12-2.07,5.39-4.11,6.83-7.59l30.99-60.66,43.5,10.84-.06,73.2,3.07,6.04-3.09,10.8-39.11-9.89c.68-3.56,1.46-8.08,3.17-10.68,2.76-2.43,6.8-5.82,3.86-10.69ZM707.8,116.34l.87-27.98-12.89,25.14,12.02,2.84Z"/>
      <path class="cls-6" d="M874.3,219.78l-13.71,12.69c2.73,3.01,6.17,6.29,10.86,6.43,2.02.06,4.96-2.65,7.22-4.59,6.89,5.56,12.77,11.2,19.64,18.34l-21.87,19.5-52.78-53.56,7.88-8.03,7.22-.7,37.66-36.02c.32-1.63.37-4.58.33-6.37l8.95-8.92,12.32,12.22,41.04,41.98-20.08,19.44-18.19-18.65c1.69-1.89,4.74-4.59,4.88-6.34.37-4.38-3.19-7.95-6.71-11.1l-12.96,11.9,15.18,11.97-14.58,13.29-12.3-13.47Z"/>
      <path class="cls-6" d="M795.9,199.23l-34.93-20.85c2.21-3.55,4.66-7.35,6.91-9.92,3.08-.79,5.44-1.52,7.1-4.25l25.88-42.53c-3.24-2.27-7.89-1.38-10.26,2.13l-6.94,10.28-17.97-10.31,19.03-31.48,77.42,45.38-19.14,31.28-17.91-10.58,6.87-12.22c1.64-2.91-.58-7.18-3.66-8.3l-27.51,44.87.68,6.55c-1.21,2.85-2.88,5.4-5.58,9.94Z"/>
      <path class="cls-6" d="M629.9,142.16l-39.62-1.27c-.49-13.29-1.08-9.12,4.62-16.3l1.45-53.78c-4.1-.51-7.9,2.55-8.13,6.73l-.68,12.2-20.95-.68.77-36.36,89.45,2.73-1.05,36.81-21.06-.74.38-10.81c.16-4.65-2.74-8.95-7.52-9.03l-1.57,50.97c-.3,9.68,6.36.14,3.9,19.54Z"/>
      <path class="cls-6" d="M378.34,207.05l-10.48-12.96-41.52-16.27c-1.56-.61-5.6-.37-7.46-.57l-8.12-9.42,30.72-24.34c5.06,3.05,7.37,7.61,9.65,12.59l16.52,8.86c-6.04-26.91-9.25-12.41-15.09-29.8l27.11-20.24,6.72,9.59c-.67,4.46-1.11,8.12-.35,12.28l6.85,37.42,10.81,13.21,6.6,1.38,6.75,9.09-32.45,24.1-6.94-8.93.68-5.99Z"/>
      <path class="cls-6" d="M552.32,919.91c-156.28-19-296.53-126.74-354.83-274.68l63.27,4.01,41.56-44.09c52.92,118.05,168.31,191.06,298.01,192.81,27.15.37,52.62-1.78,79.15-8.1,133.48-31.83,237.89-142.48,250.7-282.16l52.24,45.75,58.42-11.2c-13.13,105.04-66.26,200.64-144.49,270.56-59.83,53.48-132.97,89.32-212.04,103.73-43.68,7.96-87.82,8.74-131.98,3.37ZM205.11,650.76c30.1,73.32,80.28,134.23,141.24,180.28,86.83,65.6,194.52,96.34,303.17,85.59,85.3-8.43,166.83-42.88,232.44-97.88,62.02-51.99,108.85-118.53,135.05-195.07,8.49-24.79,14.73-49.33,18.18-75.53l-54.66,10.5-46.32-40.86c-13.59,101.08-71.49,186.55-157.84,237.9-62,36.87-133.11,52.97-204.91,45.34-28.34-3.01-55.13-8-81.92-17.71l-13.52-5.05c-77.82-29.07-139.39-89.03-175.09-164.62l-37.52,40.31-58.32-3.2Z"/>
      <path class="cls-6" d="M238.57,607.37l-20.53,4.8,10.66-18.34-11.21-17,20.58,3.96,14.25-14.73,1.5,19.7,18.96,7.98-18.52,8.31-2.45,20.45-13.24-15.12ZM240.35,602.94l8.19,9.16,1.39-13.07,11.49-5.02-11.4-5.27-1.45-12.53-8.66,9.14-12.43-2.13,6.26,10.63-5.96,11.12,12.57-2.03Z"/>
      <path class="cls-6" d="M993.25,507.91l-13.83,16.5-2.41-20.72-18.78-6.62,18.29-9.88,1.05-19.73,14.45,13.77,19.82-5.02-9.69,18.08,11.22,17.47-20.13-3.85ZM991.44,503.32l12.15,1.86-6.15-10.24,5.11-11.86-11.98,2.98-8.92-8.29-.96,11.9-11.77,6.47,12.39,4.88,1.51,12.04,8.6-9.73Z"/>
      <path class="cls-6" d="M578.35,543.38l-17.96-1.22-41.63-4.56c-1.06-6.02-.51-13.64-.07-20.44l3-47.05c-.39-2,1.63-3.39,3.77-3.28l65.7,3.19.5,73.05-13.31.31ZM587.49,484.25l-.13-10.61-58.79-2.85-.06,9.43c20.2,2.2,38.72,3.82,58.98,4.03Z"/>
      <path class="cls-1" d="M578.35,543.38c2.4.16,5.82,1.07,9.54,1.86-11.14,2.35-22.57,2.23-34.45.84l-34.59-4.05c-.02-1.78.04-3.51-.09-4.43l41.63,4.56,17.96,1.22Z"/>
      <path class="cls-6" d="M1164.95,382.25c1.99,2.1,14.64,21.92,11.49,22.78-7.81-4.85-12.64-13.07-11.49-22.78Z"/>
      <path class="cls-5" d="M276.76,347.65l-19.42-6.43c.85-2.9,2.68-6.8,4.58-8.36,5.87-.79,12.01.78,16.02,5.4,1.47,1.7.05,6.32-1.17,9.39Z"/>
      <path class="cls-5" d="M241.61,335.88l-18.81-5.34c.58-2.12,2.27-6.62,4.25-7.49,4.99-2.21,11.93-.54,15.31,3.61,1.65,2.03.31,6.45-.75,9.22Z"/>
      <polygon class="cls-5" points="309.05 244.75 302.05 254.06 281.67 232.47 309.05 244.75"/>
      <polygon class="cls-5" points="707.8 116.34 695.79 113.5 708.67 88.35 707.8 116.34"/>
      <path class="cls-2" d="M205.11,650.76l58.32,3.2,37.52-40.31c35.69,75.59,97.27,135.55,175.09,164.62l13.52,5.05c26.78,9.71,53.57,14.7,81.92,17.71,71.8,7.63,142.91-8.46,204.91-45.34,86.35-51.35,144.24-136.82,157.84-237.9l46.32,40.86,54.66-10.5c-3.44,26.21-9.69,50.74-18.18,75.53-26.21,76.54-73.04,143.07-135.05,195.07-65.61,55.01-147.14,89.45-232.44,97.88-108.65,10.74-216.34-19.99-303.17-85.59-60.96-46.06-111.14-106.97-141.24-180.28ZM879.34,786.35l-.55,5.86,8.43,8.19,29.03-26.89-8.11-8.43-6.44-.45-12.08-11.91-12.95-42.39.44-6.08-8.53-9.38-22.98,22.88c9.87,16.04,9.61,3.85,17.96,27.38l-16.77-6.91c-2.45-4.9-5.56-9.74-11.38-11.66l-26.86,24.54,8.27,9.33,6.27-.44,44.45,14.46,11.79,11.9ZM417.61,861.14l6.05-9.45-.75-6.38,27.9-44.3,5.95-1.95,6.58-10.43-30.62-19.22c-9.93,11.41-4.83,13.51-16.7,28.21l-10.45-6.8c6.52-11.18,11.92-15.96,18.1-26.69l-30.56-19.84-7.32,10.52c2.11,4.24,1.58,6.46-.56,9.85l-23.98,37.86c-1.76,2.78-4.25,3.49-7.56,4.87-2.35,2.08-4.9,6.45-6.78,9.62l29.91,19.21c3.82-4.24,6.21-9.24,8.92-14.16,3.15-5.72,6.6-10.59,10.3-16.07l10.72,6.95-10.73,17.23c-1,.65-3.74,2.04-4.37,3.04l-5.5,8.77,31.45,19.17ZM814.56,829.16c-3.44,3.64-6.07,5.72-9.89,7.26l-9.49-15.88,17.1-8.64-10.18-16.92-15.95,10.42-9.05-14.76c3.1-1.85,6.46-4.38,9.84-4.34,2.84.03,5.15,3.69,7.34,6.39l21.12-12.63-14.41-23.21-63.08,36.84,6.71,10.79,6.03,2.34,27.93,45.16-1.6,6.82,6.17,9.8,64.26-36.41-14.98-24.48-21.58,13.06,3.68,8.39ZM675.5,902.29l34.72-9.4c-.36-6.42-3.59-10.71-5.8-15.8-2.72-6.29-3.89-13.08-5.6-19.99,9.44,10.21,17.9,20.29,26.25,31.66l31.9-8.7-4.09-11.57-5.58-1.67-25.55-25.8,7.54-27.13c.34-1.21,3.19-3.71,2.84-4.96l-3.41-11.98-33.13,9.38,5.17,15.55-5.95,22.17c-1.88-5.82-3.48-11.53-5.01-17.63l-4.41-17.56-34.47,9.56c1.26,4.56,2.71,9.4,4.02,12.4.99.89,4.53,2.51,4.91,3.82l13.71,46.92c1.22,4.18.35,5.94-1.46,9.65-.42,2.73,1.72,8.1,3.41,11.1ZM528.23,878.53l13.22-41.57c8.61-27.08-30.96-38.97-52.88-37.82-8.2.43-14.74,5.71-17.57,13.51-5.33,14.66-9.79,29.31-14.04,44.53-2.48,8.88,1.61,17.74,9.11,23.21,15.8,11.54,54.2,23.21,62.17-1.86ZM606.19,885.42c-.03,3.42-3.66,5.36-6.28,5.22-2.34-.12-5.56-2.8-5.56-5.89l.13-44.89c.01-3.89,3.13-6.41,6.4-6.15,2.9.23,5.62,2.6,5.61,5.92l-.02,10.33,28.93-.39-.43-24.04c-15.71-10.55-40.45-11.5-57.12-6.4-8.65,2.65-13.9,9.82-14.21,18.83-.53,15.36-.68,30.32-.1,45.84.44,11.59,9.31,19.86,20.59,22.6,13.61,3.31,38.92,2.15,51.1-7.57l-.08-30.11-28.79-.28-.17,16.97Z"/>
      <polygon class="cls-2" points="240.35 602.94 227.78 604.97 233.74 593.85 227.48 583.23 239.91 585.35 248.58 576.21 250.02 588.74 261.42 594.02 249.93 599.03 248.54 612.1 240.35 602.94"/>
      <polygon class="cls-2" points="991.44 503.32 982.83 513.05 981.32 501.01 968.93 496.13 980.7 489.66 981.66 477.76 990.58 486.05 1002.56 483.07 997.45 494.94 1003.59 505.18 991.44 503.32"/>
      <path class="cls-5" d="M587.49,484.25c-20.26-.21-38.78-1.83-58.98-4.03l.06-9.43,58.79,2.85.13,10.61Z"/>
      <path class="cls-6" d="M417.61,861.14l-31.45-19.17,5.5-8.77c.63-1,3.36-2.39,4.37-3.04l10.73-17.23-10.72-6.95c-3.71,5.48-7.16,10.35-10.3,16.07-2.71,4.92-5.1,9.91-8.92,14.16l-29.91-19.21c1.88-3.17,4.44-7.54,6.78-9.62,3.31-1.39,5.8-2.09,7.56-4.87l23.98-37.86c2.14-3.39,2.67-5.6.56-9.85l7.32-10.52,30.56,19.84c-6.18,10.73-11.58,15.52-18.1,26.69l10.45,6.8c11.86-14.7,6.77-16.81,16.7-28.21l30.62,19.22-6.58,10.43-5.95,1.95-27.9,44.3.75,6.38-6.05,9.45Z"/>
      <path class="cls-6" d="M675.5,902.29c-1.68-2.99-3.83-8.37-3.41-11.1,1.8-3.71,2.68-5.47,1.46-9.65l-13.71-46.92c-.38-1.31-3.92-2.93-4.91-3.82-1.31-3-2.76-7.84-4.02-12.4l34.47-9.56,4.41,17.56c1.53,6.1,3.12,11.81,5.01,17.63l5.95-22.17-5.17-15.55,33.13-9.38,3.41,11.98c.36,1.25-2.5,3.75-2.84,4.96l-7.54,27.13,25.55,25.8,5.58,1.67,4.09,11.57-31.9,8.7c-8.35-11.38-16.81-21.46-26.25-31.66,1.71,6.91,2.88,13.7,5.6,19.99,2.2,5.09,5.44,9.38,5.8,15.8l-34.72,9.4Z"/>
      <path class="cls-6" d="M528.23,878.53c-7.97,25.07-46.37,13.39-62.17,1.86-7.49-5.47-11.58-14.33-9.11-23.21,4.25-15.22,8.7-29.87,14.04-44.53,2.84-7.8,9.37-13.08,17.57-13.51,21.92-1.15,61.49,10.74,52.88,37.82l-13.22,41.57ZM499.36,868.19l12.56-40.64c1.25-4.03-.41-7.6-4.05-8.51s-7.1.86-8.34,4.93l-12.58,41.15c-1.2,3.92,1.1,7.15,4.46,8.19,3.52,1.09,6.64-.89,7.95-5.12Z"/>
      <path class="cls-6" d="M814.56,829.16l-3.68-8.39,21.58-13.06,14.98,24.48-64.26,36.41-6.17-9.8,1.6-6.82-27.93-45.16-6.03-2.34-6.71-10.79,63.08-36.84,14.41,23.21-21.12,12.63c-2.19-2.7-4.5-6.35-7.34-6.39-3.38-.04-6.74,2.49-9.84,4.34l9.05,14.76,15.95-10.42,10.18,16.92-17.1,8.64,9.49,15.88c3.82-1.55,6.44-3.62,9.89-7.26Z"/>
      <path class="cls-6" d="M606.19,885.42l.17-16.97,28.79.28.08,30.11c-12.17,9.73-37.49,10.88-51.1,7.57-11.28-2.74-20.15-11.01-20.59-22.6-.59-15.52-.43-30.47.1-45.84.31-9.01,5.56-16.18,14.21-18.83,16.68-5.1,41.42-4.15,57.12,6.4l.43,24.04-28.93.39.02-10.33c0-3.32-2.71-5.69-5.61-5.92-3.28-.26-6.39,2.26-6.4,6.15l-.13,44.89c0,3.1,3.21,5.77,5.56,5.89,2.62.14,6.24-1.8,6.28-5.22Z"/>
      <path class="cls-6" d="M879.34,786.35l-11.79-11.9-44.45-14.46-6.27.44-8.27-9.33,26.86-24.54c5.82,1.93,8.93,6.76,11.38,11.66l16.77,6.91c-8.34-23.53-8.08-11.34-17.96-27.38l22.98-22.88,8.53,9.38-.44,6.08,12.95,42.39,12.08,11.91,6.44.45,8.11,8.43-29.03,26.89-8.43-8.19.55-5.86Z"/>
      <path class="cls-2" d="M499.36,868.19c-1.31,4.24-4.42,6.21-7.95,5.12s-5.66-4.27-4.46-8.19l12.58-41.15c1.24-4.07,4.72-5.83,8.34-4.93s5.3,4.47,4.05,8.51l-12.56,40.64Z"/>
    </g>
  </g>
</svg>