<?xml version="1.0" encoding="UTF-8"?>
<svg id="Layer_2" data-name="Layer 2" xmlns="http://www.w3.org/2000/svg" viewBox="0 0 976.59 419.55">
  <defs>
    <style>
      .cls-1 {
        fill: #648ec2;
      }

      .cls-2 {
        fill: #f1f2f4;
      }

      .cls-3 {
        fill: #132741;
      }
    </style>
  </defs>
  <g id="Layer_1-2" data-name="Layer 1">
    <path class="cls-2" d="M237.14,28.03c25.15,2.9,44.55,19.33,50.7,43.83,6.34,25.27.97,55.6-18.63,74.66l-20.55,17.97c11.59,7.61,20.28,17.16,26.87,28.93,4.28-22.23,7.53-43.11,13.59-64.2l13.13-45.67c6.48-22.54,19.86-41.63,39.23-54.5,10.56-7.02,23.49-3.18,29.06,8.32,4.89,10.09,6.31,21.75,4.72,33.29-2.03,14.65-5.15,28.67-8.94,42.96-3.43,12.92-8.51,24.47-14.79,36.16l-27.15,50.56c-.67,8.63-.47,18.05-.58,26.76-.06,5.44.87,10.78,6.19,13.39,10.33-10.83,20.8-21.72,28.55-34.07,3.65-24.55,12.52-46.5,27.11-66.56,10.2-14.03,21.89-26.03,36.98-34.61,12.66-7.19,27.13-5.37,36.93,5.7,10.25-8.3,22.02-25.1,33.85-17.42,3.43,2.23,6.66,7.78,5.55,12.96l-18.93,88.72c-.35,1.66.05,3.99.74,6.44,26.2-37.27,46.37-69.24,64.82-111.28,3.55-8.08,11.71-12.75,20.28-12.56,30.76.68,36.92-11.95,55.6-11.69,4.93.07,8.86,4.46,8.24,9.4-.53,4.21-.52,9.63-2.6,13.4l-49.46,89.98c7.89.04,17.39,2.06,25.2-1.09,27.86-21.41,18.37-32.85,29.83-62.6,4.85-12.57,10.14-24.65,19.05-34.89,7.96-9.14,15.58-18.19,25.65-25.21,10.88-7.59,26.06-8.13,38.02-2.97,7.24,3.13,10.44,10.3,13.95,17.48,4.41-17,18.71-37.23,39.15-33.57,11,1.97,11.36,18.7,10.95,27.01l12.79-24.05c5.35-10.06,18.05-13.82,23.48-11.05,5.85,3,6.11,13.83,5.13,17.63l-19.94,77.07c-1.16,4.47-1.89,8.66-.68,13.04,13.31-13.2,22.41-27.87,31.36-43.57,10.19-17.88,19.43-36.04,24.32-56.03,2.31-9.44,7.22-15.54,16.64-18.55,6.78-2.17,13.59-5.51,20.38-8.18,5.03-1.98,11.37,1.44,11.9,6.77,1.47,14.74-4,24.07,5.17,37.96,13.31,20.15,12,40.73,3.33,63.67,20.85-2.92,33.59,6,46.06,20.72,8.74,10.32,10.61,24.08,4.5,36.27-14.23,28.4-46.07,45.28-75.99,54.05l-281.6,82.58-339.31,98.64c-5.17,1.5-8.17-.38-11.46-3.61-6.78-6.67-15.24-11.26-24.27-14.84-34.76-13.78-93.12-21.79-130.8-24.22l-82.1-5.3c-3.82-.25-7.5-4.33-8.6-6.9-1.47-3.43-1-8.25,2.12-10.92,3.31-2.83,8.05-4.71,12.42-5.38l20.16-3.11c-13.21-27.43-4.61-48.82,18.52-65.99,5.56-4.13,11.56-6.13,18.61-3.37,4.72,1.85,10.61,6.67,10.79,13.63.26,10.08-.42,19.72-1.06,30.04-.77,12.52,20.09,3.19,28.05-23.19l6.68-22.14c3.27-10.83,5.92-21.3,7.24-32.61l3.97-33.95c2.26-19.29,4.74-37.79,9.41-56.58,4.46-17.95,12.38-34.31,25.26-47.58,8.05-8.29,16.65-15.87,25.87-22.43,7.58-5.4,17.83-1.68,21.12,6.3,2.01,4.87,2.69,11.6-.12,16.24-6.56,10.84-11.56,21.91-13.18,34.71l-4.26,33.5c7.53-13.82,14.89-5.54,22.86-24.12,8-18.63,10.39-39.07,3.73-58.61-3.64-10.68-14.47-16.88-25.65-17.33-28.19-1.12-51.83,18.97-69.34,38.81-13.54,15.35-16,26.38-18.08,46.17-1.66,15.79,15.92,11.62,18.3,24.97,1.04,5.82-.82,11.02-5.02,14.85-6.94,6.33-13.95,11.74-21.75,17.21-9.96,6.98-24.13,4.6-30.25-6.83-7.42-13.86-8.61-30.2-6.37-45.86,2.84-19.94,10.65-37.6,21.74-54.15,14.42-21.53,32.91-38.32,55.37-51.12,27.64-15.77,57.99-21.99,90.23-18.28ZM415.73,247.79c9.3-11.95,16.08-24.31,24.61-38.45l5.76,29.7c1.4,7.2,8.45,11.82,15.65,8.81,5.47-2.29,11.61-5.77,15.56-10.4,31.6-37.06,45.69-65.13,68.75-106.72,5.54-10,14.41-12.6,25.02-10.63,5.87,1.09,11.65-3.08,18.61-3.68-.37,3.17-1.83,6.65-3.78,10.04l-56.48,98.14c-1.61,2.79-2.4,6.49-1.82,9.15,13.3,4.35,8.69-14.71,26.37-13.77l30.98,1.65c8.36.44,16.28-2.13,21.61-8.98,8.89-11.43,17.08-23.11,25.75-35.55l10.59,18.27c1.94,3.34,5.97,6.95,9.61,8.18,14.17,4.79,28.7,1.71,40.57-7.06,32.99-24.4,40.88-55.44,63.83-87.05,4.67-6.43,12.17-9.55,18.47-14.54.85,2.9.42,4.43-.4,6.66-5.53,15.01-11.15,29.52-15.09,44.91-2.94,11.47-1.45,22.86,5.15,32.31,12.82,18.35,39.79-12.98,47.67-23.6,12.36-17.59,23.19-35.29,33.66-54.06l19.96-35.82c6.39,13.6,13.03,25.74,18.09,39.14,6.43,17.04-2.35,36.12-17.9,44.41-3.25,1.73-6.79-.38-8.06-3.01l-7.57-15.65c-.59-1.22-2.46-3.06-3.65-3.11s-3.94,1.31-4.6,2.53c-3.86,7.19-9.43,15.3-11.66,23.83-2.45,9.37,7.84,17.46,16.49,16.74,15.64-1.29,27.04-15.15,37.54-23.6,16.15-12.99,46.59-13.66,45.97-5-.41,5.67-4.49,11.46-9.1,15.01-7.76,5.98-15.27,13.14-24.72,17.03-22.1,9.1-45.05,17.56-68.95,21.99l-580.92,107.79c-17.24,18.12-61.2,36.25-80.01,14.67-7.08,2.76-16.55,1.77-22.65,6.11l-22.22,15.77c-33.65,23.87-73.73,3.82-83.08,5.53l-18.23,3.32c-.93.17-2.43,1.85-2.73,2.59s2.36,1.87,3.16,1.92l81.35,5.12c27.61,1.74,54.06,5.44,81.21,10.62,25.97,4.95,60.84,13.74,80.02,32.38l307.91-89.5,314.07-92.02c27.23-7.98,55.36-22.84,69.11-48.05,4.7-8.62,4.31-18.61-1.84-26.33-10.61-13.32-23.47-23.29-41.44-17.9l-14.6,4.38c-.07-2.47.4-5.24,1.79-7.4,12.32-19.12,17.19-45.2,3.56-65.13-9.95-14.55-6.65-25-6.69-41.44l-24.25,9.78c-2.08.84-4.96,3.91-5.58,6.36-4.53,18.04-11.34,34.22-20.03,50.62s-18.41,32.71-30.36,47.6c-3.34,4.16-16.98,20.68-21.97,12.21-4.39-7.45-4.02-15.18-1.9-23.35l19.89-76.69c.67-2.59.06-5.91-.56-8.32-2.95.84-7.6,1.91-8.72,3.75-4.58,7.57-8.21,14.51-12.01,22.22-4.85,9.84-12.25,17.58-22.84,22.03l2.91-30.72c.21-2.25-1.81-6.59-3.25-8.33-5.73-1.35-11.85.68-16.17,4.6-12.12,11.01-14.19,25.65-14.77,41.58-.26,7.16,2.93,12.44,8.33,17.09-1.86,6.58-5.09,12.19-8.88,17.78-8.55,12.62-16.63,24.86-26.05,36.84-5.62,7.15-13.53,12.58-22.66,12.6-10.37.02-17.04-8.03-20.7-16.93-2.62-6.37-1.74-12.01,4.65-15.53,15.45-8.52,29.75-19.08,40.01-33.57,6.61-9.33,11.09-19.31,10.31-30.81-.46-6.75-2.94-15.11-9.72-18.34-8.22-3.91-20.54-4.06-28.24,1.54-12.35,8.98-22.68,20.27-30.92,33.01-11.4,17.63-15.93,37.67-19.86,57.93-1.86,9.58-9,16.77-14.8,24.07-4.25,5.35-9.9,10.37-17.05,10.81-12.93.8-25.53.46-38.9.17l56.28-101.53c1.94-3.5,1.96-7.51,2.32-11.38-6.15.6-10.7,1.81-15.66,4.04-31.37,14.15-44.91.33-51.62,16.24-15.92,37.79-36.33,69.81-59.32,103.55-3.92,5.75-7.5,10.81-14.02,13.89-8.71,4.12-9.65-14.89-8.64-19.6l18.73-87.88c.28-1.32-.67-4.01-1.71-4.4-.87-.32-3.56-.26-4.51.59l-21.79,19.51c-.84.75-3.17,1.73-4.09,1.37s-2.54-1.7-3.06-2.56c-5.85-9.57-16.57-12.73-26.34-7.4-14.31,7.8-25.53,18.89-35,32.17-26.6,37.3-23.13,60.69-27.11,66.63-8.43,12.6-17.94,23.62-28.63,34.18-3.4,3.36-9.31,5.51-13.5,2.57s-8.6-8.64-8.83-14.06c-.49-11.59-1.28-24.13.12-35.59,7.63-16.47,16.19-31.92,25.14-47.67,7.61-13.4,13.8-26.49,17.51-41.59,3.31-13.49,6.33-26.7,8.22-40.53,1.32-9.67-.16-19.3-4.18-27.68-2.91-6.05-9.59-8.36-15.29-4.6-17.98,11.85-30.18,29.84-36.12,50.72l-13.23,46.48c-7.93,27.86-12.25,56.03-15.87,84.75-1.94,15.37-.96,39.69,9.04,52.1,8.18,10.15,21.37,11.45,32.08,4.16,12.84-8.73,33.73-30.28,43.37-43.78l5.36,15.69c4.33,12.7,17.74,18.52,29.7,12.72,5.51-2.67,10.74-6.49,14.58-11.43ZM211.58,294.42c-2.28,4.76-7.92,10.41-13.06,7.26-8.11-4.96-.73-21.93-11.39-24.1-2.95-.6-6.86,1.53-8.37,5.12-4.6,10.95-13.68,28.07,1.68,34.21,6.57,2.62,13.77,2.24,20.77.97,14.24-2.57,26.4-9.52,37.37-18.52,9.07-7.44,14.7-16.42,18.85-27.36,9.86-26.01,23.8-56.96,4.33-83.16-14.45-19.45-32.3-20.36-24.2-27.03,19.69-16.21,38.4-29.03,42.44-55.83,1.57-10.43,1.42-20.98-.86-31.15-4.89-21.77-22.43-35.79-44.05-38.02-27.77-2.86-54.15,1.73-78.85,14.74s-42.8,29.3-57.47,51.49c-16.61,25.12-28.46,60.53-15.17,89.16,2.43,5.23,9.46,9.03,14.77,6.08,8.94-4.97,16.27-11.31,23.98-18.19,1.44-1.28,2.46-5.16,1.73-6.7-2.76-5.84-21.31-6.76-18.26-29.71,1.96-14.73,4.88-28.81,14.13-40.86,19.19-25.02,48.26-50.4,81.64-49.58,15.44.38,30.2,8.84,35.13,23.59,7.74,23.18,4.55,47.9-6.25,69.46-3.95,7.88-10.4,12.49-18.11,16.31-11.13,21.63,10.95,7.56,14.47,33.1,4.31,31.23-1.62,70.21-15.26,98.72ZM57.26,286.78c-14.66,15.89-13.15,44.48,6.62,54.11,14.82,3.66,30.46,2.66,44.41-4.06,39.01-18.78,64.74-59.71,73.43-101.27,3.23-15.46,5.33-30.26,7.21-45.91l6.95-57.64c1.66-13.74,5.53-26.69,12.81-38.26,2.79-4.43,4.5-9.7.34-14.41-1.44-1.63-6.17-.94-7.98.65l-16.69,14.58c-21.69,18.95-29.05,43.61-33.32,71.47-3.04,19.8-5.7,39.05-7.74,59.05-1.32,12.98-3.12,24.85-6.88,37.15l-8.93,29.23c-4.66,15.26-19.32,36.26-36.6,32.78-5.16-1.04-8.74-6.88-8.53-12.26l1.17-29.05c.12-3.06-1.7-6.21-4.08-7.65-6.86-4.13-17.25,6.15-22.19,11.5ZM865.44,138.98c10.49-8.03,13.37-19.11,11.18-30.26l-10.85-22.94-18.51,31.84c5.61.91,9.05,3.35,11.28,7.76l6.89,13.61ZM699.67,160.58c11.88-13.27,24.92-34.04,34.39-48.99l-6.8-12.19c-11.06,24.79-29.89,39.37-53.11,52.65,1.12,5.53,3.67,10.98,8.45,13.41,5.56,2.83,12.56.16,17.07-4.89ZM523.15,243.1c-7.12-3.94-5.37-16.57-2.97-20.75l53.04-92.25c-9.92-2.36-14.45-3.35-20.01,6.49l-29.5,52.21c-9.35,16.55-33.49,50.75-48.71,63.16l48.15-8.86ZM891.7,152.94l-17.99,15.44c-7.14,4.77-14.22,9.35-22.62,10.49-13.94,1.89-26.07-5.46-29.7-20-12.8,17.06-42.61,50.52-63.18,25.99-8.04-10.72-10.58-23.96-7.91-37.18.93-4.58,2.16-8.41,2.11-13.83l-18.89,31.44c-9.52,15.84-22.11,28.88-36.81,39.94l-15.1,8.38,142.04-26.23c20.73-3.83,39.69-10.68,59.37-17.48,7.78-2.69,14.44-6.32,21.01-11.02,5.9-4.22,11.96-7.88,15.84-14.1-9.95.46-20.56,1.62-28.19,8.16ZM203.79,289.25c12.66-25.81,18.2-65.1,13.83-93.18-1.96-12.61-8.35-6.03-17.66-19.39l-7.73,53.37c-1.96,13.56-6.21,25.92-11,38.79,10.59-2.22,19.64,3.94,20.88,14.33.22,1.86.84,4,1.68,6.08ZM675.71,214.76c-11.7.26-21.51.55-30.92-4.7-5.46-4-9.02-8.85-13.36-15.41l-15.82,21.28c-3.33,4.47-7.46,7.49-11.82,12.09l71.92-13.26ZM680.09,213.86c-2.59-.25-2.74-.27-.43-.04,1.12.1,1.51.13.43.04ZM585.22,231.36c-12.27-1.83-22.99-2.23-35.28-2.29-2.72,2.96-4.93,6.5-6.67,10.24l41.95-7.94ZM449.33,256.71c-8.95-5.27-11.36-12.16-13.92-21.48-6.92,11.28-12.97,19.9-22.6,28.25l36.52-6.78ZM380.34,269.18c-9.07-5.73-13.87-10.86-17.91-19l-27.23,27.35c16.47-2.5,30.7-5.15,45.14-8.35ZM258.24,292.07l36.28-6.79c-11.75-6.69-16.9-16.36-20.7-29.82l-11.06,27.3-4.52,9.31ZM335.18,277.56c0-.28-.22-.5-.5-.5s-.5.22-.5.5.22.5.5.5.5-.22.5-.5ZM163.18,310.09l-1.32-7.17-6.23,8.1,7.55-.94Z"/>
    <path class="cls-2" d="M134.13,156.98l-10.16-5.83c.58-12.39,1.8-25.56,9.43-35.94,9.92-13.5,21.81-26.53,37.66-34.48-23.41,26.83-30.1,40.49-36.93,76.25Z"/>
    <path class="cls-2" d="M603.42,166.27c-2.69,3.61-6.7,5.12-10.3,3.54l28.65-51.53c-2.74,10.46-5,19.9-6.4,30.54-2.93,6.3-7.21,11.83-11.95,17.44Z"/>
    <path class="cls-2" d="M213.48,139.37c1.04-11.86,3-22.9,9.25-33.23-.47,11.68-3.59,22.97-9.25,33.23Z"/>
    <polygon class="cls-2" points="270.57 170.82 262.98 164.09 273.22 155.48 270.57 170.82"/>
    <circle class="cls-2" cx="817.2" cy="97.95" r=".5"/>
    <path class="cls-3" d="M415.73,247.79c-3.84,4.94-9.07,8.77-14.58,11.43-11.96,5.79-25.36-.03-29.7-12.72l-5.36-15.69c-9.64,13.5-30.54,35.05-43.37,43.78-10.71,7.28-23.9,5.99-32.08-4.16-10-12.41-10.98-36.73-9.04-52.1,3.62-28.72,7.94-56.89,15.87-84.75l13.23-46.48c5.94-20.88,18.14-38.87,36.12-50.72,5.7-3.75,12.39-1.45,15.29,4.6,4.02,8.38,5.5,18.01,4.18,27.68-1.89,13.83-4.9,27.04-8.22,40.53-3.71,15.09-9.89,28.18-17.51,41.59-8.95,15.75-17.5,31.2-25.14,47.67-1.4,11.46-.61,24-.12,35.59.23,5.42,4.85,11.27,8.83,14.06,4.19,2.94,10.1.79,13.5-2.57,10.68-10.56,20.19-21.59,28.63-34.18,3.98-5.94.51-29.33,27.11-66.63,9.47-13.28,20.69-24.37,35-32.17,9.77-5.33,20.49-2.17,26.34,7.4.52.86,2.14,2.2,3.06,2.56s3.25-.62,4.09-1.37l21.79-19.51c.95-.85,3.64-.91,4.51-.59,1.04.39,1.99,3.07,1.71,4.4l-18.73,87.88c-1,4.71-.07,23.72,8.64,19.6,6.52-3.08,10.1-8.14,14.02-13.89,22.99-33.74,43.39-65.75,59.32-103.55,6.7-15.91,20.24-2.1,51.62-16.24,4.95-2.23,9.51-3.44,15.66-4.04-.36,3.87-.38,7.88-2.32,11.38l-56.28,101.53c13.37.29,25.97.63,38.9-.17,7.15-.44,12.8-5.46,17.05-10.81,5.8-7.3,12.94-14.49,14.8-24.07,3.93-20.26,8.46-40.3,19.86-57.93,8.23-12.73,18.57-24.02,30.92-33.01,7.7-5.6,20.02-5.45,28.24-1.54,6.78,3.23,9.26,11.59,9.72,18.34.78,11.5-3.7,21.48-10.31,30.81-10.26,14.49-24.55,25.05-40.01,33.57-6.38,3.52-7.26,9.16-4.65,15.53,3.66,8.9,10.33,16.95,20.7,16.93,9.13-.02,17.04-5.45,22.66-12.6,9.42-11.99,17.5-24.23,26.05-36.84,3.79-5.59,7.02-11.2,8.88-17.78-5.4-4.65-8.59-9.93-8.33-17.09.58-15.94,2.65-30.57,14.77-41.58,4.32-3.92,10.45-5.95,16.17-4.6,1.44,1.74,3.47,6.08,3.25,8.33l-2.91,30.72c10.59-4.44,17.99-12.19,22.84-22.03,3.8-7.71,7.43-14.65,12.01-22.22,1.12-1.85,5.77-2.91,8.72-3.75.61,2.41,1.23,5.73.56,8.32l-19.89,76.69c-2.12,8.16-2.49,15.9,1.9,23.35,4.99,8.47,18.63-8.05,21.97-12.21,11.95-14.89,21.39-30.66,30.36-47.6s15.5-32.58,20.03-50.62c.62-2.46,3.49-5.52,5.58-6.36l24.25-9.78c.04,16.44-3.26,26.89,6.69,41.44,13.62,19.92,8.76,46.01-3.56,65.13-1.39,2.16-1.85,4.94-1.79,7.4l14.6-4.38c17.97-5.39,30.83,4.58,41.44,17.9,6.15,7.72,6.54,17.72,1.84,26.33-13.74,25.21-41.88,40.07-69.11,48.05l-314.07,92.02-307.91,89.5c-19.18-18.64-54.04-27.43-80.02-32.38-27.15-5.18-53.6-8.88-81.21-10.62l-81.35-5.12c-.81-.05-3.47-1.19-3.16-1.92s1.81-2.42,2.73-2.59l18.23-3.32c9.36-1.7,49.43,18.35,83.08-5.53l22.22-15.77c6.11-4.33,15.57-3.35,22.65-6.11,18.81,21.58,62.77,3.45,80.01-14.67l580.92-107.79c23.91-4.44,46.85-12.9,68.95-21.99,9.45-3.89,16.96-11.05,24.72-17.03,4.61-3.55,8.7-9.34,9.1-15.01.62-8.66-29.82-8-45.97,5-10.5,8.45-21.9,22.31-37.54,23.6-8.65.71-18.95-7.38-16.49-16.74,2.23-8.52,7.8-16.64,11.66-23.83.66-1.22,3.41-2.58,4.6-2.53s3.06,1.89,3.65,3.11l7.57,15.65c1.27,2.62,4.81,4.74,8.06,3.01,15.55-8.29,24.34-27.37,17.9-44.41-5.06-13.39-11.7-25.54-18.09-39.14l-19.96,35.82c-10.46,18.78-21.3,36.48-33.66,54.06-7.88,10.62-34.85,41.95-47.67,23.6-6.6-9.45-8.09-20.84-5.15-32.31,3.94-15.4,9.56-29.91,15.09-44.91.82-2.23,1.25-3.76.4-6.66-6.3,4.98-13.8,8.11-18.47,14.54-22.95,31.61-30.83,62.65-63.83,87.05-11.87,8.77-26.4,11.86-40.57,7.06-3.64-1.23-7.67-4.84-9.61-8.18l-10.59-18.27c-8.66,12.44-16.85,24.12-25.75,35.55-5.33,6.85-13.25,9.42-21.61,8.98l-30.98-1.65c-17.68-.94-13.08,18.12-26.37,13.77-.58-2.66.21-6.36,1.82-9.15l56.48-98.14c1.95-3.39,3.41-6.87,3.78-10.04-6.96.6-12.73,4.77-18.61,3.68-10.61-1.97-19.47.63-25.02,10.63-23.06,41.59-37.15,69.66-68.75,106.72-3.95,4.63-10.09,8.11-15.56,10.4-7.2,3.01-14.25-1.61-15.65-8.81l-5.76-29.7c-8.53,14.13-15.31,26.5-24.61,38.45ZM341.51,127.36l5.86-16.61c5.61-15.89,13.14-42.69,5.82-58.58-4.7,2.02-8.39,5.49-9.84,10.49-6.77,23.38-12.06,46.55-17.26,70.42-2.59,11.87-6.18,23.26-4.44,36.01,7.92-14.34,14.72-27.17,19.86-41.73ZM686.74,117.5c7.69-10.08,10.46-21.5,9.82-34.13-.19-3.73-.59-9.3-5.11-10.12-6.37-1.15-11.71,3.67-15.07,8.89-9.39,14.57-13.38,31.64-13.39,49.13,0,.94.92,2.44,1.57,2.92,4.04,2.99,18.91-12.42,22.17-16.69ZM413.61,226.19c7.55-3.23,12.61-9.16,15.63-16.05l10-22.79c7.68-17.51,10.29-36.43,8.15-55.42-.36-3.18-3.09-6.36-5.18-7.44-7.93-4.08-17.21,5.06-19.37,9.43l-8.32,16.8c-10.17,20.53-16.59,43.33-14.38,66.14.67,6.91,7.28,11.97,13.48,9.33ZM643.06,260.04c4.28-3.13,3.64-14.39,2.4-15.75-5.35-5.88-14.25.05-23.21,1.3l-.86,38.9c6.48-1.4,12.68-2.43,18.04-4.68,7.91-3.31,8.35-17.25,3.62-19.78ZM590.99,253.45c-.28,11.82-1.19,22.56-.36,33.2,2.85,7.94,22.74,1.09,23.31-6.02.89-11.11.8-21.61,1.03-33.06l-7.32,1.61-.76,32.77-9.26,1.98.6-32.26c-2.37.26-5.06.86-7.24,1.78ZM582.88,288.05l-15.55,3.33.68-32.28c-2.76.07-5.38.56-7.36,1.87l-.87,38.3,23.03-5.4c1.48-.35,1.53-6.13.08-5.82ZM545.9,291.34l-1.23,5.55-8.57,1.92.6-26.69,8.86-2.17.76,4.75,6.63-1.51c.89-3.43.64-6.53-1.56-7.86-6.92-4.16-20.87,1.97-21.61,8.04-1.08,8.9-1.29,18.76-.71,27.68.36,5.53,14.21,4.67,20.63-1.28,3.05-2.83,4.05-6.52,2.81-10.58-1.72-.11-6.23.41-6.61,2.13ZM487.76,316.34l6.95-1.51c1.33-6.74-1.03-14.03,1.26-19.93l8.01-20.65c-1.97.01-6.77.56-7.55,2.17l-4.47,9.25-4.27-7.88-7.34,1.99c9.51,22.92,7.57,10.99,7.4,36.56ZM456.98,307.42l9.42-2.21.03-5.81-9.32,1.78.39-10.15,16.46-4.05-.22-5.96-23.69,5.76-.85,38.98,23.31-5.49c.51-1.77.73-4.1.7-6.15l-16.3,3.69.08-10.39ZM425.51,331.34l1.1-17.49,8.02,15.12,7.83-1.63-10.27-21.49,10.9-17c-2.92.12-7.33.61-8.51,2.26l-7.33,10.26-1-8.9-6.84,1.67-1.08,38.82,7.17-1.61ZM403.63,329.95c-1.86,1.47-4.96,1.91-8.69,2.37l.25-26.34,9.17-2.27.58,4.74,6.65-1.6c1.3-3.5.49-6.83-2.32-8.33-5.17-2.75-19.96,1.68-20.86,8.68-1.14,8.9-1.3,18.61-.62,27.63.43,5.67,13.71,4.49,20.16-.93,3.51-2.95,5.01-7.59,2.85-11.17l-5.93,1.5c-1.19.3-.28,4.95-1.25,5.72ZM380.02,335.87c.81-8.77,1.17-18.05.68-26.8-.41-7.36-22.96-3.66-23.65,6.73-.57,8.49-.78,17.54-.48,26.07.28,8.04,22.57,3.48,23.45-5.99ZM332.18,353.67l.6-16.13c2.68-1.09,6.37-1.86,9.1-2.02l-.17,15.53c2.34-.06,5.48-.69,7.37-2.16l.76-37.92c-2.71.41-5.38,1.06-7.22,1.87l-.56,15.99-9.13,2.27.12-16.05c-1.85.19-4.73.78-7.36,1.52l-.73,38.75,7.21-1.67Z"/>
    <path class="cls-3" d="M211.58,294.42c13.64-28.51,19.57-67.49,15.26-98.72-3.52-25.54-25.61-11.47-14.47-33.1,7.71-3.82,14.16-8.43,18.11-16.31,10.8-21.56,13.99-46.29,6.25-69.46-4.93-14.75-19.69-23.21-35.13-23.59-33.38-.82-62.45,24.56-81.64,49.58-9.25,12.05-12.17,26.13-14.13,40.86-3.06,22.95,15.5,23.86,18.26,29.71.73,1.55-.3,5.42-1.73,6.7-7.7,6.88-15.03,13.22-23.98,18.19-5.31,2.95-12.34-.84-14.77-6.08-13.29-28.63-1.44-64.04,15.17-89.16,14.67-22.19,33.99-39.11,57.47-51.49,24.69-13.01,51.08-17.6,78.85-14.74,21.62,2.23,39.16,16.25,44.05,38.02,2.28,10.16,2.43,20.72.86,31.15-4.03,26.8-22.74,39.62-42.44,55.83-8.1,6.67,9.75,7.58,24.2,27.03,19.46,26.2,5.53,57.15-4.33,83.16-4.15,10.94-9.79,19.92-18.85,27.36-10.97,9-23.13,15.95-37.37,18.52-7.01,1.26-14.21,1.65-20.77-.97-15.36-6.14-6.28-23.27-1.68-34.21,1.51-3.59,5.42-5.71,8.37-5.12,10.66,2.16,3.28,19.13,11.39,24.1,5.14,3.15,10.78-2.5,13.06-7.26Z"/>
    <path class="cls-3" d="M57.26,286.78c4.93-5.35,15.33-15.63,22.19-11.5,2.38,1.43,4.2,4.59,4.08,7.65l-1.17,29.05c-.22,5.38,3.36,11.22,8.53,12.26,17.29,3.48,31.94-17.53,36.6-32.78l8.93-29.23c3.76-12.31,5.56-24.18,6.88-37.15,2.04-20.01,4.7-39.25,7.74-59.05,4.27-27.85,11.62-52.52,33.32-71.47l16.69-14.58c1.82-1.59,6.54-2.28,7.98-.65,4.16,4.72,2.45,9.99-.34,14.41-7.28,11.56-11.15,24.52-12.81,38.26l-6.95,57.64c-1.89,15.65-3.98,30.45-7.21,45.91-8.69,41.56-34.42,82.49-73.43,101.27-13.95,6.72-29.59,7.72-44.41,4.06-19.78-9.63-21.29-38.22-6.62-54.11Z"/>
    <path class="cls-1" d="M891.7,152.94c7.62-6.54,18.23-7.69,28.19-8.16-3.88,6.22-9.94,9.87-15.84,14.1-6.58,4.71-13.24,8.33-21.01,11.02-19.68,6.8-38.64,13.65-59.37,17.48l-142.04,26.23,15.1-8.38c14.7-11.06,27.29-24.1,36.81-39.94l18.89-31.44c.05,5.42-1.19,9.25-2.11,13.83-2.67,13.22-.14,26.46,7.91,37.18,20.57,24.53,50.37-8.93,63.18-25.99,3.62,14.54,15.75,21.9,29.7,20,8.39-1.14,15.48-5.72,22.62-10.49l17.99-15.44ZM751.82,191.77c-4.63-6.88-8.05-13.69-10.49-21.63-6.7,9.97-13.32,17.92-21.35,27.3l31.84-5.67Z"/>
    <path class="cls-1" d="M523.15,243.1l-48.15,8.86c15.23-12.41,39.36-46.61,48.71-63.16l29.5-52.21c5.56-9.84,10.09-8.85,20.01-6.49l-53.04,92.25c-2.41,4.18-4.16,16.81,2.97,20.75ZM509.59,236.6l-.47-9.83-8.46,11.18,8.94-1.35Z"/>
    <path class="cls-1" d="M203.79,289.25c-.83-2.08-1.46-4.22-1.68-6.08-1.24-10.39-10.29-16.56-20.88-14.33,4.79-12.87,9.03-25.23,11-38.79l7.73-53.37c9.3,13.35,15.69,6.78,17.66,19.39,4.38,28.09-1.17,67.37-13.83,93.18ZM203.13,265.24c5.62-17.21,10.46-56.25,3.9-71.41l-5.1,32.75c-1.84,11.81-4.84,22.59-8.01,34.1l9.21,4.57Z"/>
    <path class="cls-1" d="M699.67,160.58c-4.52,5.05-11.51,7.71-17.07,4.89-4.78-2.43-7.33-7.88-8.45-13.41,23.22-13.29,42.05-27.87,53.11-52.65l6.8,12.19c-9.48,14.96-22.51,35.72-34.39,48.99ZM698.83,147.32l-13.54,8.56c3.5,5.77,11.7-5.32,13.54-8.56Z"/>
    <path class="cls-1" d="M865.44,138.98l-6.89-13.61c-2.23-4.41-5.67-6.85-11.28-7.76l18.51-31.84,10.85,22.94c2.19,11.15-.69,22.24-11.18,30.26ZM867.19,121.43c2.49-6.77.94-11.18-2.33-15.98l-4.58,7.63,6.91,8.34Z"/>
    <path class="cls-1" d="M675.71,214.76l-71.92,13.26c4.36-4.6,8.5-7.62,11.82-12.09l15.82-21.28c4.33,6.56,7.9,11.42,13.36,15.41,9.42,5.26,19.22,4.96,30.92,4.7Z"/>
    <path class="cls-1" d="M258.24,292.07l4.52-9.31,11.06-27.3c3.8,13.46,8.95,23.13,20.7,29.82l-36.28,6.79Z"/>
    <path class="cls-1" d="M380.34,269.18c-14.44,3.2-28.67,5.85-45.14,8.35l27.23-27.35c4.04,8.15,8.84,13.27,17.91,19Z"/>
    <path class="cls-1" d="M449.33,256.71l-36.52,6.78c9.63-8.35,15.69-16.97,22.6-28.25,2.56,9.32,4.97,16.2,13.92,21.48Z"/>
    <path class="cls-1" d="M585.22,231.36l-41.95,7.94c1.74-3.73,3.94-7.28,6.67-10.24,12.29.06,23.01.46,35.28,2.29Z"/>
    <polygon class="cls-1" points="163.18 310.09 155.63 311.02 161.87 302.92 163.18 310.09"/>
    <path class="cls-1" d="M680.09,213.86c1.08.09.69.06-.43-.04-2.31-.23-2.16-.21.43.04Z"/>
    <path class="cls-1" d="M296.95,70.17c9.25-21.05,22.07-37.54,40.61-49.12,13.83-8.64,31.07-4.17,39.6,9.64,7.02,12.78,9.18,27.2,6.93,41.87-2.45,15.97-5.67,31.21-10.03,46.69-3.61,12.81-8.99,24.24-15.25,35.87l-25.59,47.53c-.48,6.67-.46,13.52-.04,21.09,6.53-6.75,11.92-13.32,17.04-20.61,3.08-24.44,12.69-46.09,26.55-66.24,11.17-16.25,24.32-29.63,41.51-39.37,13.14-7.45,28.6-7.18,41.25,1.23,4.91-4.3,9.08-8.14,13.97-11.72,7.61-5.57,18.66-5.77,26.12-.12s9.76,15.17,7.69,24.04c-3.98,17.1-7.98,33.54-10.87,51.03,15.46-23.31,28.51-46.26,38.84-71.19,5.41-13.05,15.88-22.13,30.8-21.87,25.24.44,27.26-7.34,49.88-11.46,7.22-1.32,13.88.71,18.24,5.49,4.96,5.44,5.48,12.24,3.86,19.93,9.81-12.29,19.5-23.61,31.65-33.37,15.32-12.31,43.42-13.45,57.87.3,4.93-6.72,9.64-12.75,16.43-17.11,10.92-7,29.96-9.97,39.88,3.51,3.39-9.07,10.27-13.1,18.35-16.33,10.47-4.18,22.59-.87,26.43,10.59,2.48,7.42,1.47,15.21-.38,22.71l-10.81,43.91c7.32-9.61,11.95-19.31,17.03-29.53,6.13-12.32,10.56-24.83,14.18-38.05,2.39-8.74,8.63-15.42,16.94-18.61,7.6-2.91,14.54-5.78,22.01-9.15,9.9-4.47,22.67-.26,25.56,11.05,1.56,6.13.99,13.5.25,19.68-1.01,8.5,2.56,14.55,6.78,21.31,10,16.01,10.71,35.16,5.8,54.26,10.91,2.1,20.67,5.74,28.74,13.17,5.05,4.65,9.99,9.35,13.99,14.91,18.21,25.32,1.58,52.08-18.46,69.91-16.08,14.31-35.06,23.85-55.97,30.02l-147.99,43.66-193.2,56.39-284.62,82.68c-7.92,2.3-14.01-.93-19.27-6.04-6.52-6.34-14.77-10.43-23.32-13.77-29.41-11.51-84.92-19.89-116.64-21.94l-88.39-5.73c-12.19-.79-21.64-9.73-20.85-21.45,1.03-15.18,17.57-19.77,31.68-21.18-4.57-17.1-2.6-34.86,8.25-48.98,6.28-8.16,13.84-15.12,22.83-20.28,7.53-4.32,16.47-4.15,24.71-.08,18.08,8.93,13.31,26.09,13.83,42.1,5.51-5.31,7.87-11.73,9.91-18.64l10.21-34.69c2.74-9.31,3.04-19.16,4.11-28.79l2.16-19.45-16.14,11.55c-14.28,10.22-34.36,6.34-43.16-9.43-16.07-28.81-7.69-67.8,7.47-95.87s39.24-52.35,68.28-68.49,59.98-21.9,92.47-18.67c29.33,2.92,52.41,21.83,60.29,51.2ZM237.14,28.03c-32.24-3.71-62.59,2.51-90.23,18.28-22.45,12.81-40.94,29.59-55.37,51.12-11.09,16.55-18.89,34.22-21.74,54.15-2.23,15.66-1.05,32,6.37,45.86,6.12,11.44,20.28,13.81,30.25,6.83,7.81-5.47,14.82-10.88,21.75-17.21,4.2-3.83,6.06-9.03,5.02-14.85-2.38-13.35-19.96-9.18-18.3-24.97,2.08-19.8,4.53-30.83,18.08-46.17,17.51-19.85,41.15-39.93,69.34-38.81,11.18.44,22.01,6.65,25.65,17.33,6.66,19.54,4.27,39.98-3.73,58.61-7.97,18.57-15.33,10.3-22.86,24.12l4.26-33.5c1.63-12.8,6.62-23.87,13.18-34.71,2.81-4.64,2.12-11.38.12-16.24-3.3-7.98-13.54-11.7-21.12-6.3-9.22,6.56-17.82,14.14-25.87,22.43-12.87,13.27-20.79,29.62-25.26,47.58-4.67,18.79-7.16,37.29-9.41,56.58l-3.97,33.95c-1.32,11.31-3.97,21.78-7.24,32.61l-6.68,22.14c-7.96,26.38-28.83,35.72-28.05,23.19.64-10.32,1.32-19.95,1.06-30.04-.18-6.96-6.07-11.79-10.79-13.63-7.06-2.76-13.05-.76-18.61,3.37-23.13,17.16-31.74,38.56-18.52,65.99l-20.16,3.11c-4.37.67-9.11,2.55-12.42,5.38-3.12,2.68-3.59,7.5-2.12,10.92,1.1,2.57,4.78,6.66,8.6,6.9l82.1,5.3c37.67,2.43,96.04,10.43,130.8,24.22,9.03,3.58,17.49,8.17,24.27,14.84,3.29,3.23,6.3,5.11,11.46,3.61l339.31-98.64,281.6-82.58c29.92-8.77,61.76-25.65,75.99-54.05,6.11-12.2,4.25-25.96-4.5-36.27-12.47-14.72-25.21-23.64-46.06-20.72,8.67-22.93,9.98-43.51-3.33-63.67-9.18-13.89-3.7-23.22-5.17-37.96-.53-5.33-6.87-8.75-11.9-6.77-6.8,2.68-13.6,6.01-20.38,8.18-9.42,3.01-14.33,9.11-16.64,18.55-4.9,20-14.13,38.15-24.32,56.03-8.94,15.69-18.05,30.36-31.36,43.57-1.21-4.38-.48-8.57.68-13.04l19.94-77.07c.98-3.8.72-14.63-5.13-17.63-5.43-2.78-18.13.99-23.48,11.05l-12.79,24.05c.41-8.31.05-25.04-10.95-27.01-20.44-3.66-34.74,16.57-39.15,33.57-3.51-7.18-6.7-14.35-13.95-17.48-11.96-5.16-27.14-4.61-38.02,2.97-10.07,7.03-17.69,16.07-25.65,25.21-8.91,10.23-14.21,22.32-19.05,34.89-11.47,29.75-1.98,41.19-29.83,62.6-7.8,3.15-17.3,1.13-25.2,1.09l49.46-89.98c2.07-3.77,2.06-9.19,2.6-13.4.63-4.94-3.3-9.33-8.24-9.4-18.68-.25-24.85,12.38-55.6,11.69-8.57-.19-16.73,4.48-20.28,12.56-18.45,42.04-38.62,74.02-64.82,111.28-.69-2.46-1.1-4.78-.74-6.44l18.93-88.72c1.11-5.18-2.12-10.74-5.55-12.96-11.84-7.67-23.6,9.13-33.85,17.42-9.79-11.07-24.27-12.89-36.93-5.7-15.09,8.58-26.78,20.58-36.98,34.61-14.59,20.06-23.45,42-27.11,66.56-7.76,12.36-18.22,23.25-28.55,34.07-5.31-2.6-6.25-7.95-6.19-13.39.1-8.71-.09-18.13.58-26.76l27.15-50.56c6.28-11.69,11.36-23.24,14.79-36.16,3.79-14.29,6.91-28.31,8.94-42.96,1.6-11.53.17-23.2-4.72-33.29-5.57-11.5-18.5-15.35-29.06-8.32-19.36,12.88-32.74,31.96-39.23,54.5l-13.13,45.67c-6.06,21.08-9.31,41.97-13.59,64.2-6.58-11.77-15.28-21.31-26.87-28.93l20.55-17.97c19.6-19.07,24.97-49.39,18.63-74.66-6.15-24.5-25.55-40.93-50.7-43.83ZM134.13,156.98c6.83-35.76,13.52-49.43,36.93-76.25-15.85,7.95-27.74,20.98-37.66,34.48-7.63,10.38-8.86,23.55-9.43,35.94l10.16,5.83ZM817.7,97.95c0-.28-.22-.5-.5-.5s-.5.22-.5.5.22.5.5.5.5-.22.5-.5ZM213.48,139.37c5.67-10.27,8.79-21.55,9.25-33.23-6.25,10.33-8.21,21.37-9.25,33.23ZM603.42,166.27c4.74-5.61,9.02-11.14,11.95-17.44,1.4-10.64,3.66-20.08,6.4-30.54l-28.65,51.53c3.6,1.58,7.61.07,10.3-3.54ZM270.57,170.82l2.65-15.34-10.24,8.61,7.59,6.73Z"/>
    <circle class="cls-1" cx="334.68" cy="277.56" r=".5"/>
    <path class="cls-2" d="M413.61,226.19c-6.2,2.65-12.81-2.42-13.48-9.33-2.21-22.81,4.21-45.6,14.38-66.14l8.32-16.8c2.16-4.37,11.44-13.51,19.37-9.43,2.1,1.08,4.83,4.26,5.18,7.44,2.14,18.99-.47,37.9-8.15,55.42l-10,22.79c-3.02,6.89-8.07,12.82-15.63,16.05ZM429.11,187.97c7.58-17.59,11.76-36.14,8.96-55.64-4.37,1.75-7.3,5.5-9.21,9.55l-6.22,13.14c-9.17,19.39-15.23,40.04-13.34,62.32,8.12,1.53,16.74-22.28,19.8-29.37Z"/>
    <path class="cls-2" d="M341.51,127.36c-5.14,14.55-11.93,27.39-19.86,41.73-1.75-12.75,1.85-24.14,4.44-36.01,5.21-23.87,10.49-47.03,17.26-70.42,1.45-4.99,5.15-8.47,9.84-10.49,7.32,15.89-.21,42.69-5.82,58.58l-5.86,16.61Z"/>
    <path class="cls-2" d="M686.74,117.5c-3.26,4.27-18.13,19.68-22.17,16.69-.65-.48-1.58-1.98-1.57-2.92,0-17.48,4-34.56,13.39-49.13,3.36-5.22,8.7-10.04,15.07-8.89,4.52.82,4.92,6.39,5.11,10.12.64,12.62-2.12,24.05-9.82,34.13ZM673.07,118.61c10.45-8.66,15.83-21.7,13.96-35.25-8.65,10.27-12.18,22.3-13.96,35.25Z"/>
    <path class="cls-2" d="M643.06,260.04c4.72,2.53,4.29,16.47-3.62,19.78-5.36,2.24-11.56,3.28-18.04,4.68l.86-38.9c8.95-1.26,17.86-7.18,23.21-1.3,1.24,1.36,1.88,12.62-2.4,15.75ZM638.6,258.13l.05-10.41-9.17,2.26-.08,10.24,9.2-2.09ZM638.43,274.43l-.09-10.12-9.16,2.03-.24,10.54,9.48-2.45Z"/>
    <path class="cls-2" d="M332.18,353.67l-7.21,1.67.73-38.75c2.63-.75,5.51-1.33,7.36-1.52l-.12,16.05,9.13-2.27.56-15.99c1.84-.82,4.51-1.46,7.22-1.87l-.76,37.92c-1.89,1.47-5.02,2.1-7.37,2.16l.17-15.53c-2.73.16-6.42.92-9.1,2.02l-.6,16.13Z"/>
    <path class="cls-2" d="M380.02,335.87c-.88,9.48-23.17,14.03-23.45,5.99-.3-8.53-.09-17.58.48-26.07.69-10.38,23.24-14.08,23.65-6.73.48,8.76.13,18.03-.68,26.8ZM363.63,340l9.33-2.06.63-26.77-9.32,2.12-.64,26.71Z"/>
    <path class="cls-2" d="M590.99,253.45c2.18-.92,4.86-1.51,7.24-1.78l-.6,32.26,9.26-1.98.76-32.77,7.32-1.61c-.23,11.45-.14,21.95-1.03,33.06-.57,7.11-20.47,13.96-23.31,6.02-.83-10.64.08-21.39.36-33.2Z"/>
    <path class="cls-2" d="M425.51,331.34l-7.17,1.61,1.08-38.82,6.84-1.67,1,8.9,7.33-10.26c1.18-1.65,5.59-2.14,8.51-2.26l-10.9,17,10.27,21.49-7.83,1.63-8.02-15.12-1.1,17.49Z"/>
    <path class="cls-2" d="M456.98,307.42l-.08,10.39,16.3-3.69c.03,2.05-.19,4.38-.7,6.15l-23.31,5.49.85-38.98,23.69-5.76.22,5.96-16.46,4.05-.39,10.15,9.32-1.78-.03,5.81-9.42,2.21Z"/>
    <path class="cls-2" d="M403.63,329.95c.96-.77.06-5.42,1.25-5.72l5.93-1.5c2.16,3.58.67,8.22-2.85,11.17-6.45,5.42-19.73,6.6-20.16.93-.68-9.02-.52-18.73.62-27.63.9-7,15.68-11.44,20.86-8.68,2.81,1.5,3.62,4.83,2.32,8.33l-6.65,1.6-.58-4.74-9.17,2.27-.25,26.34c3.73-.47,6.83-.91,8.69-2.37Z"/>
    <path class="cls-2" d="M545.9,291.34c.38-1.73,4.88-2.24,6.61-2.13,1.24,4.06.24,7.75-2.81,10.58-6.41,5.94-20.27,6.81-20.63,1.28-.58-8.92-.37-18.78.71-27.68.74-6.06,14.69-12.2,21.61-8.04,2.2,1.32,2.45,4.42,1.56,7.86l-6.63,1.51-.76-4.75-8.86,2.17-.6,26.69,8.57-1.92,1.23-5.55Z"/>
    <path class="cls-2" d="M487.76,316.34c.17-25.57,2.11-13.63-7.4-36.56l7.34-1.99,4.27,7.88,4.47-9.25c.78-1.61,5.57-2.16,7.55-2.17l-8.01,20.65c-2.29,5.9.07,13.19-1.26,19.93l-6.95,1.51Z"/>
    <path class="cls-2" d="M582.88,288.05c1.45-.31,1.4,5.48-.08,5.82l-23.03,5.4.87-38.3c1.99-1.31,4.6-1.8,7.36-1.87l-.68,32.28,15.55-3.33Z"/>
    <path class="cls-2" d="M751.82,191.77l-31.84,5.67c8.03-9.38,14.65-17.33,21.35-27.3,2.45,7.93,5.86,14.75,10.49,21.63Z"/>
    <polygon class="cls-2" points="509.59 236.6 500.66 237.95 509.12 226.77 509.59 236.6"/>
    <path class="cls-2" d="M203.13,265.24l-9.21-4.57c3.17-11.5,6.17-22.29,8.01-34.1l5.1-32.75c6.56,15.16,1.72,54.2-3.9,71.41Z"/>
    <path class="cls-2" d="M698.83,147.32c-1.84,3.23-10.04,14.32-13.54,8.56l13.54-8.56Z"/>
    <path class="cls-2" d="M867.19,121.43l-6.91-8.34,4.58-7.63c3.27,4.8,4.82,9.21,2.33,15.98Z"/>
    <path class="cls-1" d="M429.11,187.97c-3.06,7.09-11.68,30.9-19.8,29.37-1.9-22.28,4.17-42.93,13.34-62.32l6.22-13.14c1.91-4.05,4.85-7.79,9.21-9.55,2.79,19.5-1.38,38.05-8.96,55.64Z"/>
    <path class="cls-1" d="M673.07,118.61c1.78-12.94,5.31-24.98,13.96-35.25,1.87,13.55-3.51,26.59-13.96,35.25Z"/>
    <polygon class="cls-3" points="638.43 274.43 628.95 276.88 629.19 266.34 638.34 264.31 638.43 274.43"/>
    <polygon class="cls-3" points="638.6 258.13 629.4 260.22 629.48 249.98 638.66 247.71 638.6 258.13"/>
    <polygon class="cls-3" points="363.63 340 364.27 313.3 373.59 311.17 372.96 337.94 363.63 340"/>
  </g>
</svg>