<?xml version="1.0" encoding="UTF-8"?>
<svg id="Layer_2" data-name="Layer 2" xmlns="http://www.w3.org/2000/svg" viewBox="0 0 500 514.62">
  <defs>
    <style>
      .cls-1 {
        fill: #dec89d;
      }

      .cls-2 {
        fill: #fefefe;
      }

      .cls-3 {
        fill: #2c2b2b;
      }

      .cls-4 {
        fill: #553039;
      }
    </style>
  </defs>
  <g id="Layer_1-2" data-name="Layer 1">
    <path class="cls-3" d="M367.59,356.07c-56.35,21.42-122.31,25.21-181.32,14.2-44.85-8.37-95.15-28.21-125.97-62.94-7.68-8.65-13.85-18.02-18.38-28.63-8.69-20.4-8.67-42.89.03-63.29,15.5-36.38,53.08-61.01,88.74-75.46,2.64-6.83,5.55-13.32,9.54-19.55,3.23-5.04,6.79-9.52,11.26-13.49,5.3-4.72,11.28-7.96,18.25-9.7,12.8-12.15,28.32-20.3,45.64-24.36s34.66-4.98,52.17-3.3c22.09,2.12,40.43,10.77,56.64,25.87,6.43.93,12.05,3.77,16.54,8.54,3.48,3.62,6.01,7.74,8.2,12.28,2.7,5.59,4.45,11.28,6.1,17.4,40.78,13.31,86.19,38.89,104.94,79.17,10.02,21.51,10.24,45.63.57,67.29-16.61,37.18-56.06,61.95-92.93,75.97ZM300.78,333.3c21.92-2.91,51.62-9.77,71.13-21.15-11.87-.2-22.79-.92-33.6-4.68-6.69-2.33-13.02-5.14-18.39-10.05,9.47.84,18.04,1.78,27.24,1.59,22.55-.37,49.31-4.66,69.14-17.03-20.95-4.04-52.12-12.17-65.68-29.03-4.01-4.99-5.7-10.63-5.57-17.03l.84-41.33c.39-19.21-.74-46.21-6.55-64.35-1.57-4.9-3.64-9.39-6.61-13.46-9.48-12.96-27.46-7.93-38.82.49,2.87-7.87,8.16-13.93,15.52-17.7-11.22-8.99-26.8-13.52-40.79-15.51-25.98-3.24-57.37.89-80.7,14.21,6.29,2.04,11.05,5.75,13.86,11.77-5.51-1.91-11.13-2.49-17.09-1.75-8.29,1.16-15.94,4.18-22.71,9.09-7.48,6.05-12.24,14.47-14.19,24.02,5.55-1.1,12.93-3.25,18.8-1.95-10.88,17.36-11.14,53.27-10.36,73.4l.96,24.82c.47,12.13-7.15,20.23-16.62,26.39-5.86,3.72-11.92,6.49-18.5,8.9-11.39,4.3-22.75,6.67-35.1,9.04l71.72,16.7c7.94,1.85,16.13-1.54,24.4-1.11-14.29,11.71-33.76,14.6-52.26,14.51,8.01,4.63,16.03,7.78,24.59,10.61,44.43,14.72,99.21,16.71,145.33,10.58ZM359.31,161.01c.88,15.2,1.37,30.28.47,45.74l-1.34,23.09c-.34,5.93,1.78,10.88,5.82,15.11,14.96,15.66,51.56,23.85,72.21,28.37-3.5,6.81-7.1,13.35-12.64,19.3-7.6,8.16-15.87,15.21-25.33,21.32-11.55,7.45-23.52,13.4-36.42,18.35-52.29,20.08-114.44,23.69-169.36,14.16-40.18-6.97-86.98-23.71-114.46-54.97-5.99-6.81-10.4-14.22-13.71-22.33,22.83.21,80.59-2.93,78.39-37.13l-1.82-28.32c-.92-14.37-1.59-28.63,1.83-42.3l2.05-8.21c-33.13,11.81-70.65,33.44-85.76,66.59-7.9,17.35-8.02,36.58-.27,54.01,14.86,33.4,52.3,55.05,85.38,66.96,51.16,18.43,110.81,21.84,164.22,12.95,41.46-6.9,89.95-24.07,119.04-55.49,6.98-7.54,12.59-15.7,16.66-25.09,7.33-16.93,7.26-35.56-.16-52.46-14.7-33.5-52.62-55.51-85.66-67.3.02,3.02.7,5.26.83,7.62Z"/>
    <path class="cls-1" d="M444.81,171.01l-22.41-18.96-19.89-72.86c-.86-.73-1.93-.58-2.86.13l-1.57,59.22-15.41-6.75,2.34-104.09,20.88,10.7,20.72,74.04c.98.53,2,.44,2.81-.19l1.97-57.55,14.79,7.87-1.37,108.44Z"/>
    <path class="cls-1" d="M107.34,441.02l15.59,38.81-19.82-11.87-14.92-37.48c-1.74-1.23-3.21-2.24-5.26-3.39l-2.74,24.51-18.83-15.49,9.35-85.43c11.32,4.95,22.32,9.27,33.73,13.37,3.77,1.35,7.12,2.79,10.52,4.85,5.98,3.52,9.48,9.71,8.87,16.93l-3.92,46.41c-.26,3.08-1.47,5.89-3.47,7.91-2.54,1.97-5.16,1.49-9.1.89ZM100.77,417.2l3.07-32.31c.24-2.15-.77-4.08-2.71-4.91l-12.89-5.55-3.72,37.16c4.69,2.69,8.78,5.23,13.31,7.53.64.32,1.47.19,2.02-.06.4-.18.83-.8.93-1.85Z"/>
    <path class="cls-1" d="M265.12,493.75l-17.33.38-3.05,20.49-18.72-1.08,15.94-108.67,33.65-.84,5.35,58.76,4.58,49.26-18.62,2.05-1.8-20.34ZM263.59,475.35l-3.58-42.93c-1.31-.35-2.43-.35-3.77.03l-5.9,43.36c4.57-.06,8.77.06,13.25-.46Z"/>
    <path class="cls-1" d="M102.75,92.18l.27,34.04c-1.82,4.97-4.98,8.37-9.01,11.69l-43.57,30.72.83-115.47,40.04-18.94c3.75-.89,7.31-.51,9.96,2.21,1.85,2.33,3.16,5.29,3.21,8.44l.4,26.28c-1.12,5.69-4,10.43-8.87,13.57,2.46,2.33,5.79,4.15,6.73,7.45ZM92.53,79.34l-.45-33.08-24.61,10.34.05,34.61,25.01-11.88ZM67.57,142.64l22.74-14.44-.41-30.8-22.15,11.93-.19,33.32Z"/>
    <path class="cls-1" d="M327.05,465.91l-.12-17.28,23.12-7.04.22,37.24c.04,7.47-3.78,13.81-9.94,17.6-3.16,1.98-6.28,3.39-9.83,4.63-10.37,3.6-20.77,6.48-31.89,8.64l.93-91.23c.08-7.33,2.72-13.88,9.58-16.8,3.02-1.31,6.07-2.14,9.41-2.77,10.51-1.97,20.7-4.14,31-6.77l.34,29.4-17.63,4.94-.23-12.81-14.6,3.04-.19,70.77c4.16-.98,8.01-2.15,12.02-3.43,1.8-.57,3.04-2.33,3.03-4.25l-.08-15.15-5.14,1.28Z"/>
    <path class="cls-1" d="M213.65,457.18l-20.94-3.15-1.91,32.91,21.21,4.03-1,20.6c-14.48-2.2-28.67-5.85-42.63-10.62l7.71-118.75c13.5,2.19,26.72,3.92,40.58,4.91l-.8,20.76-20.56-2.24-1.48,27.97,20.73,2.96-.92,20.64Z"/>
    <path class="cls-1" d="M355.54,110.75l-4.45-10.39c-2.79-6.51-9.33-10.94-16.05-13.29-10.06-3.52-17.38-9.61-17.92-20.93-.72-15-.9-29.71-.75-44.64,2.36-4.51,5.86-9.44,10.76-11.12,18.27-1.48,37.02,4.58,47.34,20.66v76.41c.01,1.97-.69,3.34-1.79,4.78-3.02,3.09-7.48,4.81-11.77,3.67-2.52-.67-4.32-2.73-5.36-5.15ZM357.82,90.76l-.21-57.95c-6.5-6.79-19.26-9.15-28.48-9.68l.17,49.12c3.88-.07,7.11,1.23,10.32,3.17,6.81,4.05,12.28,9.37,18.2,15.34Z"/>
    <path class="cls-1" d="M161.84,88.07c-14.38,6.64-17.22,17.39-28.07,26.34-2.97,2.45-6.04,4.7-9.7,5.92-1.45.49-3.06-.11-4.15-.85-1.24-.84-1.79-2.34-1.78-4.2l.35-85.16c2.08-4.43,5.31-8.29,10.05-9.76l29.2-9.06c2.67-.83,5.57-.55,8.18.06,3.2.76,5.48,3.44,5.46,6.93l-.33,55.18c-.02,3.84-1.9,7.36-3.71,10.38-1.36,2.27-3.28,3.18-5.5,4.21ZM156.86,77.35l-.35-54.15-24.13,7.98.15,72.6c6.75-10.71,14.67-19.08,24.33-26.42Z"/>
    <path class="cls-1" d="M200.22,65.47c-3.53,1.32-6.83,2.36-10.68,1.5-6.54-1.45-8.01-7.93-7.32-13.61l10.22-1.91c.66,1.92,1.68,5.45,4.35,4.57l29.81-9.75c.94-2.17,1.39-4.29.66-6.59-.59-1.84-2.89-3.43-5.1-3.01l-26.91,5.1c-2.15.41-3.95.73-6.22.34-2.56-.44-5.15-2.64-5.01-5.62.33-7.39-.79-14.63.38-22.03.81-5.11,6.79-9.56,11.89-10.17L232.13.05c4.67-.55,7.97,3.53,8.06,7.67l.18,8.56-10.8,1.76-.64-4.16-25.44,2.22c-2.14.19-3.95,1.06-4.6,3.34-.74,2.55-1.08,5.96.26,8.47,1.63,3.05,18.74-.54,22.33-1.24,4.25-.83,8.38-1.19,12.55.3,2.37.85,5.48,2.85,5.47,5.63l-.08,21.98c-5.52,2.43-11.14,2.4-16.88,3.71-7.67,1.76-14.97,4.42-22.32,7.16Z"/>
    <path class="cls-1" d="M443.98,397.43l-16.41,11.85.57,21.93,16.23-13.07.37,12.5c-10.48,9.6-20.97,18.64-33.03,27.32l-2.28-86.5,33.18-16.09.5,12.29-16.42,9.51.52,18.46,16.3-10.53.47,12.33Z"/>
    <path class="cls-1" d="M0,368.91l2.19-17.9,17.09,17.22-1.31,11.68c4.03,4.38,7.9,8.44,12.03,12.5.65.63,1.39,1.07,2.51.7l6.9-57.79,18.5,9.35-7.65,67.96c-.49,1.84-.82,3.7-2.49,4.54-4.37,2.2-12.86-7.14-15.91-10.09-11.33-12.09-21.6-24.65-31.86-38.16Z"/>
    <path class="cls-1" d="M401.23,450.36l.49,14.76c-11.25,7.6-22.62,14.54-35.04,20.68l-1.44-98.05,17.25-5.67,1.67,78.2,17.08-9.92Z"/>
    <path class="cls-1" d="M457.51,418.17l-.72-21.25,15.59-14.37.44,8.34c3.65-3.63,7.11-7.4,10.53-11.33,1.51-1.73,2.03-3.76,1.83-6.05-.23-2.59.32-5.23-.37-7.73-.54-.67-2.1.12-2.86.56-6.06,3.58-11.86,7.28-18.38,9.84-1.67.66-3.7.38-5.12-.49-1.17-.72-2.08-2.42-2.2-4.18-.29-4.27-.34-8.44-.39-12.81-.1-9.35,8.05-15.4,15.21-20.13,9.8-6.48,19.2-12.94,28.76-20.18l.12,12.38-14.91,12.84-.65-4.32-12.52,9.33c.03,2.98-.26,6.05.39,9.09s18.56-8.54,20.13-9.52,3.14-1.68,4.95-1.85c1.48-.13,2.62.91,2.61,2.37-.02,4.09.16,8.06-.07,12.18-.43,7.67-8.27,18.28-13.08,24.35-9.09,11.46-18.64,22.05-29.29,32.91Z"/>
    <path class="cls-1" d="M284.14,59.29c-1.64,1.02-13.52,1.78-14.13-1.01l.08-44.14-16.61-2.11-.1-11.03,52.96,1.95-.05,14.64-22.13-2.47-.02,44.17Z"/>
    <path class="cls-1" d="M152.43,494.74c-6.23-2.13-11.89-5.13-18.02-7.98l3.83-17.06,17.83,7.14-3.65,17.9Z"/>
    <path class="cls-2" d="M300.78,333.3c-46.12,6.13-100.9,4.14-145.33-10.58-8.56-2.84-16.58-5.98-24.59-10.61,18.5.09,37.96-2.8,52.26-14.51-8.27-.43-16.45,2.96-24.4,1.11l-71.72-16.7c12.35-2.37,23.7-4.74,35.1-9.04,6.58-2.41,12.64-5.18,18.5-8.9,9.46-6.16,17.09-14.26,16.62-26.39l-.96-24.82c-.78-20.13-.52-56.04,10.36-73.4-5.87-1.31-13.25.84-18.8,1.95,1.95-9.55,6.71-17.97,14.19-24.02,6.78-4.92,14.43-7.93,22.71-9.09,5.95-.74,11.58-.16,17.09,1.75-2.81-6.02-7.57-9.73-13.86-11.77,23.33-13.32,54.72-17.45,80.7-14.21,13.99,1.99,29.56,6.52,40.79,15.51-7.36,3.77-12.65,9.83-15.52,17.7,11.35-8.42,29.33-13.44,38.82-.49,2.97,4.06,5.04,8.56,6.61,13.46,5.81,18.14,6.94,45.14,6.55,64.35l-.84,41.33c-.13,6.41,1.56,12.05,5.57,17.03,13.56,16.86,44.73,24.99,65.68,29.03-19.82,12.37-46.58,16.67-69.14,17.03-9.2.18-17.78-.75-27.24-1.59,5.37,4.9,11.7,7.72,18.39,10.05,10.81,3.76,21.73,4.49,33.6,4.68-19.51,11.38-49.21,18.23-71.13,21.15ZM233.09,140.63c-.29-.43-.59-.89-1.05-1.02-.16.74.4,1,.51,1.46,1.9,7.98-.04,16.75-5.99,22.58-3.5,3.43-8.4,3.83-12.13.79-3.09-2.52-5.55-5.56-7.55-9.03l-5.09-8.81c-6.79-11.76-19.49-16.27-32.83-17.69,8.51,4.36,18.3,9.3,23.9,18.02-5.05,2.49-8.55,6.8-9.82,11.51-1.58,5.88-.43,11.53,3.07,16.11s8.87,7.05,14.46,6.82,10.56-3.03,13.85-7.96c3.36,1.38,6.53,1.4,10.14,1.22-4.74,6.37-8.46,12.59-11.52,19.53-15.14,1.42-30.87,8.65-40.29,20.99,16.65,5.52,31.8,13.07,46.11,22.75,3.19,3.12,7.94,4.62,10.37,8.44,9.2,14.48,15.82,30.18,22.29,45.84,6.55-15.97,13.17-31.5,22.3-45.91,2.43-3.37,6.61-5.54,9.99-7.96,14.21-10.15,29.72-17.43,46.46-23.21-9.56-12.27-24.87-19.44-40.28-20.93-3.05-6.79-6.66-12.98-11.47-19.44,3.46-.1,6.57.21,10-1.35,3.35,4.94,8.45,7.83,14.05,8s11.36-2.52,14.76-7.41c6.52-9.38,3.17-22-7.16-27.01,5.47-8.66,15.6-13.86,23.99-18.04-13.27,1.38-26.11,5.89-32.89,17.61l-5.26,9.09c-1.96,3.39-4.36,6.35-7.4,8.81-3.71,3.01-8.61,2.73-12.11-.71-6.23-6.14-8.24-15.4-5.6-23.99-5.92,4.76-8.32,12.18-6.69,19.95-4.54-2.11-8.14-6.3-12.79-7.08-4.59,1.05-8.2,4.78-12.67,7.34,1.6-7.09-.22-14.28-5.66-19.3Z"/>
    <path class="cls-4" d="M436.48,273.32c-20.66-4.52-57.25-12.72-72.21-28.37-4.04-4.23-6.17-9.18-5.82-15.11l1.34-23.09c.9-15.46.41-30.54-.47-45.74,13.48,4.72,26.38,11.06,38.56,18.88,16.51,10.61,31.53,24.67,39.66,42.71,7.41,16.43,6.99,35.04-1.06,50.71Z"/>
    <path class="cls-4" d="M142.98,161.41c-3.42,13.67-2.75,27.93-1.83,42.3l1.82,28.32c2.19,34.2-55.57,37.34-78.39,37.13-10.46-25.64-1.36-51.04,17.3-70.35,7.13-7.37,14.86-13.56,23.57-19.09,11.87-7.53,24.4-13.93,37.54-18.31Z"/>
    <path class="cls-1" d="M142.98,161.41c-13.14,4.38-25.67,10.77-37.54,18.31-8.71,5.53-16.44,11.72-23.57,19.09-18.67,19.31-27.76,44.7-17.3,70.35,3.31,8.11,7.72,15.52,13.71,22.33,27.48,31.26,74.28,48,114.46,54.97,54.91,9.52,117.06,5.92,169.36-14.16,12.89-4.95,24.87-10.9,36.42-18.35,9.46-6.11,17.73-13.16,25.33-21.32,5.55-5.95,9.14-12.49,12.64-19.3,8.06-15.68,8.47-34.28,1.06-50.71-8.14-18.05-23.15-32.11-39.66-42.71-12.18-7.83-25.09-14.16-38.56-18.88-.14-2.37-.81-4.6-.83-7.62,33.04,11.78,70.97,33.79,85.66,67.3,7.41,16.9,7.49,35.52.16,52.46-4.06,9.39-9.68,17.55-16.66,25.09-29.09,31.41-77.58,48.59-119.04,55.49-53.41,8.88-113.06,5.48-164.22-12.95-33.09-11.92-70.53-33.57-85.38-66.96-7.75-17.42-7.63-36.66.27-54.01,15.1-33.15,52.63-54.78,85.76-66.59l-2.05,8.21Z"/>
    <path class="cls-3" d="M232.55,141.07c.17-.16.35-.31.54-.45,5.44,5.02,7.26,12.21,5.66,19.3,4.47-2.56,8.08-6.28,12.67-7.34,4.65.79,8.26,4.97,12.79,7.08-1.63-7.77.77-15.19,6.69-19.95-2.64,8.59-.63,17.85,5.6,23.99,3.5,3.45,8.41,3.72,12.11.71,3.04-2.47,5.44-5.42,7.4-8.81l5.26-9.09c6.78-11.72,19.62-16.23,32.89-17.61-8.39,4.19-18.52,9.38-23.99,18.04,10.33,5.01,13.68,17.63,7.16,27.01-3.4,4.89-8.93,7.6-14.76,7.41s-10.7-3.06-14.05-8c-3.42,1.56-6.54,1.25-10,1.35,4.81,6.45,8.41,12.64,11.47,19.44,15.41,1.5,30.72,8.66,40.28,20.93-16.74,5.78-32.26,13.06-46.46,23.21-3.38,2.42-7.56,4.6-9.99,7.96-9.13,14.41-15.75,29.94-22.3,45.91-6.48-15.66-13.1-31.36-22.29-45.84-2.43-3.82-7.18-5.32-10.37-8.44-14.31-9.68-29.46-17.23-46.11-22.75,9.42-12.35,25.15-19.57,40.29-20.99,3.06-6.94,6.78-13.16,11.52-19.53-3.61.18-6.78.16-10.14-1.22-3.29,4.94-8.38,7.74-13.85,7.96s-10.97-2.24-14.46-6.82-4.64-10.23-3.07-16.11c1.26-4.7,4.76-9.02,9.82-11.51-5.6-8.72-15.39-13.66-23.9-18.02,13.34,1.42,26.04,5.93,32.83,17.69l5.09,8.81c2,3.47,4.46,6.51,7.55,9.03,3.73,3.04,8.63,2.64,12.13-.79,5.95-5.83,7.89-14.6,5.99-22.58ZM298.84,165.52l-4.88,4.56c3.13,4.22,8.23,5.67,12.9,4.08,4.43-1.52,7.61-5.75,7.63-10.66.02-4.53-2.76-8.94-7.27-10.55l-3.71,6.5c2.17.79,3.28,2.36,3.14,4.36-.13,1.81-1.48,3.13-3.32,3.63-1.72.47-3.13-1.05-4.48-1.92ZM199.63,159.33l-3.75-6.35c-4.78,1.55-7.62,6.35-7.29,11.3.31,4.61,3.54,8.68,8.03,10.01s9.75-.18,12.41-4.36l-4.98-4.65c-1.29,1.85-3.13,2.53-4.87,1.96s-2.91-2.29-2.76-4.21c.13-1.73,1.4-2.89,3.22-3.71ZM264.42,159.98c0-.12-.1-.22-.22-.22s-.22.1-.22.22.1.22.22.22.22-.1.22-.22ZM251.52,271.35l27.15-57.73c.68-1.46,1.34-2.3,3.01-2.6,8.82-2.62,18.24-1.95,26.79,1.18-5.75.46-11.09.96-16.5,2.5-3.05.92-5.95,1.86-8.58,3.57l-5.92,15.27c13.17-9.26,25.83-16.74,41.58-20.72-8.21-8.66-23.6-10.65-34.82-10.16-6.35-15.54-17.44-33.36-32.74-40.92-15.39,7.76-26.37,25.45-32.68,40.9-10.99-.44-26.58,1.44-34.82,10.19,15.94,4,28.41,11.51,41.67,20.76l-6.08-15.39c-2.28-1.42-4.64-2.27-7.17-3.09-5.91-1.83-11.82-2.52-18.15-2.85,8.57-3.08,17.92-3.89,26.76-1.34,1.88.29,2.65,1.23,3.43,2.88l27.08,57.54Z"/>
    <path class="cls-4" d="M233.09,140.63c-.19.14-.37.28-.54.45-.11-.46-.67-.73-.51-1.46.46.13.75.59,1.05,1.02Z"/>
    <path class="cls-1" d="M298.84,165.52c1.35.87,2.75,2.39,4.48,1.92,1.83-.5,3.19-1.83,3.32-3.63.14-2-.96-3.57-3.14-4.36l3.71-6.5c4.51,1.61,7.29,6.02,7.27,10.55-.02,4.91-3.2,9.14-7.63,10.66-4.67,1.6-9.76.14-12.9-4.08l4.88-4.56Z"/>
    <path class="cls-1" d="M199.63,159.33c-1.81.83-3.08,1.98-3.22,3.71-.15,1.92.94,3.62,2.76,4.21s3.58-.11,4.87-1.96l4.98,4.65c-2.66,4.18-7.84,5.71-12.41,4.36s-7.72-5.4-8.03-10.01c-.33-4.95,2.51-9.75,7.29-11.3l3.75,6.35Z"/>
    <path class="cls-1" d="M251.52,271.35l-27.08-57.54c-.78-1.65-1.55-2.58-3.43-2.88-8.83-2.56-18.19-1.75-26.76,1.34,6.33.33,12.24,1.02,18.15,2.85,2.53.82,4.89,1.67,7.17,3.09l6.08,15.39c-13.26-9.25-25.73-16.76-41.67-20.76,8.24-8.76,23.83-10.63,34.82-10.19,6.31-15.45,17.29-33.15,32.68-40.9,15.3,7.56,26.39,25.38,32.74,40.92,11.22-.48,26.61,1.5,34.82,10.16-15.76,3.98-28.41,11.46-41.58,20.72l5.92-15.27c2.63-1.7,5.53-2.65,8.58-3.57,5.42-1.54,10.76-2.04,16.5-2.5-8.55-3.13-17.97-3.8-26.79-1.18-1.67.3-2.32,1.14-3.01,2.6l-27.15,57.73ZM251.14,255.03l.4-10.45-.06-78.1c-4.68,2.26-7.66,5.88-10.39,9.89,1.88,8.04,3.36,15.64,4.25,23.87l5.25,48.32.55,6.48ZM239.55,189.54c-.05-3.12-.33-5.67-1.35-8.68-4.23,2.79-9.33,13.88-9.91,18.37,3.46-4.1,6.56-7.46,11.26-9.69ZM274.81,199.31c-.9-4.85-3.09-8.65-5.08-12.65-1.41-1.98-2.43-3.97-4.78-5.75-1.19,2.77-1.45,5.72-1.38,8.69,4.79,2.21,7.91,5.84,11.24,9.71ZM228.28,199.6c0-.12-.1-.22-.22-.22s-.22.1-.22.22.1.22.22.22.22-.1.22-.22Z"/>
    <circle class="cls-2" cx="264.2" cy="159.98" r=".22"/>
    <path class="cls-2" d="M251.14,255.03l-.55-6.48-5.25-48.32c-.89-8.23-2.37-15.82-4.25-23.87,2.73-4.01,5.71-7.63,10.39-9.89l.06,78.1-.4,10.45Z"/>
    <path class="cls-3" d="M274.81,199.31c-3.33-3.87-6.45-7.5-11.24-9.71-.07-2.98.19-5.93,1.38-8.69,2.35,1.78,3.37,3.77,4.78,5.75,1.99,4,4.18,7.8,5.08,12.65Z"/>
    <path class="cls-3" d="M239.55,189.54c-4.7,2.22-7.8,5.59-11.26,9.69.58-4.49,5.67-15.58,9.91-18.37,1.03,3.02,1.3,5.56,1.35,8.68Z"/>
    <circle class="cls-3" cx="228.07" cy="199.6" r=".22"/>
  </g>
</svg>