<?xml version="1.0" encoding="UTF-8"?>
<svg id="Layer_2" data-name="Layer 2" xmlns="http://www.w3.org/2000/svg" viewBox="0 0 500 500.01">
  <defs>
    <style>
      .cls-1 {
        fill: #fff;
      }
    </style>
  </defs>
  <g id="Layer_1-2" data-name="Layer 1">
    <path d="M430.14,423.4c-97.99,101.77-260.79,102.18-359.33.99C-25.9,325.06-23.21,165.72,76.82,69.65c96.51-92.69,249.06-92.88,345.82-.52,100.2,95.65,103.46,254.61,7.5,354.27ZM491.54,251.64c.06-62.81-24.3-122.73-67.95-167.64C329.77-12.55,174.89-13.47,79.95,81.84s-93.45,244.03-1.26,337.94c46.67,47.54,110.51,73.52,177.26,72.1,130.61-2.79,235.47-109.31,235.59-240.24Z"/>
    <path class="cls-1" d="M491.54,251.64c-.12,130.93-104.97,237.45-235.59,240.24-66.75,1.42-130.59-24.56-177.26-72.1-92.19-93.91-91.69-244.63,1.26-337.94s249.83-94.39,343.65,2.15c43.65,44.92,68,104.84,67.95,167.64ZM416.76,414.36c89.42-90.93,88.87-236.84-1.24-327.11C323.91-4.5,174.96-3.8,84.2,88.98s-88.31,235.65.91,325.85c91.37,92.37,240.55,92.18,331.65-.46Z"/>
    <path d="M416.76,414.36c-91.1,92.64-240.28,92.83-331.65.46C-4.1,324.63-4.46,179.62,84.2,88.98s239.71-93.48,331.32-1.72c90.11,90.26,90.67,236.17,1.24,327.11ZM246.56,74.19c.46-2.26-2.15-1.89-3.83-6.46-.94-2.56-1.89-5.02-3.01-7.39-3.63-7.65-3.05-15.55.36-23.06.91-2,1.83-3.88,3.52-5.02.94-.66.63-4.12-.48-4.27-2.94-.41-6.01.12-8.84.7-.75.16-1.6,1.64-1.62,2.35-.06,2.45,3.12,2.35,3.08,3.88-.02.58-.33,1.62-.52,2.3l-2.39,8.49c-1.39,4.94-.83,9.01,1.32,13.5,1.75,3.66,3.07,7.83,4.46,11.52-1.15.88-2.02,1.81-2.11,2.64s.55,2.98,1.35,3.07c2.21.25,8.26-.03,8.71-2.25ZM255.97,55.25c0-1.7,4.2-.93,4.34-1.81l.36-2.25c.06-.37-.13-1.48-.29-1.82-.34-.72-2.8-.18-3.8-1.39-.29-.35-.39-1.37-.35-1.87.31-3.5.46-6.58.46-10.13,0-.88.25-2.18.86-2.46,1.49-.69,4-.69,5.13.33,1.42,1.28-.97,5.34.48,7.25.77,1.01,3.08,1.09,4.1.58l1.42-10.57c.2-1.49-.76-2.63-2.29-2.68l-18.36-.64c-1.21,1.32-1.48,4.26,0,4.99.82.41,3.01.68,3.01,1.87l.05,33.69c0,1.62-.94,2.57-2.53,3.26-1.11.48-1.1,4.05.3,4.21,2.75.33,14.12,1.28,15.38.51.57-.35.76-1.85.8-2.7l.55-10.18c.04-.66-1.54-1.28-2.21-1.23-3.62.26-.98,3.91-2.44,8.35-.56,1.7-4.43,1.08-4.98-.32l.02-14.98ZM292.78,39.76c.93-1.8,2.1-2.3,4.12-2.6,1.32-.19,1.96-4.12.55-4.5-3.18-.82-6.32-1.27-9.63-1.42-1.43-.06-2.22,3.13-1.31,3.83.96.75,2,1.8,2.02,2.63l-4.79,10.24c-.18.38-1.1,1.02-1.33.76-.17-.19-.54-.76-.6-1.17l-1.68-11.79,3.23-1.08c.2-1.46.16-3.05-.14-4.63l-10.95-1.16c-1.06,1.13-1.48,3.82-.27,4.66,1.02.7,2.68,1.37,2.87,2.54,1.13,6.96,2.96,13.45,3.55,20.45.41,4.94-1.53,9.91-1.67,14.87l-2.83,1.81c-.97.62-1.05,3.51-.16,4.44,2.62.56,5.63,1.02,8.39,1.14.93,0,1.61-2.6,1.42-3.49s-1.45-1.88-2.42-2.8l1.46-7.98c.57-3.13.72-6.41,2.15-9.18l8.03-15.59ZM233.66,77.13c.81-.45,1.23-2.76,1-3.67-.19-.75-1.2-1.5-2.2-2.28l-3.65-31.39c-.37-3.18-.4-5.49,2.48-7.73.18-1.64-2.13-3.19-3.92-2.96l-8.24,1.06c-1.12,1.08-.65,4.03.84,4.55,1.04.36,1.9.73,2.81,1.2l4.8,35.91c-1.8.85-2.61,1.72-2.66,2.95-.04.98.76,3.09,1.83,2.99l6.92-.64ZM212.85,74.91c-3.12-.69-5.57-10.98-6.32-14.27l-2.83-12.4c-.6-2.63-2.09-9.6.91-10.52.67-.21,2.17.08,2.73.58,4.85,4.34,1.95,8.71,6.34,8.15.65-.08,2.06-1.12,1.94-1.93l-1.83-12.55c-.82-.48-2.39-.92-3.18-.73-.73.17-1.55,1.1-2.43,2.06l-4.59-.7c-8.23-1.25-5.97,15.51-4.98,19.78,1.4,6.05,3.09,11.82,5.14,17.67,1.56,4.46,6.37,12.42,11.6,10.56,4.74-1.69,4.29-10.3,4.32-14.21,0-1.09-.53-2.68-1.31-3.01-.88-.38-2.95-.22-3.26.63.19,2.25,1.81,11.8-2.25,10.9ZM197.23,84.18c2.94-4.84-.66-20.34-2.3-25.77-1.73-5.72-4.15-10.94-7.5-15.86-2.75-4.03-8.32-5.42-11.99-2.17-1.22,1.08-2.35,3.43-2.35,5.59.03,14.07,6.23,26.53,14.2,37.71,1.12,1.57,3.01,2.67,4.63,2.75,1.82.09,4.17-.38,5.31-2.25ZM326.35,65.41c.12-.56.2-1.87.06-2.37-.25-.89-2.68-.67-3.06-1.77-.1-.3.1-.94.27-1.38l4.66-12.04c1.92-1.06,5.08.51,6.06,2.47l-2.41,5.82c-.3.72,1.2,2.03,1.94,2.17s2.23-.05,2.56-.76l4.43-9.42c.38-.82,0-2.09-.95-2.44l-17.77-6.53c-1.63.73-2.77,3.75-1.41,4.86.68.55,2.19,1.43,1.84,2.41l-11.65,33.08-3.14,1.28c-1.16.47-1.61,4.04-.39,4.52l7.68,3.02c1.41-.39,2.59-3.2,2.11-4.45l-2.16-2.25,5.29-13.66c1.1-2.84,5.16,1.66,6.04-2.54ZM164.96,98.15c2.59-.75,7.62-3.03,7.04-5.69-.51-2.34-3.12-1.15-5.14-5.02l-6.47-12.4c1.59-1.67,3.32-2.55,5.63-2.86l4.51,8.22c3.6,6.56,1.63,10.44,3.75,11.73.47.28,1.84.52,2.36.29l5.67-2.46c.65-1.01-.08-4-1.19-4.24l-3.24-.69-14.61-32.59c-.48-1.07.98-1.94,1.88-2.59,1.16-.84-.55-4.61-2.06-4.16-3.2.94-6.2,2.38-9.17,3.93-.82,1.06.14,3.83,1.41,4.06s2.6.76,3.05,1.74l4.7,10.21c.84,1.82-3.99,4.7-5.18,3.26-2.36-2.86-3.46-6.31-5.47-9.41-.82-1.26-.63-2.85.07-4.23.56-1.09-1.21-4.17-2.63-3.62-3.09,1.19-6.1,2.93-8.94,4.55-.55,1.43.49,4.47,2.08,4.43.85-.02,3.09-.72,3.51.02l16.74,29.92c.74,1.32-.05,2.56-.88,3.74-.72,1.01,1.42,4.21,2.61,3.86ZM339.82,76.26c1.36-2.59,3.68,1.08,4.69.04.87-.89,2.01-2.68,1.89-3.86-.05-.45-.97-.89-1.6-1.23-.98-.52-1.34-1.85-.81-2.87l5.75-10.98c1.91-.89,5.23.66,5.79,2.86l-2.98,5.4c-.4.72.79,2.25,1.49,2.55.62.26,2.27.25,2.65-.4l5.31-8.98c.36-.61-.17-2.19-.71-2.46l-16.72-8.45c-1.13,1-2.72,3.06-2.09,4.28.34.65,2.31,1.87,1.91,2.72l-15.31,32.34-3.17.55c-1.14.2-1.78,3-1.46,4.38l13.77,6.7c1.23-1.57,2.18-2.98,3.11-4.63l3.46-6.14c.34-.6-.09-2.12-.65-2.49-.48-.31-1.84-.56-2.44-.38l-3.84,7.03c-1.92-.13-4.16-1.21-4.96-2.82l6.91-13.16ZM359.18,104.2c8.2-4.83,13.07-12.2,17.82-19.98,2.35-3.85,3.71-8.29,2.94-12.88-.92-5.48-7.57-8.59-12.12-11.31-1.14.82-2.92,2.99-2.5,4.1.3.8,2.13,2.06,1.46,3.11l-19.02,29.99-3.3.25c-1.13.09-2.51,3.07-1.79,3.98,3.95,5.02,10.97,5.99,16.51,2.74ZM128.78,115.39c1.13,1.22-.75,2.97.83,5.22.44.62,2.32,1.53,2.93,1.03,1.63-1.33,3.47-2.81,5.02-4.22,1.21-1.1-1.07-4.31-2.44-4.2-.9.07-2.27.07-3.02-.1l-20.05-22.36c.54-.28,1.65-.12,2.12.29,4.89,4.12,9.62,7.81,14.72,11.57l12.61,9.31c.91.67,2.44.71,3.04-.02.93-1.12.53-2.25-.29-3.33l-24.25-31.65,1.78-3.02c-.39-1.46-2.11-3.45-3.64-3.47l-7.87,6.13c-.37,1.52,1.51,4.17,3.01,3.87l3.07-.61c2.61,3.81,5.08,7.05,8.21,10.47l7.3,7.98c.29.31.27,1.57-.03,1.49-.2-.05-.96-.26-1.12-.42-7.57-7.52-12.86-11.04-22.2-16.99-3.83-2.44-7.1,1.62-10.14,4.2.12,1.41,1.89,3.84,3.12,3.69l3.54-.42,23.75,25.57ZM383.58,103.41c.96-.7,2.11-2.02,2.73-3.03s-3.34-3-1.52-5.01l8.42-9.29c1.98-.69,5.26,2.34,4.41,4.38l-4.18,4.6c-.35,1.32,2.45,4.01,3.42,3.08l7.89-7.62c.82-.8.95-2.12-.03-2.95l-14.15-12.06c-1.6.35-2.95,1.87-3.51,3.29l1.6,3.4-22.84,27.83-2.96-.41c-1.33-.18-2.97,2.79-2.7,4.38l11.85,10.01,9.47-9.7c.49-.5-.18-2.13-.7-2.57-3-2.6-4.59,3.03-7.5,4.99-1.79.85-4.58-2.69-3.28-4.2l8.86-10.3c.29-.34,1.09-.87,1.49-.84.92.07,2.28,2.72,3.22,2.04ZM351,378.83c15.59-12.08,28.81-26.31,39.56-42.57,12.51-18.9,20.54-39.99,23.71-62.46,5.93-42.11-3.04-81.78-27.26-116.43-30.6-43.78-80.05-69.59-133.35-70.34-44.31-.62-87.09,16.65-118.56,48.1-46.45,46.42-61.14,116.31-34.93,177.02,14.06,32.56,38.19,59.9,68.78,77.83,25.97,15.23,55.42,22.71,85.5,21.77,12.35-.39,23.89-1.58,35.87-4.33,22.1-5.07,42.52-14.54,60.68-28.61ZM397.41,119.53l-12.29,16.17c-1.17,1.53,1.77,4.51,2.51,5,.51.34,3.79-1.21,3.97-2.25.09-.56-.25-1.88-.46-2.73l9.25-12.38c1.55-2.08,2.93-2.53,5.54-2.53,6.52,0,12.42-4.8,14.06-11.07,1.9-7.28-6.45-13.03-10.87-18.08-1.64.15-3.95,2.53-3.41,3.84.29.69,1.91,2.57,1.37,3.1l-26.27,25.42-2.71-1.22c-1.36-.16-4.22,2.53-3.1,3.96,1.83,2.33,3.97,4.37,6.11,6.34,1.4.18,3.79-1.43,3.72-2.75-.06-1.13-.46-3.08.25-3.72l10.41-9.43c.4-.37,1.76-.16,1.92.25s.28,1.72-.01,2.1ZM116.01,128.61l-10.91-9.94c-.4-.37-.29-1.66.16-1.94.53-.33,1.58-.19,2.17.17l17.68,10.92c1.77-.31,4.02-1.91,4.14-3.83.06-.96-1.51-2.81-2.29-3.25l-3.39.49-12.36-7.57c-2.54-1.55-3.28-2.7-3.61-5.83-.78-7.59-8.77-13.44-16.45-11.86-2.93.6-5.59,3.22-7.39,5.34l-5.59,6.59c.66,1.46,2.78,3.62,4.04,3.07l2.18-1.7c.42-.32,1.69.52,2.12.89l26.67,22.56-1.19,3.37c1.18,1.09,2.66,2.09,4.29,2.73l6.01-7.22c-.02-1.45-1.92-3.63-3.26-3.32-.71.16-2.54.77-3.03.32ZM102.61,144.39l-12.03-8.48,1.35-3.4c-.1-1.29-2.78-3.44-3.95-2.86-.8.79-1.63,1.87-2.32,2.01-.61.13-1.88-.58-2.44-.98l-8.31-6.07c-1.27-.92-1.39-2.3-.53-3.67.58-.92,2.2-2.63,3.17-1.92,1.82,1.34,3.3,2.59,5.12,3.71,1.35.82,3.88-2.18,3.17-3.28l-9.13-7.78c-.47-.4-2.03.17-2.43.72l-10.85,14.98c.26,1.76,2.69,3.76,4.23,3.1.77-.33,1.89-2.12,2.87-1.48l28.66,18.94c1.32.87,1.47,2.03,1.55,3.83.06,1.31,2.35,2.47,3.89,2.28l9.21-12.75-10.83-8.54c-.78.07-1.87.68-2.22,1.16s-.49,2.04.04,2.45l5.11,3.99c.69.54.09,2.45-.39,3.11-.44.6-2.11,1.52-2.95.93ZM398.59,149.69c-1.34-.02-1.87,3.17-1.24,4.16l3.03,4.71c.53.82,3.01.23,3.73-.35.79-.63,1.01-2.22.86-3.78l29.07-23.68,1.94,1.86c1.18,1.13,4.85-1.7,3.84-3.31-2.78-4.44-5.61-8.26-8.58-12.5-1.43.43-3.13,1.41-3.58,2.34l.22,3.61-31.97,18c-1.25-.34-3.2-.89-4.09-.32-.78.5-2.06,1.95-2,2.98l4.51,6.06c.91.42,2.86-.34,3.51-1.07.57-.65.56-2.5.63-3.76l9.2-5.18c1.6.6,3.32,2.88,3.07,4.17l-4.56,4c-2.36,2.07-4.41,2.1-7.61,2.06ZM95.99,168.25c1.62-2.5,2.92-4.78,4.11-7.33.3-1.34-2.81-3.28-4.07-2.56-1.33.76-2.71,1.28-4.38.32l-28.87-16.68c-1.01-.58-1.56-1.81-1.35-2.72.17-.75,1.7-2.11,2.36-1.71l9.1,5.44c.88.53,2.47-.75,2.59-1.68s-.5-1.9-1.37-2.46l-11.17-7.15c-.88-.56-2.29-.22-2.83.74l-10.05,17.62c-.42.74.05,2.06.77,2.41l12.5,6.12c.63.31,2.35.06,2.64-.55.25-.52.37-1.7.36-2.55l-9.89-5.34c-.62-.34-.15-2.22.31-2.73.41-.45,1.67-1.1,2.29-.77l30.54,16.17c1.65.87,1.91,2.13,1.92,4.01,0,1.43,3.55,2.88,4.5,1.42ZM412.86,167.75l33.4-16.72c1.57-.44,3.25,2.83,2.32,3.86l-9.64,4.63c-.63.3-.94,2.05-.63,2.65.26.49,1.06,1,1.77,1.27,4.03-2,7.99-3.7,12.29-5.31.96-.36,2.59-1.44,2.49-2.52l-11.07-20.33-13.04,7.93c-1.07.65-1.47,1.98-.83,3.15.43.78,1.92,1.02,2.91.47l8.4-4.64c1.39-.77,3.36,2.48,2.44,3.5l-32.36,17.55c-.85.46-2.14-.76-2.99-1.33-1.06-.7-4.02,1.21-3.99,2.52,1.11,2.85,2.36,5.19,3.95,7.8.53.87,3.17.15,3.88-.59.63-.66.69-2.12.71-3.89ZM85.08,188.96c2.99,1.1,1.03-2.64,3.92-6.06,1.84-2.18,1.64-4.91-.42-6.78-6.28-5.68-14.68-7.64-23.03-5.86-5.27,1.12-14.03,3.26-17.75-.93-.64-.72-.2-2.65.41-3.34.65-.74,2.26-1.16,3.25-.82l5.13,1.74c.72.24,2.12-.86,2.39-1.53s.27-2.58-.46-2.89l-10.23-4.41c-.41-.18-1.53-.15-1.73.15-1.55,2.25.03,3.7-3.16,6.46-2.23,1.93-2.41,5-.5,7.2,6.08,6.98,14.36,6.28,22.64,4.6,6.07-1.22,14.98-2.82,19.12,2.84.41.56.02,2.2-.48,2.67-3.54,3.32-10.43-3.92-12.22-.7-.49.88-.53,2.67.27,2.96l12.85,4.72ZM419.76,186.69l.73-2.83,32.19-12.53c.77-.3,2.07-.64,2.47-.21l1.56,1.69c1.04,1.12,3.89-.34,4.48-1.68l-4.41-11.33c-1.58.08-3.54.76-4.33,1.64l-.05,3.91-34.63,14.36c-.63-1.12-1.16-2.19-1.75-2.27-.51-.07-1.59.28-2.26.57-1.17.5-1.94,2.09-1.39,3.3l2.98,6.59c1.12.68,4.13-.1,4.42-1.23ZM433.72,204.04c8.35-1.39,16.14-2.91,23.73-5.95,5.64-2.26,11.97-6.92,9.39-13.24-2.3-5.64-11.13-4.75-16.25-3.74-9.65,1.9-18.67,5.49-27.17,10.36-2.54,1.45-4.27,4.01-4.84,6.8-.36,1.77.58,3.63,2.03,4.38,4.11,2.14,8.37,2.18,13.11,1.39ZM65.13,200.9c-.55-1.58.23-4.79,1.81-4.84,3.54-.11,7.73.6,10.35,2.75.82.67,1.45,1.89,2.08,2.3s2.92.27,3.21-.46c.61-1.52,1.36-3.62,1.93-5.28.5-1.45-1.11-4.66-2.51-3.89-2.81,1.55-4.39,1.56-7.4,1.01l-31.81-5.8c-.88-.16-.91-2.28-1.19-3.12-.47-1.4-3.07-1.72-4.55-1.27l-3.8,14.58c.12,1.63,3.68,2.76,4.5,1.46l1.13-1.8c.26-.41,1.7-.06,2.19.13l31.87,11.9c1.11.42,1.68,1.77,2.37,2.96.61,1.05,3.64,1.15,4.59.27.66-2.26,1.31-4.93,1.34-7.3.02-1.53-3.33-2.23-4.19-1.39-1.42,1.38-2.49,1.14-4.12.56l-7.78-2.78ZM467.93,224.5c.69-.08,1.48,1.94,1.94,2.32.89.74,3.39.42,4.46-.52l-1.44-10.22c-1.12-.45-3.52-.47-4.04.36s-.93,2.85-1.74,2.98l-14.74,2.53c-3.57.61-6.57,2.06-10.59,1.46.49-.94,1.48-1.5,2.67-1.81,8.77-2.28,16.8-5.81,24.88-9.87,3.48-1.75,1.43-7.43.85-10.6-1.17-.66-3.84-.18-4.14.9-.33,1.2-.64,2.23-1.15,2.99l-33.94,7.34c-4.48.97-3.01-3.08-6.81-1.84-.86.28-1.87,1.52-1.65,2.37l1.73,6.59c1.16.52,3.62.29,4.23-.83.47-.86,1.22-2.3,1.93-2.44l26.28-5.09c.94-.18,2.58-2.12,3.24-.17.28.81-1.58,1.31-2.46,1.67l-31.27,12.52c-1.01.4-1.48,1.88-1.2,2.79.19.62,1.37,1.32,2.29,1.22l40.67-4.66ZM71.15,217.95c.47.04,1.73.42,1.71.86l-.07,2.04c-.03.75-.63,2.94-1.53,2.83l-15.34-1.96c-.29-1.13-.48-2.62-.69-3.91-.27-1.68-4.4-1.67-4.84,0-.29,1.11-.95,2.65-1.92,2.53l-13.91-1.77c-.78-1.24.1-5.03,1.17-5.96,1.38-1.19,4.74,1.42,7.54.59,1.31-.39,1.21-3.81.12-4.07l-10.49-2.48c-.37-.09-1.32-.07-1.65.08s-.65,1.03-.71,1.44l-2.3,17.39c-.21,1.59,1.82,2.09,3.25,2.05,1.03-.03,1.66-1.42,2.3-3.08,9.2.06,24.06,3.2,32.12,2.94,7.23-.24,4.38,6.4,10.75,3.57.64-4.89,5.01-15.81-1.7-16.45-3.07-.29-5.91-.67-9.09-1.19-1.3-.21-2.17,1.05-2.02,2.28.08.69,1.15,1.71,1.99,1.79l5.28.5ZM89.9,392.94l10.57-9.3c.81-.71,2.68,1.03,3.48,1.42,1.46.7,4.13-1.86,3.71-3.15l-2.19-2.79,10.74-9.7c1.58-.21,4.07,2.22,3.41,3.94l-4.22,4.01c-.64.61-.36,2.38.28,2.9.58.47,2.4.73,2.92.21l8.74-8.8-10.89-11.66c-1.43.52-3.03,1.5-3.95,2.38l.67,3.41-27.42,23.17c-.66.56-2.6-.61-3.34-.87-1.52-.54-3.99,1.81-3.85,3.48l12.81,13.72c.48.51,1.95.32,2.38-.12l8.61-8.8c.64-.65-.89-2.54-1.76-2.8-1.01-.31-2.69.12-3.51.92l-4.09,4.03-2.89-2.56c-.31-.28-.88-1.08-1.05-1.43s.41-1.22.83-1.59ZM417.42,397.93l5.36-5.57c.52-.54-.24-2.52-.92-2.82s-2.04-.6-3.01-.62c-3.8-.08-6.48-3.53-6.72-7.37-.04-.59-.63-1.76-1.12-2.01-2.1-1.09-2.68,2.06-5.58-.36l-21.27-17.73c-.86.26-1.71.65-2,1.07s-.34,1.9-.02,2.42c5.05,8.29,10.1,17.07,14.57,25.67,1.24,2.39,3.97,3.05,6.02,1.59,1.83-1.29,2.92-2.63,4.8-4.81l5.34,3.48c1.01.66,1.33,2.74.95,4.1-.43,1.54,2.48,4.08,3.58,2.93ZM398.14,398.86c-7.31-8.59-15.16-17.45-25.45-22.08-1.65-.74-3.71-.33-4.88.76-4.73,4.37,5.52,17.52,8.83,21.38l7.7,8.98c3.32,3.87,11.78,10.97,17.05,6.64,5.05-4.15.05-11.79-3.25-15.67ZM119.16,411.35c6.61-11.29,1.71-20.67,9.41-28.16.78-.76,2.14-1.13,3-.8.74.29,1.91,2.11,1.45,2.77l-4.04,5.69c-.47.66.36,2.28.99,2.62.54.3,2.07.44,2.48-.05l8.16-9.95c-5.96-2.77-5.33-6.99-8.41-6.39-13.03,2.52-14.66,14.74-15.99,25.83-.53,4.44-2.86,8.47-7.04,10.46-.96.45-2.59-.56-3.11-1.25-.47-.62-.93-2.55-.42-3.23l5.2-6.92c.48-.63-.7-2.4-1.37-2.7-.58-.27-1.8-.37-2.62-.2-3,4.02-6.43,7.4-10.36,11.12,3.58,2.21,5.94,4.43,7.92,7.82,1.51,2.59,9.79,1.83,14.77-6.67ZM131.92,431.19l-1.97-2.36,20.68-30.65c.54-.79,2.39-.41,2.9.29.38.52.32,1.83-.07,2.43l-4.82,7.27c-.75,1.14-.81,2.32.46,3.02.95.52,1.95.03,2.59-.99l7.11-11.47c.76-1.23.14-2.56-1.07-3.2-4.25-2.26-7.97-4.78-11.7-7.84-.95-.78-2.35-.53-3.07.38l-8.66,11.02c-.54.69.02,2.22.78,2.58.84.4,2,.15,2.63-.68l5.65-7.4c.46-.6,1.99-.55,2.5-.34s1.28,1.52.9,2.04l-21.46,29.82c-1.2-.04-2.12-.2-3.33-.42-1.51-.28-3.59,2.74-2.81,4.05l10.11,6.73c1.35-.61,3.76-2.93,2.64-4.28ZM369,423.48c2.48,3.21,5.79,5.69,9.44,6.95,2.3.79,4.71-.94,5.92-2.29,1.33-1.48,1.92-4.57,1.01-6.71-5.54-13.02-14.8-24.19-26.22-32.5-2.28-1.66-6.11-.93-6.73,1.87-1.97,8.81,10.97,25.39,16.58,32.68ZM369,437.7c.93-.54.79-2.04.3-2.77l-6.17-9.22c-.72-1.07-4.23.54-3.71,1.98.69,1.93,1.96,3.57,3.32,5.25,2.31,2.86-4.67,5.5-6.9,5.58-2.19-4.97-3.03-10.05-2.07-15.31,1.6-8.71-1.18-16.86-7.94-22.65-1.63-1.39-3.29-2.62-5.45-2.44-1.63.14-3.98.88-4.81,2.69-2.26,4.86.7,10.68,3.23,14.93.8.1,2.15-.34,2.65-.73,2.27-1.78-1.59-3.12-2.9-8.61-.38-1.58,1.36-4.42,2.99-3.85,7.24,5.5,9.68,14.61,8.31,23.35-.97,6.18,1.02,11.96,3.11,17.68.24.66.68,1.38,1.03,1.71s1.73.12,2.15-.12l12.85-7.46ZM153.21,442.31l-3.09-.37-2.08,4.35,10.7,5c1.05-1.44,1.97-3.32,1.91-4.52-1.49-1.03-2.05-1.66-1.56-3.13l10.94-32.83c.36-1.07,1.95-1.33,3.05-1.42,1.55-.14,2.54-3,1.83-4.25l-10.4-5.37c-1.35.7-2.56,2.31-3.12,3.61l1.7,2.67-21.79,28.9c-.86.3-2.37.5-3.46.62-1.39.15-2.69,2.51-2.2,3.86l9.78,5.46c1.16-1.2,2.79-3.27,2.2-4.26-.47-.8-1.94-2-1.51-2.6,2.02-2.82,3.81-5.48,5.91-8.1,1.15-1.43,5.72,1.5,5.04,3.14l-3.83,9.24ZM184.07,454.73c3.69-3.64,4.89-8.69,4.66-13.55-.2-4.44-3.99-5.74-3.55-7.23.2-.67,7.23-.15,8.62-7.87.57-3.16,1.25-6.08.22-9.25-1.81-5.56-6.5-6.13-11.97-8.31-1.32.1-2.96,3.21-2.2,4.19l1.79,2.28-13.72,32.43c-.56,1.34-2.18,1.05-3.54,1.08-1.66.03-2.65,2.85-2.15,4.38,6.12,2.2,15.67,7.92,21.82,1.85ZM308.04,458.87c-1.01.99-.03,4.56,1.59,4.22,2.77-.59,5.44-1.39,7.98-2.25,5.62-1.92,8.81-7.09,8.14-13.01-1.19-10.53-5.42-20.16-11.59-28.76-4.51-6.28-10.89-4.98-17.22-2.52-.67,1.09-.53,3.8.62,4.18,2.04.67,3.04,1.16,3.61,3.16l8.87,31.06c.49,1.71-.29,2.9-2.02,3.92ZM212.03,447.15c-1.5-1.4-4.07-1.2-4.77-.1l-2.99,13.39c-2.15.19-4.55-.24-6.08-1.62l8.17-33.44c.51-2.09,1.79-2.65,3.72-3.18,1.18-.33,1.48-3.91.18-4.44-2.51-1.01-5.39-1.57-8.04-1.71-1.15.29-2.3,3.26-1.55,4.12.48.55,2.12,1.59,1.92,2.3l-9.3,32.61c-.59,2.08-1.72,2.09-3.8,2.63-1.12.29-1.68,3.05-1.23,4.45l18.01,4.45c.63.16,2.14-.52,2.25-1.13l3.51-18.32ZM297.42,460.15c-1.68,1.6-4.48,2.21-6.1,1.22-.84-2.85-3.93-14.86-2.64-16.12.61-.6,2.14-1,3.1-1.56.7-.83-.27-3.99-1.44-4.04-1.06-.04-2.63-.14-3.53-.55l-2.58-14.24c1.52-1.13,4.1-1.37,5.48-.57l1.75,7.09c.72.77,3.83-.33,3.5-1.6l-3.1-11.94-15.17,2.48c-.73,1.33-.88,4.26.22,4.73,1.16.5,2.65.69,2.82,1.76l5.52,34.96c-.66.84-1.73,1.61-2.63,2.39s-.1,3.65.93,4.5l18.79-3.48c.47-.09,1.21-1.23,1.08-1.75l-2.99-11.71c-.17-.68-2.02-.83-2.67-.61s-1.89,1.08-1.76,1.72l1.43,7.32ZM223.29,468.78c1.81-.06,1.86-3.83.77-4.3-.99-.43-2.03-.95-2.73-1.62l5.04-35.86,2.86-1.3c1.06-.48,1.08-3.97,0-4.49-2.74-.97-6.11-1.24-8.98-1.15-.97.84-1.44,3.63-.54,4.36,1.21.98,2.25,1.65,1.95,3.37l-6,34.01c-.92.5-2.27.84-3.41,1.14-.98.49-.99,3.46-.15,4.36,3.48.68,7.42,1.62,11.19,1.48ZM245.05,469.13c6.38-9.08,1.04-19.58-3.91-27.53-7.11-11.43-2.14-17.1.18-14.72,3.37,3.46-.01,8.91,2.9,9.51,1.1.23,2.76-.24,2.76-1.33l.05-9.03c0-.77.39-2.36-.06-2.89-1.32-1.57-3.53.58-5.74-.94s-4.62-.93-5.87,1.3c-3.17,5.69-3.39,12.41-.78,18.5,3.23,7.52,9.28,13.31,7.43,21.24-.42,1.78-2.3,3.05-3.76,2.81-1.63-.27-2.81-1.77-2.85-3.51l-.2-7.82c-.58-1.05-4.06-.9-4.28.21l-1.49,11.92c-.07.53.21,1.95.63,2.25,1.76,1.26,3.53-.7,7,1.37,2.61,1.55,6.1,1.36,8-1.33ZM261.64,461.11l-.53-13.35c1.21-.64,5.16-.88,6.33-.29.46.23.71,1.54.71,2.13.03,4.53.34,8.55.99,13.02.19,1.32-.58,2.13-1.74,2.93-.89.62-.54,3.46.45,4.03,3.38.43,6.8.31,10.1-.87.98-.35.99-2.8.48-3.73-.4-.75-1.99-.99-3.56-1.16l-4.14-36.39,2.27-1.78c.74-.58.32-2.81-.09-4.02-2.28-.12-8.33-.89-9.42,1.35s2.44,3.75,2.99,8.92c.31,2.89.86,5.82.64,8.72-.16,2.11-5.13,2.53-5.93.56-1.09-2.69-.47-5.61-.87-8.34-1.03-7.05,2.68-7.95,1.03-9.8-.95-1.06-6.26-.84-8.04-.62-.97.12-1.28,3.07-.73,3.93.47.74,1.63,1.17,3.06,1.84l.05,20.01.36,16.41c.02.77-2.08,1.17-2.82,1.53-1.46.71-1,4.02.25,4.91l8.88-.55c.7-.04,1.86-1.09,2.21-1.56,1.66-2.19-2.7-1.95-2.94-7.84Z"/>
    <path class="cls-1" d="M351,378.83c-18.16,14.07-38.58,23.54-60.68,28.61-11.98,2.75-23.52,3.94-35.87,4.33-30.08.94-59.53-6.54-85.5-21.77-30.59-17.93-54.72-45.27-68.78-77.83-26.21-60.72-11.52-130.6,34.93-177.02,31.47-31.45,74.24-48.72,118.56-48.1,53.3.75,102.75,26.55,133.35,70.34,24.22,34.64,33.19,74.31,27.26,116.43-3.16,22.46-11.2,43.55-23.71,62.46-10.75,16.25-23.97,30.49-39.56,42.57ZM251.12,272.09l66.75-111.25,23.91-39.33c-11.95-8.03-25.77-14.71-39.27-19.33-7.82-2.67-15.66-4.09-23.76-5.64-5.38-1.03-10.65-.46-15.92-1.01-6.59-.68-12.74-1.35-19.41-.76-3.04.27-6.25.11-9.38.05-2.86-.05-5.21.88-8.06,1.3-22.58,3.37-44.11,11.23-63.14,23.82-1.53,1.02-1.81,2.43-.94,3.85l10.35,16.92,36.18,60.43,42.69,70.93ZM279.78,336.93l-16.3-27.27-46.85-77.83-62.18-103.72c-.21-.35-1.15-.7-1.53-.75s-1.07.82-.39,1.96l54.66,90.4,49.09,81.49,22.32,37.19c.17.28.93.74,1.21.61s.8-.66.65-.92l-.68-1.16ZM258.1,281l40.33-66.78,52.09-85.84c-.36-.58-1.12-1.08-1.51-.96s-1.1.69-1.42,1.22l-50.31,83.38-41,68.43c-.23.39.17,1.33.52,1.44.28.09.95-.3,1.3-.89ZM306.84,344.89c-.02-1.36-1.53-2.21-2.84-1.98-8.2,1.42-16.21,1.73-24.31.19-2.21-.42-3.78-1.3-4.97-3.28l-45.87-75.83-31.42-51.44-47.98-79.5c-.55-.91-1.03-1.54-1.76-1.35-.45.12-1.01,1.38-.71,1.9l43.54,75.48,47.09,81.38,43.41,75.38c1.57,2.72,3.37,3.49,6.38,3.82,5.23.56,13.64,1.3,18.5.09-.31-9.91,1.09-15.21.95-24.85ZM265.75,288.56l85.3-147.29,4.4-8.01c.19-.34-.07-1.23-.22-1.52s-1.26-.4-1.9.65l-47.1,77.44-45.51,74.63c-.7,2.78.72,6,2.73,7.8,1.27-.99,1.35-2.06,2.3-3.7ZM114.31,311.6c7.07.29,12.93,1.7,19.36,3.72l46.34,14.54c7.27,2.28,14.55,3.27,22.09,3.22l12.55-.09,18.45-30.92c.59-.99-.62-3.1-1.22-4.13l-92.51-159.78c-2.81,3.99-5.31,7.24-8.4,10.4-12.13,12.43-24.37,36.6-29.62,53.28-7.65,24.31-8.76,49.93-4.43,74.93,1.28,7.39,2.29,14,4.92,21.07l6.53,17.51c.16.43,1.41.67,1.49.39l.37-1.33c.24-.87.66-2,1.18-2.43.45-.37,1.96-.43,2.89-.39ZM365.94,316.22c4.7-1.57,23.07-6.51,25.27-3.97,1.1,1.28.23,3.95,2.41,3.54,8.96-20.71,14.15-36.26,14.01-59.41l-.13-21.14c-.27-10.41-2.24-20.05-5.25-30.02-7.61-25.23-20.79-48.02-39.48-66.59l-53.76,92.7-38.87,67.13c-.96,1.66-.82,4.07.1,5.58l15.95,26.34c.8,1.32,2.53,3.01,4.02,2.96l11.92-.43c4.74-.17,9.37-.43,14.01-1.61,16.9-4.31,33.03-9.5,49.81-15.1ZM223.99,337.91l15.35-25.81c.18-.31.14-1.05-.02-1.35s-1.37.06-1.56.37l-15.48,25.83c-.21.36,0,1.33.18,1.63s1.25-.23,1.52-.67ZM215.53,369.35c3.38-.58,5.36-2.66,6.91-5.57,6.8-12.77,14.08-24.98,21.56-37.32,3.52-5.82-2-11.19-2.55-10.29l-14.79,24.7c-.96,1.6-3.93,2.15-5.68,2.47-7.33,1.34-14.38.76-21.78-.16-.76-.09-2.6.06-3.01.75l-.04,24.65c0,3.34,16.72,1.22,19.38.77ZM116.07,325.86l1.6-4.61c-.94-.85-2.68-.26-3.03.94l-1.07,3.57c-.11.37.83,1.46,1.19,1.32s1.17-.84,1.31-1.22ZM388.3,327.41c.63-2.25-.13-4.93-1.26-6.25-.35-.41-2.11-.75-2.1-.25.03.97,1.09,6.73,3.36,6.5ZM366.51,356.29l16.27-20.56c1.26-1.6,1.92-2.91,1.07-4.92l-3.57-8.48c-.36-.86-1.67-1.12-2.55-.76-6.61,2.72-13.13,4.69-20,6.62-1.73.49-3.02,1.67-3.01,3.49l.07,9.92c.04,6.64-.19,12.73.14,19.58,4.13-.95,8.81-1.41,11.57-4.89ZM146.47,361.05c1.5.22,1.18-2.54,1.18-3.33l.11-25.55c0-1.52-.9-3.06-2.21-3.46l-14.29-4.41c-1.72-.53-3.51-1.56-5.22-2.3-1.85-.8-4.11-.05-4.84,2l-3.32,9.36,17.15,22.05c2.53,3.25,7.44,5.07,11.43,5.65ZM347.06,372.55l-10.82,2.31c-17.63,3.77-39.85,6.44-57.44,1.94-1.22-.31-2.49-1.47-3.12-2.52-3.49-6.67-7.03-12.86-10.81-19.36l-13.74-23.62-24.04,41.78c-1.32,2.3-3.92,3.68-6.36,4.23-7.77,1.75-15.38,2.1-23.36,1.95-14.56-1.02-27.35-3.19-42.01-6.22,23.66,17.63,51.32,28.41,80.8,30.6,17.78,1.32,35.91.96,53.3-3.43,13.43-3.39,47.54-17.49,57.61-27.67ZM346.7,333.9c.03-.47-.71-1.33-1.05-1.46-.24-.09-.95.69-.95,1.17.07,9.36-.66,20.36.44,30.39,1.36-9.86.92-19.81,1.56-30.11ZM156.67,363.81l.24-30.83c-.8.47-1.06,1.41-1.07,2.39l-.08,10.51c.92,6.06-.9,11.93.9,17.93ZM167.63,364.39v-26.75c0-.54-1.06-1.56-1.42-1.27-.29.23-.8,1.03-.79,1.5l.62,26.18c.01.55.54,1.22.71,1.42s.88-.79.88-1.08ZM336.21,364.6l.46-27.29c0-.42-1.11-1.04-1.44-.81-.26.19-.69.91-.69,1.32l-.22,26.56c0,.32.6,1.07.85,1.22s1.03-.68,1.04-1.01ZM177.74,340.12c.01-.45-1.39-1.15-1.57-.87s-.69,1.08-.66,1.44c.67,8.93.04,18.14,1.61,27.04,1.54-9.29.41-18.65.62-27.6ZM326.19,366.29l.39-25.83c0-.57-.49-1.3-.93-1.41-.35-.09-1.28.77-1.28,1.15l-.2,26.1c0,.45.61,1.18.98,1.29.29.09,1.04-.74,1.04-1.3ZM316.28,367.08l-.02-24.52c0-.42-.68-1.3-1.09-1.38s-1.17.88-1.17,1.3l-.02,24.88c0,.54.71,1.47,1.18,1.51s1.11-1.01,1.11-1.8ZM188.07,366l-.23-12.08-.06-11.2c0-.38-.95-1.44-1.18-1.19-.17.19-.65.87-.67,1.18l-.23,6.12c-.09,2.5.55,4.61.57,7.17l.09,11.1c0,.45,1.4.74,1.47.43s.24-1.02.23-1.52Z"/>
    <path class="cls-1" d="M128.78,115.39l-23.75-25.57-3.54.42c-1.23.15-3-2.28-3.12-3.69,3.05-2.59,6.32-6.64,10.14-4.2,9.34,5.95,14.63,9.48,22.2,16.99.16.16.92.37,1.12.42.3.08.31-1.17.03-1.49l-7.3-7.98c-3.13-3.42-5.6-6.66-8.21-10.47l-3.07.61c-1.49.3-3.37-2.35-3.01-3.87l7.87-6.13c1.53.02,3.25,2.01,3.64,3.47l-1.78,3.02,24.25,31.65c.82,1.07,1.22,2.2.29,3.33-.6.73-2.13.69-3.04.02l-12.61-9.31c-5.1-3.77-9.83-7.46-14.72-11.57-.48-.4-1.58-.57-2.12-.29l20.05,22.36c.75.17,2.12.17,3.02.1,1.37-.1,3.65,3.1,2.44,4.2-1.55,1.41-3.39,2.89-5.02,4.22-.61.5-2.5-.4-2.93-1.03-1.58-2.26.3-4-.83-5.22Z"/>
    <path class="cls-1" d="M164.96,98.15c-1.2.35-3.33-2.85-2.61-3.86.83-1.18,1.62-2.42.88-3.74l-16.74-29.92c-.42-.75-2.65-.05-3.51-.02-1.59.04-2.63-3-2.08-4.43,2.84-1.62,5.85-3.36,8.94-4.55,1.42-.55,3.19,2.54,2.63,3.62-.71,1.38-.89,2.97-.07,4.23,2.01,3.11,3.11,6.55,5.47,9.41,1.19,1.44,6.02-1.43,5.18-3.26l-4.7-10.21c-.45-.98-1.72-1.51-3.05-1.74s-2.23-2.99-1.41-4.06c2.98-1.55,5.97-3,9.17-3.93,1.51-.44,3.22,3.32,2.06,4.16-.9.65-2.35,1.53-1.88,2.59l14.61,32.59,3.24.69c1.11.24,1.83,3.23,1.19,4.24l-5.67,2.46c-.52.22-1.89-.01-2.36-.29-2.12-1.29-.15-5.17-3.75-11.73l-4.51-8.22c-2.31.31-4.04,1.19-5.63,2.86l6.47,12.4c2.02,3.88,4.63,2.69,5.14,5.02.58,2.66-4.45,4.94-7.04,5.69Z"/>
    <path class="cls-1" d="M467.93,224.5l-40.67,4.66c-.91.1-2.09-.59-2.29-1.22-.28-.91.19-2.39,1.2-2.79l31.27-12.52c.88-.35,2.74-.86,2.46-1.67-.67-1.95-2.3,0-3.24.17l-26.28,5.09c-.71.14-1.46,1.57-1.93,2.44-.6,1.12-3.07,1.35-4.23.83l-1.73-6.59c-.22-.85.78-2.09,1.65-2.37,3.8-1.24,2.33,2.81,6.81,1.84l33.94-7.34c.51-.76.81-1.8,1.15-2.99.3-1.08,2.97-1.56,4.14-.9.58,3.17,2.63,8.85-.85,10.6-8.08,4.06-16.11,7.59-24.88,9.87-1.19.31-2.18.86-2.67,1.81,4.02.61,7.03-.85,10.59-1.46l14.74-2.53c.81-.14,1.22-2.17,1.74-2.98s2.92-.82,4.04-.36l1.44,10.22c-1.07.94-3.57,1.26-4.46.52-.46-.38-1.25-2.4-1.94-2.32Z"/>
    <path class="cls-1" d="M397.41,119.53c.29-.38.17-1.69.01-2.1s-1.52-.62-1.92-.25l-10.41,9.43c-.71.65-.31,2.59-.25,3.72.07,1.33-2.32,2.93-3.72,2.75-2.14-1.97-4.28-4.02-6.11-6.34-1.13-1.43,1.73-4.12,3.1-3.96l2.71,1.22,26.27-25.42c.54-.52-1.09-2.41-1.37-3.1-.54-1.31,1.77-3.69,3.41-3.84,4.43,5.05,12.77,10.8,10.87,18.08-1.64,6.28-7.54,11.08-14.06,11.07-2.61,0-3.99.45-5.54,2.53l-9.25,12.38c.21.85.55,2.17.46,2.73-.17,1.04-3.46,2.59-3.97,2.25-.74-.49-3.68-3.47-2.51-5l12.29-16.17ZM407.89,114.83c3.77-2.12,7.77-5.78,6.33-9.65-.36-.97-1.64-2.15-2.89-2.39l-10.6,9.47c.65,2.88,4.5,4.07,7.16,2.57Z"/>
    <path class="cls-1" d="M116.01,128.61c.49.45,2.32-.16,3.03-.32,1.34-.3,3.24,1.88,3.26,3.32l-6.01,7.22c-1.62-.65-3.1-1.64-4.29-2.73l1.19-3.37-26.67-22.56c-.43-.37-1.71-1.21-2.12-.89l-2.18,1.7c-1.25.55-3.37-1.61-4.04-3.07l5.59-6.59c1.8-2.12,4.46-4.74,7.39-5.34,7.68-1.58,15.67,4.27,16.45,11.86.32,3.13,1.07,4.28,3.61,5.83l12.36,7.57,3.39-.49c.77.45,2.35,2.29,2.29,3.25-.12,1.92-2.38,3.52-4.14,3.83l-17.68-10.92c-.59-.36-1.64-.5-2.17-.17-.45.28-.56,1.57-.16,1.94l10.91,9.94ZM99.85,114.4c2.33-1.39,3.42-4.22,2.44-6.24-1.17-2.43-3.32-4.38-5.49-5.89-2.73-1.9-6.81-.95-7.72,2.14,0,.69,1.6,1.57,2.09,2.02l8.68,7.97Z"/>
    <path class="cls-1" d="M261.64,461.11c.24,5.9,4.6,5.65,2.94,7.84-.36.47-1.51,1.52-2.21,1.56l-8.88.55c-1.25-.89-1.71-4.2-.25-4.91.74-.36,2.84-.76,2.82-1.53l-.36-16.41-.05-20.01c-1.43-.67-2.59-1.1-3.06-1.84-.55-.86-.24-3.81.73-3.93,1.78-.22,7.09-.43,8.04.62,1.65,1.84-2.05,2.74-1.03,9.8.4,2.73-.23,5.65.87,8.34.8,1.96,5.77,1.54,5.93-.56.23-2.9-.33-5.83-.64-8.72-.55-5.16-4.02-6.78-2.99-8.92,1.09-2.25,7.14-1.47,9.42-1.35.41,1.2.83,3.44.09,4.02l-2.27,1.78,4.14,36.39c1.57.17,3.16.41,3.56,1.16.5.93.5,3.38-.48,3.73-3.31,1.18-6.72,1.3-10.1.87-1-.57-1.35-3.41-.45-4.03,1.16-.8,1.93-1.61,1.74-2.93-.65-4.47-.96-8.49-.99-13.02,0-.59-.25-1.9-.71-2.13-1.17-.6-5.12-.35-6.33.29l.53,13.35Z"/>
    <path class="cls-1" d="M184.07,454.73c-6.15,6.07-15.71.34-21.82-1.85-.5-1.52.49-4.34,2.15-4.38,1.35-.03,2.97.26,3.54-1.08l13.72-32.43-1.79-2.28c-.77-.98.87-4.09,2.2-4.19,5.47,2.18,10.16,2.75,11.97,8.31,1.03,3.17.35,6.09-.22,9.25-1.39,7.72-8.42,7.2-8.62,7.87-.44,1.5,3.35,2.79,3.55,7.23.22,4.85-.98,9.91-4.66,13.55ZM187.98,427.71l2.07-6.25c.74-2.25-1.24-4.7-3.58-5.56l-5.45,13.81c.98,1.13,3.14,1.27,4.43.81.92-.33,2.1-1.49,2.54-2.82ZM179.53,450.59c3.02-3.22,4.35-7.48,3.79-11.71-.29-2.18-2.71-4.1-4.85-3.26l-5.47,15.21c1.77,1.99,4.76,1.64,6.53-.24Z"/>
    <path class="cls-1" d="M153.21,442.31l3.83-9.24c.68-1.64-3.89-4.57-5.04-3.14-2.1,2.62-3.9,5.28-5.91,8.1-.43.6,1.04,1.8,1.51,2.6.59,1-1.04,3.06-2.2,4.26l-9.78-5.46c-.49-1.35.81-3.71,2.2-3.86,1.09-.12,2.6-.31,3.46-.62l21.79-28.9-1.7-2.67c.55-1.3,1.77-2.91,3.12-3.61l10.4,5.37c.71,1.24-.28,4.11-1.83,4.25-1.1.1-2.69.35-3.05,1.42l-10.94,32.83c-.49,1.47.08,2.1,1.56,3.13.06,1.2-.86,3.07-1.91,4.52l-10.7-5,2.08-4.35,3.09.37ZM159.9,426.32l8.63-20.45c-2.25.23-2.84,2.03-3.78,3.53l-9.25,14.71c.54,1.35,2.48,2.38,4.4,2.2Z"/>
    <path class="cls-1" d="M359.18,104.2c-5.53,3.26-12.56,2.28-16.51-2.74-.72-.91.66-3.9,1.79-3.98l3.3-.25,19.02-29.99c.67-1.05-1.16-2.31-1.46-3.11-.42-1.11,1.36-3.28,2.5-4.1,4.54,2.72,11.2,5.83,12.12,11.31.77,4.59-.59,9.03-2.94,12.88-4.75,7.79-9.62,15.16-17.82,19.98ZM358.07,99.27c6.95-6.85,12.28-14.53,16.49-23.1,1.28-2.6.47-5.75-2.37-6.55l-19.61,29.12c-.43.64-1.36,1.57-1.04,2.04,1.36,2.02,5,0,6.53-1.51Z"/>
    <path class="cls-1" d="M308.04,458.87c1.73-1.02,2.51-2.21,2.02-3.92l-8.87-31.06c-.57-2.01-1.57-2.49-3.61-3.16-1.16-.38-1.29-3.1-.62-4.18,6.33-2.46,12.71-3.76,17.22,2.52,6.17,8.59,10.39,18.22,11.59,28.76.67,5.91-2.52,11.09-8.14,13.01-2.54.87-5.21,1.66-7.98,2.25-1.62.35-2.6-3.22-1.59-4.22ZM320.42,449.2c-1.22-5.48-2.49-10.1-4.23-15.07-1.07-3.05-6.74-18.06-11.56-14.21l10.68,32.82c.33,1.03.34,2.38,1.36,2.59,2.81.6,3.81-5.89,3.75-6.13Z"/>
    <path class="cls-1" d="M398.59,149.69c3.21.04,5.26,0,7.61-2.06l4.56-4c.25-1.29-1.47-3.57-3.07-4.17l-9.2,5.18c-.07,1.27-.06,3.11-.63,3.76-.65.73-2.6,1.5-3.51,1.07l-4.51-6.06c-.06-1.03,1.22-2.48,2-2.98.89-.57,2.84-.02,4.09.32l31.97-18-.22-3.61c.45-.93,2.15-1.91,3.58-2.34,2.97,4.24,5.8,8.06,8.58,12.5,1.01,1.61-2.66,4.44-3.84,3.31l-1.94-1.86-29.07,23.68c.14,1.56-.07,3.15-.86,3.78-.72.58-3.2,1.17-3.73.35l-3.03-4.71c-.64-.99-.1-4.18,1.24-4.16ZM416.19,139.37l16.12-12.38c.35-.27.65-1.03.74-1.28s-.94-.78-1.21-.62l-18.24,10.71c-.82,1.31,1.33,4.54,2.59,3.57Z"/>
    <path class="cls-1" d="M197.23,84.18c-1.14,1.87-3.48,2.34-5.31,2.25-1.62-.08-3.51-1.18-4.63-2.75-7.96-11.18-14.16-23.63-14.2-37.71,0-2.16,1.12-4.51,2.35-5.59,3.67-3.25,9.24-1.86,11.99,2.17,3.35,4.92,5.77,10.13,7.5,15.86s5.24,20.93,2.3,25.77ZM193.11,72.13l-3.99-12.16c-1.59-4.83-3.28-9.36-5.67-13.85-.7-1.32-2.57-1.86-3.69-1.38-.84.36-2.09,1.95-1.82,3.08,2.14,8.93,7.2,23.27,11.53,31.23.3.54,1.4,1.19,1.95,1.35,3.29.97,2.22-6.65,1.69-8.26Z"/>
    <path class="cls-1" d="M433.72,204.04c-4.74.79-9,.75-13.11-1.39-1.45-.76-2.39-2.61-2.03-4.38.57-2.78,2.3-5.34,4.84-6.8,8.5-4.86,17.53-8.46,27.17-10.36,5.12-1.01,13.94-1.9,16.25,3.74,2.58,6.32-3.75,10.98-9.39,13.24-7.59,3.04-15.38,4.55-23.73,5.95ZM433.87,198.9l15.16-4.07c3.9-1.05,7.42-2.46,11.08-4.22.7-.34,1.39-1.79,1.4-2.49.09-3.49-6.74-2.43-9.08-1.75l-11.82,3.39c-5.43,1.56-10.38,3.4-15.38,6.08-.74.39-1.23,1.77-.98,2.4.99,2.52,6.88,1.41,9.62.67Z"/>
    <path class="cls-1" d="M65.13,200.9l7.78,2.78c1.64.58,2.7.83,4.12-.56.86-.84,4.21-.14,4.19,1.39-.03,2.37-.67,5.04-1.34,7.3-.95.89-3.98.79-4.59-.27-.69-1.19-1.26-2.55-2.37-2.96l-31.87-11.9c-.49-.18-1.93-.54-2.19-.13l-1.13,1.8c-.81,1.3-4.37.17-4.5-1.46l3.8-14.58c1.48-.45,4.09-.13,4.55,1.27.28.83.32,2.96,1.19,3.12l31.81,5.8c3.01.55,4.59.54,7.4-1.01,1.4-.77,3.01,2.43,2.51,3.89-.57,1.66-1.32,3.75-1.93,5.28-.29.73-2.58.87-3.21.46s-1.26-1.63-2.08-2.3c-2.62-2.15-6.81-2.86-10.35-2.75-1.57.05-2.36,3.26-1.81,4.84ZM60.04,194.15l-14.58-2.94-5.73-1.29c-.37-.08-1.33.29-1.46.62s.41,1.22.77,1.35l19.05,6.71c.92.32,2.06-.76,2.41-1.39s.41-2.88-.46-3.05Z"/>
    <path class="cls-1" d="M89.9,392.94c-.42.37-1,1.23-.83,1.59s.73,1.16,1.05,1.43l2.89,2.56,4.09-4.03c.81-.8,2.5-1.23,3.51-.92.87.27,2.4,2.15,1.76,2.8l-8.61,8.8c-.43.44-1.9.63-2.38.12l-12.81-13.72c-.14-1.66,2.33-4.01,3.85-3.48.74.26,2.68,1.42,3.34.87l27.42-23.17-.67-3.41c.92-.89,2.52-1.86,3.95-2.38l10.89,11.66-8.74,8.8c-.52.52-2.34.26-2.92-.21-.63-.52-.92-2.29-.28-2.9l4.22-4.01c.66-1.71-1.83-4.15-3.41-3.94l-10.74,9.7,2.19,2.79c.42,1.29-2.25,3.85-3.71,3.15-.8-.38-2.67-2.13-3.48-1.42l-10.57,9.3Z"/>
    <path class="cls-1" d="M102.61,144.39c.84.59,2.51-.33,2.95-.93.49-.66,1.09-2.57.39-3.11l-5.11-3.99c-.53-.41-.39-1.97-.04-2.45s1.44-1.09,2.22-1.16l10.83,8.54-9.21,12.75c-1.54.19-3.84-.97-3.89-2.28-.08-1.8-.23-2.96-1.55-3.83l-28.66-18.94c-.98-.65-2.11,1.15-2.87,1.48-1.54.66-3.97-1.34-4.23-3.1l10.85-14.98c.4-.55,1.96-1.12,2.43-.72l9.13,7.78c.71,1.1-1.82,4.1-3.17,3.28-1.83-1.11-3.31-2.37-5.12-3.71-.96-.71-2.59,1-3.17,1.92-.86,1.37-.74,2.75.53,3.67l8.31,6.07c.56.41,1.83,1.11,2.44.98.69-.14,1.52-1.22,2.32-2.01,1.17-.58,3.85,1.57,3.95,2.86l-1.35,3.4,12.03,8.48Z"/>
    <path class="cls-1" d="M383.58,103.41c-.94.68-2.3-1.97-3.22-2.04-.4-.03-1.2.51-1.49.84l-8.86,10.3c-1.3,1.51,1.48,5.05,3.28,4.2,2.91-1.95,4.5-7.59,7.5-4.99.52.45,1.19,2.07.7,2.57l-9.47,9.7-11.85-10.01c-.26-1.59,1.37-4.56,2.7-4.38l2.96.41,22.84-27.83-1.6-3.4c.56-1.42,1.91-2.93,3.51-3.29l14.15,12.06c.98.83.85,2.16.03,2.95l-7.89,7.62c-.97.94-3.77-1.76-3.42-3.08l4.18-4.6c.85-2.03-2.43-5.06-4.41-4.38l-8.42,9.29c-1.82,2.01,2.15,4,1.52,5.01s-1.77,2.33-2.73,3.03Z"/>
    <path class="cls-1" d="M339.82,76.26l-6.91,13.16c.79,1.61,3.04,2.69,4.96,2.82l3.84-7.03c.6-.18,1.96.07,2.44.38.56.37.99,1.89.65,2.49l-3.46,6.14c-.93,1.64-1.88,3.06-3.11,4.63l-13.77-6.7c-.33-1.38.32-4.18,1.46-4.38l3.17-.55,15.31-32.34c.4-.84-1.57-2.06-1.91-2.72-.64-1.21.96-3.27,2.09-4.28l16.72,8.45c.54.27,1.07,1.85.71,2.46l-5.31,8.98c-.38.65-2.03.66-2.65.4-.7-.3-1.88-1.83-1.49-2.55l2.98-5.4c-.56-2.19-3.88-3.75-5.79-2.86l-5.75,10.98c-.54,1.02-.17,2.35.81,2.87.64.34,1.56.77,1.6,1.23.12,1.19-1.03,2.97-1.89,3.86-1.01,1.04-3.33-2.62-4.69-.04Z"/>
    <path class="cls-1" d="M71.15,217.95l-5.28-.5c-.84-.08-1.91-1.1-1.99-1.79-.15-1.23.72-2.49,2.02-2.28,3.18.52,6.02.9,9.09,1.19,6.71.64,2.34,11.56,1.7,16.45-6.36,2.82-3.51-3.81-10.75-3.57-8.06.26-22.92-2.87-32.12-2.94-.64,1.66-1.27,3.05-2.3,3.08-1.43.04-3.47-.46-3.25-2.05l2.3-17.39c.05-.41.38-1.29.71-1.44s1.27-.17,1.65-.08l10.49,2.48c1.09.26,1.18,3.68-.12,4.07-2.8.83-6.16-1.78-7.54-.59-1.07.93-1.96,4.72-1.17,5.96l13.91,1.77c.98.12,1.63-1.42,1.92-2.53.44-1.67,4.57-1.67,4.84,0,.2,1.29.4,2.78.69,3.91l15.34,1.96c.9.12,1.5-2.08,1.53-2.83l.07-2.04c.02-.44-1.25-.82-1.71-.86Z"/>
    <path class="cls-1" d="M297.42,460.15l-1.43-7.32c-.13-.65,1.14-1.51,1.76-1.72s2.5-.08,2.67.61l2.99,11.71c.13.51-.6,1.66-1.08,1.75l-18.79,3.48c-1.02-.85-1.86-3.69-.93-4.5s1.97-1.56,2.63-2.39l-5.52-34.96c-.17-1.07-1.66-1.27-2.82-1.76-1.09-.47-.95-3.4-.22-4.73l15.17-2.48,3.1,11.94c.33,1.27-2.78,2.37-3.5,1.6l-1.75-7.09c-1.38-.8-3.96-.56-5.48.57l2.58,14.24c.9.41,2.48.51,3.53.55,1.18.05,2.15,3.21,1.44,4.04-.96.56-2.49.96-3.1,1.56-1.29,1.27,1.8,13.27,2.64,16.12,1.61.99,4.42.38,6.1-1.22Z"/>
    <path class="cls-1" d="M255.97,55.25l-.02,14.98c.55,1.4,4.42,2.02,4.98.32,1.46-4.44-1.18-8.09,2.44-8.35.67-.05,2.25.57,2.21,1.23l-.55,10.18c-.05.84-.23,2.35-.8,2.7-1.27.77-12.63-.19-15.38-.51-1.4-.17-1.41-3.74-.3-4.21,1.59-.68,2.53-1.63,2.53-3.26l-.05-33.69c0-1.19-2.19-1.46-3.01-1.87-1.47-.73-1.2-3.68,0-4.99l18.36.64c1.53.05,2.49,1.19,2.29,2.68l-1.42,10.57c-1.02.51-3.33.43-4.1-.58-1.46-1.91.93-5.97-.48-7.25-1.13-1.02-3.64-1.02-5.13-.33-.61.28-.86,1.58-.86,2.46,0,3.54-.16,6.63-.46,10.13-.04.51.06,1.52.35,1.87,1.01,1.21,3.47.67,3.8,1.39.16.34.35,1.45.29,1.82l-.36,2.25c-.14.88-4.33.12-4.34,1.81Z"/>
    <path class="cls-1" d="M95.99,168.25c-.95,1.46-4.49.01-4.5-1.42,0-1.89-.27-3.14-1.92-4.01l-30.54-16.17c-.62-.33-1.89.32-2.29.77-.46.51-.94,2.39-.31,2.73l9.89,5.34c.02.85-.11,2.03-.36,2.55-.29.61-2.01.86-2.64.55l-12.5-6.12c-.72-.35-1.2-1.67-.77-2.41l10.05-17.62c.55-.96,1.96-1.3,2.83-.74l11.17,7.15c.87.56,1.5,1.54,1.37,2.46s-1.71,2.21-2.59,1.68l-9.1-5.44c-.67-.4-2.19.96-2.36,1.71-.21.91.34,2.14,1.35,2.72l28.87,16.68c1.67.97,3.05.44,4.38-.32,1.26-.72,4.37,1.23,4.07,2.56-1.18,2.55-2.49,4.84-4.11,7.33Z"/>
    <path class="cls-1" d="M412.86,167.75c-.01,1.77-.07,3.23-.71,3.89-.71.74-3.35,1.46-3.88.59-1.59-2.61-2.84-4.95-3.95-7.8-.04-1.31,2.93-3.23,3.99-2.52.85.57,2.14,1.79,2.99,1.33l32.36-17.55c.92-1.02-1.05-4.27-2.44-3.5l-8.4,4.64c-.99.55-2.48.31-2.91-.47-.64-1.17-.25-2.49.83-3.15l13.04-7.93,11.07,20.33c.1,1.08-1.53,2.16-2.49,2.52-4.3,1.61-8.27,3.31-12.29,5.31-.71-.27-1.51-.77-1.77-1.27-.32-.6,0-2.35.63-2.65l9.64-4.63c.94-1.04-.75-4.31-2.32-3.86l-33.4,16.72Z"/>
    <path class="cls-1" d="M119.16,411.35c-4.98,8.5-13.26,9.25-14.77,6.67-1.98-3.39-4.34-5.61-7.92-7.82,3.93-3.71,7.36-7.1,10.36-11.12.82-.17,2.04-.07,2.62.2.66.31,1.84,2.07,1.37,2.7l-5.2,6.92c-.51.68-.05,2.61.42,3.23.52.69,2.15,1.7,3.11,1.25,4.19-1.99,6.51-6.02,7.04-10.46,1.34-11.09,2.96-23.31,15.99-25.83,3.09-.6,2.46,3.62,8.41,6.39l-8.16,9.95c-.4.49-1.94.35-2.48.05-.63-.35-1.46-1.96-.99-2.62l4.04-5.69c.47-.66-.71-2.49-1.45-2.77-.86-.33-2.22.04-3,.8-7.7,7.49-2.79,16.87-9.41,28.16Z"/>
    <path class="cls-1" d="M131.92,431.19c1.13,1.35-1.29,3.66-2.64,4.28l-10.11-6.73c-.78-1.31,1.3-4.33,2.81-4.05,1.21.22,2.14.38,3.33.42l21.46-29.82c.38-.52-.39-1.84-.9-2.04s-2.04-.26-2.5.34l-5.65,7.4c-.63.83-1.79,1.07-2.63.68-.76-.36-1.32-1.89-.78-2.58l8.66-11.02c.72-.92,2.12-1.17,3.07-.38,3.72,3.06,7.44,5.58,11.7,7.84,1.2.64,1.83,1.97,1.07,3.2l-7.11,11.47c-.64,1.02-1.64,1.52-2.59.99-1.27-.7-1.21-1.88-.46-3.02l4.82-7.27c.4-.6.45-1.91.07-2.43-.51-.7-2.36-1.08-2.9-.29l-20.68,30.65,1.97,2.36Z"/>
    <path class="cls-1" d="M85.08,188.96l-12.85-4.72c-.79-.29-.76-2.08-.27-2.96,1.79-3.22,8.68,4.02,12.22.7.51-.47.89-2.11.48-2.67-4.14-5.66-13.05-4.06-19.12-2.84-8.28,1.67-16.56,2.37-22.64-4.6-1.91-2.19-1.74-5.27.5-7.2,3.19-2.75,1.61-4.21,3.16-6.46.21-.3,1.33-.32,1.73-.15l10.23,4.41c.72.31.73,2.22.46,2.89s-1.67,1.78-2.39,1.53l-5.13-1.74c-.99-.34-2.6.09-3.25.82-.61.69-1.05,2.62-.41,3.34,3.72,4.19,12.47,2.05,17.75.93,8.34-1.78,16.74.18,23.03,5.86,2.06,1.86,2.26,4.6.42,6.78-2.89,3.42-.93,7.16-3.92,6.06Z"/>
    <path class="cls-1" d="M245.05,469.13c-1.89,2.69-5.39,2.88-8,1.33-3.46-2.06-5.23-.1-7-1.37-.42-.3-.69-1.72-.63-2.25l1.49-11.92c.22-1.11,3.7-1.26,4.28-.21l.2,7.82c.04,1.74,1.22,3.25,2.85,3.51,1.46.24,3.34-1.03,3.76-2.81,1.86-7.93-4.2-13.72-7.43-21.24-2.61-6.08-2.39-12.81.78-18.5,1.25-2.23,3.68-2.8,5.87-1.3s4.42-.63,5.74.94c.44.53.06,2.11.06,2.89l-.05,9.03c0,1.09-1.67,1.56-2.76,1.33-2.91-.6.47-6.05-2.9-9.51-2.32-2.39-7.29,3.29-.18,14.72,4.95,7.96,10.3,18.45,3.91,27.53Z"/>
    <path class="cls-1" d="M398.14,398.86c3.31,3.88,8.3,11.52,3.25,15.67-5.27,4.34-13.74-2.77-17.05-6.64l-7.7-8.98c-3.31-3.86-13.56-17.01-8.83-21.38,1.17-1.08,3.23-1.5,4.88-.76,10.28,4.63,18.13,13.49,25.45,22.08ZM398,411.53c2.53-1.46.19-5.12-1.35-6.9-7.17-8.33-14.55-16.08-22.64-23.46-.75-.69-2.18-.95-2.74-.51-2.97,2.32,4.65,10.28,6.77,12.64l12.15,13.49c1.6,1.77,5.65,5.98,7.8,4.74Z"/>
    <path class="cls-1" d="M292.78,39.76l-8.03,15.59c-1.43,2.77-1.58,6.05-2.15,9.18l-1.46,7.98c.96.92,2.23,1.91,2.42,2.8s-.49,3.48-1.42,3.49c-2.76-.13-5.77-.58-8.39-1.14-.9-.93-.81-3.82.16-4.44l2.83-1.81c.14-4.95,2.08-9.92,1.67-14.87-.59-7-2.41-13.48-3.55-20.45-.19-1.16-1.85-1.83-2.87-2.54-1.21-.84-.79-3.52.27-4.66l10.95,1.16c.3,1.58.34,3.17.14,4.63l-3.23,1.08,1.68,11.79c.06.4.43.98.6,1.17.23.25,1.15-.38,1.33-.76l4.79-10.24c-.02-.84-1.05-1.88-2.02-2.63-.9-.7-.11-3.89,1.31-3.83,3.31.15,6.45.6,9.63,1.42,1.42.37.77,4.31-.55,4.5-2.02.29-3.19.79-4.12,2.6Z"/>
    <path class="cls-1" d="M369,423.48c-5.61-7.29-18.56-23.87-16.58-32.68.63-2.8,4.45-3.53,6.73-1.87,11.42,8.31,20.68,19.48,26.22,32.5.91,2.14.32,5.23-1.01,6.71-1.21,1.35-3.63,3.08-5.92,2.29-3.65-1.26-6.96-3.73-9.44-6.95ZM380.66,420.86l-13.15-18.07c-1.36-1.87-8.92-12.35-11.21-10.14-1.28,1.23.13,4.72.86,5.76l16.17,22.93c1.32,1.87,3.62,3.55,5.58,4.7.71.34,2.25-.99,2.43-1.74s0-2.52-.68-3.44Z"/>
    <path class="cls-1" d="M212.85,74.91c4.06.9,2.45-8.65,2.25-10.9.3-.85,2.38-1,3.26-.63.78.33,1.32,1.92,1.31,3.01-.03,3.91.41,12.52-4.32,14.21-5.23,1.87-10.04-6.1-11.6-10.56-2.05-5.84-3.74-11.61-5.14-17.67-.99-4.27-3.25-21.03,4.98-19.78l4.59.7c.88-.96,1.7-1.89,2.43-2.06.79-.18,2.36.26,3.18.73l1.83,12.55c.12.8-1.29,1.84-1.94,1.93-4.39.56-1.49-3.81-6.34-8.15-.56-.5-2.06-.78-2.73-.58-3,.92-1.51,7.89-.91,10.52l2.83,12.4c.75,3.29,3.2,13.58,6.32,14.27Z"/>
    <path class="cls-1" d="M212.03,447.15l-3.51,18.32c-.12.61-1.62,1.28-2.25,1.13l-18.01-4.45c-.45-1.4.11-4.15,1.23-4.45,2.08-.54,3.2-.55,3.8-2.63l9.3-32.61c.2-.71-1.44-1.75-1.92-2.3-.76-.86.4-3.83,1.55-4.12,2.65.14,5.53.7,8.04,1.71,1.31.52,1,4.11-.18,4.44-1.93.53-3.21,1.09-3.72,3.18l-8.17,33.44c1.53,1.38,3.94,1.81,6.08,1.62l2.99-13.39c.7-1.09,3.27-1.3,4.77.1Z"/>
    <path class="cls-1" d="M326.35,65.41c-.88,4.2-4.94-.3-6.04,2.54l-5.29,13.66,2.16,2.25c.49,1.26-.69,4.06-2.11,4.45l-7.68-3.02c-1.22-.48-.77-4.05.39-4.52l3.14-1.28,11.65-33.08c.34-.98-1.17-1.85-1.84-2.41-1.36-1.11-.22-4.13,1.41-4.86l17.77,6.53c.94.35,1.33,1.62.95,2.44l-4.43,9.42c-.33.71-1.82.89-2.56.76s-2.24-1.44-1.94-2.17l2.41-5.82c-.98-1.96-4.14-3.53-6.06-2.47l-4.66,12.04c-.17.44-.38,1.08-.27,1.38.38,1.1,2.81.88,3.06,1.77.14.5.06,1.81-.06,2.37Z"/>
    <path class="cls-1" d="M369,437.7l-12.85,7.46c-.42.25-1.8.46-2.15.12s-.79-1.05-1.03-1.71c-2.08-5.71-4.08-11.49-3.11-17.68,1.37-8.75-1.07-17.85-8.31-23.35-1.63-.57-3.36,2.27-2.99,3.85,1.31,5.49,5.17,6.83,2.9,8.61-.51.4-1.85.84-2.65.73-2.53-4.24-5.49-10.06-3.23-14.93.84-1.8,3.18-2.55,4.81-2.69,2.16-.18,3.82,1.04,5.45,2.44,6.75,5.79,9.53,13.94,7.94,22.65-.96,5.26-.12,10.34,2.07,15.31,2.22-.08,9.2-2.73,6.9-5.58-1.36-1.68-2.63-3.32-3.32-5.25-.52-1.44,3-3.06,3.71-1.98l6.17,9.22c.49.74.63,2.23-.3,2.77Z"/>
    <path class="cls-1" d="M417.42,397.93c-1.11,1.15-4.01-1.4-3.58-2.93.38-1.37.06-3.45-.95-4.1l-5.34-3.48c-1.88,2.17-2.98,3.51-4.8,4.81-2.05,1.45-4.78.8-6.02-1.59-4.47-8.6-9.52-17.38-14.57-25.67-.32-.53-.26-2,.02-2.42s1.13-.81,2-1.07l21.27,17.73c2.9,2.42,3.48-.73,5.58.36.49.25,1.08,1.41,1.12,2.01.24,3.83,2.92,7.29,6.72,7.37.97.02,2.33.32,3.01.62s1.43,2.28.92,2.82l-5.36,5.57ZM404.26,383.65c-4.87-3.82-9.1-7.51-13.03-11.69-.2-.22-1.01-.5-1.24-.32s-.27,1.02-.05,1.37l9.61,15.93c2.24-1.2,4.22-3.07,4.71-5.29Z"/>
    <path class="cls-1" d="M419.76,186.69c-.29,1.13-3.31,1.91-4.42,1.23l-2.98-6.59c-.55-1.21.22-2.81,1.39-3.3.68-.29,1.76-.64,2.26-.57.59.09,1.12,1.16,1.75,2.27l34.63-14.36.05-3.91c.79-.88,2.75-1.56,4.33-1.64l4.41,11.33c-.59,1.34-3.44,2.8-4.48,1.68l-1.56-1.69c-.4-.43-1.69-.09-2.47.21l-32.19,12.53-.73,2.83Z"/>
    <path class="cls-1" d="M223.29,468.78c-3.77.14-7.71-.8-11.19-1.48-.84-.9-.83-3.87.15-4.36,1.15-.3,2.49-.64,3.41-1.14l6-34.01c.3-1.72-.73-2.39-1.95-3.37-.9-.73-.43-3.52.54-4.36,2.87-.09,6.24.18,8.98,1.15,1.07.53,1.06,4.01,0,4.49l-2.86,1.3-5.04,35.86c.7.67,1.74,1.19,2.73,1.62,1.08.47,1.03,4.24-.77,4.3Z"/>
    <path class="cls-1" d="M233.66,77.13l-6.92.64c-1.07.1-1.87-2.01-1.83-2.99.05-1.23.86-2.1,2.66-2.95l-4.8-35.91c-.92-.47-1.78-.84-2.81-1.2-1.49-.52-1.96-3.47-.84-4.55l8.24-1.06c1.8-.23,4.1,1.32,3.92,2.96-2.89,2.25-2.85,4.55-2.48,7.73l3.65,31.39c1,.78,2.01,1.52,2.2,2.28.23.91-.19,3.22-1,3.67Z"/>
    <path class="cls-1" d="M246.56,74.19c-.45,2.22-6.5,2.5-8.71,2.25-.8-.09-1.44-2.25-1.35-3.07s.96-1.76,2.11-2.64c-1.4-3.69-2.71-7.86-4.46-11.52-2.15-4.48-2.71-8.55-1.32-13.5l2.39-8.49c.19-.68.51-1.72.52-2.3.05-1.52-3.13-1.43-3.08-3.88.02-.71.87-2.19,1.62-2.35,2.83-.58,5.89-1.11,8.84-.7,1.11.15,1.43,3.61.48,4.27-1.69,1.14-2.61,3.02-3.52,5.02-3.41,7.51-3.99,15.41-.36,23.06,1.12,2.37,2.07,4.83,3.01,7.39,1.68,4.58,4.3,4.2,3.83,6.46Z"/>
    <path d="M251.12,272.09l-42.69-70.93-36.18-60.43-10.35-16.92c-.87-1.42-.6-2.84.94-3.85,19.03-12.59,40.56-20.45,63.14-23.82,2.85-.42,5.2-1.35,8.06-1.3,3.13.06,6.34.22,9.38-.05,6.67-.59,12.82.08,19.41.76,5.27.54,10.54-.02,15.92,1.01,8.1,1.55,15.94,2.97,23.76,5.64,13.51,4.62,27.32,11.3,39.27,19.33l-23.91,39.33-66.75,111.25Z"/>
    <path d="M365.94,316.22c-16.78,5.6-32.92,10.79-49.81,15.1-4.64,1.18-9.27,1.44-14.01,1.61l-11.92.43c-1.48.05-3.22-1.64-4.02-2.96l-15.95-26.34c-.92-1.51-1.06-3.92-.1-5.58l38.87-67.13,53.76-92.7c18.69,18.57,31.87,41.36,39.48,66.59,3.01,9.97,4.98,19.61,5.25,30.02l.13,21.14c.14,23.15-5.05,38.7-14.01,59.41-2.18.41-1.31-2.27-2.41-3.54-2.2-2.55-20.57,2.4-25.27,3.97Z"/>
    <path d="M114.31,311.6c-.93-.04-2.44.03-2.89.39-.53.43-.94,1.56-1.18,2.43l-.37,1.33c-.08.28-1.33.05-1.49-.39l-6.53-17.51c-2.63-7.06-3.64-13.67-4.92-21.07-4.33-25-3.22-50.62,4.43-74.93,5.25-16.68,17.49-40.86,29.62-53.28,3.08-3.16,5.59-6.41,8.4-10.4l92.51,159.78c.59,1.03,1.81,3.14,1.22,4.13l-18.45,30.92-12.55.09c-7.55.05-14.82-.94-22.09-3.22l-46.34-14.54c-6.43-2.02-12.3-3.43-19.36-3.72Z"/>
    <path d="M347.06,372.55c-10.07,10.18-44.18,24.28-57.61,27.67-17.39,4.39-35.52,4.75-53.3,3.43-29.49-2.19-57.14-12.97-80.8-30.6,14.66,3.04,27.44,5.21,42.01,6.22,7.99.14,15.6-.21,23.36-1.95,2.44-.55,5.04-1.93,6.36-4.23l24.04-41.78,13.74,23.62c3.78,6.5,7.32,12.69,10.81,19.36.63,1.05,1.9,2.21,3.12,2.52,17.59,4.5,39.82,1.82,57.44-1.94l10.82-2.31Z"/>
    <path d="M306.84,344.89c.15,9.64-1.26,14.94-.95,24.85-4.86,1.21-13.27.47-18.5-.09-3.01-.32-4.81-1.09-6.38-3.82l-43.41-75.38-47.09-81.38-43.54-75.48c-.3-.52.27-1.78.71-1.9.73-.19,1.21.44,1.76,1.35l47.98,79.5,31.42,51.44,45.87,75.83c1.19,1.97,2.77,2.86,4.97,3.28,8.1,1.54,16.11,1.23,24.31-.19,1.31-.23,2.82.62,2.84,1.98Z"/>
    <path d="M215.53,369.35c-2.65.45-19.38,2.57-19.38-.77l.04-24.65c.41-.69,2.26-.84,3.01-.75,7.4.92,14.45,1.5,21.78.16,1.75-.32,4.72-.87,5.68-2.47l14.79-24.7c.54-.91,6.07,4.47,2.55,10.29-7.48,12.34-14.76,24.56-21.56,37.32-1.55,2.9-3.53,4.99-6.91,5.57Z"/>
    <path d="M265.75,288.56c-.95,1.64-1.03,2.71-2.3,3.7-2.02-1.8-3.44-5.01-2.73-7.8l45.51-74.63,47.1-77.44c.64-1.05,1.76-.94,1.9-.65s.41,1.18.22,1.52l-4.4,8.01-85.3,147.29Z"/>
    <path d="M146.47,361.05c-4-.59-8.9-2.4-11.43-5.65l-17.15-22.05,3.32-9.36c.73-2.05,2.98-2.8,4.84-2,1.71.74,3.5,1.77,5.22,2.3l14.29,4.41c1.31.4,2.22,1.95,2.21,3.46l-.11,25.55c0,.79.31,3.55-1.18,3.33Z"/>
    <path d="M366.51,356.29c-2.76,3.48-7.44,3.94-11.57,4.89-.34-6.85-.1-12.94-.14-19.58l-.07-9.92c-.01-1.82,1.27-3,3.01-3.49,6.86-1.94,13.38-3.9,20-6.62.88-.36,2.19-.1,2.55.76l3.57,8.48c.85,2.02.19,3.32-1.07,4.92l-16.27,20.56Z"/>
    <path d="M279.78,336.93l.68,1.16c.15.26-.37.8-.65.92s-1.04-.33-1.21-.61l-22.32-37.19-49.09-81.49-54.66-90.4c-.69-1.13.02-2,.39-1.96s1.32.4,1.53.75l62.18,103.72,46.85,77.83,16.3,27.27Z"/>
    <path d="M258.1,281c-.36.59-1.02.98-1.3.89-.35-.11-.75-1.05-.52-1.44l41-68.43,50.31-83.38c.31-.52,1.03-1.1,1.42-1.22s1.15.38,1.51.96l-52.09,85.84-40.33,66.78Z"/>
    <path d="M316.28,367.08c0,.79-.64,1.84-1.11,1.8s-1.18-.97-1.18-1.51l.02-24.88c0-.42.76-1.38,1.17-1.3s1.09.95,1.09,1.38l.02,24.52Z"/>
    <path d="M326.19,366.29c0,.56-.75,1.38-1.04,1.3-.37-.11-.98-.84-.98-1.29l.2-26.1c0-.39.93-1.24,1.28-1.15.44.11.93.84.93,1.41l-.39,25.83Z"/>
    <path d="M223.99,337.91c-.27.45-1.33.98-1.52.67s-.4-1.28-.18-1.63l15.48-25.83c.19-.31,1.4-.68,1.56-.37s.2,1.05.02,1.35l-15.35,25.81Z"/>
    <path d="M167.63,364.39c0,.29-.7,1.28-.88,1.08s-.7-.87-.71-1.42l-.62-26.18c-.01-.47.51-1.27.79-1.5.36-.29,1.41.73,1.41,1.27v26.75Z"/>
    <path d="M336.21,364.6c0,.33-.79,1.16-1.04,1.01s-.85-.91-.85-1.22l.22-26.56c0-.42.43-1.14.69-1.32.33-.23,1.44.39,1.44.81l-.46,27.29Z"/>
    <path d="M346.7,333.9c-.64,10.29-.2,20.25-1.56,30.11-1.1-10.03-.37-21.03-.44-30.39,0-.48.71-1.26.95-1.17.33.13,1.08.99,1.05,1.46Z"/>
    <path d="M177.74,340.12c-.21,8.95.92,18.31-.62,27.6-1.57-8.89-.94-18.11-1.61-27.04-.03-.36.49-1.16.66-1.44s1.58.42,1.57.87Z"/>
    <path d="M188.07,366c0,.51-.16,1.22-.23,1.52s-1.46.02-1.47-.43l-.09-11.1c-.02-2.56-.67-4.68-.57-7.17l.23-6.12c.01-.31.49-.99.67-1.18.23-.25,1.18.81,1.18,1.19l.06,11.2.23,12.08Z"/>
    <path d="M156.67,363.81c-1.8-5.99.02-11.87-.9-17.93l.08-10.51c0-.98.27-1.92,1.07-2.39l-.24,30.83Z"/>
    <path d="M388.3,327.41c-2.27.23-3.33-5.54-3.36-6.5-.01-.5,1.74-.16,2.1.25,1.14,1.32,1.89,4,1.26,6.25Z"/>
    <path d="M116.07,325.86c-.13.38-.95,1.08-1.31,1.22s-1.3-.95-1.19-1.32l1.07-3.57c.36-1.2,2.1-1.79,3.03-.94l-1.6,4.61Z"/>
    <path d="M407.89,114.83c-2.66,1.5-6.51.3-7.16-2.57l10.6-9.47c1.26.24,2.53,1.42,2.89,2.39,1.44,3.88-2.56,7.53-6.33,9.65Z"/>
    <path d="M99.85,114.4l-8.68-7.97c-.49-.45-2.09-1.33-2.09-2.02.91-3.09,4.99-4.04,7.72-2.14,2.17,1.51,4.32,3.46,5.49,5.89.97,2.02-.11,4.85-2.44,6.24Z"/>
    <path d="M179.53,450.59c-1.77,1.89-4.76,2.24-6.53.24l5.47-15.21c2.14-.84,4.56,1.08,4.85,3.26.56,4.24-.78,8.5-3.79,11.71Z"/>
    <path d="M187.98,427.71c-.44,1.34-1.62,2.49-2.54,2.82-1.29.46-3.45.31-4.43-.81l5.45-13.81c2.35.86,4.33,3.31,3.58,5.56l-2.07,6.25Z"/>
    <path d="M159.9,426.32c-1.91.17-3.86-.86-4.4-2.2l9.25-14.71c.94-1.5,1.53-3.3,3.78-3.53l-8.63,20.45Z"/>
    <path d="M358.07,99.27c-1.53,1.51-5.17,3.53-6.53,1.51-.32-.47.61-1.41,1.04-2.04l19.61-29.12c2.84.79,3.65,3.94,2.37,6.55-4.2,8.57-9.53,16.25-16.49,23.1Z"/>
    <path d="M320.42,449.2c.05.25-.94,6.73-3.75,6.13-1.02-.22-1.02-1.56-1.36-2.59l-10.68-32.82c4.83-3.85,10.5,11.15,11.56,14.21,1.74,4.97,3.01,9.59,4.23,15.07Z"/>
    <path d="M416.19,139.37c-1.25.96-3.41-2.27-2.59-3.57l18.24-10.71c.27-.16,1.3.38,1.21.62s-.39,1.01-.74,1.28l-16.12,12.38Z"/>
    <path d="M193.11,72.13c.53,1.61,1.6,9.24-1.69,8.26-.55-.16-1.65-.8-1.95-1.35-4.34-7.96-9.4-22.29-11.53-31.23-.27-1.13.98-2.72,1.82-3.08,1.11-.48,2.99.06,3.69,1.38,2.39,4.49,4.09,9.02,5.67,13.85l3.99,12.16Z"/>
    <path d="M433.87,198.9c-2.74.74-8.63,1.85-9.62-.67-.25-.63.24-2.01.98-2.4,5-2.67,9.95-4.52,15.38-6.08l11.82-3.39c2.35-.67,9.17-1.74,9.08,1.75-.02.7-.7,2.15-1.4,2.49-3.66,1.77-7.18,3.18-11.08,4.22l-15.16,4.07Z"/>
    <path d="M60.04,194.15c.87.17.81,2.42.46,3.05s-1.49,1.71-2.41,1.39l-19.05-6.71c-.36-.13-.9-1.01-.77-1.35s1.09-.71,1.46-.62l5.73,1.29,14.58,2.94Z"/>
    <path d="M398,411.53c-2.15,1.23-6.2-2.97-7.8-4.74l-12.15-13.49c-2.13-2.36-9.74-10.32-6.77-12.64.56-.44,1.98-.18,2.74.51,8.08,7.39,15.47,15.13,22.64,23.46,1.53,1.78,3.88,5.44,1.35,6.9Z"/>
    <path d="M380.66,420.86c.67.93.86,2.69.68,3.44s-1.72,2.08-2.43,1.74c-1.96-1.15-4.27-2.84-5.58-4.7l-16.17-22.93c-.73-1.04-2.14-4.53-.86-5.76,2.3-2.21,9.85,8.26,11.21,10.14l13.15,18.07Z"/>
    <path d="M404.26,383.65c-.49,2.22-2.47,4.09-4.71,5.29l-9.61-15.93c-.21-.35-.17-1.18.05-1.37s1.04.1,1.24.32c3.93,4.18,8.15,7.87,13.03,11.69Z"/>
  </g>
</svg>