<?xml version="1.0" encoding="UTF-8"?>
<svg id="Layer_2" data-name="Layer 2" xmlns="http://www.w3.org/2000/svg" viewBox="0 0 468.2 499.13">
  <defs>
    <style>
      .cls-1 {
        fill: #f5d6b6;
      }

      .cls-2 {
        fill: #599dcf;
      }

      .cls-3 {
        fill: #f7f6f7;
      }

      .cls-4 {
        fill: #be2446;
      }

      .cls-5 {
        fill: #202c4f;
      }

      .cls-6 {
        fill: #316485;
      }

      .cls-7 {
        fill: #fffefd;
      }

      .cls-8 {
        fill: #e1e1e1;
      }

      .cls-9 {
        fill: #131737;
      }

      .cls-10 {
        fill: #d9a629;
      }
    </style>
  </defs>
  <g id="Layer_1-2" data-name="Layer 1">
    <path class="cls-4" d="M468.2,230.66v17.96c-1.58.88-1.49,2.96-2.1,4.86-4,12.38-11.43,22.51-19.5,32.8,7.61,8.39,11.31,18.15,11.31,29.27l-.03,123-50.8,30.97-72.19.03c-.43-3.91.34-6.57-.48-10h-16.01s-87.83,39.56-87.83,39.56h-2.72l-88.05-39.56-16.3.04-.89,10.06H51.55S0,438.43,0,438.43l.97-129.17c.12-16.61,14.18-29.68,28.81-32.64,13.08-2.65,24.48-1.46,37.5-.11-1.58-2.88-1.45-8.92-4.33-10.64-4.15-2.48-5.95-6.16-9.23-8.91-17.49-14.63-12.29-11.83-12.67-36.23-.04-2.81,4.66-3.37,5.33-5.75,1.03-3.64,2.22-9.4.89-13.17-2.5-7.08-1.45-13.95-2.88-20.66-1.88-8.83-4.07-16.85-.53-25.85,4.08-10.39,9.75-20,17.74-28.02,4.32-4.33,8.23-8.96,12.91-12.88,9.21-7.7,20.68-10.8,31.25-15.77,11.54-5.43,22.22-10.6,36.31-10.17-4.51-4.91-8.24-8.07-11.53-13.11-5.71-8.74-4.6-19.47,3.13-26.66,11.67-10.85,25.29-9.74,39.37-12.2,5.81-7.32,10.69-14.56,17.49-20.75C206.14,1.55,227.62-2.71,248.07,1.61c22.73,4.8,33.05,16.68,46.07,35.05l15.02,1.82c9.13,1.11,17.57,4.4,24.32,10.52,6.34,5.75,8.39,14.11,4.76,21.97-5.13,12.68-19.26,22.23-31.09,30.43,25.12,2.35,46.9,23.71,57.62,45.1,6.66,13.29,13.11,26.68,16.09,41.31.76,3.73-.04,8,.41,11.97,2.8,24.93-7.71,48.28-25.35,66.12,15.51,1.18,28-5.62,33.71-20.11l7.65-19.44c4.16-10.58,12.7-19.16,23.82-22.59,21.05-6.51,41.13,6.62,47.11,26.92ZM158.44,260.62c.23-.74.95-2,2.34-2.01h30.01s22.95,0,22.95,0l64-.09,4.85.1,16.92.2c0,.33.15.67.16,1l.25,8.97c.32,11.55-.36,23.14-.01,35.17l19.66-3.52,24.03,4.74c-18.34,4.75-35.65,7.78-53.73,10.59l-.18-46.96-121.33.02-.22,46.96c-31.04-4.7-60.18-11.52-89.87-19.52-9.18-12.49-27.56-11.83-42.25-10.56-13.48,1.16-25.21,11.76-25.27,26.46l-.46,120.58,43.78,26.7,58.82-.06.82-10.06,28.19.12,87.37,38.72,87.16-38.8,28.46.18c.34,3.4-.38,6.27.51,9.87l58.84-.02,43.7-26.71-.4-120.21c-.04-11.06-7.01-19.93-16.2-24.66,13.8-14.51,31.57-36.15,25.86-57.17-4.39-14.22-20.72-22.47-34.73-16.85-17.07,6.85-18.36,25.97-26.21,40.75-12.69,23.89-37.07,23.06-60.32,20.31.89-2.98,4.58-3.12,5.34-5.33l2.07-6.09c18.34-15.02,30.32-37.55,28.03-61.68-.43-4.57.15-9.59-.77-13.6-3.15-13.79-9.21-26.31-15.73-38.78-11.33-21.66-37.48-45.77-64.62-35.4,1.3-6.55,3.89-11.61,5.77-17.61,8.65-5.18,44.54-27.52,30.85-39.79-10.2-9.14-24.73-8.94-37.91-9.9-14.81-21.35-25.26-35.11-53.22-36.42-17.92-.84-33.85,5.73-45.03,19.73-4.15,5.2-8.01,11.5-12.99,15.86-11.81,3.14-25.58.45-36.52,9.48-5.32,4.39-5.71,11.09-.95,16.52,10.58,12.08,23.81,21.61,38.46,29.27-.52,1.07-2.42,3.59-3.85,3.59-12.48-5.25-25.49-7.11-38.96-5.96-10.08.85-17.69,5.34-26.51,9.35-9.7,4.41-20.34,7.16-28.82,14.3-4.7,3.96-8.66,8.62-12.91,13.02-6,6.23-10.19,13.59-13.71,21.23-3.78,8.19-1.35,15.16.73,23.25,1.33,5.18-.89,11.07,1.61,16.51,2.8,6.09-.11,17.94,1.28,25.77-2.23.78-4.13.51-6.24,1.83.07,4.88-1.3,9.62-.72,14.54.66,5.5,6.48,8.94,11.53,9.5l3.09,8.37c7.97-1.78,8.77,13.24,12.29,16.51l8.8,4.73c3.75,2.02,7.49,2.74,11.39,3.88,8.61,2.54,18.49.74,27.35.31,9.86-.48,11.95-10.22,17.77-15.72l15.32,2.9c.64-3.06.25-5.79.26-8.43ZM158.32,303.84l-.02-24.68c-3.57-.37-8.7-2.96-11.6-1.21-12.05,16.98-19.51,13.21-39.14,15.15,16.92,4.55,33.56,8.07,50.76,10.74Z"/>
    <path class="cls-5" d="M299.92,268.8c6.62,2.28,9.67-4.16,17.7-5.34-1.59-3.38-3.41-6.52-6.83-7.9-3.83,2.07-7.4,3.64-11.12,4.27,0-.33-.16-.67-.16-1l9.04-4.45c-1.49-2.08-3.91-1.92-5.92-2.06-.76-1.14-3.07.25-3.38-2.37,13.23-1.93,19.01,8.21,26.08,16.79.78-11.33-14.85-21.49-25.53-23.23-5.63-.92-8.67,1.83-11.88,5.46-3.18,3.61-8.03,5.49-10.17,9.55l-64,.09c-.25-.51-.78-.94-1.8-1.12l-80.98-14.31c-2.12-.38-2.26,2.69-3.13,3.4-1.85,1.49-1.22,6.61.9,8.3l29.7,5.73c-.02,2.64.38,5.37-.26,8.43l-15.32-2.9c-5.82,5.5-7.91,15.23-17.77,15.72-8.86.43-18.74,2.23-27.35-.31-3.9-1.15-7.63-1.87-11.39-3.88l-8.8-4.73c-3.52-3.27-4.32-18.29-12.29-16.51l-3.09-8.37c-5.05-.56-10.88-4-11.53-9.5-.59-4.93.78-9.66.72-14.54,2.11-1.32,4.01-1.05,6.24-1.83-1.4-7.83,1.52-19.67-1.28-25.77-2.5-5.44-.28-11.33-1.61-16.51-2.08-8.09-4.51-15.06-.73-23.25,3.52-7.64,7.71-15,13.71-21.23,4.25-4.41,8.21-9.07,12.91-13.02,8.47-7.14,19.11-9.89,28.82-14.3,8.82-4.01,16.43-8.49,26.51-9.35,13.46-1.14,26.48.72,38.96,5.96,1.43,0,3.33-2.52,3.85-3.59-14.65-7.66-27.88-17.19-38.46-29.27-4.76-5.44-4.37-12.13.95-16.52,10.93-9.03,24.7-6.34,36.52-9.48,4.98-4.36,8.84-10.66,12.99-15.86,11.18-14,27.11-20.57,45.03-19.73,27.96,1.31,38.4,15.06,53.22,36.42,13.19.95,27.72.76,37.91,9.9,13.69,12.27-22.2,34.61-30.85,39.79-1.89,6-4.47,11.07-5.77,17.61,27.14-10.37,53.29,13.74,64.62,35.4,6.52,12.46,12.59,24.98,15.73,38.78.91,4,.34,9.03.77,13.6,2.29,24.13-9.69,46.67-28.03,61.68l-2.07,6.09c-.75,2.22-4.44,2.35-5.34,5.33,23.25,2.75,47.63,3.58,60.32-20.31,7.85-14.78,9.14-33.91,26.21-40.75,14.01-5.62,30.34,2.62,34.73,16.85,5.7,21.03-12.06,42.66-25.86,57.17,9.2,4.73,16.17,13.59,16.2,24.66l.4,120.21-43.7,26.71-58.84.02c-.88-3.6-.17-6.47-.51-9.87l-28.46-.18-87.16,38.8-87.37-38.72-28.19-.12-.82,10.06-58.82.06-43.78-26.7.46-120.58c.06-14.7,11.79-25.3,25.27-26.46,14.69-1.26,33.07-1.93,42.25,10.56,29.69,8,58.83,14.82,89.87,19.52l.22-46.96,121.33-.02.18,46.96c18.08-2.81,35.39-5.84,53.73-10.59l-24.03-4.74-19.66,3.52c-.35-12.03.34-23.62.01-35.17ZM152.87,71.98c-.11-1.57-2.08-5.55.34-6.64,12.42-5.57,27.05,4.43,41.46-12.54,5.33-6.28,11.71-12.45,19.81-15.11,11.86-3.89,24.99-4.04,36.97-.68,19.78,5.55,21.52,25.03,40.16,25.98l18.94.96c1.72.09,3.43.61,4.22,1.39,1.34,1.33,1.12,3.28.85,4.83l-4.85,5.95c-3.34,4.1-8.04,6.68-13.11,9.31.47.66,1.42,1.23,2.29,1.25-.47-.01,11.56-6.19,14.63-9.63,4.6-5.14,8.94-8,6.53-15.11-.72-2.12-3.54-3.98-6.68-4.83-15.3-4.14-24.67.88-33.41-11.66-5.53-7.93-11.79-15.47-19.98-20.48-22.81-13.94-50.93-8.73-67.72,11.57-3.88,4.69-7.03,9.39-11.21,13.82-6.65,7.06-32.08,2.77-35.51,11.08-4.41,10.68,14.99,23.7,23.55,25.43-2.59-4.33-6.82-4.65-9.57-7.66-2.5-2.75-5.1-5.12-7.71-7.26ZM227,43.04c-3.1,3.62.17,2.71-2.28,9.98-.02-1.71-1.77-3.86-1.64-6.29-6.46,6.33-2.47,14.01-10.31,13.61-5.31-.27-10.23-.33-15.04-.02,3.61,3.28,7.56,4.38,10.59,8.34l-25.74-3.55c7.35,5.52,33.67,7.22,41.94,6.67.82-.06,1.63-.22,2.31-.7,1.59.61,3.29.8,4.71-.18,3.23-2.23-.69-6.29,2.16-9.6,2.9,3.29-1.12,7.42,2.18,9.59,1.33.93,3.02.79,4.58.83l2.44.06c13.13.34,26.49-.87,40.14-5.09-8-2.01-15.21,1.85-23.88,2.04,2.55-3.66,7.01-4.92,9.98-7.96l-18.04-1.17c-3.23-3.11-2.3-9.57-6.84-12.73.35,2.8-1.42,5.83-1.57,8.15-1.24-3.8.34-8.81-2.23-12-3.34-4.15-10.04-3.94-13.45.02ZM275.37,82.16l16.86-4.29c.79,2.38.33,3.31,1.38,4.95,3.18-.74,6.53-2.29,7.83-4.7-2.51-.41-3.89,1.48-5.03.67-.63-.44-.59-2.9-1.58-3.97-2.65.63-63.74,12.84-58.02,3.51,21.08-.68,42.11-3.22,62.46-8.17.79,2.15.26,3.75,1.01,5.25,4.45-.43,8.44-1.35,10.39-5.48-3.22.22-5.03,2.17-8.07,2.02-.13-2.08.44-3.79-.42-5.67-45.09,11.89-91.85,11.54-137.03.06-.61,1.8-.22,3.51-.51,5.45-2.9.26-4.7-1.63-7.89-1.84,2.27,4.25,6.56,5.74,10.79,5.31.19-2.25-.07-3.54.84-5.07,20.41,4.88,41.3,7.33,62.09,8.13.74.56-.12,2.86-.85,3.08-6.79,2.03-47.45-4-57.22-6.44-.83,1.59-.36,4.11-2,4.1-1.3,0-2.42-1.38-4.69-.77,2.37,1.95,4.82,3.71,8.23,4.72l1.39-5.03,16.36,4.01c14.96,3.67,27.08,15.46,42.06,21.05,14.69-5.49,26.58-17.04,41.64-20.88ZM261.35,106.65l-4.5.52c-16.15,1.1-32.25,1.46-48.25-1.11-4.76-.77-9.51-1.41-14.73-1.95-.37,2.88-.08,5.07.83,7.87,13.25-18.35,32.34,30.05,38.06,9.06.86.33,1.27-.67,1.73-1.25,1.76,1.79,3.38,4,5.17,6.27,10.66-.27,16.03-16.85,25.87-18.48,3.19-.53,6.2-.32,8.13,2.53,1.28-2,1.34-4.42.4-6.76-1.01-.06-15.72,1.63-12.72,3.3ZM132.74,106.24c-1.2.28-2.39.89-3.6,1.08-2.75.44-6.33.93-8.59,2.78,3.46,6.71-9.8,2.67-18.14,8.89,3.72,2.47,7.82,3.08,11.46,4.91,4,2.01,6.28,4.67,8.6,8.52,7.4,12.31,10.93,25.57,5.87,39.47-.35,2.66,4.2,3.56,5.5,4.78,1.93,2.36,4.59,5.85,7.03,7.97,1.74,1.51,4.07,2.95,6.12,3.74,3.18-2.61-1.21-15.32,1.82-21.68,1.05,5.09,3.2,9.9,4.59,14.88,3.3,11.82,6.76,23.61,13.25,34.11-.91.43-.1,1.66.11,3.31-1.09.14-2.27-.24-3.04.55-.48-.14-.98-.51-2.47-.57l8.37,23.86,37.52,5.93c-12.15-10.16-23.17-19.58-33.62-30.72-8.45-9.02-12.44-21.44-10.93-33.24.48-3.72,2.55-7.44,1.9-11.53-1.42-.04-2.86.9-4.11.11l9.54-14.83c.44-.26,3.09-1.53,2.43-2.43-13.43-18.21-40.86-22.5-39.8-35.27.4-4.84,0-9.43.16-13.84,2.54-1.53-.39,10.39,3.72,16.29,1.83,2.63,27.35,13.26,31.18,19.44-.3.3-.54.63-.34.68l1.63.44c.3.08.78.58.92.89.62,1.39,1.67,2.46,3.1,3,.37.14.75.67.96.98.19.28,0,.79.17,1.46.1.42.58.57.89-.29,3.12,1.76,4.75-1.64,5.85-4.07.83-1.84,1.44-2.92.64-5.71l-7.66-26.46c-.42-1.44-.06-2.62-2.3-3.51-12.36-4.88-26.07-6.88-38.72-3.92ZM190.72,154.63c4.31-.78,8.72-1.29,13.13-3.69-2.14-3.22-4.64-5.14-7.07-6.99-.92-.7-1.15-2.81-2.93-2.29-.63-.85-1.26-2.49-2.24-2.98l-4.89-32.06c-10.36-.14-2.15,29.1-.65,35.12l-5.61,14.26c3.75,1.11,7.03-.78,10.26-1.36ZM289.15,157.59c-1.36-11.7-7.13-9.72-5.21-21.02,1.3-7.65,6.81-29.28-3.17-30.29l-1.91,19.64c-1.85,19.01-3.66,12.27-13.03,25l13.17,4.58c3.15,1.09,6.62,1.18,10.15,2.08ZM203.9,143.04c1.12,1.81,2.5,4.49,4.9,5.51s5.74-.91,6.67-2.85c1.83-3.83,8.02-4.22,7.76-7.32-.23-2.73-7.32,1.02-11.54-2.5.91-3.7,11.71,2.09,9.83-5.13-1.19.6-3.22.39-4.1,1.01-.87-1.48-2.48-2.28-4.33-3.18-1.46-.71-1.07-2.98-2.1-3.81-1.88-1.52-4.49-.26-6.32.14-.04-.66.15-1.34.15-2,1.41-.2,2.86-.35,4.92-1.48-.94-1.3-3.45-1.41-4.83-2.47-.94-3.23-3.33-4.07-6.29-4.61-1.19-.22-2.02-1.6-4.06-1.37,1.57,10.39-.44,25.4,9.34,30.07ZM263.63,122.88v2c-.89-.49-1.89-.83-2.63-.99-4.21-.89-2.86,4.44-8.35,6.97-2.38.22-4.75-.43-8.13.23,1.09,3.65,8.77,4.47,10.46,3.53.53-.29.67-1.26.67-2.02.92.2,2.4.17,3.09,1.18-3.38,4.85-8.47,3.28-13.78,4.61,2.75,3.47,6.82,3.09,8.42,6.48.95,2.01,2.37,2.99,4.32,2.89.71.06,1.56,1.53,2.46,1.33.7-.16,1.46-.79,1.96-1.63,4.65-7.96,9.72-4.35,10.82-16.14l1.64-17.56c-18.6,2.08-3.27,4.88-16.4,7.12,1.97,1.87,3.68,1.64,5.47,2ZM288.57,123.88c.55,6.42.15,12.93,2.18,19.91.55,1.89-.66,4.36,2.01,6.05,12.97-8.98,13.61-1.26,29.87-11.06l9.12-5.5c3.23-1.95-1.7-4.3-3.16-5.41-12.07-9.16-26.9-11.79-40.02-3.98ZM123.37,164.44c5.56-21.73-9.23-37.9-28.43-40.94-3.83.75-7.14,4.62-9.98,7.28,12.53,1.52,23.61,6.24,30.72,16.39,3.81,5.44,4.79,11.7,7.69,17.27ZM227.89,140.04c.22,1.24,1.57,3.74-.66,4.44-1.56.49-5.67,1.01-5.33,3.45,13.53,11.72,17.75,3.4,24.14,1.29,1.83-.6,1.01-2.42.58-3.19-.5-.91-.29-2.34-1.72-2.63-.97-.2-2.13.58-3.23.52l-.34-9.86c-.08-2.26-2.95-2.81-4.26-3.88-.63-.51-1.03-1.36-1.93-1.5-2.1-.34-8.44,4.64-7.25,11.36ZM223.72,131.36c0-.28-.22-.5-.5-.5s-.5.22-.5.5.22.5.5.5.5-.22.5-.5ZM298.65,156.87l11,16.41-4.07.24,2.92,13.24c-.72,1.45-1.85,3.63-.58,5.37,5.98-1.64,11.65-3.3,17.46-3.52,3.62-.13,7.56,1.29,11.01.24,9.7,1.58,19.03,4.06,28.4,10,1.52-3.85.78-7.55-.64-11.02l-8.61-21.03c-.58-1.42-1.49-2.61-2.14-3.94-2.22-4.5-3.58-10.32-7.94-13,.42-1.72-1.63-2.7-2-4.01-.68-2.44-2.09-4.47-4.3-5.88-.23-.71-.77-2.58-1.88-3.06l-15.51,9.24c-5.19,3.09-31.73,4.78-23.13,10.72ZM100.51,164.56c-.47-4.67-3.95-7.01-4.75-10.92,4.41-2.89,7.88,4.18,9.85,7.86,1.86-1.15,3.51-2.54,5.05-4.3-5.51-14.01-19.56-21.83-34.32-18.91-6.42,6.75-21.67,26.19-13.83,34.6,2.37-6.49,13.3-6.15,18.96-7.17l-.36-4.44c6.84-.79,13.07,1.33,19.39,3.29ZM181.78,164.79c1.92,1.06,3.99,1.83,6.92,2.11.4.31.91.69,2.08.7l3.04.04c35.45.49,35.15-11.9,45.13-6.29,7.18,4.03,15.9,5.14,24.01,6.85,6.56,1.38,12.73.8,18.75-2.38,2.69-1.42,6.28-1.48,9.21-4.42-3.47-1.85-7.09.04-10.33-.81-7.07-1.85-14.11-4.53-21.3-7.14-5.73-2.08-10.31-1.62-15.34,1.74-16.39,10.96-17.82-9.68-36.63-.61-9.27,4.47-19.02,6.86-29.74,5.8-.23,3,1.96,3.62,4.19,4.4ZM250.48,175.1c.73-.94,1.96-2.46.06-3.97-2.65,1.18-4.99,3.22-8.05,1.34l4.16-2.02c-18.6-7.64-7.08-7.03-24.92-.64l1.96,2.91c-2.36-.11-4.71-2.59-6.67-1.1-.89,1.17,1.09,3.68,2.25,4.38,1.06.64,3.76,1.3,5.26.7,15.01-6.02,21.68,3.87,25.96-1.62ZM170.97,178.76c-.75,2.67-3.24,5.4-1.62,8.91,2.48-2.1,3.94-4.34,6.21-5.53.17,1.22-.26,2.8.86,3.61-.26,1.01-.11,2.08.39,2.99-4.77,11.43,3.69,27.68,11.91,34.98.96.85,1.3,2.33,2.84,2.99.46-1.38.18-2.21.29-3.04.87-6.63-1.82-10.74,1-10.98.82,1.12,1.07,3.12,2.37,3.93.61,4.6,4.67,8.57,6.52,12.88,3.55,8.29,25.01,18.29,25.9,19.17l5.18,5.14c4.83-2.96,9.58-5.91,14.82-8.14,4.46-1.9,8.11-4.51,11.93-6.74,4.1.49,6.16-4.24,7.87-7.36,3.99-7.29,7.71-14.05,7.72-23.51,3.84,6.23,2.3,11.97,3.63,18.82l3.91-5.01c.31-.39.76-.76,1.02-1.19.22-.36.28-.9.39-1.31,7.82-10.39,9.44-23.66,7.92-36.92,3.56,1.37,4.32,4.08,6.92,6.07,1.27-6.03.26-12.2-3.33-16.83-.6-.77.05-2.75-1.12-3.27-2.59-1.15-15.02,8.55-29.87,6.34-.42-.06-1.6-.21-1.88.47-.16.39.82,1.04.75,1.53-.02.3.16.63.11.93-.75,4.76-3.5,8.63-7.53,11.26-12.56,8.19-13.57-8.94-31.8,0-8.63,4.23-10.35-.35-17.49-5.18l-1.66-9.81c-6.68,1.46-12.65.57-18.43-1.32-1.95-.64-4.8-2.45-6.68-2.84-1.09-.23-2.08-3.45-3.86-2.07-3.32,2.57-4.13,7.31-5.17,11.02ZM80.02,172.78c1.42.44-15.4,3.27-11.05,4.69.47.15,1.56.62,2.06.52,14.54-3.04,44.62,1.51,57.83,10.3l-2.68,12.69c-10.17-6.48-24.01-7.57-34.51-5.54,13.09,2.41,25,5.02,35.88,11.83,2.29-6.92.97-14.45,5.16-19.18-8.77-9.33-23.44-12.85-35.73-15.31.98-.12,2.37.58,3.05-.93l-22.01-.05c.21,1.32,1.33.99,2,.98ZM212.21,179.6c1.29,2.24,3.04,3.94,5.34,4.89,7.45,3.09,10.77-10.21,30.67-.42,3.44,1.7,11.58-5.98,9.48-9.67s-3.3,8.14-11.81,4.8c-7.61-2.99-15.76-2.88-23.09.66-4.66,1.08-8.09-2.29-10.25-6.57-2.21-.3-1.85,1.69-1.91,3.03-.07,1.6.94,2.16,1.59,3.28ZM141.87,192.86c-.81,1.44-1.35,3.7-.07,5.3.83,1.04,2.68,2.24,4.47,1.71-.37-1.84-.95-2.95-1.36-4.13,1.18.13,1.05-.87.81-1.32l-1.2-2.31c-1.17-2.25-1.45-5.05-4.71-4.31.39,1.98.8,3.93,2.06,5.06ZM348.33,207.28l15.08,9.96c.85-2.99,2.22-6.57,1.42-9.25-12.63-13.22-38.32-15.62-55.15-10.14-9.71,9.97,19.25-3.38,38.64,9.43ZM90.13,255.4c-6.8-4.66-14.39-4.96-21.49-8.84-.08-6.81,1.19-13.63-.11-20.31-1.53-7.86.11-15.58-2.18-23.72-2.16,6.91.5,13.38.67,20.07.23,8.91-.6,17.09,1.1,26.05,7.48,1.98,14.02,5.96,22.01,6.74ZM159.38,240.46c-3.44-8.01-4.44-16.69-7.44-25.34-.58-2.06-12.36-11.33-14.9-6.54-.68,1.28-.35,3.18.72,4.32,16.81,18.15,12.09,29.79,21.63,27.56ZM331.26,241.55c-.24,2.95,3.73,4.85,6.28,6.03.5.7,1.83.84,1.99,1.96.07.54.32,1.01.87,1.63.48.54.81.29,1.15-.43,8.11-4.38,14.04-12.62,18.57-20.94-5.62-8.92-3.28-7.29-10.49-12.18-8.83-5.99-18.48-10.51-29.54-9.19-6.04.72-14.51-.09-18.39,4.43l-8.72,10.15c-.69.8-.57,3.22.1,3.68-1.2-.83,19.86-5.44,38.19,14.86ZM118.39,210.97l-.12.83c-10.09-1.6-20.37-2.24-30.41.24,8.5,1.62,10.77,2.95,18.44,4.24-.4,1.49-1.56,1.4-2.01,2.28l6.4,4.47c-.43,12.61,1.29,24.8,3.5,37.36.4,2.24,4.51,1.6,5.81.85,1.55-.9,3.08-3.35,1.73-5.13-.56-.23-1.75.43-2.11.1-.39-.36-.68-1.72-.48-2.56l4.19-17.73c1.26-5.33.67-10.05-1.23-15.36,4.68,3.56,8.27,18.61,13.69,16.18,2.32,1.89,5.75,2.95,9.28,1.17-3.76-8.61-8.44-16.23-14.65-22.63-3.12-3.22-7.57-3.9-11.3-5.21-1.26-.44-2.56-.41-4.14-1.33.52,1.97,2.18,1.79,3.42,2.23ZM437.89,222.48c-8.41-4.32-20.65,4.34-23,12.84l27.5,19.78c6.79-11.43,7.83-26.29-4.5-32.62ZM309.18,234.35c-1.62-5.41-20.31-3.63-23.03-3.07-2.35.49-3.84,2.92-5.72,4.35,5.73-.34,10.76-.72,15.93-2.19,4.26-1.57,8.69.11,12.82.91ZM329.79,264.68c2.95-1.21,7.31-6.06,5.2-9.7s-18.86-20.76-21.11-13.57c5.78-2.4,19.77,14.09,18.5,17.1l-2.6,6.16ZM421.86,285.17l11.66-15.67-22.58-21.3c-7.97,11.88-6.55,16.07-17.67,25.38,8.38,6.72,18.08,10.56,28.59,11.59ZM94.68,257.61c-.43-2.4-2.03-2.55-3.74-1.53,1.27.49,2.27,1.56,3.74,1.53ZM304.74,279.9c.65,2.71,2.22,6.77,4.54,9.02l45.71,9.08c8.81,1.75,17.1,3.55,26.17,4.18-1.91-5.87-4.61-10.82-7.15-16.85-.5-1.18-.33-2.46-.98-3.15-1.07-1.14-3.21-.41-4.64-.36-19.23.69-37.95-1.72-56.61-5.61-2.59.95-5.08,1.55-7.04,3.7ZM179.77,313.5c0,1.66,4.73,1.57,4.89.18.09-.79.74-14.11-.86-12.16.41-1.87,2.08-1.23,2.2.71.21,2.05.55,6.71,3.74,6.37,2.82-.3,2.74-5.11,3.03-7.09.81-.07,1.01.9,1.01,1.94l-.02,11.11c0,.87.71.77,1.13.8,1.29.08,2.57.23,3.86.17.31-.02,1.06-.06,1.05-1.15l-.23-32.97c-.14-1.64-5.42-1.38-5.93.15l-4.37,17.14-4.55-17.85c-1.77-.17-3.16-.34-5.07-.07l.1,32.71ZM221.39,304.89c.59,4.24-.41,8.15.5,11.44.31,1.06,4.22,1.14,4.44.06.26-10.5.56-21.25-.09-31.63-.22-3.52-4.91-3.87-7.39-4.14-4.27-.47-7.71,1.62-7.71,5.99l-.04,28.98c0,1.56,4.28,1.62,4.7.03,1.05-4.03-.73-7.83.78-11.34.49-1.15,4.59-.99,4.82.61ZM251.07,298.97c-2.09-2.43-6.01-1.88-7.46-4.29-.91-1.51-2.07-8.97,1.58-9.26,4.5-.36.5,5.25,5,5.25,1.93,0,2.77-.82,2.64-3.15-.14-2.49-.76-4.58-2.78-5.82-1.22-.75-9.16-.35-9.63.03-3.96,3.2-2.68,13.2-1.87,15.15,1.31,3.17,5.66,3.47,8,5.54,1.95,1.72,2.2,9.2-.47,9.7-.99.19-2.35.36-2.84-1.03-.45-1.28-.9-2.63-2.08-2.72-.96-.07-2.58-.01-2.99.92-1.19,2.7,1.4,8.31,6.11,8.14,1.95-.07,6.01-.62,7.18-3.19,1.83-4.04,2.67-11.69-.41-15.28ZM278.76,305.08c.05-12.38-7.74-7.31-9.58-11.66-.32-.75-1.04-7.35.98-7.87,1.26-.32,2.92-.33,3.32,1.15s.43,2.97,1.62,3.01c1.1.04,2.97.32,3.21-1.11.41-2.46.28-4.54-1.11-6.12-2.25-2.54-9.26-2.7-11.92.21-1.68,1.84-1.21,4.29-1.45,6.8-1.45,14.72,11.84,6.17,10.02,17.09-.23,1.39-.34,2.62-1.28,3.35-.63.49-2.62,1.19-3.05-.06-.74-2.14-1.05-3.23-2.52-3.14-2.58.17-3.33,1.32-3.16,3.66.16,2.15,1.74,3.43,3.11,4.32,1.63,1.05,3.64.13,5.43-.14,5.42-.82,6.34-4.27,6.36-9.48ZM54.96,294.22c-6.42-1.23-11.38-.94-16.95-.18,5.8.94,11.37.61,16.95.18ZM20.37,423.06c0,.45-.33,1.25.67,1.25l14.15.04c1.13,0,1.61-.73,1.92-1.26.15-.25.55-.71.82-.81,1.07-.4,1.24-1.43,1.23-2.91l-.08-40.97h15.89s.63,43.95.63,43.95l.56-44.91c-6.2-.89-11.95,1.38-17.06-1.07l17.93.03.23,46.66c0,.41-.24,1.24.69,1.24h15.1c1.02,0,.95-.96.95-1.33l-.18-108.69c-.02-12.79-8.4-18.6-17.63-18.65l-17.22-.09c-10.2-.06-18.43,7.49-18.45,18.41l-.16,109.11ZM420.33,386.35c-.8-.1-1.05.89-1.05,1.94v11.08c0,1.05.25,2.04,1.04,1.94,0,4.1-3.66,6.46-8.02,6.23-3.33-.18-6.93-.49-8.34-3.87s-.52-6.68-.67-10.33l-16.93-.1c-.47,5.42-.22,10.26.79,15.24,1.71,8.41,8.19,13.84,16.82,14.16,8.82.33,18.85,1.87,26.74-3.18,5.19-3.32,6.7-11.47,7.05-17.25.46-7.55,1.83-36.94-3.43-40.59-8.46-5.88-17.67-9.48-26.35-14.69-3.17-1.9-5.13-4.48-4.92-8.5.59-11.34-2.71-27.77,7.75-27.58,3.38.06,7.82.19,9.06,3.99,1.54,4.7-.25,9.6,1.01,14.55l17.07.03c2.58,0,.94-14.19,1.01-16.94-1.4,1.57-.56,2.96-.95,3.98-1.12-10.45-3.68-18.34-15.57-20.69-10.56,9.12-21.05,16.98-36.03,15.83l-.13,34.82c-.04,11.58,14.44,15.87,26.21,22.73,9.5,5.53,7.83,4.22,7.82,17.16ZM87.21,410.12l29.98.12c4.56.02,12.34-3.53,12.37-9.06l.37-69.64c-4.07-17.48-27.93-17.94-42.76-21.95-.53-.38-1.15.16-1.15,1.08v98.52c0,.96.66,1.43,1.2.93ZM342.57,317.52c-.76.27-1.14.57-1.14,1.98l.02,89.79c0,1.06.71.88,1.19.88l32.37.17c.59-4.21.42-7.8.15-12.25l-16.74.25-.54-83.83-.32,83.81c-.54-.16-1.15-.87-1.15-2l.06-82.14c-4.88.82-9.51,1.74-13.9,3.32ZM384.88,347.42c.81-11.93.85-22.94-.03-33.97-.79,11.76-.83,22.89.03,33.97ZM75.54,422.27l-.02-106.72.02,106.72ZM142.06,322.58c-2.91,28.22-.03,57.31-1.44,86.69-.05.99,1.19.92,1.44.87h13.66s-1.13-47.55-1.13-47.55c-.04-1.62-2.21-3.64.77-4.68l9.06,36.69c3.54.71,6.65.76,10.44.27l5.95-22.49c.52,0,1.12-.28,1.97-.03l.07,18.96c0,.7.56,1.17.99,1.04l-.04,17.88,12.98-.05v-81.32s-14.57-1.47-14.57-1.47l-12.88,47.17-12.28-50.16c-5.35-.65-10.2-2.83-14.98-1.82ZM302.34,410.09c.43-.01,1.24.27,1.23-.7l-.05-29.29,5.05-.1c-1.03-.88-2.34-.67-3.04-1.65l12.02-.1.15,31.82c4.9.45,9.26.15,13.6.04.46-.01,1.2.23,1.2-.82l-.04-79.77c-1.21.04-.94,1.32-1.21,1.92-1.5-4.88-4.47-9.23-10.42-9.29-8.44-.08-31.92,2.18-31.98,14.37l-.34,73.5c5.17.57,9.4.2,13.82.06ZM198.26,410.34v-81.84s0,81.84,0,81.84ZM235.85,329.61c-.46.02-1.17-.17-1.17.85v78.84c0,1.04.7.84,1.17.85,4.38.08,8.76.32,13.63.04l.07-31.95c2.31-1.27,5.03-.93,8.11-.37l8.62,32.07c4.05.61,7.87.52,12.77.05l-8.49-32.71c4.23-2.84,6.38-7.05,7.05-11.89.42.01,1.09.18,1.45-.04.5-.3.58-1.02.58-1.91l.02-18.93c0-5.03-.07-8.77-3.23-11.16-3.58-2.71-6.32-5.22-11.88-4.98l-28.69,1.23ZM208.26,410.33v-80.9s0,80.9,0,80.9ZM223.54,410.14c.56.3.93,0,1.48-.84l-1.49-79.65c-4.38-.23-8.76-.75-13.83-.01l.04,80.5h13.79ZM437.31,330.95c-6.14-.8-11.63-.87-17.09.05,6.08.75,11.59.82,17.09-.05ZM131.38,400.09v-67.69s0,67.69,0,67.69ZM287.09,410.24v-73.84s0,73.84,0,73.84ZM403.22,391.93c-6.43-.99-11.38-.95-16.97-.04,5.8.81,11.37.67,16.97.04ZM373.39,418.8H84.19s289.2,0,289.2,0ZM28.13,432.26c.02.55-.05,1,0,1.47.07.62.66.32,1,.52l26.94,15.97c-.05.3.09.75,0,1-.58,1.53,46.88,1.6,48.9,0l-.17-1.14c-.38-2.56,0-5.23.14-7.84,12.39-.72,25.08,1.43,36.95-1.07l87.1,38.4,87.43-38.35c11.37,2.53,23.64.03,36.09,1.24.44,2.64-1.29,6.31.93,7.76,0,.32.08.69,0,1-.1.36.15,1.01,1.03,1.01h46.85c.77,0,1.11-.6,1.02-1.01-.08-.35.04-.74,0-1.1,9.21-4.91,17.5-11.49,26.94-15.87.36-.17.93.08,1-.53.05-.49-.02-.95,0-1.47.12-.37-.35-.99-1.08-.99h-54.83c-.33-3.42.25-6.91-.4-10.99l-289.81.04-.12,11.95h-1.01c-.31-4.02.64-8.02-.48-12.07-1.3,3.86,0,7.2-.6,11.07H29.22c-.73,0-1.2.62-1.08.99Z"/>
    <path class="cls-3" d="M158.32,303.84c-17.2-2.66-33.84-6.19-50.76-10.74,19.63-1.94,27.09,1.83,39.14-15.15,2.9-1.75,8.03.84,11.6,1.21l.02,24.68Z"/>
    <path class="cls-10" d="M190.79,258.61h-30.01c-1.39,0-2.11,1.28-2.34,2.01l-29.7-5.73c-2.12-1.7-2.75-6.81-.9-8.3l62.96,12.02Z"/>
    <path class="cls-1" d="M213.74,258.61h-22.95l-62.96-12.02c.88-.71,1.01-3.78,3.13-3.4l80.98,14.31c1.02.18,1.55.6,1.8,1.12Z"/>
    <path class="cls-2" d="M302.62,252.31c-4.4-.31-7.95,2.17-12.24,3.7-2.74.97-6.4-.12-7.8,2.61l-4.85-.1c2.15-4.06,6.99-5.94,10.17-9.55,3.2-3.64,6.25-6.39,11.88-5.46,10.67,1.74,26.3,11.9,25.53,23.23-7.07-8.59-12.85-18.73-26.08-16.79.31,2.63,2.62,1.24,3.38,2.37Z"/>
    <path class="cls-6" d="M299.92,268.8l-.25-8.97c3.72-.63,7.29-2.2,11.12-4.27,3.42,1.38,5.24,4.52,6.83,7.9-8.03,1.18-11.09,7.62-17.7,5.34Z"/>
    <path class="cls-6" d="M302.62,252.31c2.01.14,4.43-.02,5.92,2.06l-9.04,4.45-16.92-.2c1.4-2.73,5.06-1.65,7.8-2.61,4.29-1.52,7.83-4.01,12.24-3.7Z"/>
    <path class="cls-2" d="M374.36,431.26c.03.32.09.69.03,1-.06.34.17,1.01,1.04,1.01h52.76c.73,0,1.2.62,1.08.99-9.45,4.38-17.73,10.95-26.94,15.87l-48.9.1v-8.98c-1.53-1.59-34.91-1.55-37.02-.02l-87.43,38.35-87.1-38.4c-2.5-1.44-35.15-1.53-36.92.07,0,.33-.01.67-.03,1-.13,2.61-.51,5.28-.14,7.84l-48.73.14-26.94-15.97c-.12-.37.35-.99,1.08-.99h52.78c.93,0,1.04-.66,1.04-1l.12-11.95,289.81-.04c.65,4.08.08,7.58.4,10.99ZM90,439.25l-39.06.1c2.12,1.62,4.64,4.08,7.31,4.7l40.39.11.45-9.63,121.63-1.29c1.45-1.09,1.84-3.17,2.01-4.85.32-.31.93-.32,1.01-.68.11-.53.09-1.45-1.13-1.45H90.11s-.11,12.99-.11,12.99ZM234.69,427.27c-.14.59.24,1.02.84,1,.32,1.81.51,3.61,1.55,5.99h122.97s.54,10.01.54,10.01l39.51-.23c2.61-.94,5.08-3.2,7.35-4.66l-39.88-.25-.16-11.85c.11-.37-.3-1-1.17-1h-130.37c-.87,0-1.28.63-1.17,1ZM236.43,445.33c1.42-1.84,4.38-1.71,5.25-4.08-1.87-2.49-5.65-.05-8.78-1.14l-3.88-8.27c-1.95,2.08-1.52,6.05-3.84,7.86-2.48,1.94-6.18-.21-9.36,1.22l7.45,6.13-2.48,10.22c2.82-1.69,5.4-5.42,8.67-5.29,2.96.61,5.18,3.94,8.16,5.16-4.5-13.7-1.38-9.59-1.18-11.82ZM215.74,449.14l-11.96-8.93-40.29.53,48.16,21.54c1.53-4.46,3.52-8.23,4.09-13.14ZM246.75,462.15l48.2-21.51-40.24-.25-12.61,9.25c1.81,4.47,2.17,8.64,4.65,12.5ZM237.97,465.87c-2.56-2.22-5.35-5.11-8.44-6.43-3.48.52-6.88,3.85-9.37,6.45,10.04,4.83,6.57,6.04,17.81-.02Z"/>
    <path class="cls-3" d="M74.02,422.97c-5.56.52-11.17.39-16.74.09l-.23-46.66-17.93-.03-1.17,45.91c-.27.1-.68.56-.82.81-5.57.26-11.17.35-16.74-.03l.16-109.11c.02-10.92,8.25-18.46,18.45-18.41l17.22.09c9.23.05,17.61,5.86,17.63,18.65l.18,108.69ZM57.15,360.97l-.38-45.06c-.04-4.13-5.33-5.07-8.73-5.35-3.63-.29-10.15.72-10.2,5.34l-.54,45.15c7.03.43,12.73.75,19.86-.08Z"/>
    <path class="cls-3" d="M438.03,316.49c.46,4.3.31,8.66-.07,12.96l-17.07-.03c-1.26-4.95.53-9.85-1.01-14.55-1.25-3.81-5.68-3.93-9.06-3.99-10.46-.19-7.16,16.24-7.75,27.58-.21,4.01,1.75,6.6,4.92,8.5,8.69,5.2,17.9,8.81,26.35,14.69,5.26,3.66,3.89,33.04,3.43,40.59-.35,5.77-1.86,13.93-7.05,17.25-7.89,5.05-17.92,3.51-26.74,3.18-8.63-.32-15.12-5.75-16.82-14.16-1.01-4.98-1.26-9.82-.79-15.24l16.93.1c.16,3.65-.67,7.09.67,10.33s5,3.7,8.34,3.87c4.36.23,8.02-2.14,8.02-6.23v-14.97c.02-12.95,1.69-11.63-7.81-17.16-11.77-6.86-26.25-11.15-26.21-22.73l.13-34.82c14.98,1.15,25.47-6.71,36.03-15.83,11.88,2.35,14.45,10.24,15.57,20.69Z"/>
    <path class="cls-3" d="M183.84,392.34c0-1.32-.03-2.67-.03-3.99.35.12,1.01-.37,1-1.04l-.17-28.05c-1.16,1.58-1.61,3.47-1.83,5.13-.36,2.75-1.29,5.31-2,7.98l-5.95,22.49c-3.79.5-6.89.44-10.44-.27l-9.06-36.69c-2.98,1.03-.81,3.06-.77,4.68l1.13,47.55h-13.66s0-87.57,0-87.57c4.78-1.01,9.63,1.18,14.98,1.82l12.28,50.16,12.88-47.17,14.57,1.47v81.32s-12.98.05-12.98.05l.04-17.88Z"/>
    <path class="cls-3" d="M87.21,410.12l-.05-100.53c14.83,4.01,38.69,4.47,42.76,21.95l-.37,69.64c-.03,5.53-7.81,9.08-12.37,9.06l-29.98-.12ZM117.06,391.88l-.33-41.48c-.05-6.82,1.45-14.81-1.93-20.85-2.36-4.22-9.4-3.44-13.72-4.64l-.14,73.4,9.82.84c4.49.38,6.33-2.79,6.3-7.26Z"/>
    <path class="cls-3" d="M331.26,331.46l.05,78.67c-4.34.11-8.69.41-13.6-.04l-.15-31.82-12.02.1c-1.12,0-2.45.63-3.72,1.05,1.19,10.45.76,20.56.52,30.68-4.42.15-8.65.51-13.82-.06l.34-73.5c.06-12.18,23.54-14.45,31.98-14.37,5.95.06,8.92,4.41,10.42,9.29ZM317.55,353.42v-14.97c0-1.27-.13-2.76-.91-3.6-2.74-2.92-14.2-.68-14.3,3.19l-.73,30.12c5.73.43,10.35.19,15.87-1.12l.07-13.63Z"/>
    <path class="cls-7" d="M206.78,183.77c7.14,4.83,8.86,9.41,17.49,5.18,18.22-8.93,19.23,8.2,31.8,0,4.03-2.63,6.78-6.5,7.53-11.26,3.08,2.88,14.62-3.61,17.04,8.28-4.27-.66-7.66-2.08-11.87-1.65,6.03,12.61.98,20.53-6.15,32.16-1.71-4.21-1.45-8.13-4.04-12.2-2.55,7.52-5.52,20.87-12.68,24.11-1.12-1.75,1.24-2.93.39-4.97-3.5,3.57-5.43,8.08-10.05,10.53-2.97-4.24-3.88-8.54-6.19-12.47l-1.01,15.1c-11.3-6.83-15.95-18.36-19.35-30.48-2.58,4.68-.85,9.42-1.46,15.27-13.17-11.43-14.96-20.94-9.28-38.29-4.55,1.69-7.48,5.04-10.46,8.97.51-4.05,2.09-8.01,4.39-11.24,2.48-1.53,6.64-1.38,9.42-2.22.79,3.29-.19,5.83,1.06,8.66,2.16-.92,2.48-2.5,3.43-3.48Z"/>
    <path class="cls-3" d="M276.42,333.36c3.32,9.55,2.52,22.25,1.18,32.04-.66,4.85-2.81,9.06-7.05,11.89l8.49,32.71c-4.9.47-8.72.55-12.77-.05l-8.62-32.07c-3.08-.56-5.79-.89-8.11.37l-.07,31.95c-4.87.27-9.25.04-13.63-.04v-80.54s28.69-1.23,28.69-1.23c5.56-.24,8.3,2.27,11.88,4.98ZM264.25,363.31c.64-6.71.6-13.02.12-19.74-.5-7.07-8.96-4.95-14.8-4.09l.02,28.47c5.03.38,14.03,1.89,14.65-4.64Z"/>
    <path class="cls-10" d="M315.62,70.18c1.26-1.54,3.09-4.59,1.24-6.47-5.16-5.23-21.57,0-33.23-5.85-12.6-6.33-16.47-29.88-50.95-29.06-33.51.79-35.19,21.81-48.88,29.15s-41.72-3.17-30.93,14.03c2.62,2.14,5.22,4.51,7.71,7.26,2.74,3.01,6.98,3.33,9.57,7.66-8.57-1.73-27.96-14.75-23.55-25.43,3.43-8.31,28.86-4.02,35.51-11.08,4.18-4.43,7.33-9.13,11.21-13.82,16.79-20.3,44.91-25.52,67.72-11.57,8.19,5,14.45,12.55,19.98,20.48,8.74,12.54,18.1,7.52,33.41,11.66,3.14.85,5.96,2.71,6.68,4.83,2.41,7.12-1.93,9.97-6.53,15.11-3.07,3.43-15.1,9.61-14.63,9.63-.86-.02-1.81-.59-2.29-1.25,5.07-2.63,9.76-5.21,13.11-9.31l4.85-5.95Z"/>
    <path class="cls-3" d="M357.57,398.33l.86.02,16.74-.25c.26,4.45.43,8.04-.15,12.25l-32.37-.17-.07-92.65c4.38-1.58,9.01-2.51,13.9-3.32l-.06,82.14c0,1.13.62,1.85,1.15,2Z"/>
    <path class="cls-3" d="M341.55,250.74l-2.02-1.2c-.15-1.12-1.49-1.25-1.99-1.96-1.69-2.38-4.4-3.96-6.28-6.03-18.32-20.3-39.39-15.69-38.19-14.86-.67-.46-.8-2.88-.1-3.68l8.72-10.15c3.88-4.52,12.35-3.72,18.39-4.43,11.07-1.32,20.72,3.21,29.54,9.19,7.22,4.9,4.87,3.26,10.49,12.18-4.54,8.33-10.47,16.57-18.57,20.94Z"/>
    <path class="cls-2" d="M275.37,82.16c-15.06,3.83-26.95,15.39-41.64,20.88-14.97-5.59-27.1-17.38-42.06-21.05l-16.36-4.01-1.39,5.03c-3.41-1.01-5.85-2.77-8.23-4.72,2.28-.61,3.39.76,4.69.77,1.64,0,1.17-2.51,2-4.1,9.77,2.44,50.43,8.48,57.22,6.44.73-.22,1.59-2.52.85-3.08-20.79-.8-41.68-3.25-62.09-8.13-.91,1.53-.64,2.82-.84,5.07-4.23.43-8.52-1.06-10.79-5.31,3.19.21,4.98,2.1,7.89,1.84.29-1.94-.11-3.64.51-5.45,45.18,11.48,91.94,11.84,137.03-.06.86,1.88.29,3.59.42,5.67,3.04.15,4.85-1.8,8.07-2.02-1.95,4.13-5.94,5.06-10.39,5.48-.75-1.5-.22-3.11-1.01-5.25-20.34,4.95-41.37,7.49-62.46,8.17-5.72,9.33,55.37-2.88,58.02-3.51.98,1.07.95,3.52,1.58,3.97,1.15.81,2.52-1.09,5.03-.67-1.3,2.42-4.64,3.96-7.83,4.7-1.05-1.65-.59-2.58-1.38-4.95l-16.86,4.29ZM237.15,91.98c-.92-3.16,0-5.07,2.38-6.57-7.08-1-3.92-4.48-6.1-4.28-1.3.12-.71,3.05-1.68,3.38-1.38.46-2.46.06-4.15.79,1.06,1.21,2.82,1.41,3.07,3.06.17,1.17-.99,2.28-.58,3.59,2.06-.58,3.03-2.14,3.97-1.63l3.09,1.66ZM226.86,88.76c-5.79-6.57-16.94-5.33-23.03-4.32l20.82,10.03c1.67-.34,3.25-4.54,2.21-5.71ZM242.8,94.72c7.35-3.74,13.74-6.62,19.97-10.37-8.3-1.17-18.02-1.32-22.97,5.05,1.44,1.94.94,4.08,3.01,5.31ZM237.07,96.51c-.14-1.46-2.54-2.59-3.54-2.38s-3.23,1.36-3.13,2.47c.14,1.46,2.56,2.17,3.61,1.97.88-.16,3.17-.85,3.06-2.06Z"/>
    <path class="cls-8" d="M130.82,122.01c.19,2.81.48,6.9,2.72,9.16,8.51,8.57,26.79,14.47,36.37,27.4l-9.54,14.83c1.24.79,2.69-.16,4.11-.11.64,4.1-1.43,7.81-1.9,11.53-1.47.12-1.24,1.95-2.33,3.08-1.97-2.28-1.91-4.93-3.71-6.51-.83-.52-2.39.3-3.16.21-1.39-4.98-3.54-9.79-4.59-14.88,1.65-3.46-6.09-15-9.82-17.35,1.34,8.73,3.89,16.81,1.35,24.76-1.69,1.19-5.63.59-6.49,2.57-1.3-1.22-5.85-2.12-5.5-4.78,5.06-13.9,1.53-27.16-5.87-39.47-2.31-3.85-4.6-6.51-8.6-8.52.16-.84.39-1.69.97-1.95,5.67-2.52,11.44,6.49,13.09,12.62,2.73-5.94-6.43-9.05-.49-14.52,1.04-.1,2.18,1.91,3.38,1.96Z"/>
    <path class="cls-3" d="M223.54,329.65v80.49s-13.78,0-13.78,0l-.04-80.5c5.06-.74,9.45-.22,13.83.01Z"/>
    <path class="cls-3" d="M100.51,164.56c-6.32-1.96-12.55-4.08-19.39-3.29l.36,4.44c-5.66,1.02-16.6.68-18.96,7.17-7.84-8.41,7.42-27.84,13.83-34.6,14.76-2.92,28.81,4.91,34.32,18.91-1.54,1.76-3.19,3.15-5.05,4.3-1.98-3.68-5.44-10.75-9.85-7.86.8,3.91,4.28,6.25,4.75,10.92Z"/>
    <path class="cls-3" d="M339.16,139.96c2.21,1.4,3.61,3.44,4.3,5.88-1.65.78-3.17,2.45-3.99,3.99-.19.2-.76.29-.92.69-.29.73.64.92.92,1.3.84,1.15,1.02,2.61,1,3.99-.45,1-1.85-.4-1.78-1,.3-2.49-1.32-3.05-3.17-3.65-4.18-1.36-12.8,4-11.01,7.64l6.57,13.36c.84,1.72,2.15,2.63,3.38,3.24,2.14,1.05,11.31-2.87,11.14-7.56l.92-.92c3.94,2.05,4.89-.5,9.03-.13l8.61,21.03c1.42,3.47,2.16,7.17.64,11.02-9.37-5.94-18.7-8.42-28.4-10l5.27-1.61c-19.34-7.17-6.84-19.2-16.23-12.87-2.64-7.76-5.89-15.09-10.83-21.59,13.47-4.01,14.19-8.46,24.56-12.82Z"/>
    <path class="cls-3" d="M421.86,285.17c-10.51-1.03-20.22-4.87-28.59-11.59,11.12-9.31,9.71-13.5,17.67-25.38l22.58,21.3-11.66,15.67Z"/>
    <path class="cls-3" d="M162.58,184.81c-1.51,11.8,2.47,24.22,10.93,33.24,10.44,11.14,21.46,20.56,33.62,30.72l-37.52-5.93-8.37-23.86c1.49.06,1.99.44,2.47.57,2.99,2.73,6.82,4.78,11.04,6.16-2.04-4.18-5.98-6.58-8.11-10.03-6.49-10.5-9.95-22.28-13.25-34.11.77.1,2.33-.72,3.16-.21,1.8,1.59,1.74,4.23,3.71,6.51,1.08-1.13.85-2.96,2.33-3.08Z"/>
    <path class="cls-10" d="M374.01,285.33c2.54,6.03,5.23,10.98,7.15,16.85-9.07-.63-17.36-2.43-26.17-4.18l-45.71-9.08c-2.32-2.25-3.9-6.31-4.54-9.02l44.67,6.36c8.63,1.23,16.64,1.16,24.6-.94Z"/>
    <path class="cls-6" d="M173.75,113.67l7.66,26.46c.81,2.79.19,3.88-.64,5.71-11.56-9.86-24.16-17.67-38.21-24.51-3.38-1.64-7.97-8.05-3.69-10.36,5.55-3,13.97-1.65,20.05-1.75,5.74-.09-.92,3.62,11.8,5.66.62-.32.35-1.82.85-1.89.75-.1,1.77.37,2.17.67Z"/>
    <path class="cls-4" d="M315.62,70.18c.27-1.56.48-3.5-.85-4.83-.78-.78-2.5-1.3-4.22-1.39l-18.94-.96c-18.64-.95-20.38-20.43-40.16-25.98-11.98-3.36-25.11-3.21-36.97.68-8.1,2.66-14.48,8.84-19.81,15.11-14.41,16.97-29.04,6.97-41.46,12.54-2.42,1.08-.45,5.06-.34,6.64-10.79-17.2,17.18-6.66,30.93-14.03s15.37-28.36,48.88-29.15c34.48-.81,38.34,22.74,50.95,29.06,11.66,5.85,28.07.62,33.23,5.85,1.85,1.88.02,4.93-1.24,6.47Z"/>
    <path class="cls-8" d="M280.6,160.6c-.69.37-1.67-.27-2.08.92,1.51.84,2.88-.52,4.14.92-13.9,3.39-30.5-10.15-38.74-3.84,8.01,1.95,15.47,4.71,23.66,5.83,4.99.68,9.88-.42,14.14,1.39-6.01,3.18-12.19,3.77-18.75,2.38-8.11-1.71-16.84-2.82-24.01-6.85-9.98-5.6-9.68,6.78-45.13,6.29-.53-2.89,24.67-4.98,29.14-8.43-14.51-5.29-17.03,4.3-40.06,3.97-.9-.01-1.11,1.16-1.13,1.6-2.23-.78-4.42-1.4-4.19-4.4,10.72,1.06,20.47-1.32,29.74-5.8,18.81-9.07,20.24,11.57,36.63.61,5.03-3.37,9.6-3.82,15.34-1.74,7.19,2.61,14.23,5.29,21.3,7.14Z"/>
    <path class="cls-6" d="M118.27,211.8c5,3.63,8.5,8.3,11.49,14.05,2,3.84,5.29,6.84,6.04,10.88-5.42,2.44-9-12.62-13.69-16.18,1.9,5.31,2.49,10.03,1.23,15.36l-4.19,17.73c-.2.84.09,2.2.48,2.56.36.33,1.55-.33,2.11-.1,1.35,1.78-.18,4.24-1.73,5.13-1.31.75-5.42,1.39-5.81-.85-2.22-12.57-3.94-24.76-3.5-37.36l-6.4-4.47c.45-.88,1.61-.79,2.01-2.28-7.67-1.29-9.93-2.62-18.44-4.24,10.04-2.48,20.32-1.84,30.41-.24Z"/>
    <path class="cls-10" d="M437.89,222.48c12.33,6.33,11.3,21.19,4.5,32.62l-27.5-19.78c2.35-8.51,14.59-17.16,23-12.84Z"/>
    <path class="cls-8" d="M314.6,152.77c4.93,6.5,8.18,13.83,10.83,21.59,9.39-6.33-3.11,5.69,16.23,12.87l-5.27,1.61c-3.45,1.05-7.39-.37-11.01-.24-.5-1.9,1.37-2.56,3.19-4.23-7.79-3.08-15.14,3.33-20.07,2.38l-2.92-13.24,4.07-.24-11-16.41c5.1-2.1,10.41-4.11,15.96-4.1Z"/>
    <path class="cls-2" d="M173.75,113.67c-.4-.3-1.41-.78-2.17-.67-.5.07-.23,1.57-.85,1.89-12.71-2.03-6.06-5.75-11.8-5.66-6.08.1-14.5-1.25-20.05,1.75-4.28,2.31.32,8.71,3.69,10.36,14.05,6.84,26.65,14.65,38.21,24.51-1.1,2.43-2.73,5.83-5.85,4.07-.27-.46-.62-.87-1.06-1.17-.22-.32-.59-.84-.96-.98-.65-1.34-1.76-2.37-3.1-3-.14-.31-.62-.81-.92-.89-.31-.49-.78-.85-1.29-1.12-3.83-6.19-29.35-16.81-31.18-19.44-4.11-5.9-1.18-17.81-3.72-16.29l.03-.78c12.65-2.96,26.36-.96,38.72,3.92,2.24.89,1.88,2.07,2.3,3.51ZM169.83,112.4c0-.28-.22-.5-.5-.5s-.5.22-.5.5.22.5.5.5.5-.22.5-.5Z"/>
    <path class="cls-8" d="M289.15,157.59c-3.53-.9-7-.99-10.15-2.08l-13.17-4.58c9.36-12.74,11.18-6,13.03-25l1.91-19.64c9.98,1.01,4.47,22.64,3.17,30.29-1.92,11.3,3.86,9.32,5.21,21.02Z"/>
    <path class="cls-2" d="M290.75,143.79c11.91-4.37,15.64-3.67,28.99-8.6,2.5-.92,5.11-.68,6.99-3.51-16.87-7.27-19.98-5.94-37.44-3.41l6.33-5.24-7.05.85c13.12-7.81,27.96-5.18,40.02,3.98,1.46,1.11,6.38,3.46,3.16,5.41l-9.12,5.5c-16.26,9.81-16.9,2.09-29.87,11.06-2.67-1.69-1.46-4.15-2.01-6.05Z"/>
    <path class="cls-2" d="M96.99,172.78c12.29,2.45,26.97,5.98,35.73,15.31-4.2,4.73-2.87,12.26-5.16,19.18-10.87-6.82-22.78-9.43-35.88-11.83,10.5-2.03,24.34-.94,34.51,5.54l2.68-12.69c-13.21-8.79-43.29-13.34-57.83-10.3-.51.11-1.6-.36-2.06-.52-4.35-1.41,12.47-4.24,11.05-4.69,5.49.81,11.53-1.09,16.96,0Z"/>
    <path class="cls-4" d="M348.33,207.28c-19.39-12.8-48.35.55-38.64-9.43,16.83-5.48,42.51-3.08,55.15,10.14.8,2.68-.58,6.26-1.42,9.25l-15.08-9.96Z"/>
    <path class="cls-10" d="M193.67,281.56c1.52.05,3.03-.23,5.12.14v33.84c-1.31.06-2.59-.09-3.88-.17l-.13-17.88c-2.5.66-1.76,2.5-1.99,4.03-.29,1.97-.21,6.79-3.03,7.09-3.19.34-3.53-4.32-3.74-6.37-.12-1.95-1.79-2.58-2.2-.71l-.02,11.82c-1.69.38-2.85.15-4.01.16l-.1-32.71c1.91-.28,3.3-.1,5.07.07l4.55,17.85,4.37-17.14Z"/>
    <path class="cls-4" d="M123.37,164.44c-2.9-5.57-3.88-11.83-7.69-17.27-7.11-10.15-18.19-14.87-30.72-16.39,2.84-2.66,6.15-6.53,9.98-7.28,19.2,3.04,33.98,19.21,28.43,40.94Z"/>
    <path class="cls-6" d="M290.75,143.79c-2.03-6.99-1.63-13.49-2.18-19.91l7.05-.85-6.33,5.24c17.46-2.54,20.57-3.86,37.44,3.41-1.88,2.83-4.49,2.59-6.99,3.51-13.35,4.93-17.08,4.23-28.99,8.6Z"/>
    <path class="cls-1" d="M198.63,114.34c1.12,3.73,3.56,2.45,1.72,6.04,1.85.76,3.52,1.12,4.48,2.52,0,.66-.19,1.34-.15,2,.33,5.78,10.64,8.33,12.75,6.85.88-.62,2.91-.4,4.1-1.01,1.88,7.22-8.92,1.43-9.83,5.13,4.22,3.52,11.31-.23,11.54,2.5.26,3.1-5.93,3.5-7.76,7.32-8.52.19-6.08-2-11.57-2.66-9.78-4.67-7.77-19.68-9.34-30.07,2.04-.23,2.88,1.16,4.06,1.37Z"/>
    <path class="cls-10" d="M221.39,304.89c-.23-1.61-4.32-1.76-4.82-.61-1.51,3.51.27,7.31-.78,11.34-.41,1.59-4.7,1.52-4.7-.03l.04-28.98c0-4.37,3.44-6.46,7.71-5.99,2.48.27,7.16.63,7.39,4.14.65,10.37.35,21.13.09,31.63-.21,1.09-4.12,1-4.44-.06-.91-3.29.1-7.21-.5-11.44ZM221.44,298.37c.1-4.67.38-7.97-.15-11.82-.21-1.55-4.87-1.61-5.01.19-.32,4.04-.83,8.37.24,12.01.34,1.17,4.89,1.05,4.92-.38Z"/>
    <path class="cls-8" d="M240.44,43.02c.38,9.55.39,19.14,0,28.69-1.55-.04-3.25.11-4.58-.83l-.18-10.76c-1.46-.21-2.52-.21-3.99,0l-.17,10.77c-1.42.98-3.12.79-4.71.18-.08-9.34-.4-18.71.17-28.03,3.4-3.96,10.1-4.17,13.45-.02ZM231.7,45.03c.68,3.57-1.41,7.78,1,10.98h2c.37,0,1-.11,1-.98v-9.99c0-1.72-3.24-1.19-3.99,0Z"/>
    <path class="cls-3" d="M284.1,219.38c.47-1.76-.26-3.66-1.46-5.52,8.73-16.68.32-29.39,2.18-36.93,1.12-4.55,12.62,1.35,10.78-5.23,3.59,4.62,4.6,10.8,3.33,16.83-2.6-1.99-3.36-4.69-6.92-6.07,1.53,13.26-.09,26.53-7.92,36.92Z"/>
    <path class="cls-10" d="M251.07,298.97c3.07,3.58,2.24,11.23.41,15.28-1.17,2.57-5.23,3.12-7.18,3.19-4.71.17-7.31-5.45-6.11-8.14.41-.93,2.03-.99,2.99-.92,1.18.09,1.63,1.43,2.08,2.72.49,1.4,1.85,1.22,2.84,1.03,2.66-.5,2.41-7.98.47-9.7-2.34-2.07-6.69-2.37-8-5.54-.81-1.95-2.09-11.95,1.87-15.15.46-.38,8.4-.77,9.63-.03,2.03,1.24,2.64,3.33,2.78,5.82.13,2.33-.71,3.15-2.64,3.15-4.5,0-.5-5.61-5-5.25-3.64.29-2.49,7.74-1.58,9.26,1.45,2.4,5.37,1.85,7.46,4.29Z"/>
    <path class="cls-1" d="M374.01,285.33c-7.96,2.1-15.98,2.17-24.6.94l-44.67-6.36c1.97-2.15,4.45-2.75,7.04-3.7,18.66,3.89,37.38,6.3,56.61,5.61,1.42-.05,3.56-.79,4.64.36.65.69.48,1.97.98,3.15Z"/>
    <path class="cls-10" d="M278.76,305.08c-.02,5.21-.94,8.66-6.36,9.48-1.8.27-3.8,1.19-5.43.14-1.37-.88-2.95-2.16-3.11-4.32-.17-2.34.58-3.49,3.16-3.66,1.47-.1,1.78,1,2.52,3.14.43,1.25,2.41.55,3.05.06.94-.72,1.05-1.96,1.28-3.35,1.82-10.92-11.47-2.36-10.02-17.09.25-2.52-.23-4.96,1.45-6.8,2.66-2.91,9.67-2.75,11.92-.21,1.39,1.58,1.52,3.66,1.11,6.12-.24,1.42-2.11,1.15-3.21,1.11-1.19-.04-1.24-1.58-1.62-3.01s-2.06-1.47-3.32-1.15c-2.01.51-1.29,7.12-.98,7.87,1.84,4.35,9.63-.72,9.58,11.66Z"/>
    <path class="cls-3" d="M191.61,138.67c-3.07-1.52-3.11-5.37-5.55-7.91-.63,7.69,4.64,15.68,4.66,23.86-3.23.59-6.51,2.48-10.26,1.36l5.61-14.26c-1.5-6.02-9.71-35.26.65-35.12l4.89,32.06Z"/>
    <path class="cls-9" d="M373.39,418.8H84.19s289.2,0,289.2,0Z"/>
    <path class="cls-2" d="M224.71,53.02c.07,6.25.09,12.51-.2,18.75-8.27.56-34.59-1.15-41.94-6.67l25.74,3.55c-3.03-3.95-6.98-5.05-10.59-8.34,4.81-.31,9.73-.25,15.04.02,7.84.4,3.85-7.27,10.31-13.61-.13,2.43,1.62,4.58,1.64,6.29ZM212.94,68.44c2.01,1.59,6.49,1.12,8.41.06.94-3.79.46-8.29.09-12.59-1.49,2.16-1.14,4.78-2.94,6.89-4.05.35-7.59-.75-11.99.54l6.43,5.09Z"/>
    <path class="cls-1" d="M208.6,106.06c2.48,6.8,17.86-3.48,24.16,14.98-5.72,20.99-24.81-27.41-38.06-9.06-.91-2.8-1.19-4.99-.83-7.87,5.21.55,9.96,1.19,14.73,1.95Z"/>
    <path class="cls-2" d="M242.89,71.77c-.1-5.55-.56-11.2-.21-16.76.15-2.33,1.92-5.36,1.57-8.15,4.53,3.16,3.61,9.62,6.84,12.73l18.04,1.17c-2.97,3.04-7.42,4.3-9.98,7.96,8.68-.19,15.88-4.05,23.88-2.04-13.64,4.22-27,5.43-40.14,5.09ZM260.67,63.52c-4.91-1.62-8.06-.28-11.8-.95l-2.98-6.67c-.17,4.43-.85,8.86.28,12.7,1.98,1.1,6.69,1.16,8.55-.33l5.94-4.75Z"/>
    <path class="cls-3" d="M129.14,107.32c2.27,4.52,1.35,9.77,1.68,14.68-1.2-.05-2.34-2.05-3.38-1.96-5.94,5.48,3.22,8.58.49,14.52-1.64-6.13-7.42-15.14-13.09-12.62-.58.26-.81,1.11-.97,1.95-3.64-1.83-7.74-2.44-11.46-4.91,8.34-6.23,21.6-2.18,18.14-8.89,2.26-1.85,5.83-2.34,8.59-2.78Z"/>
    <path class="cls-3" d="M159.38,240.46c-9.54,2.23-4.82-9.41-21.63-27.56-1.06-1.15-1.39-3.05-.72-4.32,2.54-4.79,14.32,4.49,14.9,6.54,3.01,8.65,4,17.33,7.44,25.34Z"/>
    <path class="cls-1" d="M257.69,147.76c-1.95.1-3.37-.88-4.32-2.89-1.6-3.39-5.67-3.01-8.42-6.48,5.31-1.32,10.4.24,13.78-4.61-.68-1.01-2.17-.98-3.09-1.18,5.39-.79,12.32-5.95,9.4-8.24-.34-.26-.71.49-1.41.5v-2c1.13.23,2.44-.41,3.45-1.15,1.23-.9-.54-2.02-1.29-3.33.27-1.35,4.09-2.42,5.56-1.21-1.54,26.97-2.65,15.44-13.66,30.56Z"/>
    <path class="cls-3" d="M148.8,166.7c-3.03,6.36,1.36,19.07-1.82,21.68l-5.56-6.66c-.96,1.53-.43,2.28-.56,2.93-2.44-2.12-5.1-5.61-7.03-7.97.87-1.99,4.8-1.38,6.49-2.57,2.54-7.95-.01-16.02-1.35-24.76,3.72,2.35,11.46,13.9,9.82,17.35Z"/>
    <path class="cls-1" d="M265.53,107.59c-9.84,1.63-15.2,18.21-25.87,18.48-1.79-2.27-3.42-4.48-5.17-6.27-1.29-1.32-.97-3.75-1.84-5.81,4.2-.2,7.37-2.74,11.14-2.71,6.47.04,5.31.26,13.06-4.1l4.5-.52c1.29-.15,2.59.03,4.09-.59.38.99.16,1.33.09,1.52Z"/>
    <path class="cls-3" d="M250.48,175.1c-4.28,5.48-10.95-4.41-25.96,1.62-1.51.6-4.2-.05-5.26-.7-1.16-.7-3.15-3.22-2.25-4.38,1.97-1.5,4.31.98,6.67,1.1l-1.96-2.91c17.84-6.39,6.32-7,24.92.64l-4.16,2.02c3.07,1.88,5.4-.16,8.05-1.34,1.91,1.51.68,3.02-.06,3.97Z"/>
    <path class="cls-1" d="M237.07,130.18c5.08,6.3,1.42,13.54,4.6,13.73,1.1.07,2.26-.72,3.23-.52,1.43.3,1.22,1.73,1.72,2.63-.69,3.14-3.88,1.87-6.51,2.45-1.86.4-3.05,3.05-4.96,2.74-8.79-1.44-3.63-12.48-7.26-11.17-1.19-6.72,5.15-11.7,7.25-11.36.9.15,1.3.99,1.93,1.5Z"/>
    <path class="cls-2" d="M135.79,236.73c-.75-4.04-4.04-7.04-6.04-10.88-2.99-5.75-6.49-10.43-11.49-14.05l.12-.83c.27-.28.51-.58.72-.9,3.73,1.3,8.18,1.98,11.3,5.21,6.2,6.4,10.88,14.02,14.65,22.63-3.53,1.78-6.95.72-9.28-1.17Z"/>
    <path class="cls-10" d="M132.74,106.24l-.03.78c-.16,4.41.24,9-.16,13.84-1.07,12.77,26.36,17.06,39.8,35.27.66.9-1.99,2.17-2.43,2.43-9.58-12.93-27.87-18.82-36.37-27.4-2.24-2.26-2.53-6.35-2.72-9.16-.33-4.91.59-10.16-1.68-14.68,1.2-.19,2.4-.8,3.6-1.08Z"/>
    <path class="cls-10" d="M256.85,107.18c-7.76,4.36-6.59,4.14-13.06,4.1-3.77-.02-6.93,2.51-11.14,2.71.87,2.06.54,4.49,1.84,5.81-.46.58-.87,1.58-1.73,1.25-6.29-18.46-21.68-8.18-24.16-14.98,16,2.57,32.1,2.21,48.25,1.11Z"/>
    <path class="cls-1" d="M212.21,179.6c3.87,3.21,7.2,1.89,10.58.26,7.34-3.53,15.49-3.65,23.09-.66,8.51,3.34,9.66-8.55,11.81-4.8s-6.03,11.37-9.48,9.67c-19.9-9.79-23.22,3.51-30.67.42-2.29-.95-4.05-2.65-5.34-4.89Z"/>
    <path class="cls-10" d="M339.16,139.96c-10.37,4.35-11.09,8.8-24.56,12.82-5.55-.01-10.86,2-15.96,4.1-8.6-5.94,17.94-7.63,23.13-10.72l15.51-9.24c1.1.48,1.65,2.34,1.88,3.06Z"/>
    <path class="cls-10" d="M257.69,147.76c11.01-15.12,12.12-3.59,13.66-30.56-1.47-1.21-5.29-.14-5.56,1.21.76,1.31,2.52,2.43,1.29,3.33-1.01.74-2.32,1.38-3.45,1.15-1.79-.36-3.5-.13-5.47-2,13.13-2.25-2.19-5.05,16.4-7.12l-1.64,17.56c-1.1,11.79-6.17,8.18-10.82,16.14-.49.84-1.26,1.47-1.96,1.63-.9.21-1.75-1.26-2.46-1.33Z"/>
    <path class="cls-3" d="M280.6,160.6c3.24.85,6.86-1.04,10.33.81-2.92,2.94-6.51,2.99-9.21,4.42-4.26-1.81-9.14-.7-14.14-1.39-8.18-1.12-15.65-3.88-23.66-5.83,8.24-6.31,24.83,7.22,38.74,3.84-1.26-1.43-2.63-.08-4.14-.92.4-1.19,1.39-.55,2.08-.92Z"/>
    <path class="cls-3" d="M193.83,167.65l-3.04-.04c-.29-.87-1.33-.74-2.08-.7-2.93-.29-5.01-1.05-6.92-2.11.02-.43.23-1.61,1.13-1.6,23.03.33,25.55-9.26,40.06-3.97-4.47,3.44-29.67,5.53-29.14,8.43Z"/>
    <path class="cls-8" d="M191.61,138.67c.99.49,1.62,2.14,2.24,2.98.37.5-.32,1.75.59,2.05.81.27,1.61.29,2.34.24,2.43,1.85,4.93,3.76,7.07,6.99-4.4,2.39-8.82,2.9-13.13,3.69-.03-8.18-5.29-16.17-4.66-23.86,2.44,2.54,2.49,6.39,5.55,7.91Z"/>
    <path class="cls-3" d="M186.69,172.65c-5.69,8.36-6.15,7.18-9.88,16.1-.5-.91-.65-1.98-.39-2.99.19-.72.29-1.43.44-2.44.12-.81.04-1.88-1.3-1.17-2.27,1.19-3.72,3.43-6.21,5.53-1.62-3.51.88-6.24,1.62-8.91l1.76,1.78c2.22-4.14,6.08-6.64,7.27-10.73,1.89.39,4.74,2.21,6.68,2.84Z"/>
    <path class="cls-6" d="M90.13,255.4c-7.99-.78-14.52-4.76-22.01-6.74-1.7-8.96-.87-17.14-1.1-26.05-.17-6.69-2.83-13.16-.67-20.07,2.29,8.14.66,15.86,2.18,23.72,1.3,6.68.03,13.5.11,20.31,7.1,3.87,14.69,4.17,21.49,8.84Z"/>
    <path class="cls-4" d="M345.46,149.85c-5.65-1.8,2.37,9.93,3.82,12.25.79,1.26,3.19.55,4.12.75.66,1.33,1.56,2.52,2.14,3.94-4.14-.37-5.08,2.18-9.03.13-2.36-3.52-3.11-8-6.04-11.11.02-1.38-.16-2.84-1-3.99v-2c.82-1.54,2.34-3.21,3.99-3.99.37,1.31,2.42,2.3,2,4.01Z"/>
    <path class="cls-10" d="M246.63,146.03c.42.77,1.24,2.58-.58,3.19-6.39,2.1-10.61,10.43-24.14-1.29-.34-2.44,3.77-2.96,5.33-3.45,2.23-.7.88-3.2.66-4.44,3.63-1.3-1.53,9.74,7.26,11.17,1.91.31,3.1-2.33,4.96-2.74,2.63-.57,5.83.7,6.51-2.45Z"/>
    <path class="cls-3" d="M195.21,216.63c-1.29-.8-1.55-2.81-2.37-3.93-1.6-2.2-2.13-4.43-2.35-8.21-3.02,2.96-1.67,6.88-2.99,10.86-4.75-1.58.5-18.53,4.55-18.23l5.32,16.72c-1.39,1.08-1.63,1.99-2.16,2.78Z"/>
    <path class="cls-9" d="M37.94,422.28l1.17-45.91c5.11,2.45,10.86.19,17.06,1.07l-.56,44.91-.63-43.95h-15.89s.08,40.97.08,40.97c0,1.48-.16,2.5-1.23,2.91Z"/>
    <path class="cls-9" d="M75.54,422.27l-.02-106.72.02,106.72Z"/>
    <path class="cls-9" d="M87.21,410.12c-.53.5-1.2.03-1.2-.93v-98.52c0-.92.63-1.46,1.15-1.08l.05,100.53Z"/>
    <path class="cls-3" d="M325.38,188.61c-5.81.22-11.47,1.87-17.46,3.52-1.27-1.74-.15-3.91.58-5.37,4.92.95,12.27-5.47,20.07-2.38-1.82,1.67-3.69,2.34-3.19,4.23Z"/>
    <path class="cls-9" d="M342.65,410.17c-.48,0-1.19.17-1.19-.88l-.02-89.79c0-1.41.38-1.7,1.14-1.98l.07,92.65Z"/>
    <path class="cls-9" d="M142.06,410.14c-.25.05-1.49.12-1.44-.87,1.41-29.38-1.47-58.47,1.44-86.69v87.57Z"/>
    <path class="cls-2" d="M309.18,234.35c-4.13-.8-8.56-2.48-12.82-.91-5.18,1.47-10.2,1.85-15.93,2.19,1.88-1.43,3.37-3.86,5.72-4.35,2.72-.56,21.41-2.34,23.03,3.07Z"/>
    <path class="cls-2" d="M329.79,264.68l2.6-6.16c1.27-3.01-12.72-19.5-18.5-17.1,2.25-7.19,18.96,9.86,21.11,13.57s-2.25,8.49-5.2,9.7Z"/>
    <polygon class="cls-9" points="358.43 398.35 357.57 398.33 357.89 314.52 358.43 398.35"/>
    <path class="cls-9" d="M198.26,410.34v-81.84s0,81.84,0,81.84Z"/>
    <path class="cls-9" d="M331.31,410.13l-.05-78.67c.27-.59,0-1.87,1.21-1.92l.04,79.77c0,1.04-.74.81-1.2.82Z"/>
    <path class="cls-9" d="M235.85,410.15c-.47,0-1.17.19-1.17-.85v-78.84c0-1.02.71-.83,1.17-.85v80.54Z"/>
    <path class="cls-9" d="M223.54,410.14v-80.49s1.48,79.65,1.48,79.65c-.55.84-.92,1.14-1.48.84Z"/>
    <path class="cls-9" d="M208.26,410.33v-80.9s0,80.9,0,80.9Z"/>
    <path class="cls-9" d="M287.09,410.24v-73.84s0,73.84,0,73.84Z"/>
    <path class="cls-9" d="M131.38,400.09v-67.69s0,67.69,0,67.69Z"/>
    <path class="cls-3" d="M263.63,124.88c.71,0,1.08-.77,1.41-.5,2.92,2.28-4.01,7.45-9.4,8.24-.61-.13-1.39.31-2.19-.14-.44-.25-.73-.95-.81-1.61,5.49-2.54,4.14-7.86,8.35-6.97.74.16,1.74.49,2.63.99Z"/>
    <path class="cls-9" d="M83.02,432.26H28.13c-.12-.37.35-.99,1.08-.99h52.72c.59-3.87-.7-7.22.6-11.08,1.12,4.04.17,8.05.48,12.07Z"/>
    <path class="cls-8" d="M345.46,149.85c4.35,2.68,5.72,8.5,7.94,13-.93-.21-3.33.51-4.12-.75-1.45-2.32-9.47-14.05-3.82-12.25Z"/>
    <path class="cls-8" d="M180,169.81c-1.18,4.09-5.05,6.59-7.27,10.73l-1.76-1.78c1.03-3.71,1.85-8.46,5.17-11.02,1.78-1.38,2.77,1.84,3.86,2.07Z"/>
    <path class="cls-6" d="M83.02,432.26h1.01c0,.35-.1,1.01-1.04,1.01H30.21c-.73,0-1.2.62-1.08.98-.33-.2-.93.09-1-.52-.05-.47.02-.92,0-1.47h54.88Z"/>
    <path class="cls-6" d="M430.28,432.26c-.02.52.05.98,0,1.47-.07.6-.64.36-1,.53.12-.37-.35-.99-1.08-.99h-52.76c-.87,0-1.1-.66-1.04-1h55.88Z"/>
    <path class="cls-9" d="M430.28,432.26h-55.88c.06-.31,0-.68-.03-1h54.83c.73,0,1.2.63,1.08,1Z"/>
    <path class="cls-3" d="M217.42,131.75c-2.11,1.48-12.42-1.07-12.75-6.85,1.83-.4,4.43-1.65,6.32-.14,1.03.83.64,3.1,2.1,3.81,1.84.89,3.45,1.69,4.33,3.18Z"/>
    <path class="cls-9" d="M226.83,71.07c-.68.48-1.49.65-2.31.7.3-6.24.27-12.5.2-18.75,2.46-7.27-.82-6.36,2.28-9.98-.58,9.32-.25,18.69-.17,28.03Z"/>
    <path class="cls-9" d="M242.68,55.01c-.35,5.56.11,11.21.21,16.76l-2.44-.06c.39-9.55.38-19.14,0-28.69,2.57,3.18.99,8.2,2.23,12Z"/>
    <path class="cls-6" d="M104.8,450.08l.17,1.14h-48.9c.09-.25-.05-.69,0-1l48.73-.14Z"/>
    <path class="cls-10" d="M265.53,107.59c.08-.19.29-.53-.09-1.52-1.5.62-2.8.44-4.09.59-3-1.66,11.71-3.36,12.72-3.3.94,2.34.88,4.76-.4,6.76-1.94-2.85-4.95-3.06-8.13-2.53Z"/>
    <path class="cls-9" d="M402.34,451.22c.09.41-.25,1.01-1.02,1.01h-46.85c-.88,0-1.13-.65-1.03-1.01h48.9Z"/>
    <path class="cls-9" d="M104.97,451.22c-2.01,1.6-49.47,1.53-48.9,0h48.9Z"/>
    <path class="cls-6" d="M402.34,450.12c.04.36-.08.75,0,1.1h-48.9c.08-.3,0-.68,0-1l48.9-.1Z"/>
    <path class="cls-9" d="M353.44,441.24v8.98c-2.23-1.45-.49-5.12-.93-7.76-12.44-1.2-24.71,1.29-36.09-1.24l37.02.02Z"/>
    <path class="cls-10" d="M222.79,179.85c-3.38,1.63-6.71,2.95-10.58-.26-.65-1.12-1.66-1.69-1.59-3.28.06-1.35-.3-3.33,1.91-3.03,2.16,4.29,5.59,7.65,10.25,6.57Z"/>
    <path class="cls-10" d="M204.82,122.91c-.95-1.39-2.63-1.76-4.48-2.52,1.84-3.6-.6-2.32-1.72-6.04,2.96.54,5.35,1.38,6.29,4.61,1.38,1.06,3.88,1.17,4.83,2.47-2.05,1.13-3.51,1.28-4.92,1.48Z"/>
    <path class="cls-9" d="M198.77,315.54v-33.84c-2.07-.37-3.58-.09-5.1-.14.51-1.53,5.79-1.79,5.93-.15l.23,32.97c0,1.09-.74,1.14-1.05,1.15Z"/>
    <path class="cls-9" d="M305.54,378.37c.7.98,2.01.77,3.04,1.65l-5.05.1.05,29.29c0,.96-.81.68-1.23.7.25-10.11.68-20.23-.52-30.68,1.27-.43,2.6-1.04,3.72-1.05Z"/>
    <path class="cls-9" d="M277.6,365.39c1.34-9.78,2.14-22.49-1.18-32.04,3.16,2.39,3.24,6.13,3.23,11.16l-.02,18.93c0,.89-.08,1.61-.58,1.91-.36.22-1.03.06-1.45.04Z"/>
    <path class="cls-9" d="M141.89,441.17c-11.87,2.51-24.56.36-36.95,1.07.02-.33.03-.66.03-1l36.92-.07Z"/>
    <path class="cls-9" d="M183.8,388.35c0,1.32.04,2.67.03,3.99-.43.13-.99-.34-.99-1.04l-.07-18.96c-.85-.25-1.45.03-1.97.03.71-2.67,1.64-5.23,2-7.98,1.43.4.97,2.34.97,3.93l.03,20.03Z"/>
    <path class="cls-9" d="M163.71,219.56c.78-.8,1.95-.41,3.04-.55-.22-1.65-1.02-2.88-.11-3.31,2.13,3.44,6.06,5.85,8.11,10.03-4.22-1.39-8.05-3.44-11.04-6.16Z"/>
    <path class="cls-9" d="M384.88,347.42c-.86-11.08-.82-22.22-.03-33.97.88,11.04.84,22.04.03,33.97Z"/>
    <path class="cls-10" d="M215.48,145.7c-.93,1.94-4.29,3.86-6.67,2.85s-3.79-3.7-4.9-5.51c5.49.65,3.05,2.84,11.57,2.66Z"/>
    <path class="cls-10" d="M252.65,130.86c.08.66.37,1.36.81,1.61.79.45,1.58,0,2.19.14,0,.76-.14,1.73-.67,2.02-1.69.94-9.37.12-10.46-3.53,3.39-.66,5.75-.02,8.13-.23Z"/>
    <path class="cls-8" d="M144.91,195.73c.41,1.18.99,2.3,1.36,4.13-1.8.53-3.64-.67-4.47-1.71-1.28-1.6-.73-3.86.07-5.3,2.07-1.29,1.86,2.01,3.04,2.88Z"/>
    <path class="cls-10" d="M241.68,143.91c-3.18-.19.48-7.44-4.6-13.73,1.31,1.06,4.18,1.61,4.26,3.88l.34,9.86Z"/>
    <path class="cls-9" d="M235.87,70.89c-3.29-2.17.72-6.3-2.18-9.59-2.85,3.31,1.07,7.37-2.16,9.6l.17-10.77c1.46-.21,2.52-.21,3.99,0l.18,10.76Z"/>
    <path class="cls-9" d="M96.99,172.78c-5.44-1.09-11.47.81-16.96,0-.67.02-1.79.34-2-.98l22.01.05c-.68,1.51-2.06.81-3.05.93Z"/>
    <path class="cls-9" d="M194.91,315.37c-.42-.03-1.13.07-1.13-.8l.02-11.11c0-1.04-.2-2.01-1.01-1.94.23-1.54-.51-3.37,1.99-4.03l.13,17.88Z"/>
    <path class="cls-9" d="M144.91,195.73c-1.17-.86-.97-4.16-3.04-2.88-1.27-1.14-1.67-3.08-2.06-5.06,3.26-.74,3.54,2.06,4.71,4.31l1.2,2.31c.23.45.36,1.45-.81,1.32Z"/>
    <path class="cls-9" d="M179.77,313.5c1.16,0,2.32.22,4.01-.16l.02-11.82c1.6-1.95.96,11.37.86,12.16-.16,1.39-4.89,1.48-4.89-.18Z"/>
    <path class="cls-9" d="M437.31,330.95c-5.5.87-11.01.8-17.09.05,5.46-.93,10.95-.85,17.09-.05Z"/>
    <path class="cls-9" d="M54.96,294.22c-5.58.43-11.15.76-16.95-.18,5.57-.76,10.53-1.06,16.95.18Z"/>
    <path class="cls-9" d="M437.96,329.45c.37-4.29.53-8.66.07-12.96.39-1.02-.45-2.41.95-3.98-.07,2.75,1.57,16.94-1.01,16.94Z"/>
    <path class="cls-9" d="M403.22,391.93c-5.6.64-11.17.77-16.97-.04,5.59-.91,10.54-.95,16.97.04Z"/>
    <path class="cls-9" d="M74.02,422.97c0,.37.07,1.33-.95,1.33h-15.1c-.93,0-.69-.83-.69-1.23,5.57.3,11.18.42,16.74-.09Z"/>
    <path class="cls-9" d="M37.11,423.09c-.31.53-.79,1.26-1.92,1.26l-14.15-.04c-.99,0-.67-.8-.67-1.25,5.57.38,11.17.29,16.74.03Z"/>
    <path class="cls-9" d="M420.32,401.32c-.79.09-1.04-.89-1.04-1.94v-11.08c0-1.06.25-2.04,1.05-1.94v14.97Z"/>
    <path class="cls-9" d="M146.98,188.39c-2.04-.79-4.38-2.23-6.12-3.74.13-.65-.41-1.39.56-2.93l5.56,6.66Z"/>
    <path class="cls-9" d="M259.56,238.94c3.24-1.89,4.85-5.17,7.87-7.36-1.71,3.12-3.77,7.84-7.87,7.36Z"/>
    <path class="cls-9" d="M337.54,247.59c-2.55-1.18-6.51-3.08-6.28-6.03,1.87,2.08,4.59,3.65,6.28,6.03Z"/>
    <path class="cls-3" d="M191.85,223.68c-.11.83.18,1.66-.29,3.04-1.53-.66-1.88-2.14-2.84-2.99l3.12-.05Z"/>
    <path class="cls-6" d="M94.68,257.61c-1.48.03-2.47-1.04-3.74-1.53,1.72-1.02,3.32-.87,3.74,1.53Z"/>
    <path class="cls-3" d="M196.78,143.95c-.73.04-1.52.03-2.34-.24-.91-.31-.22-1.55-.59-2.05,1.78-.51,2.01,1.6,2.93,2.29Z"/>
    <path class="cls-8" d="M176.42,185.75c-1.12-.82-.69-2.39-.86-3.61,1.34-.71,1.42.37,1.3,1.17-.15,1.01-.25,1.72-.44,2.44Z"/>
    <path class="cls-6" d="M119.12,210.07c-.22.32-.46.62-.72.9-1.24-.44-2.9-.26-3.42-2.23,1.58.93,2.89.89,4.14,1.33Z"/>
    <path class="cls-7" d="M264.61,174.77c.11.86-.2,1.8-1.13,2,.07-.49-.91-1.14-.75-1.53.28-.68,1.47-.53,1.88-.47Z"/>
    <path class="cls-8" d="M190.79,167.61c-1.17-.02-1.68-.39-2.08-.7.75-.04,1.79-.17,2.08.7Z"/>
    <path class="cls-9" d="M168.89,143.87l-1.63-.44c-.2-.05.05-.38.34-.68.51.27.98.63,1.29,1.12Z"/>
    <path class="cls-9" d="M174.93,149.92c-.31.86-.78.72-.89.29-.17-.68.02-1.18-.17-1.46.44.3.79.71,1.06,1.17Z"/>
    <circle class="cls-1" cx="223.22" cy="131.36" r=".5"/>
    <path class="cls-9" d="M172.91,147.77c-1.43-.54-2.49-1.61-3.1-3,1.34.63,2.45,1.67,3.1,3Z"/>
    <path class="cls-9" d="M341.55,250.74c-.34.73-.67.97-1.15.43-.55-.62-.8-1.09-.87-1.63l2.02,1.2Z"/>
    <path class="cls-3" d="M282.69,221.88c.2-.5.56-.92,1.02-1.19-.27.43-.72.8-1.02,1.19Z"/>
    <path class="cls-5" d="M222.74,428.39c-.17,1.68-.56,3.76-2.01,4.85l-121.76-.6,121.76.6-121.63,1.29-.45,9.63-40.39-.11c-2.67-.62-5.19-3.08-7.31-4.7l39.06-.1c.33,0,.68-.07,1,0,2.13.47.34-8.32,1.14-11.01l130.6.16Z"/>
    <path class="cls-5" d="M367.57,439.12l39.88.25c-2.26,1.46-4.74,3.72-7.35,4.66l-39.51.23-.54-10h-122.97c-1.04-2.4-1.23-4.19-1.55-6h130.76s.29,10.74.29,10.74c.18.31.79.11.99.11ZM360.4,432.75l-122.7.02,122.7-.02Z"/>
    <path class="cls-5" d="M246.75,462.15c-2.48-3.87-2.84-8.04-4.65-12.5l12.61-9.25,40.24.25-48.2,21.51Z"/>
    <path class="cls-5" d="M215.74,449.14c-.57,4.91-2.56,8.68-4.09,13.14l-48.16-21.54,40.29-.53,11.96,8.93Z"/>
    <path class="cls-5" d="M241.68,441.24c-3,.33-6.07-.63-9.04.38,1.7,1.45,3.15,0,5.25.9-1.51.95-1.36,1.76-1.46,2.81-.21,2.22-3.32-1.88,1.18,11.82-2.98-1.21-5.2-4.55-8.16-5.16-3.27-.13-5.85,3.6-8.67,5.29l2.48-10.22-7.45-6.13c3.19-1.43,6.88.71,9.36-1.22,2.33-1.82,1.9-5.78,3.84-7.86l3.88,8.27c3.13,1.09,6.9-1.35,8.78,1.14Z"/>
    <path class="cls-6" d="M222.74,428.39l-131.61-1.4-.12,12.25c-.32-.07-.67,0-1,0l.11-12.98h132.5c1.22-.01,1.25.9,1.13,1.44-.08.36-.69.37-1.01.68Z"/>
    <path class="cls-9" d="M367.41,427.27l.16,11.85c-.2,0-.82.2-.99-.11l-.29-10.75h-130.76c-.6.03-.98-.4-.84-.99h132.72Z"/>
    <path class="cls-6" d="M367.41,427.27h-132.72c-.11-.37.3-1,1.17-1h130.37c.87,0,1.28.63,1.17,1Z"/>
    <path class="cls-5" d="M237.97,465.87c-11.25,6.06-7.77,4.85-17.81.02,2.5-2.6,5.89-5.93,9.37-6.45,3.09,1.32,5.88,4.22,8.44,6.43Z"/>
    <path class="cls-6" d="M353.44,441.24l-37.02-.02c2.11-1.54,35.5-1.57,37.02.02Z"/>
    <path class="cls-6" d="M141.89,441.17l-36.92.07c1.78-1.61,34.42-1.51,36.92-.07Z"/>
    <path class="cls-9" d="M241.68,441.24c-.87,2.37-3.83,2.24-5.25,4.08.1-1.05-.06-1.85,1.46-2.81-2.09-.9-3.55.56-5.25-.9,2.97-1.01,6.04-.05,9.04-.38Z"/>
    <path class="cls-5" d="M57.15,360.97c-7.14.84-12.83.51-19.86.08l.54-45.15c.06-4.62,6.57-5.63,10.2-5.34,3.41.27,8.7,1.22,8.73,5.35l.38,45.06Z"/>
    <path class="cls-6" d="M183.8,388.35l-.03-20.03c0-1.58.46-3.52-.97-3.93.22-1.66.67-3.56,1.83-5.13l.17,28.05c0,.67-.65,1.16-1,1.04Z"/>
    <circle class="cls-3" cx="190.29" cy="215.19" r=".5"/>
    <path class="cls-5" d="M117.06,391.88c.04,4.47-1.81,7.64-6.3,7.26l-9.82-.84.14-73.4c4.31,1.21,11.36.42,13.72,4.64,3.38,6.05,1.88,14.04,1.93,20.85l.33,41.48Z"/>
    <path class="cls-5" d="M317.55,338.45c-.8-.1-1.05.89-1.05,1.94v11.08c0,1.06.25,2.04,1.05,1.94l-.07,13.63c-5.51,1.31-10.14,1.55-15.87,1.12l.73-30.12c.09-3.87,11.56-6.11,14.3-3.19.78.84.91,2.33.91,3.6Z"/>
    <path class="cls-9" d="M317.55,353.42c-.8.09-1.05-.89-1.05-1.94v-11.08c0-1.06.25-2.05,1.05-1.94v14.97Z"/>
    <path class="cls-8" d="M295.6,171.7c1.84,6.58-9.66.68-10.78,5.23-1.86,7.54,6.56,20.25-2.18,36.93,1.19,1.85,1.93,3.75,1.46,5.52-.11.41-.17.95-.39,1.31-.47.27-.82.69-1.02,1.19l-3.91,5.01c-1.33-6.85.21-12.59-3.63-18.82,0,9.45-3.73,16.22-7.72,23.51-3.02,2.18-4.63,5.46-7.87,7.36-3.82,2.23-7.47,4.85-11.93,6.74-5.24,2.23-9.99,5.18-14.82,8.14l-5.18-5.14c-.89-.89-22.35-10.88-25.9-19.17-1.85-4.32-5.91-8.29-6.52-12.88.53-.79.78-1.7,2.16-2.78l-5.32-16.72c-4.05-.31-9.3,16.64-4.55,18.23,1.32-3.98-.03-7.91,2.99-10.86.22,3.79.75,6.01,2.35,8.21-2.82.24-.13,4.34-1,10.98l-3.12.05c-8.22-7.31-16.68-23.56-11.91-34.98,3.73-8.92,4.19-7.74,9.88-16.1,5.77,1.89,11.75,2.78,18.43,1.32l1.66,9.81c-.95.99-1.27,2.57-3.43,3.48-1.25-2.83-.28-5.36-1.06-8.66-2.78.84-6.94.7-9.42,2.22-2.3,3.23-3.88,7.19-4.39,11.24,2.98-3.93,5.9-7.28,10.46-8.97-5.69,17.35-3.89,26.86,9.28,38.29.61-5.85-1.12-10.59,1.46-15.27,3.4,12.12,8.05,23.65,19.35,30.48l1.01-15.1c2.32,3.93,3.22,8.22,6.19,12.47,4.62-2.45,6.55-6.96,10.05-10.53.85,2.04-1.51,3.22-.39,4.97,7.16-3.24,10.13-16.58,12.68-24.11,2.59,4.07,2.34,7.99,4.04,12.2,7.14-11.64,12.18-19.55,6.15-32.16,4.21-.43,7.6,1,11.87,1.65-2.42-11.89-13.96-5.41-17.04-8.28.05-.29-.13-.63-.11-.93.93-.2,1.25-1.14,1.13-2,14.85,2.21,27.28-7.49,29.87-6.34,1.17.52.52,2.5,1.12,3.27ZM190.79,215.19c0-.28-.22-.5-.5-.5s-.5.22-.5.5.22.5.5.5.5-.22.5-.5Z"/>
    <path class="cls-5" d="M264.25,363.31c-.63,6.54-9.62,5.02-14.65,4.64l-.02-28.47c5.84-.87,14.3-2.98,14.8,4.09s.52,13.04-.12,19.74Z"/>
    <path class="cls-5" d="M226.86,88.76c1.03,1.17-.54,5.37-2.21,5.71l-20.82-10.03c6.09-1.01,17.24-2.25,23.03,4.32Z"/>
    <path class="cls-5" d="M242.8,94.72c-2.07-1.23-1.57-3.38-3.01-5.31,4.95-6.37,14.68-6.22,22.97-5.05-6.23,3.75-12.62,6.63-19.97,10.37Z"/>
    <path class="cls-5" d="M237.15,91.98l-3.09-1.66c-.94-.51-1.91,1.05-3.97,1.63-.41-1.31.76-2.42.58-3.59-.25-1.65-2.01-1.85-3.07-3.06,1.69-.73,2.77-.32,4.15-.79.97-.33.38-3.26,1.68-3.38,2.18-.2-.98,3.28,6.1,4.28-2.38,1.49-3.3,3.4-2.38,6.57Z"/>
    <path class="cls-5" d="M237.07,96.51c.11,1.21-2.18,1.89-3.06,2.06-1.05.2-3.47-.52-3.61-1.97-.1-1.11,2.14-2.26,3.13-2.47s3.4.92,3.54,2.38Z"/>
    <path class="cls-4" d="M338.69,154.82c-.85,3.32,2.95,7.2,4.77,10.98-.21,1.12.59,3.4-.44,4.68-1.51,1.87-6.88,4.78-9.05,2.81-4.15-3.78-6.56-15.56-9.47-14.48-1.79-3.65,6.83-9.01,11.01-7.64,1.86.61,3.47,1.16,3.17,3.65ZM340.25,168.32c-2.23-4.3-4.11-8.95-6.56-12.56-2.01-.12-4.31,1.41-5.08,2.5l6.92,12.3c1.51-.36,3.93-.67,4.73-2.24Z"/>
    <path class="cls-10" d="M343.46,165.79c.42.86,1.54,1.33,2.12,2.05.18,4.69-9,8.61-11.14,7.56-1.23-.6-2.53-1.52-3.38-3.24l-6.57-13.36c2.91-1.08,5.32,10.7,9.47,14.48,2.17,1.97,7.54-.94,9.05-2.81,1.03-1.28.24-3.56.44-4.68Z"/>
    <path class="cls-1" d="M340.47,155.81c2.93,3.11,3.69,7.59,6.04,11.11l-.92.92c-.58-.72-1.71-1.19-2.12-2.05-1.83-3.77-5.62-7.66-4.77-10.98-.07.6,1.33,2,1.78,1Z"/>
    <path class="cls-1" d="M339.47,151.82c-.28-.38-1.21-.58-.92-1.3.16-.4.73-.49.92-.69v2Z"/>
    <circle class="cls-6" cx="169.33" cy="112.4" r=".5"/>
    <path class="cls-5" d="M221.44,298.37c-.03,1.42-4.58,1.55-4.92.38-1.07-3.63-.56-7.97-.24-12.01.14-1.8,4.8-1.74,5.01-.19.53,3.86.25,7.15.15,11.82Z"/>
    <path class="cls-5" d="M235.69,45.03c-.8-.07-1.01.9-1.01,1.94v9.04s-1.98,0-1.98,0v-9.04c.01-1.04-.2-2-1-1.94.75-1.19,3.99-1.72,3.99,0Z"/>
    <path class="cls-9" d="M232.7,56.01c-2.41-3.19-.32-7.41-1-10.98.8-.07,1.01.9,1.01,1.94v9.04Z"/>
    <path class="cls-9" d="M234.69,56.01v-9.04c-.01-1.04.2-2.01,1-1.94v9.99c0,.87-.63.98-1,.98Z"/>
    <path class="cls-5" d="M212.94,68.44l-6.43-5.09c4.4-1.29,7.94-.19,11.99-.54,1.8-2.11,1.45-4.73,2.94-6.89.38,4.29.86,8.79-.09,12.59-1.92,1.06-6.4,1.53-8.41-.06Z"/>
    <path class="cls-5" d="M260.67,63.52l-5.94,4.75c-1.86,1.49-6.57,1.43-8.55.33-1.13-3.84-.45-8.27-.28-12.7l2.98,6.67c3.73.68,6.89-.67,11.8.95Z"/>
    <path class="cls-9" d="M222.74,428.39l-130.6-.16c-.8,2.69.99,11.48-1.14,11.01l.12-12.25,131.61,1.4Z"/>
    <path class="cls-9" d="M220.73,433.24l-121.76-.6,121.76.6Z"/>
    <path class="cls-9" d="M360.4,432.75l-122.7.02,122.7-.02Z"/>
    <path class="cls-3" d="M340.25,168.32c-.8,1.57-3.22,1.88-4.73,2.24l-6.92-12.3c.77-1.09,3.07-2.62,5.08-2.5,2.45,3.6,4.34,8.26,6.56,12.56Z"/>
  </g>
</svg>