<?xml version="1.0" encoding="UTF-8"?>
<svg id="Layer_2" data-name="Layer 2" xmlns="http://www.w3.org/2000/svg" viewBox="0 0 632.81 470.5">
  <defs>
    <style>
      .cls-1 {
        fill: #f2f2f4;
      }

      .cls-2 {
        fill: #d1242b;
      }

      .cls-3 {
        fill: #fdfbfb;
      }

      .cls-4 {
        fill: #113e5d;
      }
    </style>
  </defs>
  <g id="Layer_1-2" data-name="Layer 1">
    <path class="cls-4" d="M235.51,413.27l-36.75,41.66c-4.54,5.82-10.68,9.21-17.46,11.99-8.34,2.63-16.81,4.13-25.85,3.37l-138-11.61c-3.71-.31-6.76-2.15-8.31-5.45l-7.61-16.17c-2.21-4.69-2.13-10.88.81-15.31,10.04-15.13,29.62-41.53,42.91-53.38,5.98-5.33,15.2-7.72,23.25-5.01l97.23,32.75c7.24,2.44,14.29,1.11,17.39-6.57l-67.1-20.65-12.27,3.79-63.64-19.62v-144.83c25.61-10.24,51.18-19.08,78.1-26.67l.07-32.22c9.71-5.82,19.11-10.97,29.6-16.46l-11.45-12.93-3.14,2.12-19.66-22.42,45.91-36.91,20.17,22.66-3.03,2.79,22.2,22.9,28.87-8.83-25.2-19.42,85.61-1.81L316.4,0l28.23,81.05,85.6,1.8-25.2,19.42,28.77,8.89,22.29-22.94-2.98-2.87,20.12-22.61,45.91,36.9-19.56,22.34-3.25-2-11.44,12.9,29.64,16.47v32.16c26.5,7.56,52.41,16.4,78.14,26.73v144.84s-63.68,19.61-63.68,19.61l-12.3-3.77-66,20.35c-.31.09-.76.36-.91.43-.21.11.23.75.28.7,3.61,7.26,10.07,8.01,16.91,5.71l97.33-32.75c7.79-2.62,16.84-.44,22.73,4.61,13.14,11.26,33.31,38.7,43.25,53.49,2.99,4.45,3.32,10.51,1.09,15.3l-7.41,15.9c-1.56,3.35-4.34,5.67-8.27,6l-138.39,11.65c-8.79.74-17.02-.7-25.16-3.14-7.15-2.79-13.63-6.36-18.33-12.47l-36.51-41.42-80.84,24.94-80.94-24.94ZM316.42,430.58l83.62-25.79,4.81,5.99,34.48,39.21c4.19,4.77,9.06,8.2,15.27,10.23,7.35,2.41,15.01,3.43,22.94,2.76l136.78-11.53c1.25-.11,2.44-.64,2.87-1.55l7.37-15.61c1.14-2.42,1.35-6.26-.25-8.64-9.85-14.69-29.24-41.12-42.26-52.32-4.09-3.52-10.64-4.72-16.02-2.91l-95.56,32.14c-3.26,1.1-5.96,2.13-9.38,2.16-6.17.05-11.93-2.61-15.44-7.71l-6.96-10.11,69.61-20.93.28-6.54,20.92,7.63,55.86-16.7v-138.51c-25.8-9.87-51.56-18.34-78.13-25.43l-.05-32.96c-16.55-9.71-33.16-18.23-50.67-25.67-21.94-9.38-44.23-16.45-67.69-21.64l22.13-17.1-71.13-1.49-23.43-67.3-23.46,67.33-71.12,1.49,22.16,17.08c-21.46,4.74-41.39,10.88-61.27,18.96-19.8,8-38.58,17.46-57.1,28.34l-.04,32.96c-26.62,7.12-52.45,15.59-78.12,25.44v138.5s55.84,16.7,55.84,16.7l21.32-7.77-.14,6.67,69.62,20.92-7.17,10.41c-2.95,4.28-7.7,6.68-12.75,7.31-4.32.54-7.8-.68-11.88-2.05l-95.56-32.15c-5.39-1.81-11.92-.57-16.02,2.94-12.93,11.08-32.25,37.55-42.1,52.08-1.67,2.47-1.59,6.27-.36,8.88l7.33,15.56c.34.73,1.41,1.46,2.44,1.54l138.8,11.67c7.78.65,15.3-.83,22.3-3.23,5.74-1.97,10.21-5.2,14.09-9.61l34.7-39.45,4.87-6,83.63,25.78ZM142.32,100.84l8.13-7.23,24.21,26.9,17.61-7.02-24.91-25.68,3.19-3.06-11.72-13.19-35.93,28.85,11.34,13.04,3.14-1.97,16.57,18.46,10.14-4.81-21.79-24.29ZM490.42,100.92l-21.75,24.21,10.2,4.79,16.48-18.41,3.18,1.94,11.39-12.99-35.93-28.89-11.76,13.17,3.18,3.07-24.88,25.68,17.61,7,24.25-26.91,8.03,7.35Z"/>
    <path class="cls-3" d="M316.42,430.58l-83.63-25.78-4.87,6-34.7,39.45c-3.88,4.41-8.35,7.64-14.09,9.61-7,2.4-14.52,3.89-22.3,3.23l-138.8-11.67c-1.03-.09-2.1-.82-2.44-1.54l-7.33-15.56c-1.23-2.61-1.31-6.41.36-8.88,9.85-14.54,29.17-41,42.1-52.08,4.09-3.51,10.62-4.75,16.02-2.94l95.56,32.15c4.08,1.37,7.56,2.59,11.88,2.05,5.05-.63,9.8-3.03,12.75-7.31l7.17-10.41-69.62-20.92.14-6.67-21.32,7.77-55.85-16.7v-138.5c25.68-9.85,51.51-18.32,78.13-25.44l.04-32.96c18.52-10.87,37.29-20.33,57.1-28.34,19.88-8.08,39.81-14.22,61.27-18.96l-22.16-17.08,71.12-1.49,23.46-67.33,23.43,67.3,71.13,1.49-22.13,17.1c23.47,5.19,45.75,12.25,67.69,21.64,17.51,7.44,34.12,15.96,50.67,25.67l.05,32.96c26.58,7.09,52.34,15.55,78.12,25.43v138.51s-55.85,16.7-55.85,16.7l-20.92-7.63-.28,6.54-69.61,20.93,6.96,10.11c3.51,5.1,9.28,7.77,15.44,7.71,3.41-.03,6.11-1.06,9.38-2.16l95.56-32.14c5.38-1.81,11.93-.61,16.02,2.91,13.02,11.21,32.41,37.64,42.26,52.32,1.59,2.37,1.39,6.22.25,8.64l-7.37,15.61c-.43.91-1.62,1.44-2.87,1.55l-136.78,11.53c-7.94.67-15.59-.35-22.94-2.76-6.21-2.04-11.08-5.46-15.27-10.23l-34.48-39.21-4.81-5.99-83.62,25.79ZM316.46,141.39l31.84,22.08-11.06-37.21,30.98-23.6-38.94-.89-12.89-36.87-12.87,36.86-38.92.95,30.96,23.57-11.09,37.22,31.98-22.09ZM154.86,179.21l.17-9.07c34.59-19.36,69.77-33.13,109.09-40.43l-12.5-9.53c-38.92,8.46-74.16,23.22-108.5,43.18l-.04,18.59,11.77-2.74ZM478,179.25l11.67,2.68.03-18.53c-33.83-19.78-69.77-34.84-108.55-43.22l-12.49,9.53c39.3,7.3,74.48,21.03,109.08,40.42l.27,9.13ZM306.39,231.38l-.07-13.56-20.65.5v-26.38s26.02-.61,26.02-.61l-.03-13.54-41.12,1.34v94.87s41.13-1.32,41.13-1.32l.02-13.59-26.02.55-.02-27.64,20.73-.63ZM360.92,260.3l-24.74-.98v-81.25s-15.13-.12-15.13-.12v94.7s39.93,1.22,39.93,1.22l-.06-13.57ZM403.31,236.07l-.04-13.54-20.61-2.03v-26.35s25.96,2.56,25.96,2.56l-.02-13.54-41.06-3.69v94.85s41.09,3.69,41.09,3.69v-13.57s-25.98-2.64-25.98-2.64l.05-27.7,20.62,1.96ZM260.35,262.52c1.91-6,2.2-12.35.67-18.51-3.88-15.54-19.25-20.61-26.04-30.97-2.73-4.16-3.08-9.57-1.6-14.2,1.01-3.17,3.98-4.63,7.11-4.88,3.3-.26,6.26,1.63,6.72,5.12.32,2.41.35,4.84.43,7.48l14.17-1.11c.69-11.25-2.71-23.42-15.39-24.89-11.4-1.33-23.1,2.98-27.09,14.69-2.03,5.96-2.42,12.35-1.08,18.55,4.55,21.1,32.93,23.59,28.13,44.21-.87,3.72-3.9,5.56-7.5,5.93s-6.97-1.65-7.34-5.67c-.28-3.04-.25-5.92-.29-9.54l-14.14,1.63c-.11,5.06-.19,9.76.99,14.5,1.7,6.78,6.72,11.61,13.67,12.55,11.65,1.58,24.63-2.51,28.58-14.89ZM446.93,264.22c-.06,4.01-3.3,5.89-6.65,5.63-4.83-.39-8.59-3.79-8.6-9.07l-.03-53.99c0-2.3.96-4.9,2.75-6.04,2.7-1.71,6.16-.99,8.81.63,2.11,1.28,3.75,4.22,3.79,7.21l.17,12.11,14.04,2.45c.03-5.39.24-9.91-.37-14.74-.91-7.26-4.34-13.9-10.49-17.9-9.04-5.88-26.45-8.07-31.71,4.94-1.25,3.1-2.03,6.44-2.03,9.95v52.22c0,10.01,4.76,19.38,14.18,23.4s24.35,5.11,28.73-7.06c1.05-2.93,1.68-6.21,1.69-9.39l.02-13.88-14.08-2.47-.25,16.01ZM166.69,274.48c-1.81.23-3.8-.08-4.93-1.16-.85-.81-2.03-2.74-2.03-4.35v-55.29c0-3.17,1.74-6.16,3.84-7.55,2.57-1.7,5.91-2.47,8.68-.97,1.79.97,2.74,3.61,2.76,5.62l.14,11.8,14.05-2.42-.04-11.14c-.03-8.48-4.33-17.56-13.87-18.34-7.5-.61-15.15,1.26-21.06,6.1-5.77,4.72-9.23,11.94-9.25,19.66l-.16,53.57c-.01,3.47.62,6.74,1.82,9.85,5.06,13.08,23.17,9.55,31.95,3.63,12.25-8.26,10.67-22.44,10.59-35.78l-14.02,2.37-.18,15.35c-.06,4.86-3.44,8.44-8.29,9.05ZM496.31,293.47l.02-81.25,15.43,3.69-.04-13.56-45.73-10.22-.03,13.49,15.53,3.26v81.25s14.81,3.33,14.81,3.33ZM77.44,249.67l12.81,73.61,16.39-4.59,11.96-81.78.11,78.58,16.54-4.1v-112.36s-24.32,6.07-24.32,6.07l-11.89,82-12.78-75.07-24.04,7.43.03,112.36,15.01-4.62.15-77.53ZM554.02,331.88c7.29.06,12.81-4.39,14.84-11.07,4.63-15.2-.32-30.93-9.38-43.64-6.94-9.73-14.64-17.97-20.49-27.61-5.3-8.74-6.83-25.33,2.88-24.07,5.93.77,10.03,4.85,11.02,10.72l.26,9.05,17.17,5.38c1.05-17.16-5.2-32.78-21.07-39.73-5.01-2.2-10.12-3.61-15.62-3.65-7.44-.06-13.33,4.45-15.49,11.64-4.56,15.17.23,31.65,9.86,43.89l10.95,13.91c7.49,9.52,15.49,19.34,12.85,32.1-.74,3.56-3.61,5.09-6.89,4.63-6.55-.92-11.33-5.8-11.45-12.59l-.19-10.67-17.27-4.69c-.12,5.71-.29,11.02.74,16.56,1.73,9.31,6.59,17.51,14.54,22.71,6.71,4.38,14.4,7.07,22.75,7.14ZM494.41,363.54l.04-54.6c-116.7-31.94-239.84-31.83-356.15,0l.09,54.6c116.83-31.85,239.12-31.87,356.02,0ZM250.04,353.91l-70,11.08c45.49,16.95,90.4,32.08,136.33,47.3,45.64-15.09,91.01-30.44,136.26-47.32l-70.95-10.94,47.38,12.38-112.71,35.32-59.22-18.99-52.48-16.04c-.4-.29-.41-.41-.02-.68l45.42-11.55c1.38-.35,2.89-.3,4.05-1.35l-4.09.78ZM337.91,370.92c2.91-.54,10.55-2.66,10.23-5.64-.35-3.16-8.52-5.08-11.52-5.59-13.57-2.32-27.34-2.3-40.89.08-2.74.48-11.53,2.64-11.08,5.86.43,3.05,8.29,4.99,11.15,5.48,13.89,2.39,28,2.44,42.11-.19ZM347.75,379.16c.92-1.93.29-4.82.3-7.02-2.64,1.91-5.53,3.27-9.03,3.97-14.94,2.97-30.36,2.99-45.28-.01-3.43-.69-6.29-1.99-9-3.99,0,2.02-.61,5.04.31,7.17.79,1.82,3.7,2.8,5.57,3.36,13.54,4.06,36.48,4.09,50.1.41,2.39-.65,5.87-1.46,7.03-3.9ZM50.83,428.83l-28.8-2.33c-2.65-.21-4.59,3.07-3.69,5.51,1.27,3.45,2.77,6.46,4.51,9.92l32.23,2.66,11.86.95,7.39.62,8.82.74,5.02.45,12.3,1.05,5.09.42,10.17.84,4.09.3,18.74,1.68,16.09,1.44c11.34,1.01,24.3-1.06,32.07-10.06l14.47-16.74,22.2-25.51-10.75-3.29-25.9,29.84c-3.39,3.91-7.08,6.66-12.15,8.28-6.29,2.02-12.86,2.62-19.54,2.07l-20.62-1.67,12.68-23.82-66.74-21.3-29.57,37.94ZM498.32,436.01l-20.65,1.66c-9.77.79-23.37-.91-30.14-8.68l-27.51-31.57-10.65,3.34,11.69,13.52,24.04,27.71c3.97,4.57,8.44,7.82,14.37,9.46s11.96,2.22,18.14,1.67l16.57-1.47c6.24-.55,12.51-.89,18.69-1.78,1.17-.17,2.89-.11,4.13-.21l10.18-.84,5.06-.41,12.34-1.05,5.04-.44,8.79-.75,7.39-.59,11.88-.99,32.14-2.62c1.65-3.1,2.95-5.89,4.45-9.23.96-2.14-.15-6.41-3.12-6.18l-29.24,2.24-29.52-37.91-66.74,21.3,12.67,23.81Z"/>
    <polygon class="cls-3" points="490.42 100.92 482.39 93.58 458.14 120.49 440.53 113.49 465.41 87.8 462.23 84.73 473.99 71.56 509.92 100.46 498.53 113.45 495.35 111.5 478.87 129.91 468.67 125.13 490.42 100.92"/>
    <polygon class="cls-3" points="142.32 100.84 164.11 125.13 153.97 129.94 137.4 111.48 134.26 113.45 122.91 100.41 158.84 71.56 170.55 84.75 167.37 87.8 192.28 113.49 174.67 120.51 150.46 93.61 142.32 100.84"/>
    <path class="cls-4" d="M494.41,363.54c-116.91-31.87-239.19-31.85-356.02,0l-.09-54.6c116.32-31.84,239.46-31.95,356.15,0l-.04,54.6ZM307.42,314.81v-4.46s-11.89.17-11.89.17v-5.54s13.46-.32,13.46-.32v-4.66s-19.29.49-19.29.49l-.02,25.44,19.8-.51-.1-4.63-13.85.25-.05-5.88,11.92-.33ZM339.86,300.55l-5.63-.26-6.89,11.02-6.86-11.27-6.12.1,9.77,16.25.07,9.08,5.79.06.06-8.99,9.8-15.98ZM264.82,320.71l3.37-3.54,8.18,9.33c2.15,0,4.52-.16,6.74-.41l-11.08-13.35,10.32-11.69c-2.22-.12-4.26-.02-6.36.24l-11.2,12.43-.21-11.71-5.77.51.03,25.36,5.73-.53.24-6.65ZM379.4,320.87c-3.85,3.64-9.04,2.93-12.27-.26-3.04-3-3.55-8.62-.25-11.74,3.68-3.48,9.28-2.29,12.48,1.48l3.71-3.06c-3.22-4.02-7.55-5.48-12.32-5.43-7.69.08-13.03,6.5-11.91,14.15.94,6.42,6.07,11.05,12.5,12.04,4.32.67,8.66-.04,11.72-3.39l-3.67-3.79ZM247.17,321.64c-3.28,3.87-8.78,4.93-12.31,1.66-3.49-3.23-2.57-9.04.62-12.04,3.27-3.08,8.29-3.68,11.88-.31l3.74-3.76c-2.72-2.92-6.31-3.75-10.11-3.41-7.55.67-13.64,6.35-14.2,13.92-.41,5.61,2.63,10.61,8.09,12,5.89,1.51,12.15-.27,16.15-5.07-1.11-1.2-2.31-2.18-3.86-2.99ZM409.49,327.12l-12.78-1.72-.02-20.61-5.78-.6v25.32s18.51,2.29,18.51,2.29l.08-4.68ZM433.31,310.31l-.06,15.29c0,1.28-.92,3.37-2,3.96-2.22,1.21-4.73.64-6.68-.64-1.52-1-2.67-3.38-2.68-5.53l-.09-15.16-5.77-.76.02,14.87c.01,8.5,7.04,13.3,15.3,12.92,4.08-.19,7.48-3.44,7.51-7.63l.12-16.44-5.67-.88ZM201,334.88c9.06,1.47,17.82-4.61,19.07-13.44.52-3.67-.38-7.04-2.73-9.62-2.03-2.23-5.19-3.51-8.56-3.44-8.46.17-15.72,6.42-16.35,14.86-.42,5.64,2.67,10.7,8.57,11.65ZM166.92,342.12l.03-10.43,11.52-2.48.06,10.39,5.75-1.17v-25.28s-5.73,1.03-5.73,1.03l-.12,10.13-11.46,2.42-.09-9.95-5.71,1.38.04,25.33,5.71-1.36ZM467.39,329.31c2.78-1.74,3.5-4.16,2.66-6.9-2.31-7.55-14.78-7.49-21.56-9.32v25.39s15.84,3.23,15.84,3.23c2.09.43,5.23-.18,6.34-1.95,2.4-3.83.12-8.05-3.28-10.45Z"/>
    <polygon class="cls-2" points="77.44 249.67 77.28 327.2 62.27 331.82 62.24 219.47 86.28 212.03 99.06 287.1 110.94 205.1 135.25 199.03 135.26 311.39 118.72 315.49 118.6 236.92 106.64 318.69 90.24 323.28 77.44 249.67"/>
    <path class="cls-2" d="M554.02,331.88c-8.34-.07-16.04-2.75-22.75-7.14-7.96-5.2-12.82-13.4-14.54-22.71-1.03-5.54-.86-10.85-.74-16.56l17.27,4.69.19,10.67c.12,6.79,4.9,11.67,11.45,12.59,3.28.46,6.15-1.07,6.89-4.63,2.64-12.76-5.36-22.58-12.85-32.1l-10.95-13.91c-9.63-12.23-14.42-28.71-9.86-43.89,2.16-7.18,8.05-11.69,15.49-11.64,5.51.04,10.61,1.45,15.62,3.65,15.86,6.95,22.12,22.57,21.07,39.73l-17.17-5.38-.26-9.05c-.99-5.87-5.08-9.95-11.02-10.72-9.71-1.26-8.19,15.33-2.88,24.07,5.85,9.64,13.55,17.87,20.49,27.61,9.06,12.71,14.01,28.43,9.38,43.64-2.03,6.67-7.55,11.13-14.84,11.07Z"/>
    <path class="cls-2" d="M134.46,436.01l4.12,15.63-18.74-1.68-3.32-15.66,6.41-11.94c-3.63,4-7.62,7.54-10.56,11.82.38,5.22,2.58,10.25,3.38,15.48l-10.17-.84-5.19-15.85,3.39-9.46c-3.11,3.15-5.49,6.07-7.73,9.31l4.44,15.58-12.3-1.05-3.74-15.77,8.27-14.28c-4.55,4.64-8.92,9.16-12.79,14.09l3.25,15.51-8.82-.74-3.63-15.6c3.75-7.18,8.96-14.85,12-21.89-5.32,5.39-14.36,15.63-18.79,21.08-.16.2-.33.87-.27,1.14l3.3,14.65-11.86-.95-4.26-15.76,29.57-37.94,66.74,21.3-12.68,23.82ZM83.94,407.67c0-.22-.18-.39-.39-.39s-.39.18-.39.39.18.39.39.39.39-.18.39-.39ZM104.19,423.03c0-.13-.1-.23-.23-.23s-.23.1-.23.23.1.23.23.23.23-.1.23-.23Z"/>
    <path class="cls-2" d="M581.92,428.8l-4.22,15.79-11.88.99,3.28-14.37c.08-.37-.01-1.2-.23-1.47-4.67-5.75-14.25-16.45-19.68-22.2l12.88,23.03-3.63,15.6-8.79.75,2.93-12.91c.18-.79.29-2,.22-2.63-.03-.27-.33-.89-.51-1.08l-12.52-13.4,8.62,14.73-3.78,15.74-12.34,1.05,4.47-15.59c-2.2-3.26-4.62-6.18-7.7-9.3l3.41,9.46-5.23,15.84-10.18.84,3.65-15.47c-2.9-3.65-6.08-7-9.9-10.61l5.43,10.75-3.32,15.54c-6.18.89-12.45,1.22-18.69,1.78l4.13-15.64-12.67-23.81,66.74-21.3,29.52,37.91ZM510.67,423.03c0-.13-.1-.23-.23-.23s-.23.1-.23.23.1.23.23.23.23-.1.23-.23ZM529.02,423.03c0-.13-.1-.23-.23-.23s-.23.1-.23.23.1.23.23.23.23-.1.23-.23Z"/>
    <path class="cls-4" d="M250.04,353.91l.04.57-45.42,11.55c-.39.27-.38.39.02.68l52.48,16.04,59.22,18.99,112.71-35.32-47.38-12.38,70.95,10.94c-45.26,16.87-90.63,32.22-136.26,47.32-45.93-15.23-90.84-30.36-136.33-47.3l70-11.08Z"/>
    <path class="cls-2" d="M446.93,264.22l.25-16.01,14.08,2.47-.02,13.88c0,3.18-.63,6.47-1.69,9.39-4.38,12.17-19.09,11.17-28.73,7.06s-14.18-13.39-14.18-23.4v-52.22c0-3.52.77-6.85,2.03-9.95,5.26-13.01,22.66-10.82,31.71-4.94,6.14,4,9.58,10.64,10.49,17.9.61,4.83.39,9.36.37,14.74l-14.04-2.45-.17-12.11c-.04-2.99-1.69-5.93-3.79-7.21-2.66-1.62-6.11-2.34-8.81-.63-1.79,1.13-2.75,3.74-2.75,6.04l.03,53.99c0,5.29,3.76,8.69,8.6,9.07,3.35.27,6.59-1.61,6.65-5.63Z"/>
    <path class="cls-2" d="M260.35,262.52c-3.95,12.38-16.94,16.47-28.58,14.89-6.95-.94-11.97-5.77-13.67-12.55-1.19-4.74-1.11-9.44-.99-14.5l14.14-1.63c.04,3.62,0,6.5.29,9.54.37,4.02,3.62,6.05,7.34,5.67s6.64-2.21,7.5-5.93c4.8-20.62-23.58-23.11-28.13-44.21-1.34-6.2-.95-12.59,1.08-18.55,3.99-11.71,15.69-16.02,27.09-14.69,12.68,1.48,16.07,13.64,15.39,24.89l-14.17,1.11c-.08-2.64-.11-5.07-.43-7.48-.46-3.49-3.42-5.38-6.72-5.12s-6.1,1.7-7.11,4.88c-1.48,4.64-1.13,10.05,1.6,14.2,6.79,10.36,22.16,15.42,26.04,30.97,1.54,6.16,1.25,12.51-.67,18.51Z"/>
    <path class="cls-2" d="M166.69,274.48c4.85-.61,8.23-4.2,8.29-9.05l.18-15.35,14.02-2.37c.08,13.34,1.65,27.52-10.59,35.78-8.77,5.92-26.89,9.45-31.95-3.63-1.2-3.1-1.83-6.38-1.82-9.85l.16-53.57c.02-7.72,3.49-14.93,9.25-19.66,5.91-4.84,13.56-6.71,21.06-6.1,9.54.78,13.84,9.86,13.87,18.34l.04,11.14-14.05,2.42-.14-11.8c-.02-2.01-.97-4.65-2.76-5.62-2.76-1.5-6.1-.72-8.68.97-2.1,1.38-3.84,4.37-3.84,7.55v55.29c0,1.61,1.18,3.54,2.03,4.35,1.13,1.08,3.12,1.39,4.93,1.16Z"/>
    <polygon class="cls-2" points="403.31 236.07 382.69 234.12 382.64 261.82 408.6 264.46 408.62 278.02 367.54 274.34 367.53 179.48 408.59 183.18 408.61 196.71 382.65 194.15 382.66 220.5 403.26 222.53 403.31 236.07"/>
    <polygon class="cls-2" points="306.39 231.38 285.67 232.01 285.69 259.65 311.71 259.1 311.69 272.69 270.56 274 270.55 179.13 311.67 177.79 311.7 191.33 285.68 191.94 285.68 218.33 306.33 217.82 306.39 231.38"/>
    <path class="cls-2" d="M316.46,141.39l-31.98,22.09,11.09-37.22-30.96-23.57,38.92-.95,12.87-36.86,12.89,36.87,38.94.89-30.98,23.6,11.06,37.21-31.84-22.08ZM316.39,134.48l21.87,15.13-7.59-25.53,21.05-16.03-26.51-.67-8.83-25.06-8.81,25.07-26.59.64,21.16,16.11-7.64,25.5,21.89-15.14Z"/>
    <polygon class="cls-2" points="496.31 293.47 481.5 290.14 481.5 208.89 465.97 205.63 466 192.14 511.73 202.36 511.77 215.91 496.33 212.22 496.31 293.47"/>
    <polygon class="cls-2" points="360.92 260.3 360.98 273.87 321.05 272.65 321.05 177.95 336.17 178.07 336.18 259.32 360.92 260.3"/>
    <path class="cls-4" d="M154.86,179.21l-11.77,2.74.04-18.59c34.34-19.96,69.58-34.72,108.5-43.18l12.5,9.53c-39.32,7.3-74.5,21.07-109.09,40.43l-.17,9.07Z"/>
    <path class="cls-4" d="M478,179.25l-.27-9.13c-34.6-19.39-69.78-33.12-109.08-40.42l12.49-9.53c38.79,8.38,74.73,23.44,108.55,43.22l-.03,18.53-11.67-2.68Z"/>
    <path class="cls-4" d="M138.58,451.64l-4.12-15.63,20.62,1.67c6.69.54,13.26-.06,19.54-2.07,5.06-1.62,8.76-4.37,12.15-8.28l25.9-29.84,10.75,3.29-22.2,25.51-14.47,16.74c-7.78,8.99-20.73,11.07-32.07,10.06l-16.09-1.44Z"/>
    <path class="cls-4" d="M498.32,436.01l-4.13,15.64-16.57,1.47c-6.19.55-12.27-.05-18.14-1.67s-10.4-4.88-14.37-9.46l-24.04-27.71-11.69-13.52,10.65-3.34,27.51,31.57c6.77,7.77,20.37,9.47,30.14,8.68l20.65-1.66Z"/>
    <path class="cls-4" d="M577.69,444.59l4.22-15.79,29.24-2.24c2.98-.23,4.08,4.04,3.12,6.18-1.5,3.34-2.79,6.12-4.45,9.23l-32.14,2.62Z"/>
    <path class="cls-4" d="M50.83,428.83l4.26,15.76-32.23-2.66c-1.74-3.46-3.24-6.47-4.51-9.92-.9-2.44,1.04-5.73,3.69-5.51l28.8,2.33Z"/>
    <path class="cls-2" d="M347.75,379.16c-1.16,2.44-4.64,3.25-7.03,3.9-13.62,3.67-36.55,3.64-50.1-.41-1.87-.56-4.78-1.54-5.57-3.36-.92-2.13-.32-5.15-.31-7.17,2.7,2,5.57,3.3,9,3.99,14.92,3,30.34,2.99,45.28.01,3.51-.7,6.39-2.06,9.03-3.97-.02,2.2.61,5.08-.3,7.02Z"/>
    <path class="cls-2" d="M337.91,370.92c-14.11,2.63-28.22,2.58-42.11.19-2.87-.49-10.72-2.43-11.15-5.48-.45-3.22,8.34-5.38,11.08-5.86,13.55-2.38,27.32-2.39,40.89-.08,2.99.51,11.17,2.42,11.52,5.59.33,2.98-7.32,5.1-10.23,5.64ZM335.9,366.98c.43-.22,1.07-1.24,1-1.7-.29-1.9-5.17-3.16-7.02-3.48-8.89-1.57-17.72-1.55-26.62-.07-1.88.31-7.06,1.59-7.35,3.53-.71,4.89,28.69,7.4,39.99,1.72Z"/>
    <path class="cls-4" d="M565.81,445.58l-7.39.59,3.63-15.6,6.8-.83c.22.27.32,1.11.23,1.47l-3.28,14.37Z"/>
    <path class="cls-4" d="M70.71,430.57l3.63,15.6-7.39-.62-3.3-14.65c-.06-.27.11-.94.27-1.14l6.8.81Z"/>
    <path class="cls-4" d="M552.79,431.38c.07.64-.04,1.85-.22,2.63l-2.93,12.91-5.04.44,3.78-15.74,4.41-.24Z"/>
    <polygon class="cls-4" points="84.43 431.58 88.18 447.35 83.16 446.91 79.91 431.4 84.43 431.58"/>
    <polygon class="cls-4" points="100.38 432.97 105.57 448.82 100.48 448.4 96.04 432.82 100.38 432.97"/>
    <polygon class="cls-4" points="536.73 432.82 532.26 448.41 527.2 448.82 532.44 432.97 536.73 432.82"/>
    <path class="cls-4" d="M116.52,434.29l3.32,15.66-4.09-.3c-.79-5.24-3-10.26-3.38-15.48l4.15.12Z"/>
    <path class="cls-4" d="M520.67,434.19l-3.65,15.47c-1.24.1-2.96.04-4.13.21l3.32-15.54,4.46-.14Z"/>
    <path class="cls-1" d="M250.08,354.48l-.04-.57,4.09-.78c-1.16,1.05-2.67.99-4.05,1.35Z"/>
    <path class="cls-1" d="M467.39,329.31c3.41,2.4,5.69,6.63,3.28,10.45-1.11,1.76-4.25,2.37-6.34,1.95l-15.84-3.23v-25.39c6.78,1.83,19.24,1.77,21.55,9.32.84,2.74.12,5.16-2.66,6.9ZM464.31,322.6c-.39-1.17-2.13-2.29-3.19-2.52l-6.84-1.47v6.11s7.8,1.5,7.8,1.5c.6.12,1.92-.59,2.2-1.12.24-.44.31-1.67.03-2.5ZM465.35,336.12c3.32-5.6-8.46-6.57-11.07-7.13v6.25s7.88,1.73,7.88,1.73c.81.18,2.74-.1,3.19-.85Z"/>
    <path class="cls-1" d="M201,334.88c-5.89-.96-8.99-6.01-8.57-11.65.63-8.44,7.9-14.69,16.35-14.86,3.37-.07,6.52,1.21,8.56,3.44,2.35,2.58,3.25,5.96,2.73,9.62-1.25,8.83-10.01,14.91-19.07,13.44ZM203.61,329.94c3.65.51,6.76-1.15,8.63-3.52,2.02-2.56,2.61-5.91,1.52-8.96-.9-2.52-3.2-3.99-5.88-4.02-3.22-.03-6.04,1.53-7.69,3.83-1.82,2.53-2.47,5.68-1.42,8.72.7,2.02,2.5,3.62,4.84,3.94Z"/>
    <polygon class="cls-1" points="166.92 342.12 161.21 343.48 161.17 318.15 166.87 316.77 166.97 326.73 178.43 324.3 178.55 314.17 184.27 313.14 184.28 338.42 178.53 339.6 178.47 329.21 166.95 331.68 166.92 342.12"/>
    <path class="cls-1" d="M264.82,320.71l-.24,6.65-5.73.53-.03-25.36,5.77-.51.21,11.71,11.2-12.43c2.1-.26,4.14-.36,6.36-.24l-10.32,11.69,11.08,13.35c-2.23.25-4.59.41-6.74.41l-8.18-9.33-3.37,3.54Z"/>
    <polygon class="cls-1" points="307.42 314.81 295.49 315.14 295.54 321.02 309.39 320.77 309.49 325.4 289.69 325.92 289.7 300.48 308.99 299.99 308.99 304.65 295.53 304.98 295.53 310.51 307.41 310.35 307.42 314.81"/>
    <path class="cls-1" d="M433.31,310.31l5.67.88-.12,16.44c-.03,4.19-3.43,7.45-7.51,7.63-8.26.38-15.29-4.42-15.3-12.92l-.02-14.87,5.77.76.09,15.16c.01,2.15,1.16,4.53,2.68,5.53,1.94,1.28,4.46,1.85,6.68.64,1.08-.59,2-2.68,2-3.96l.06-15.29Z"/>
    <path class="cls-1" d="M379.4,320.87l3.67,3.79c-3.07,3.34-7.41,4.05-11.72,3.39-6.43-.99-11.56-5.63-12.5-12.04-1.12-7.65,4.22-14.07,11.91-14.15,4.77-.05,9.1,1.41,12.32,5.43l-3.71,3.06c-3.2-3.77-8.8-4.97-12.48-1.48-3.3,3.13-2.79,8.74.25,11.74,3.23,3.19,8.42,3.9,12.27.26Z"/>
    <path class="cls-1" d="M247.17,321.64c1.55.82,2.75,1.79,3.86,2.99-4,4.8-10.26,6.57-16.15,5.07-5.46-1.4-8.5-6.39-8.09-12,.55-7.57,6.65-13.26,14.2-13.92,3.8-.34,7.39.5,10.11,3.41l-3.74,3.76c-3.59-3.37-8.61-2.77-11.88.31-3.19,3-4.11,8.81-.62,12.04,3.53,3.27,9.04,2.21,12.31-1.66Z"/>
    <polygon class="cls-1" points="339.86 300.55 330.06 316.53 329.99 325.52 324.2 325.47 324.13 316.38 314.35 300.13 320.47 300.03 327.33 311.31 334.22 300.29 339.86 300.55"/>
    <polygon class="cls-1" points="409.49 327.12 409.41 331.8 390.9 329.51 390.9 304.19 396.68 304.79 396.7 325.4 409.49 327.12"/>
    <path class="cls-1" d="M70.71,430.57l-6.8-.81c4.44-5.46,13.47-15.69,18.79-21.08-3.04,7.05-8.25,14.72-12,21.89Z"/>
    <path class="cls-1" d="M84.43,431.58l-4.53-.19c3.88-4.93,8.24-9.46,12.79-14.09l-8.27,14.28Z"/>
    <path class="cls-1" d="M116.52,434.29l-4.15-.12c2.93-4.28,6.93-7.82,10.56-11.82l-6.41,11.94Z"/>
    <path class="cls-1" d="M100.38,432.97l-4.34-.15c2.24-3.24,4.62-6.15,7.73-9.31l-3.39,9.46Z"/>
    <circle class="cls-1" cx="103.96" cy="423.03" r=".23"/>
    <circle class="cls-1" cx="83.54" cy="407.67" r=".39"/>
    <path class="cls-1" d="M568.86,429.74l-6.8.83-12.88-23.03c5.43,5.75,15.01,16.45,19.68,22.2Z"/>
    <path class="cls-1" d="M552.79,431.38l-4.41.24-8.62-14.73,12.52,13.4c.19.2.48.82.51,1.08Z"/>
    <path class="cls-1" d="M520.67,434.19l-4.46.14-5.43-10.75c3.82,3.62,6.99,6.96,9.9,10.61Z"/>
    <path class="cls-1" d="M536.73,432.82l-4.29.15-3.41-9.46c3.08,3.12,5.5,6.05,7.7,9.3Z"/>
    <circle class="cls-1" cx="510.44" cy="423.03" r=".23"/>
    <circle class="cls-1" cx="528.8" cy="423.03" r=".23"/>
    <polygon class="cls-4" points="316.39 134.48 294.5 149.62 302.14 124.12 280.98 108.01 307.57 107.37 316.38 82.3 325.21 107.36 351.72 108.04 330.67 124.07 338.26 149.6 316.39 134.48"/>
    <path class="cls-3" d="M335.9,366.98c-11.3,5.68-40.7,3.16-39.99-1.72.28-1.94,5.47-3.22,7.35-3.53,8.9-1.48,17.73-1.49,26.62.07,1.85.33,6.73,1.58,7.02,3.48.07.45-.57,1.48-1,1.7Z"/>
    <path class="cls-4" d="M465.35,336.12c-.45.75-2.38,1.03-3.19.85l-7.89-1.73v-6.25c2.62.56,14.4,1.53,11.08,7.13Z"/>
    <path class="cls-4" d="M464.31,322.6c.28.83.21,2.07-.03,2.5-.29.52-1.6,1.23-2.2,1.12l-7.8-1.5v-6.11s6.84,1.47,6.84,1.47c1.06.23,2.8,1.35,3.19,2.52Z"/>
    <path class="cls-4" d="M203.61,329.94c-2.33-.33-4.14-1.92-4.84-3.94-1.05-3.04-.4-6.18,1.42-8.72,1.65-2.3,4.47-3.86,7.69-3.83,2.68.03,4.99,1.5,5.88,4.02,1.09,3.05.5,6.4-1.52,8.96-1.87,2.37-4.98,4.03-8.63,3.52Z"/>
  </g>
</svg>