<?xml version="1.0" encoding="UTF-8"?>
<svg id="Layer_2" data-name="Layer 2" xmlns="http://www.w3.org/2000/svg" viewBox="0 0 1199.05 1191">
  <defs>
    <style>
      .cls-1 {
        fill: #243f72;
      }

      .cls-2 {
        fill: #fefeff;
      }

      .cls-3 {
        fill: #e46c28;
      }
    </style>
  </defs>
  <g id="Layer_1-2" data-name="Layer 1">
    <path class="cls-1" d="M630.52,0c.26.28,1.99.8,2.78.85l14.41.96c86.09,5.72,169.51,31.78,244.94,74,101.4,56.76,184.47,141.79,238.68,244.59,37.18,70.5,60.84,147.55,65.88,226.94l.98,15.4c.05.78.58,2.52.86,2.78v56.95c-11.59,183.55-100.8,352.37-252.9,460.42-81.05,57.58-177.24,97.21-278.14,105.52-44.63,3.68-91.27,3.25-135.9-.08-80.56-6.02-157.97-33.82-227.05-72.89C123.76,1012.9,8.86,822.53.5,614.77c-5.08-126.42,28.38-250.75,100.39-356.21,56.54-82.8,133.7-149.42,223.47-194.1C397.08,28.27,476.02,7.34,556.81,1.54c5.55-.4,10.18-.48,14.76-1.54h58.95ZM783.54,1143.73c169.25-57.54,302.69-191.13,360.38-359.7,41.04-119.93,41.37-250.96,1.04-371.06-58.09-172.99-195.8-309.24-369.44-365.43-117.13-37.91-244.39-37.3-361.19,1.71C243.56,106.29,108.24,241.01,50.48,411.53c-40.8,120.45-40.63,252.05.53,372.4,57.72,168.77,191.35,302.26,360.27,359.71,120.12,40.85,251.35,41.19,372.25.09Z"/>
    <path class="cls-3" d="M783.54,1143.73c-120.9,41.1-252.13,40.77-372.25-.09-168.92-57.45-302.55-190.94-360.27-359.71-41.16-120.35-41.32-251.96-.53-372.4C108.24,241.01,243.56,106.29,414.33,49.25c116.8-39.01,244.06-39.62,361.19-1.71,173.64,56.19,311.35,192.44,369.44,365.43,40.33,120.1,40,251.13-1.04,371.06-57.69,168.58-191.13,302.17-360.38,359.7ZM668.97,185.65l6.87-127.23-23.88-1.25-2.81,48.97-54.41-2.98,2.61-49.03-23.74-1.27-6.92,127.36,23.71,1.4,3.16-56.47,54.43,2.91-2.96,56.58,23.93.99ZM478.53,198.83l23.04-6.04-26.53-102.3,38.42-10.03-5.63-21.18-99.75,25.97,5.55,21.14,38.27-9.83,26.64,102.28ZM808.37,176.13l7.83-20.23-61.71-24.41,10.52-26.78,66.07,25.96,8.06-20.35-88.14-34.81-46.87,118.81,90.66,35.78,8.1-20.37-68.62-27.15,12.28-30.77,61.82,24.32ZM370.41,206.69l29.46,22.95,21.52-13.83-31.96-24.63c-6.16-4.75-12.7-7.95-21.35-9.53,8.4-13.29,7.82-29.56-2.36-41.88-11.58-15.49-31.52-19.29-48.12-8.8l-57.46,36.3,68.65,107.58,20.14-12.7-27.56-43.4,22.26-14.13c7.91-5.02,19.05-3.97,26.79,2.05ZM896.87,261.41l-12.37,37.04,20.61,16.63,40.58-131.5-17.55-14.48-118.75,67.66,19.4,16.01,33.62-19.8,34.47,28.45ZM918.6,393.79c-63.81-102.17-173.51-169-294.93-176.48-140.21-8.64-271.53,60.16-344.43,178.67-97.58,158.63-62.43,364.19,77.38,482.91,140.15,119.02,348.97,118.28,488.21-1.9,138.54-119.57,172.56-325.03,73.77-483.2ZM268.86,344.28c16.31-20.77,18.1-47.43,3.91-69.62-9.6-15.02-24.2-26.36-41.14-32.24-25.05-8.71-50.56-.02-66.59,20.42-16.61,21.17-18.32,49.2-2.55,71.57,9.82,13.94,23.89,24.7,40.06,30.18,24.86,8.43,50.11.32,66.3-20.3ZM1014.86,381.04c15.73-28.64-28.43-76.64-3.71-82.43,11.88-2.78,22.55,12.4,26.21,22.87,2.82,8.07.62,15.96-5.57,22.35l12.54,19.32c13.14-9.83,19.04-25.46,15.72-41.43-3.51-16.83-13.51-31.7-27.94-40.73-17.32-10.84-39.51-5.68-49.33,12.24-14.26,26.03,25.11,69.25,6.42,81.86-13.73,9.26-28.49-8.49-33.3-21.99-3.75-10.53-.86-21.03,6.92-29.04l-12.66-19.2c-13.85,10.36-21.59,26.46-18.37,43.67,3.34,17.82,13.33,34.08,27.98,44.27,18.77,13.05,43.93,8.56,55.1-11.78ZM184.9,516.04l7.21-21.71-80.5-26.68,98.22-27.46,6.97-21.41-121.1-39.8-7.11,21.99,80.23,26.75-98.26,27.18-6.8,21.35,121.14,39.77ZM1098.65,466.25l10.94,38.18,21.05-6.03-28.14-99.22-21.06,5.96,10.68,38.07-101.63,28.81,6.48,22.98,101.7-28.75ZM121.07,612.38l38.12,27.38-14.29-44.71,37.98-27.93-47.11-.31-14.82-44.77-14.8,44.76-47,.3,37.87,27.84-13.96,44.7,38.01-27.26ZM1055.62,612.37l37.93,27.1-14.03-44.57,37.92-27.76-47.16-.35-14.75-44.58-14.89,44.69-47.52.05,38.4,27.97-14.05,44.82,38.15-27.37ZM1051.43,902.75c27.24-17.89,43.91-56.18,19.17-78.74-10.96-9.99-25.27-12.24-38.54-5.58-23.37,11.73-41.95,39.26-53.81,31.26-12.73-8.58-.18-28.46,10.72-36.51,6.37-4.71,13.91-4.76,21.54-1.44l13.89-18.45c-13.73-8.92-30.23-9.1-44.04-.71-14.51,8.83-25.08,23.2-28.87,39.8-4.65,20.34,8.07,39.84,28.78,42.78,28.72,4.08,55.87-46.85,73.91-34.37,14.38,9.95,1.48,32.15-11.51,40.86-8.13,5.45-17.6,5.9-26.86,1.56l-13.94,18.42c14.94,10.01,33.81,11.45,49.56,1.1ZM191.88,898.04c-12.81-1.14-21.22-8.25-28.52-17.33-11.06-13.76-12.09-31.7-.85-45.99,13.82-17.57,42.76-32.64,63.09-17.1,13.03,9.96,24.03,32.25,9.66,47.14l13.64,20.36c26.59-25.26,14.52-65.39-11.07-85.65-30.78-24.36-72.81-7.87-93.72,19.75-20.55,27.14-13.16,60.05,10.05,82.76,5.37,5.25,11.54,8.46,18.61,11.46l-5.5,7.64,10.2,15.01,57.21-38.26-30.65-45.79-18.26,12.19,17.46,26.39-11.34,7.43ZM320.84,998.3l14.38-16.28-49.64-44.19,19.2-21.46,53.07,47.08,14.52-16.42-70.83-62.91-84.82,95.5,72.96,64.75,14.56-16.35-55.12-48.99,21.98-24.86,49.73,44.12ZM1005.02,959.01l-14.22-16.58-44.63,37.88-68.54-80.55-18.01,15.53,82.66,97.2,62.74-53.49ZM815.87,1045.67l39.52-20.56,29.37,25.95,23.34-12.43-105.14-89.14-20.09,10.63,15.59,135.83,22.25-11.43-4.85-38.83ZM431.84,1119.29l52.67-116.13-21.09-9.4-35.2,76.97-16.35-100.63-20.62-9.17-52.66,116.14,20.89,9.36,35.21-77.1,16.73,100.77,20.43,9.2ZM716.73,1083.13l20.53,31.8,24.88-6-23.2-35.45c-3.97-6.06-9.33-10.56-15.98-14.43,13.33-10.31,17.34-26.71,11.16-41.84-6.28-17.39-23.21-26.91-41.64-22.67l-66.54,15.33,29.23,124.15,23.25-5.27-11.71-50,27.23-6.2c8.37-1.91,17.99,3.14,22.79,10.58ZM593.69,1085.83l1.16-21.72-66.34-3.72,1.74-28.75,70.85,3.87,1.06-21.85-94.48-5.31-7.22,127.5,97.38,5.46,1.28-21.88-73.65-4.19,1.91-33.1,66.31,3.69Z"/>
    <path class="cls-1" d="M918.6,393.79c98.79,158.17,64.77,363.64-73.77,483.2-139.25,120.18-348.06,120.92-488.21,1.9-139.8-118.72-174.96-324.28-77.38-482.91,72.9-118.51,204.22-187.32,344.43-178.67,121.42,7.48,231.12,74.31,294.93,176.48ZM787.38,892.36c125.15-78.59,188.29-225.71,159.28-370.55-27.28-136.15-135.07-245.72-270.59-275.31-144.63-31.58-292.67,29.37-373.2,152.65-90.95,139.22-71.3,323.83,44.2,441.28,115.27,117.21,299.2,140.55,440.32,51.94Z"/>
    <path class="cls-1" d="M191.88,898.04l11.34-7.43-17.46-26.39,18.26-12.19,30.65,45.79-57.21,38.26-10.2-15.01,5.5-7.64c-7.07-3-13.24-6.21-18.61-11.46-23.21-22.71-30.6-55.61-10.05-82.76,20.91-27.62,62.94-44.11,93.72-19.75,25.6,20.26,37.67,60.39,11.07,85.65l-13.64-20.36c14.37-14.89,3.36-37.18-9.66-47.14-20.33-15.54-49.27-.48-63.09,17.1-11.24,14.29-10.21,32.22.85,45.99,7.3,9.09,15.71,16.2,28.52,17.33Z"/>
    <polygon class="cls-1" points="431.84 1119.29 411.41 1110.09 394.68 1009.32 359.47 1086.42 338.59 1077.06 391.24 960.93 411.87 970.1 428.22 1070.73 463.42 993.76 484.51 1003.16 431.84 1119.29"/>
    <polygon class="cls-1" points="184.9 516.04 63.76 476.27 70.55 454.92 168.82 427.74 88.58 400.99 95.69 378.99 216.79 418.79 209.82 440.2 111.6 467.66 192.11 494.34 184.9 516.04"/>
    <path class="cls-1" d="M716.73,1083.13c-4.8-7.43-14.42-12.48-22.79-10.58l-27.23,6.2,11.71,50-23.25,5.27-29.23-124.15,66.54-15.33c18.43-4.25,35.36,5.27,41.64,22.67,6.18,15.13,2.17,31.53-11.16,41.84,6.65,3.88,12.01,8.37,15.98,14.43l23.2,35.45-24.88,6-20.53-31.8ZM698.99,1048.46c5.15-2.08,9.33-4.42,12.4-8.44,2.69-7.84.99-16.15-5.03-21.87-4.82-2.59-10.31-2.77-15.84-2.02l-36.47,8.58,7.57,32.69,37.36-8.93Z"/>
    <path class="cls-1" d="M370.41,206.69c-7.74-6.03-18.88-7.07-26.79-2.05l-22.26,14.13,27.56,43.4-20.14,12.7-68.65-107.58,57.46-36.3c16.6-10.49,36.55-6.69,48.12,8.8,10.18,12.31,10.76,28.59,2.36,41.88,8.64,1.58,15.19,4.78,21.35,9.53l31.96,24.63-21.52,13.83-29.46-22.95ZM309.62,200.28l31.4-20.19c4.2-3.44,7.83-7.15,9.68-12.31.23-8.36-4.29-15.67-11.8-19.23-5.47-.91-10.5.63-15.42,3.09l-32.01,20.39,18.15,28.26Z"/>
    <polygon class="cls-1" points="808.37 176.13 746.55 151.81 734.27 182.58 802.89 209.73 794.79 230.1 704.13 194.33 751 75.51 839.14 110.32 831.08 130.67 765.01 104.71 754.49 131.49 816.2 155.9 808.37 176.13"/>
    <polygon class="cls-1" points="320.84 998.3 271.11 954.18 249.13 979.04 304.24 1028.03 289.68 1044.38 216.72 979.63 301.54 884.13 372.37 947.04 357.85 963.46 304.77 916.38 285.58 937.83 335.22 982.02 320.84 998.3"/>
    <polygon class="cls-1" points="593.69 1085.83 527.38 1082.14 525.47 1115.24 599.12 1119.43 597.84 1141.31 500.45 1135.85 507.67 1008.36 602.15 1013.67 601.09 1035.52 530.25 1031.65 528.51 1060.39 594.85 1064.11 593.69 1085.83"/>
    <path class="cls-1" d="M268.86,344.28c-16.19,20.62-41.44,28.73-66.3,20.3-16.18-5.48-30.24-16.25-40.06-30.18-15.77-22.37-14.06-50.4,2.55-71.57,16.03-20.43,41.54-29.12,66.59-20.42,16.93,5.88,31.53,17.23,41.14,32.24,14.19,22.19,12.4,48.85-3.91,69.62ZM252.46,330.78c9.28-12.1,10.02-27.25,2.19-40.11-7.79-12.79-20.28-22.56-34.63-26.88-14.63-4.4-28.9.44-38.04,12.13-9.32,11.92-10.5,27.26-2.47,40.55s20.28,22.45,34.64,26.75c14.52,4.36,29.02-.34,38.31-12.44Z"/>
    <polygon class="cls-1" points="668.97 185.65 645.04 184.65 647.99 128.07 593.56 125.16 590.4 181.63 566.69 180.23 573.61 52.86 597.35 54.13 594.74 103.16 649.15 106.13 651.96 57.16 675.84 58.41 668.97 185.65"/>
    <path class="cls-1" d="M1014.86,381.04c-11.17,20.33-36.33,24.83-55.1,11.78-14.65-10.19-24.64-26.46-27.98-44.27-3.22-17.21,4.52-33.31,18.37-43.67l12.66,19.2c-7.78,8.01-10.67,18.51-6.92,29.04,4.81,13.5,19.57,31.25,33.3,21.99,18.69-12.61-20.69-55.83-6.42-81.86,9.82-17.92,32.01-23.09,49.33-12.24,14.43,9.04,24.43,23.9,27.94,40.73,3.33,15.97-2.58,31.6-15.72,41.43l-12.54-19.32c6.19-6.39,8.39-14.28,5.57-22.35-3.65-10.48-14.33-25.65-26.21-22.87-24.71,5.79,19.44,53.79,3.71,82.43Z"/>
    <path class="cls-1" d="M1051.43,902.75c-15.75,10.35-34.62,8.91-49.56-1.1l13.94-18.42c9.26,4.34,18.73,3.89,26.86-1.56,12.99-8.71,25.89-30.91,11.51-40.86-18.04-12.49-45.2,38.44-73.91,34.37-20.71-2.94-33.43-22.45-28.78-42.78,3.79-16.59,14.36-30.97,28.87-39.8,13.81-8.4,30.31-8.22,44.04.71l-13.89,18.45c-7.63-3.32-15.17-3.26-21.54,1.44-10.89,8.04-23.45,27.92-10.72,36.51,11.86,8,30.44-19.54,53.81-31.26,13.27-6.66,27.58-4.41,38.54,5.58,24.74,22.56,8.07,60.85-19.17,78.74Z"/>
    <path class="cls-1" d="M815.87,1045.67l4.85,38.83-22.25,11.43-15.59-135.83,20.09-10.63,105.14,89.14-23.34,12.43-29.37-25.95-39.52,20.56ZM839.31,1010.47l-32.16-28.2,5.65,42.21,26.5-14.01Z"/>
    <path class="cls-1" d="M896.87,261.41l-34.47-28.45-33.62,19.8-19.4-16.01,118.75-67.66,17.55,14.48-40.58,131.5-20.61-16.63,12.37-37.04ZM903.95,240.8l13.37-40.74-36.6,21.86,23.23,18.88Z"/>
    <polygon class="cls-2" points="1055.62 612.37 1017.47 639.74 1031.52 594.92 993.12 566.94 1040.64 566.89 1055.53 522.2 1070.28 566.78 1117.43 567.13 1079.52 594.89 1093.55 639.46 1055.62 612.37"/>
    <polygon class="cls-2" points="121.07 612.38 83.06 639.64 97.02 594.93 59.16 567.09 106.16 566.79 120.96 522.03 135.77 566.8 182.88 567.11 144.9 595.04 159.19 639.76 121.07 612.38"/>
    <polygon class="cls-1" points="1098.65 466.25 996.96 495 990.48 472.03 1092.11 443.22 1081.44 405.15 1102.5 399.19 1130.64 498.41 1109.59 504.44 1098.65 466.25"/>
    <polygon class="cls-1" points="478.53 198.83 451.88 96.55 413.61 106.39 408.07 85.24 507.82 59.27 513.45 80.45 475.03 90.49 501.56 192.79 478.53 198.83"/>
    <polygon class="cls-1" points="1005.02 959.01 942.28 1012.5 859.61 915.29 877.62 899.77 946.16 980.32 990.79 942.43 1005.02 959.01"/>
    <path class="cls-2" d="M787.38,892.36c-141.12,88.61-325.05,65.28-440.32-51.94-115.51-117.45-135.15-302.06-44.2-441.28,80.53-123.27,228.57-184.23,373.2-152.65,135.52,29.59,243.32,139.16,270.59,275.31,29.02,144.85-34.13,291.97-159.28,370.55ZM624.92,787.55c11.19-3.62,21.97-7.15,32.46-12.52,8.86-4.54,10.31-22.16,20.3-24.24,11.31,32.55,32.7,59.72,61.47,77.61,9.15,5.69,29.24,15.35,39.52,11.24,5.53-12.86,3.73-23.24,10.82-35.84,12.65,4.47,24.27,14.33,35.92,17.73,5.14,1.5,20.2-7.72,25.46-10.88,10.24-6.16-3.47-33.1-1.79-47.07.79-6.56,13.28-12.51,8.04-24.03-7.9-17.39-21.05-32.09-35.86-43.8-1.78-1.41-7.35-2.19-7.04-5.31l13.23-38.91c6.81-20.03,12.34-39.79,16.24-60.66l-7.6-3.39c1.58-46.69.94-92.95-15.75-136.58l-6.29-2.05c-1.89-7.73-3.7-15.29-7.29-22.63-21.62-44.19-65.25-87.61-106.5-114.14-4.22-2.71-9.2-4.74-13.09-7.71-1.37-1.04-5.42-2.37-6.7-1.43-1.11.82-2.62,2.15-4.49,3.73-.98.83-3.5-2.05-4.51-3.23-32.65-14.11-67.08-22.43-102.81-25.61-15.04-1.34-29.13-1.37-44.06-1.38-12.57,0-24.83,2.03-36,6.85l-2.36,9.42c-5.44-1.74-11.09-3.08-16.52-.74-13.45,5.8-26.28,11.86-39.4,18.47-14.44,7.29-26.87,16.27-38.81,27.03-19.15,17.26-44.28,37.24-54.73,61.33-1.45,3.34,2.41,9.45,5.45,11.53,14.71,10.11,29.69,18.69,45.69,27.05l58.33,30.45c5,2.61,10.04,5.2,14.13,9.03-3.53,12.57-14.08,1.82-23.59,4.7-2.9.88-5.14,3.41-5.7,5.96-1.3,5.91,6.17,5.98,5.09,10.7l-24.59,107.13c-1.45,6.3-.96,13.66,2.98,18.06,4.76,5.32,11.2,4.22,18.94,2.72-4.15,19.65-13.41,34.5-20.44,53.47-1.77,4.79,3.41,9.29,5.39,12.91,2.22,4.06,5,7.17,9.82,7.28,6.68.15,11.99,5.57,11.11,12-3.54.77-7.45,1.65-10.59,2.72-7.88,10.28-11.18,24.45-5.66,36.37,2.94,6.35,10.63,6.71,17.23,8.32-1.09,5.76-4.97,11.22-8.93,15.78-16.73,19.28-1.09,34.74,9.86,47.6s21.74-1.55,30.62,2.4c11.39,5.07,21.6,12.19,33.91,14.49,18.74,3.5,39.45-12.15,53.46-22.51,22.42-16.59,39.11-20.84,65.63-29.41Z"/>
    <path class="cls-3" d="M698.99,1048.46l-37.36,8.93-7.57-32.69,36.47-8.58c5.53-.75,11.03-.56,15.84,2.02,6.02,5.73,7.72,14.03,5.03,21.87-3.07,4.02-7.26,6.36-12.4,8.44Z"/>
    <path class="cls-3" d="M309.62,200.28l-18.15-28.26,32.01-20.39c4.92-2.46,9.95-4,15.42-3.09,7.51,3.57,12.03,10.87,11.8,19.23-1.85,5.16-5.48,8.87-9.68,12.31l-31.4,20.19Z"/>
    <path class="cls-3" d="M252.46,330.78c-9.29,12.1-23.78,16.79-38.31,12.44-14.36-4.3-26.93-14.02-34.64-26.75s-6.85-28.63,2.47-40.55c9.14-11.68,23.41-16.52,38.04-12.13,14.35,4.31,26.84,14.08,34.63,26.88,7.83,12.86,7.09,28.02-2.19,40.11Z"/>
    <polygon class="cls-3" points="839.31 1010.47 812.81 1024.48 807.16 982.28 839.31 1010.47"/>
    <polygon class="cls-3" points="903.95 240.8 880.72 221.92 917.32 200.06 903.95 240.8"/>
    <path class="cls-3" d="M624.92,787.55c-26.52,8.57-43.21,12.82-65.63,29.41-14,10.36-34.72,26.01-53.46,22.51-12.3-2.3-22.52-9.42-33.91-14.49-8.88-3.95-19.64,10.48-30.62-2.4s-26.59-28.31-9.86-47.6c3.96-4.57,7.85-10.03,8.93-15.78-6.59-1.61-14.28-1.96-17.23-8.32-5.52-11.92-2.21-26.09,5.66-36.37,3.14-1.07,7.04-1.95,10.59-2.72.89-6.43-4.42-11.85-11.11-12-4.82-.11-7.61-3.21-9.82-7.28-1.98-3.63-7.16-8.12-5.39-12.91,7.03-18.98,16.29-33.82,20.44-53.47-7.74,1.5-14.18,2.59-18.94-2.72-3.93-4.4-4.42-11.76-2.98-18.06l24.59-107.13c1.08-4.71-6.38-4.78-5.09-10.7.56-2.55,2.8-5.08,5.7-5.96,9.51-2.88,20.06,7.87,23.59-4.7-4.09-3.83-9.13-6.42-14.13-9.03l-58.33-30.45c-16-8.35-30.98-16.93-45.69-27.05-3.03-2.09-6.89-8.2-5.45-11.53,10.45-24.09,35.58-44.07,54.73-61.33,11.94-10.76,24.36-19.75,38.81-27.03,13.11-6.61,25.95-12.68,39.4-18.47,5.44-2.34,11.09-1,16.52.74l2.36-9.42c11.17-4.81,23.43-6.85,36-6.85,14.93,0,29.01.04,44.06,1.38,35.74,3.18,70.16,11.5,102.81,25.61,1.01,1.18,3.53,4.06,4.51,3.23,1.87-1.57,3.37-2.91,4.49-3.73,1.27-.94,5.32.39,6.7,1.43,3.89,2.97,8.88,5,13.09,7.71,41.25,26.53,84.88,69.95,106.5,114.14,3.59,7.34,5.4,14.89,7.29,22.63l6.29,2.05c16.69,43.62,17.33,89.89,15.75,136.58l7.6,3.39c-3.9,20.87-9.43,40.63-16.24,60.66l-13.23,38.91c-.31,3.12,5.27,3.9,7.04,5.31,14.81,11.71,27.95,26.41,35.86,43.8,5.24,11.52-7.26,17.47-8.04,24.03-1.68,13.97,12.03,40.91,1.79,47.07-5.26,3.16-20.32,12.38-25.46,10.88-11.66-3.4-23.27-13.27-35.92-17.73-7.09,12.61-5.29,22.98-10.82,35.84-10.28,4.12-30.37-5.54-39.52-11.24-28.77-17.89-50.16-45.06-61.47-77.61-9.99,2.08-11.44,19.7-20.3,24.24-10.49,5.38-21.27,8.91-32.46,12.52ZM766.93,515.34l-5.27,11.51,3.61,42.6c1.04,12.33,1.2,23.72.89,36.25-.12,4.79,5.61,3.21,7.59,5.76,2.89,3.73-6.84,11.11-10.31,13.04-3.41,11.84-7.97,23.44-15.71,33.2l-10.21,12.88,26.61,18.12,15.35,12.22c21.46-23.32,38.19-65.76,37.05-97.35l-14.47,5.59c-7.21,2.79-14.9,5.83-23.81,2.8,13.48-9.96,23.31-20.82,28.82-35.89,10.66-29.17,9.29-63.63-.93-93.44-2.29,2.37-23.28,22.65-25.12,17.68-2.49-6.74,18.33-21.24,11.97-50.37-11-50.35-54.67-91.5-100.52-113.03-1.69,15.21-3.71,28.92-7.12,42.48-.33,1.31-3.25,2.91-4.43,2.66s-2.27-2.58-2.3-4.28c-.37-23.19-11.67-43.61-30.99-56.15-39.08-25.36-87.66-24.91-132.34-15.05l1.62,34.85c.03.74-2.18,2.59-2.81,2.26s-2.11-1.25-2.57-2.01l-7.86-12.95c-3.53-5.82-8.6-11.14-14.66-14.15-4.13-2.05-9.33.5-12.95,2.6-37.35,21.67-77.13,43.84-102.4,80.36-2.91,4.21,2.3,11.08,5.69,13.28l14.76,9.55,40.26,24.71c11.54,7.08,23.25,12.89,35.82,18.48,7.76-8.42,15.79-15.64,25.48-21.89l28.16-18.16c3.3-6.42,3.5-15.42,2.81-22.81l-2.43-26.15c8.96-9.26,19.1,35.12,19.47,40.14,40.94-13.56,86.46-8.67,124.64,9.61,4.97-4.69,4.24-12.46,10.17-14.94,2.94,2.93,3.95,7.14,3.56,11.11l-1.04,10.54c4.6,3.43,9.7,6.33,14.15,10.02,21.6,17.92,47.15,44.25,58.73,70.05,1.83.88,5.06-.09,6.71-1.03l5.04-2.87c1.22,2.26,2.28,6.04,1.3,8.17ZM695.21,576.96c11.02-7.55,22.22-7.47,33.78-4.99,7.25,2.88,13.68,6.3,21.1,10.32.12-19.14-1.87-37.86-8.26-56.11-13.47-38.48-41.87-69.74-78.66-87.06-26.86-12.64-55.14-16.02-84.6-13.93-43.78,3.1-83.55,24.68-107.9,61.55,43.16,2.43,79.37,4.37,119.93,14.69,42.37,13.06,81.24,36.27,104.6,75.52ZM744.34,637.21c7.44-15.33,5.08-34.27-7.19-46.41-7.15-7.07-18.44-8.21-27.63-5.31-6.91,2.19-12.32,4.81-19.33,7.92-6.64-4.85-6.54-14.29-11.09-20.49-24.65-33.57-60.77-47.89-99.08-59.78-14.99-4.65-29.61-7.56-45.47-7.94l-43.91-1.05c-12.6-.3-24.77-2.31-37.03-5.27l-12.86,52.71c-4.45,18.26-8.28,35.71-10.87,54.16,4.82,2.78,9.84,3.24,14.88,1.87l46.53-12.58c46.12-12.47,113.61-21.12,154.78,7.93l14.05,9.92c4.52-6.39,9.72-16.09,17.08-14.86,1.42.24,4.41,2.81,3.86,4.17l-7.95,19.89c-5.89,14.72-.12,31.91,13.39,40.35,15.77,9.85,46.67-2.18,57.85-25.23ZM507.55,723.52c-23.03.49-32.49,8.36-55.49,1.51-5.04-1.5-11.53-1.52-15.76,1.94-3.31,2.7-4.57,8.98-2.93,12.92,8.4,20.18,39.38.2,55.73,14.17,5.97,5.1,10.22,13.55,9.02,21.84-5.62-4.23-9.5-9.38-15.48-11.29-6.46-2.05-13.34-3.35-19.86-4.04-6.91-.73-11.3,3.26-14.19,8.69-3.7,6.97-7.82,13.53-9.73,21.12-2.45,9.72,2.61,19.9,12.56,21.49l5.39-6.74c5.19.56,10.34,1.81,14.84,4.31l19.76,10.98c9.92,5.51,20.1,4.34,29.64-.79,36.48-19.61,72.91-38.49,112.63-49.2-22.46,2.54-43.43-.72-64-9.46l-15.12-6.43c-2.42-1.03-7.35-5.85-3.99-8.52,17.45-13.86,35.32-27.33,49.98-44.56,10.24-12.03,19.41-23.94,28.27-36.82,9.31-13.53,16.05-27.78,19.05-44.19-24.27-14.98-53.85-26.11-82.52-23.2,5.37,3.47,9.83,6.21,14.13,9.76-1.24,6.07-22.67-4.12-35.81,3.64-13.86,8.19-27.22,16.49-44.2,15.3-1.74-.12-5.43,1.02-6.07,2.57-1.9,4.6,4.68,9.91.2,13.51-4.54-3.15-8.12-7.3-10.5-11.99l-7.79-15.39c-.57-1.12-4.49.4-4.97,1.68-3.71,9.87-14.93,4.1-23.2,8.89l-20.72,50.09c-2.33,5.64,2.87,13.75,6.71,15.38,11.27,4.79,34.05-17.66,55.8-5.71,4.85,2.66-1.38,5.94-7.89,13.1-5.02,5.51-11.35-4.36-24.29,3.45-3.49,2.11-7.24,7.84-5.1,11.77,6.65,4.35,15.97,4.43,23.82,2.97l21.18-3.92c8.63-1.6,15.96,0,24.86,2.51.62-1.18-10.28-15.88-4.53-13.29.52.23,1.83.87,2.31,1.27,9.26,7.68,16.43,18.13,17.03,30.52.05.98-.69,2.72-1.25,3.27-2.36,2.36-6.73-13.55-27.51-13.11ZM711.99,693.81c2.14-4.82,3.04-7.07,4.07-11.81l-14.05,3.79c-11.73,3.17-23.2-2.94-30.4-12.53-6.74-8.99-10.4-19.03-15.67-30.01-10.01,20.4-21.62,38.45-36.12,55.41-14.22,17.14-29.71,31-47.7,46.17,16.98,6.27,35.37,11.77,53.5,8.94,36.19-5.64,66.58-29.95,86.36-59.96ZM825.58,756.99l-26.13-21.8c9.39-1.58,18.47,2.73,25,8.14l9.94,8.24c1.57,1.3,5.84.57,7.36-.56,4.89-3.62-.67-13.52-3.67-18.27-6.41-10.12-17.02-28.28-28.57-30.47l-22.61,19.78c-1.69,1.48-5.23-.91-6.55-2.45-12.12-14.23-26.09-25.81-42.93-33.97-3.11-1.51-9.15-1.61-10.9,1.84-10.21,20.08-22.8,37.92-40.13,52.64,13.15,34.01,34.68,69.57,68.82,84.43,4.66,2.03,8.98,3.08,14.26,3.05,3.22-11.11,5.22-20.89,6.24-32.43.78-8.82-19.55-17.56-24.92-25.48,10.21-.15,18.4,4.5,26.29,9.19l25.03,14.88c7.66,4.56,15.67,8.4,24.56,9.95,4.01.7,10.16-3.53,11.97-6.92,4.07-7.63-1.86-30.46-13.06-39.8Z"/>
    <path class="cls-1" d="M766.93,515.34c.98-2.13-.08-5.91-1.3-8.17l-5.04,2.87c-1.65.94-4.88,1.91-6.71,1.03-11.57-25.8-37.13-52.14-58.73-70.05-4.45-3.69-9.56-6.6-14.15-10.02l1.04-10.54c.39-3.97-.62-8.18-3.56-11.11-5.93,2.48-5.2,10.25-10.17,14.94-38.18-18.27-83.7-23.17-124.64-9.61-.37-5.02-10.51-49.4-19.47-40.14l2.43,26.15c.69,7.39.49,16.39-2.81,22.81l-28.16,18.16c-9.7,6.26-17.73,13.47-25.48,21.89-12.56-5.59-24.28-11.4-35.82-18.48l-40.26-24.71-14.76-9.55c-3.4-2.2-8.6-9.07-5.69-13.28,25.27-36.53,65.05-58.69,102.4-80.36,3.62-2.1,8.82-4.65,12.95-2.6,6.06,3.02,11.13,8.34,14.66,14.15l7.86,12.95c.46.76,1.94,1.68,2.57,2.01s2.85-1.52,2.81-2.26l-1.62-34.85c44.68-9.86,93.27-10.32,132.34,15.05,19.32,12.54,30.63,32.97,30.99,56.15.03,1.7,1.12,4.03,2.3,4.28s4.1-1.35,4.43-2.66c3.41-13.56,5.43-27.27,7.12-42.48,45.86,21.53,89.53,62.68,100.52,113.03,6.36,29.12-14.46,43.62-11.97,50.37,1.83,4.97,22.83-15.31,25.12-17.68,10.21,29.8,11.58,64.27.93,93.44-5.51,15.07-15.33,25.93-28.82,35.89,8.91,3.04,16.6-.01,23.81-2.8l14.47-5.59c1.14,31.6-15.59,74.03-37.05,97.35l-15.35-12.22-26.61-18.12,10.21-12.88c7.73-9.76,12.3-21.36,15.71-33.2,3.47-1.93,13.2-9.31,10.31-13.04-1.98-2.55-7.71-.96-7.59-5.76.32-12.53.16-23.92-.89-36.25l-3.61-42.6,5.27-11.51Z"/>
    <path class="cls-1" d="M507.55,723.52c20.78-.44,25.14,15.47,27.51,13.11.56-.56,1.29-2.29,1.25-3.27-.59-12.39-7.77-22.85-17.03-30.52-.48-.4-1.79-1.03-2.31-1.27-5.75-2.59,5.15,12.11,4.53,13.29-8.9-2.51-16.23-4.11-24.86-2.51l-21.18,3.92c-7.84,1.45-17.16,1.37-23.82-2.97-2.14-3.93,1.61-9.66,5.1-11.77,12.94-7.81,19.28,2.06,24.29-3.45,6.51-7.15,12.74-10.43,7.89-13.1-21.75-11.96-44.53,10.5-55.8,5.71-3.84-1.63-9.04-9.74-6.71-15.38l20.72-50.09c8.28-4.79,19.5.99,23.2-8.89.48-1.28,4.4-2.81,4.97-1.68l7.79,15.39c2.38,4.7,5.96,8.85,10.5,11.99,4.47-3.6-2.1-8.9-.2-13.51.64-1.56,4.33-2.69,6.07-2.57,16.98,1.19,30.33-7.11,44.2-15.3,13.15-7.76,34.57,2.43,35.81-3.64-4.3-3.55-8.75-6.29-14.13-9.76,28.67-2.91,58.25,8.23,82.52,23.2-3,16.41-9.75,30.66-19.05,44.19-8.86,12.88-18.03,24.79-28.27,36.82-14.66,17.23-32.54,30.69-49.98,44.56-3.36,2.67,1.56,7.49,3.99,8.52l15.12,6.43c20.57,8.74,41.54,12.01,64,9.46-39.72,10.71-76.15,29.59-112.63,49.2-9.54,5.13-19.72,6.3-29.64.79l-19.76-10.98c-4.5-2.5-9.65-3.75-14.84-4.31l-5.39,6.74c-9.95-1.6-15-11.77-12.56-21.49,1.91-7.58,6.03-14.14,9.73-21.12,2.88-5.43,7.28-9.43,14.19-8.69,6.52.69,13.4,1.99,19.86,4.04,5.98,1.9,9.86,7.06,15.48,11.29,1.2-8.29-3.04-16.74-9.02-21.84-16.35-13.96-47.33,6.01-55.73-14.17-1.64-3.94-.38-10.21,2.93-12.92,4.23-3.45,10.71-3.44,15.76-1.94,23,6.86,32.46-1.01,55.49-1.51ZM598.27,671.12c4.62-13.56,27.48-37.84,19.3-55.73-4.6,8.19-8.58,14.95-14.03,22-14.45,18.69-17.3,14.39-20.26,42.59l-3.12,29.75c4.61,8.97,16.61-34.2,18.11-38.61ZM454.08,658.82c7.94-7.17,14.52-12.92,22.31-18.64-4.13-1.73-9.63-2.48-13.42-.2-3.44,2.07-14.24,15.61-8.89,18.84ZM559.6,712.5c-5.66-17.84-20.65-44.16-37.01-53.99-5.44-3.27-15.19,6.03-19.79,5.09-4.73-6.52-19.22-13.66-22.63-5.87,4.92,2.96,10.1,5.42,12.97,10.21l1.9,12.71c6.67-.43,18.13-10.03,23.25-8.1,18.39,6.9,27.96,26.37,41.3,39.96Z"/>
    <path class="cls-1" d="M744.34,637.21c-11.18,23.05-42.08,35.08-57.85,25.23-13.51-8.44-19.28-25.63-13.39-40.35l7.95-19.89c.55-1.37-2.44-3.93-3.86-4.17-7.36-1.24-12.56,8.46-17.08,14.86l-14.05-9.92c-41.18-29.06-108.66-20.41-154.78-7.93l-46.53,12.58c-5.04,1.36-10.06.91-14.88-1.87,2.59-18.46,6.42-35.91,10.87-54.16l12.86-52.71c12.26,2.96,24.43,4.97,37.03,5.27l43.91,1.05c15.86.38,30.49,3.29,45.47,7.94,38.31,11.89,74.43,26.22,99.08,59.78,4.55,6.19,4.46,15.63,11.09,20.49,7.01-3.11,12.41-5.73,19.33-7.92,9.19-2.91,20.49-1.76,27.63,5.31,12.27,12.14,14.63,31.08,7.19,46.41Z"/>
    <path class="cls-1" d="M695.21,576.96c-23.36-39.25-62.23-62.46-104.6-75.52-40.57-10.32-76.77-12.27-119.93-14.69,24.35-36.87,64.11-58.44,107.9-61.55,29.46-2.09,57.74,1.29,84.6,13.93,36.79,17.31,65.18,48.58,78.66,87.06,6.39,18.25,8.38,36.97,8.26,56.11-7.42-4.01-13.85-7.43-21.1-10.32-11.56-2.49-22.75-2.57-33.78,4.99Z"/>
    <path class="cls-1" d="M825.58,756.99c11.2,9.34,17.12,32.18,13.06,39.8-1.81,3.39-7.96,7.62-11.97,6.92-8.89-1.55-16.89-5.4-24.56-9.95l-25.03-14.88c-7.89-4.69-16.08-9.34-26.29-9.19,5.37,7.92,25.7,16.66,24.92,25.48-1.02,11.54-3.02,21.32-6.24,32.43-5.28.03-9.6-1.02-14.26-3.05-34.14-14.86-55.67-50.41-68.82-84.43,17.34-14.73,29.92-32.56,40.13-52.64,1.76-3.45,7.79-3.35,10.9-1.84,16.83,8.16,30.8,19.74,42.93,33.97,1.31,1.54,4.86,3.93,6.55,2.45l22.61-19.78c11.54,2.18,22.16,20.35,28.57,30.47,3.01,4.75,8.56,14.65,3.67,18.27-1.52,1.13-5.8,1.86-7.36.56l-9.94-8.24c-6.53-5.41-15.6-9.71-25-8.14l26.13,21.8Z"/>
    <path class="cls-1" d="M711.99,693.81c-19.78,30.01-50.17,54.32-86.36,59.96-18.14,2.83-36.53-2.67-53.5-8.94,17.99-15.17,33.47-29.03,47.7-46.17,14.5-16.96,26.11-35,36.12-55.41,5.26,10.97,8.93,21.02,15.67,30.01,7.19,9.59,18.66,15.69,30.4,12.53l14.05-3.79c-1.03,4.74-1.93,6.99-4.07,11.81Z"/>
    <path class="cls-3" d="M598.27,671.12c-1.5,4.41-13.5,47.58-18.11,38.61l3.12-29.75c2.96-28.2,5.81-23.9,20.26-42.59,5.45-7.05,9.43-13.8,14.03-22,8.18,17.89-14.68,42.17-19.3,55.73Z"/>
    <path class="cls-3" d="M559.6,712.5c-13.34-13.58-22.91-33.06-41.3-39.96-5.13-1.92-16.59,7.67-23.25,8.1l-1.9-12.71c-2.87-4.79-8.06-7.25-12.97-10.21,3.41-7.79,17.9-.65,22.63,5.87,4.6.94,14.35-8.36,19.79-5.09,16.35,9.83,31.34,36.15,37.01,53.99Z"/>
    <path class="cls-3" d="M454.08,658.82c-5.35-3.23,5.46-16.77,8.89-18.84,3.79-2.28,9.29-1.53,13.42.2-7.79,5.71-14.38,11.46-22.31,18.64Z"/>
  </g>
</svg>