<?xml version="1.0" encoding="UTF-8"?>
<svg id="Layer_2" data-name="Layer 2" xmlns="http://www.w3.org/2000/svg" viewBox="0 0 557.98 529.97">
  <defs>
    <style>
      .cls-1 {
        fill: #f4f1f2;
      }

      .cls-2 {
        fill: #fff;
      }

      .cls-3 {
        fill: #e23b43;
      }

      .cls-4 {
        fill: #074687;
      }
    </style>
  </defs>
  <g id="Layer_2-2" data-name="Layer 2">
    <g id="Layer_1-2" data-name="Layer 1-2">
      <g>
        <path class="cls-1" d="M527.34,526.17c-5.28,1.25-8.32,1.8-14.4,2.46-26.96,2.92-54.79.86-80.48-4.12-12.98-2.52-24.13-4.11-33.87-13.96l-27.71-35.71c-2.89-1.05-6.45,4.26-11.15-.21-4.29-8.01-7.24-16.82-11.08-25.1-.28,1.77-3.31,2.54-3.26,3.85.02.55,1.44,8.09,1.75,8.39.99.93,5.02-2.16,7.35,4.6,1.3,3.76,2.71,10.41-.21,13.62-1.04,1.14-5.49,2.49-7.16,2.95-3.94,1.08-13.87,3.72-17.48,4-2.36.18-4.31-.38-6.15-1.83-.76-.6-.53-1.93-1.5-1.86-.33,3.22-2.01,5.47-5.25,6.09-6.21,1.19-12.72,1.46-19,2.46-5.75.91-9.31-.89-10.39-6.72,1.47,9.29-14.64,7.68-18.51,4.11-1.87-1.73-1.62-7.78-5.36-7.85-5.02-.09-4.51,2.83-6.91,6.03-2.02,2.69-5.19,3.12-8.5,2.67-1.14-.16-.8-1.14-1.3-1.26-5.34-1.25-8.75,2.12-8.78-7.37-1.27.26-.7,2.09-1.66,3.1-2.76,2.9-7.86,1.39-11.2.26-10.03-3.39-3.65-8.79-3.04-16.49l-6.16-1.58c-.58,2.02-3.01,11.6-4.13,12.27-.51.3-3.92,1.16-4.62,1.09-.95-.09-8.5-2.44-9.21-2.92-3.04-2.04-1.31-7.61-.71-10.42.13-.61.74-1.41-.34-1.25-.55,1.35-1.85,2.57-2.83,3.61-10.77,11.47-20.4,27.91-31.52,40.2-8.71,9.62-16.96,11.09-29.04,13.87-8.6,1.98-16.79,3.73-25.81,4.84-2.2.27-5.3-.44-7.24.02-5.69,1.34-13.23,1.68-19.71,1.85-18.89.51-59.18-.44-74.45-12.03-9.97-7.57-7.27-26.69,2.07-34,3.13-2.45,10.08-5.44,14.15-4.92,2.57.33,6.61,1.61,9.24,1.87,16.14,1.6,32.7,4.36,49.56,5.56,2.74.19,6.06-.4,8.65-.07,1.17.15.58,1.17,1.76,1.32,12.42,1.57,34.88-2.16,46.74-6.68,7.71-2.94,17.48-8.86,23.5-14.51,5.28-4.96,1.59-3.49,1.77-8.6.08-2.29,1.56-5.07,1.28-7.66-3.95,2.8-5.21,6.84-10.74,6.16-3.05-.37-12.93-6.83-10.56-11.22l7.82-28.04c-2.14.57-1.94-1.37-3.01-2.19-30.29-23.47-54.63-51.15-68.57-87.76-20.18-52.96-17.1-114.32,10.05-164.99,6.77-12.63,14.94-24.41,24.13-35.32-3.16-2.93-4.91-7.18-7.94-9.97-20.85-31.63-47.96-61.02-68.56-92.52-1.91-2.91-4.09-5.52-3.04-9.26,4.09-2.28,7.86-8.41,13.01-8.07,3.02.2,5.92,6.44,7.8,8.79,17.14,21.4,34.06,43.58,51.02,65.43,7.59,9.79,14.69,19.93,22.75,29.35,26.27-25.5,60.49-45.51,96.42-53.76,10.4-2.39,20.88-3.36,31.05-5.73l27.31-.59c-1.05-1.59-3.38-1.45-5.23-2.42-2.09-1.1-3.77-3.1-5.8-4.31.1,2.08,0,3.95-2.01,5.05-1.74.94-11.48,1.99-13.48,1.53-.96-.22-2.22-1.26-2.72-2.16l-2.63-6.86c-.84,5.44-8.84,5.5-13.17,4.88-1.18-.17-2.17-2.07-2.7-.21-.37,1.3.15,2.79-.41,4.5-1.4,4.26-12.52,6.44-16.25,5.27-3.53-1.11-5.03-9.57-3.99-12.64.5-1.49,2.03-1.63,2.19-2.23.1-.39.48-7.21.44-7.97-.09-1.93-.86-5.67-1.06-8.46-.17-2.35-1.19-1.97-2.48-.46s-4.62,12.52-4.74,14.73c-.28,5.05,8.45,16.24,2.65,20.4-1.97,1.41-10.47,3.7-12.77,2.4-.71-.4-.05-1.69-1.67-1.21.38,2.25-1.43,3.96-3.11,5.18-1.82,1.32-16.16,7.6-18.32,8.04-7.46,1.54-9.53-.81-12.73-6.96-1.26-2.41-2.06-5.39-3.18-7.85-1.42-3.11-1.64,2.76-2.1,4.15-1.43,4.28-5.56,7.37-8.95,10.07-.33,1.34,5.63,6.76,3.32,11.88-.95,2.1-12.62,8.9-15.16,4.31l-13.89-23.53c-5.57.18-10.17-8.88-9.12-13.44.7-3.05,9.86-7.38,12.88-9.05.35-.2.43-.86.96-1.14,5.56-3.03,12.6-6.02,18.83-3.13-.68-2.59-.55-6.34,1.96-7.98.37-.24,7.6-3.27,8.1-3.39,1.67-.39,4.82-.5,6.51-.3.82.1,2.43,2.46,3.77,2.68,3.65,7.12,5.92,16.13,9.85,22.95.3.53-.15,1.01,1.05.77,2.66-5.35,9.33-7.78,15.02-7.04-.94-1.08-2.04-2.77-3.03-3.7-1.07-1.02-9.41-7.85-10.02-8.06-1.66-.58-4.18.27-5.22-.33-1.98-1.15-4.5-11.75-2-14.15,1.24-1.19,11.31-3.2,13.18-2.86,1.01.18,3.18,1.74,4.16,2.42.78.54,4.31,4.68,5.37,3.69.43-.4,1.01-9.12,3.5-11.07s12.27-4.59,14.89-2.11c1.38,1.3.32,4.29,2.45,3.98-.32-2.05-.06-7.24,2.31-7.92s10.12-1.6,12.39-.91c2.56.78,5.72,9.27,8,11.59.58.6.8,1.16,1.82.93,1.14-3.18,2.46-12.61,4.86-14.46,2.68-2.07,14.08-3.68,15.58-.1,1.79,4.25,2.08,10.08,3.18,14.57,2.55-.02,2.45-3.31,3.76-5.43,11.02-17.81,37.2-16.43,45.89,2.36,1.13-5.23.49-12.6,7.92-12.22,1.28.07,9.48,1.97,10.9,2.47,1.07.37,2.8,3.29,2.95,4.52.32,2.45-.28,7.21-.67,9.8-.44,2.91-2.8,9.07-3.03,11.71-.08.93.63,1.75.63,2.39,0,.4-1.24.07-1.32,1.24-.29,4.84,4.97,5.38,6.44,1.52,2.49-6.54,2.64-16.98,6.05-23.4.22-.42,3.11-3.47,3.35-3.53.92-.25,4.82-.12,5.96.04,1.23.17,6.74,1.47,7.81,1.87.77.29,1.66,2.26,2.17,2.36,1.92.38,4.1-.23,6.34.29,6.73,1.55,22.43,7.77,29.09,10.76,3.6,1.62,2.83,3.25,3.39,3.67.36.27,3.06-.9,4.89-.33s9.64,5.43,10.67,7.13c3.77,6.2-5.19,14.07-3.92,15.87.17.25,4.65,1.94,5.48,2.47,1.12-2.37,4.79-9.52,6.76-10.72.95-.58,6.22-.49,7.51-.16.48.12,8.11,4.37,8.58,4.74,4.81,3.76-1.37,15.78-7.36,15.49-4.75,6.71-7.98,15.51-12.54,22.1-2,2.89-4.03,5.04-8,3.96-1.12-.3-8.6-4.74-8.93-5.77-1.69-5.22,3.21-10.29,5.4-14.63-1.61-.65-4.23-3.55-5.8-2.14-4.07,3.67-2.33,12.8-12.13,10.28-.9-.23-7.33-3.83-7.74-4.52-.45-.75-1.11-2.92-1.15-3.77-.24-4.51,11.02-19.31,12.73-24.66-4.14,1.37-7.99-1.43-11.64-3.07l-6.74,18.71c-2.68,6.52-3.47,8.33-11.18,6.25-3.91-1.06-7.32-2.92-7.63-7.37,2.58-7.95,5.85-15.89,8.99-23.71-3.91-.17-7.4-2.44-11.03-3.68-.83,6.45-2.93,16.69-7.99,21.12-.93.81-6.71,4.01-7.64,4.01h-12.57l27.74,8.74c21.86,9.34,44.99,21.69,62.78,37.44,1.96,1.73,8.57,10.62,10.88,10.26L511.16,8.86c2.52-5.4,14.48,4.18,15.51,6.57,1.71,3.94-2.06,8.17-4.34,11.36-22.64,31.63-47.6,61.98-70.39,93.44-.95,1.31-5.98,8.52-6.03,9.13.49,1.39,1.53,2.8,2.37,4.02,15.94,23.24,29.32,44.35,36.08,72.57,2.83,11.83,2.75,22.02,4.32,33.68,3.96,29.33-2.01,64.56-13.78,92.21-12.67,29.76-35.86,60.68-61.44,80.3-.63.49-4.21,2.28-4.38,2.57-.14.24.85,3.69.42,5.6-.53,2.36-2.42,1.54-2.32,3.5,9.72,1,15.18,9.07,14.03,18.63-1.17,9.75-15.74,18.69-25.06,15.7.53,1.49-.67,4.1-.47,5.14.49,2.59,14.65,12.54,17.7,14.11,22.96,11.81,44.44,10.28,69.51,8.95,15.6-.83,31.74-4.98,47.21-6.73,10.3-1.17,18.44.86,23.99,10.33,2.61,4.45,2.03,5.61,2.69,10.18.15,1.04,1.25,1.66,1.2,3.02-.03.94-1.45,6.77-1.81,8.07-1.99,7.08-12.04,10.6-18.42,12.54-3.57,1.08-6.87,1.61-10.42,2.45v-.03ZM289.36,5.29c-26.84,2.58-23.76,43.8,5.89,40.22,24.39-2.95,21.62-42.86-5.89-40.22ZM257.54,7.04c-.96-.62-6.81.08-7.84,1.49l-6.18,22.33c-1.14.27-1.19-.39-1.73-1.02-4.49-5.21-7.63-13.46-11.87-19.08-2.6-.43-5.26-.11-7.78.55.42,10.48.65,20.99,1.6,31.43-.24,2.18-2.82,2.7-2.93,3.25-.14.69.72,4.47,1.24,4.85.79.58,8.54-1.33,9.11-3.24,1.59-5.3-1.63-15.17-.49-21.03,3.73,2.35,6.95,12.06,10.07,14.14,1.19.79,4.74.42,6.07-.03.89-.3,4.55-15.9,6.24-17.79,2.85,5.12,2.57,15.69,5.54,20.2.58.89,1.34,1.63,2.44,1.85.94.18,6.7-.32,7-.63.19-.2.21-5.28,0-5.46-.17-.16-1.65.12-2.42-.32-2.47-1.44-6.69-30.61-8.06-31.5h-.01ZM359.97,16.17c-.71-.81-8.81-1.88-10.4-.32-3.55,3.48-3.65,22.75-8.28,26.67-4.78,4.04-13.93,1.42-14.39-5.29-.4-5.83,4.27-16.9,4.75-23.41.4-5.47-6.38-4.93-10.29-5.64.23,1.6-1.06,3.62-.55,5.11.32.94,1.69,1.03,2.07,1.63,1.33,2.08-3.4,18.14-3.36,22.37.06,7.4,6.87,12.88,13.86,13.73,18.81,2.28,17.87-15.21,21.79-28.34.59-1.64,3.02-.49,3.91-1.61.36-.46,1.14-4.61.89-4.9h0ZM121.27,120.11c.8-.83,5.6-5.85,5.68-6.27.17-.87-1.52-3-2.11-3.84-11.42-16.29-25.62-32.64-37.89-48.55-13-16.85-25.92-33.78-38.64-50.86-1.84-2.4-11.08,5.72-11.3,6.61-.13.5-.07.96.17,1.41l78.5,105.47c1.7,1.38,4.25-2.59,5.59-3.97ZM440.47,104.59c-.63.84-.53,2.04-1.14,2.85-1.98,2.65-4.84,5.11-6.31,8.21.1.65,7.37,8.82,8.49,9.94.59.6,1.44,2.03,2.17.92l80.04-106.94c1.58-2.25-.37-3.51-1.88-4.96-1.34-1.28-6.67-5.32-8.3-4.04-23.45,31.06-47.82,61.41-71.13,92.59-.61.82-1.64,1.04-1.92,1.42h-.02ZM210.96,14.36c-11.2.13-8.6,11.76-12.51,18.95-.89.21-10.31-9.55-13.02-10.27-1.56-.42-7.71.59-8.08,2.05-.06.23,1.05,4.34,1.23,4.49.26.22,3.31-.16,5.08.75.78.4,12.77,10.11,13.28,10.8,1.5,2.05,4.68,15.34,5.88,15.54l6.41-2.26-4.78-15.14c0-1.71,4.68-17.16,5.61-18.26.59-.7,2.08-1.03,2.22-1.6.41-1.71-.86-3.48-1.32-5.04h0ZM390.13,36.9c.14.24,4.54,2.06,5.42,1.67.91-.57,3.27-7.4,1.84-8.64l-28.81-11.11c-2.39-.85-5.98,7.32-5.45,8.26,1.26.53,3.77,2.07,5.06,1.81,1.22-.25,1.38-2.05,1.7-2.24.66-.39,6.61,1.7,6.68,2.12l-11.08,30.28c2.53.3,4.63,2.41,7.29,1.77l10.5-29.35c.37-.33,6.37,1.47,6.64,1.94.49.84-.29,2.65.2,3.49h0ZM174.9,60.25c-1.17-3.59-2.67-7.35-4.22-10.8-1.37-3.05-5.88-14.16-7.45-15.84-.89-.96-1.91-1.52-3.23-1.41-.64.06-6.92,2.7-7.13,3.02-1.14,1.79,2.05,6.9,5.03,5.55,5.28,7.04,7.07,18.23,11.93,25.46,1.67,2.48,2.49,2.9,5.35,2.06,1.78-.52,16.63-6.87,17.29-7.55,1.87-1.93-.45-8.45-3.18-8.47-5.56-.04-3.25,3.48-4.1,4.86-.28.46-9.83,3.53-10.31,3.11h.02ZM407.19,52.92c2.52-7.96,12.32-14.52-.04-19.3-2.02-.78-4.02,2.12-4.16,3.8-.1,1.21,2.86,2.44,1.48,4.49-1.22,3.59-14.78,24.94-14.39,26.59.24,1.01,6.08,3.86,6.66,3.42l7.11-13.51c2.01.83,14.02,6.89,14.31,7.8.93,2.87-6.79,10.58-6.74,14.01.02,1.18,4.69,3.55,5.76,3.28,1.54-.38,13.99-24.19,15.84-27.42,1.13-.71,3.7.77,4.12.47.53-.39,2.17-4.16,1.97-5.08-.07-.34-5.37-3.2-6.02-3.33-6.44-1.26-7.5,8.38-10.97,12.18l-14.94-7.42v.02ZM315.24,36.38c-.94-1.21-1.06.43-1.28.87-3.52,7.06-6.96,9.75-14.56,12.4l-6.22,1.43c1.27.11,2.71-.2,3.95.04,7.03,1.38,14.82,2.42,22.14,3.61,3.21.52,6.82.6,10.08,1.26-1.76-1.62-4.56-2.1-6.68-3.43-3.09-1.95-6.4-6.39-7.15-10.01-.31-1.48-.08-5.92-.27-6.16h-.01ZM142.45,70.19c.23-.4,6.39-3.35,7.89-4.68,5.33-4.72,5.57-11.74,1.49-17.44-8.87-12.38-22.66,1.57-32.11,5.53,1.45,4.22,1.82,6.28,6.6,4.95l15.42,26.61c.9.58,6.1-2.02,6.13-3.71.04-2.4-6.53-9.37-5.42-11.27h0ZM399.22,409.08c2.73-.58,4.7,3.04,6.72,2.16,41.78-31.91,72.71-81.85,77.87-134.88,13.1-134.49-106.17-238.36-237.43-218.43C82.34,82.84,9.67,283.6,136.85,398.98c1.78,1.62,13.24,11.34,14.43,11.35.91,0,3.19-3.57,3.28-4.12.17-1.03-9.83-8.13-11.58-9.69-86.18-76.74-85.95-203.83-1.51-281.67,95.01-87.57,250.95-64.36,313.64,49.23,43.09,78.07,25.91,172.76-39.94,231.83-5.11,4.59-11.18,8.27-15.95,13.16h0ZM266.69,70.28C120.7,78.69,28.67,244.15,122.78,365.23c88.05,113.29,270.76,98.17,333.67-32.24,64.2-133.09-49.32-270.81-189.77-262.72h0ZM159.54,438.51c.99-7.82,4.2-15.34,6.15-22.99.67-2.54-6.15-6.72-7.63-6.48-.18,1.27-2.69,3.68-2.77,4.11-.18,1.03,2.63,2.35,1.77,4.12l-7.97,30c.09.39,6.45,4.12,6.99,4.02,1.84-.36,14.06-14.66,17.55-15.85.81,3.56-5.83,22.49-3.9,23.97.99.76,6.5,3.19,7.56,2.72l21.14-22.43c1.18-1.27,4.24-.08,5.16-.66.4-.25,1.75-4.21.72-5.14-.17-.16-3.87-1.91-4.18-1.98-3.35-.77-6.08,2-8.43,4.12-3.91,3.54-7.15,8.75-11.32,11.97-.62.48-.78,1.19-1.84.91l5.55-23.63c.27-1.88-3.78-4.12-5.23-3.97-2.77.28-15.4,15.54-19.33,17.18h0ZM393.74,450.71c10.41,7.68,28.08-5.43,20.7-17.31-.9-1.44-3.09-3.3-4.66-3.93-5.85-2.33-12.28.65-17.58-.2s-4.19-5.84-.16-8.05c5.19-2.84,5.88,1.57,7.39,1.3.33-.06,5.22-3.64,5.3-3.96.34-1.4-4.98-4.91-6.47-5.15-9.99-1.63-22.69,10.78-14.09,20.22,6.15,6.76,18.71.07,23.01,3.35,4.14,3.16.06,8.52-4.6,8.89-1.7.14-4.79-.74-5.42-.55s-3.88,4.73-3.43,5.39h0ZM168.73,423.18c.57.63,4.04-2.8,4.22-3.49.46-1.76-2.21-3.31-2.99-2.64-.24.2-1.44,5.9-1.23,6.13ZM377.15,422.58c-.52-.47-4.1,1.27-4.72,1.69-2.7,1.78,2.86,1.52,4.11,3.21l.62-4.9h0ZM192.64,429.31c.58-1.85-3.74-2.97-4.28-2.44l-.61,6.13c2.47.02,2.4-3.62,4.9-3.69h0ZM377.22,449.48c-.43-2.19,1.4-3.56,1.71-5.81.75-5.45-2.48-11.68-7.74-13.61-7.7-2.83-18.33,5.53-25.92,7.23.33.85,1.68,5.27,1.92,5.43.97.62,3.45-.62,4.27.46,1.78,3.16,11.13,27.35,12.6,27.77.66.19,5.69-1.83,5.77-2.19.74-3.13-5.27-11.2-4.07-13.1.41-.64,3.54-1.77,4.39-1.8,4.43-.16,9.89,9.81,16.35,8.42.41-.09,3.93-1.59,4.05-1.78.42-.66-.46-4.12-1.13-4.54-.86-.54-2.76-.16-4.16-.74-2.38-.99-5.04-5.32-8.05-5.74h.01ZM214.77,454.39c-2.16-2.54,6.88-13.51.56-16.81-1.08-.56-6.31-2.49-7.05-1.53-2.61,3.41.32,4.93.81,6.58.78,2.62-6.54,23.78-7.59,28.37-.15.66-.57,1.15-.03,1.87.35.46,5.96,1.87,6.49,1.54,1.48-.9,3.62-13.28,4.36-13.76,1.76-1.15,13.65,3.3,16.43,3.65l-3.05,14.87c.19.77,5.99,2.06,6.71,1.56,1.22-.86,5.94-25.51,7.42-28.9.86-1.66,3.24.03,3.99-1.04.44-.63,1.24-5.19.91-5.53-.23-.24-5.86-1.25-6.46-1.26-6.02-.16-6.33,9.78-7.65,14.1-2.02-.4-15.33-3.09-15.86-3.71h0ZM231.26,440.97l-8.58-1.85c.54,1.37-1.08,5.37-.57,6.09.18.26,5.67,1.44,6.31,1.23.47-.15,3.05-5.24,2.84-5.47h0ZM337.36,449.5c.77.55,5.71-1,5.98-2.15.25-1.07-1.81-7.77-3.92-7.62l-24.8,5.54c.23.89,1,5.92,1.23,6.13.14.12,2.75-1.01,3.55.12,2.26,8.02,3.33,17.17,5.94,25.01,1.28,3.85,1.36,5.3,5.97,4.76,2.15-.25,19.26-4.8,19.5-5.79.29-1.16-.74-8-1.65-8.21-.96-.18-5.37.92-5.64,1.36-.43.7.4,2.45-.68,3.3-.55.43-9.96,2.39-10.39,2.08l-1.84-9.11c1.87-.6,10.59-1.98,11.35-3.09.19-.27-.79-5.33-1-5.52-.9-.79-11.07,3.17-12.18,2.38l-2.51-9.75c2.61.17,7.83-2.39,10.02-1.89.86.2.67,2.16,1.07,2.45h0ZM391.86,442.19c-2.86.36-5.25-1.38-7.96-1.84-.67,5.39-1.22,8.45,4.9,9.81-.34-3.11,3-4.87,3.07-7.97h-.01ZM191.84,467.75c1.48-1.89,8.61-11.16,9.23-12.54.36-.79,2.6-9.12,2.58-9.7-.04-1.97-2.65-1.9-3.69-.6-5.24,5.71-10.43,11.73-15.88,17.22-2.54,2.55-4.85,5.54-8.83,5.16-2.31-.21-5.85-3.11-6.73-2.94-.34.07-4.58,3.83-5.34,4.48-31.65,27.12-66.77,22.47-106.3,18.09-10.36-1.15-34.23-6.71-42.86-2.98-10.53,4.55-14.95,23.37-5.57,31.18,19.9,16.57,84.74,12.56,109.61,8.5,16.03-2.62,32.15-5.45,43.3-18,10.47-11.79,20.8-25.55,30.48-37.87h0ZM257,445.26l-7.35-.62-.61,6.13c1.34-.27,5.24.45,6.05-.08.24-.16,1.62-4.57,1.92-5.43h-.01ZM309.7,444.67c-.33-.32-8.8.63-9.19.87-.65.39.45,5.61.66,5.82.81.79,7.55-.91,9.17-.58l-.64-6.1h0ZM280.91,446.48h-6.74c1.27,4.8.75,7.08,6.74,6.14v-6.14ZM281.53,486.94c.08-3.89.87-5.36-2.98-7.14l-8.53-30.09c-.78-2.37-6.65-2.6-8.12-1.7-2.61,1.58-12.64,29.48-15.12,30.26-.78.24-2.35-.1-2.61.13-.2.18-.84,4.99-.58,5.4,9.67,3.15,9.57-1.52,13.41-8.21,4.15-.4,8.53.98,12.79,1.01,1.86,7.57,2.81,11.21,11.73,10.34h0ZM316.47,475.29c-.18-.19-4.6-.11-5.14.08-1.13.4-.82,2.07-1.61,2.68-1.69,1.3-8.2,1.05-10.46.66-1.04-.72-1.49-17.38-1.8-20.27-.23-2.12-.54-6.88-1.36-8.45-2.1-4.07-6.73-1.04-10.29-1.67.22,1.11-.35,4.97.07,5.45.31.36,2.84-.02,3.49,1.72l2.71,27.94c.47,2.12,2.33,3.05,4.43,2.92,3.65-1.39,18.02-.2,19.91-2.82.76-1.05.34-7.94.05-8.24ZM239.84,475.29c1.24-1.2,3.89-1.5,4.85-2.81,1.15-1.56,5.32-11.08,6.21-13.4.34-.88.71-1.79.56-2.76-1.69-.73-6.37-1.24-7.38.38-.57.92-2.79,9.28-3.35,11.21-.62,2.18-.9,5.04-1.51,7.38-.23.87-3.1,4.47-.62,5.52l1.23-5.52h0ZM308.8,470.39c2.37-.6,6.84.44,9.5,0-.58-3.39-.98-7.39-1.9-10.66s-1.48-4.16-5.15-4.1c-.99.02-7.43.6-7.88.75-.52.17-.75.4-.92.92-.34,1.03.52,15.64,1.14,16.16,1.95.63,3.98-2.76,5.2-3.07h0ZM285.07,459.48c-.76-1.33-4.85-1.56-6.31-1.35-2.02.28-.19,1.55.16,2.91.82,3.16,3.32,15.25,5.68,16.38.79.38,1.6.36,2.44.31l-1.21-2.15c-.39-2.51,0-14.76-.76-16.1ZM373.68,462.18c-.21-.12-.57-2.35-.74-.16,1.02,2.09,2.51,4.4,2.41,6.83-.09,2.12-2.19,3.41-1.61,4.58l25.16,32.52c7.92,8.98,13.84,11.04,25.19,14.04,31.63,8.37,89.74,12.36,119.59-1.69,9.12-4.29,11.9-8.72,10.46-19.26-1.84-13.47-11.85-17.42-24.05-16.39-39.32,3.31-91.7,18.48-126.54-7.72-1.95-1.46-10.19-9.82-10.9-10-1.12-.28-3.97,1.94-5.53,2.24-6.3,1.21-8.62-2.14-13.44-5h0Z"/>
        <path class="cls-4" d="M266.69,70.28c140.45-8.09,253.97,129.63,189.77,262.72-62.91,130.41-245.62,145.53-333.67,32.24-94.11-121.09-2.08-286.54,143.9-294.96h0ZM418.85,163.88c-2.01-5.31-6.19-9.55-9.78-13.87l9.11-12.71c-41.24-43.93-101.34-65-161.41-57.94-42.58,5.01-83.64,25.16-113.11,56.1l39.64,52.77c1.5,2.31.14,4.34.11,6.58-.09,7.49-.49,14.92-.59,22.4l-50.6-68.06-1.55.42c-34.27,43.63-46.2,99.14-31.04,152.99,13.16,46.77,50.91,89.92,94.62,110.74,1.67.8,8.45,4.09,9.62,3.7,11.06-13.74,21.26-28.17,32.31-41.91,6.42-7.99,9.37-11.84,15.06-20.5,4.89-7.45,12.09-14.61,17.11-22.15,1.49-3.3-6.35-9.2-6.3-11.81.03-1.22,4.12-12.79,4.92-14.68s1.76-4.82,3.84-5.38c1.99,0,7.82,10.52,9.82,12.27.62.54.78.83,1.73.57,2.19-.6,17.64-24.31,21.29-27.18,3.64-2.21,10.13-.16,14.23-1.09,1.8-.41,2.29-2.2,4.41-2.38s4.87.98,7.06,1.29l-34.87,47.37,63.68,84.77c.43.42.79.13,1.24.02,2.19-.53,10.1-5.01,12.66-6.39,74.65-40.35,113.85-128.95,84.19-210.68-6.19-17.05-15.2-33.57-26.37-47.82-.44-.56-.91.29-1.22.64-2.94,3.37-5.74,8.62-8.54,11.55-.49.51-.41.56-1.27.39v-.02ZM338.53,424.4l-57.3-76.62-57.94,76.93c31.74,10.11,66.06,11.35,98.59,4.19,2.12-.47,16.13-3.81,16.66-4.5h-.01Z"/>
        <path class="cls-4" d="M191.84,467.75c-9.67,12.32-20,26.08-30.48,37.87-11.15,12.55-27.27,15.38-43.3,18-24.87,4.07-89.71,8.08-109.61-8.5-9.38-7.81-4.96-26.63,5.57-31.18,8.63-3.72,32.49,1.84,42.86,2.98,39.53,4.38,74.65,9.03,106.3-18.09.76-.65,5-4.42,5.34-4.48.88-.17,4.42,2.73,6.73,2.94,3.98.37,6.29-2.61,8.83-5.16,5.46-5.49,10.64-11.51,15.88-17.22,1.04-1.31,3.65-1.37,3.69.6,0,.58-2.23,8.91-2.58,9.7-.62,1.37-7.75,10.65-9.23,12.54h0Z"/>
        <path class="cls-4" d="M373.68,462.18c4.82,2.86,7.14,6.21,13.44,5,1.57-.3,4.42-2.52,5.53-2.24.72.18,8.96,8.54,10.9,10,34.85,26.2,87.22,11.03,126.54,7.72,12.2-1.03,22.21,2.93,24.05,16.39,1.44,10.54-1.34,14.96-10.46,19.26-29.85,14.05-87.96,10.05-119.59,1.69-11.35-3-17.27-5.07-25.19-14.04l-25.16-32.52c-.58-1.18,1.51-2.46,1.61-4.58.1-2.43-1.39-4.74-2.41-6.83.17-2.19.53.04.74.16h0Z"/>
        <path class="cls-3" d="M399.22,409.08c4.77-4.89,10.83-8.58,15.95-13.16,65.85-59.07,83.03-153.76,39.94-231.83C392.41,50.5,236.48,27.29,141.47,114.86c-84.45,77.84-84.67,204.93,1.51,281.67,1.75,1.56,11.74,8.66,11.58,9.69-.09.55-2.37,4.13-3.28,4.12-1.19-.01-12.65-9.74-14.43-11.35C9.67,283.6,82.34,82.84,246.38,57.94c131.26-19.93,250.53,83.94,237.43,218.43-5.16,53.03-36.09,102.97-77.87,134.88-2.02.88-3.99-2.74-6.72-2.16h0Z"/>
        <path class="cls-4" d="M440.47,104.59c.28-.38,1.31-.61,1.92-1.42,23.31-31.18,47.67-61.53,71.13-92.59,1.64-1.28,6.97,2.76,8.3,4.04,1.51,1.44,3.46,2.7,1.88,4.96l-80.04,106.94c-.73,1.11-1.58-.32-2.17-.92-1.12-1.12-8.39-9.29-8.49-9.94,1.48-3.09,4.34-5.55,6.31-8.21.6-.81.51-2.01,1.14-2.85h.02Z"/>
        <path class="cls-4" d="M121.27,120.11c-1.34,1.38-3.89,5.35-5.59,3.97L37.18,18.61c-.23-.45-.29-.91-.17-1.41.22-.89,9.46-9.01,11.3-6.61,12.72,17.07,25.64,34,38.64,50.86,12.27,15.9,26.47,32.26,37.89,48.55.59.84,2.28,2.97,2.11,3.84-.08.42-4.88,5.44-5.68,6.27Z"/>
        <path class="cls-3" d="M159.54,438.51c3.92-1.65,16.56-16.9,19.33-17.18,1.45-.15,5.5,2.09,5.23,3.97l-5.55,23.63c1.06.28,1.23-.44,1.84-.91,4.17-3.22,7.41-8.44,11.32-11.97,2.34-2.12,5.08-4.9,8.43-4.12.3.07,4.01,1.83,4.18,1.98,1.03.93-.31,4.88-.72,5.14-.93.58-3.98-.6-5.16.66l-21.14,22.43c-1.06.48-6.57-1.96-7.56-2.72-1.93-1.48,4.71-20.41,3.9-23.97-3.49,1.19-15.72,15.49-17.55,15.85-.54.1-6.9-3.63-6.99-4.02l7.97-30c.86-1.77-1.95-3.08-1.77-4.12.08-.44,2.59-2.85,2.77-4.11,1.48-.25,8.3,3.94,7.63,6.48-1.95,7.66-5.16,15.18-6.15,22.99h0Z"/>
        <path class="cls-3" d="M257.54,7.04c1.37.88,5.58,30.06,8.06,31.5.77.45,2.25.16,2.42.32.2.19.18,5.27,0,5.46-.3.31-6.06.81-7,.63-1.1-.21-1.86-.96-2.44-1.85-2.97-4.51-2.69-15.08-5.54-20.2-1.69,1.89-5.35,17.49-6.24,17.79-1.33.44-4.88.82-6.07.03-3.11-2.08-6.33-11.79-10.07-14.14-1.14,5.85,2.07,15.73.49,21.03-.57,1.91-8.32,3.82-9.11,3.24-.51-.38-1.38-4.16-1.24-4.85.11-.55,2.7-1.07,2.93-3.25-.95-10.45-1.17-20.95-1.6-31.43,2.52-.66,5.17-.98,7.78-.55,4.24,5.61,7.38,13.87,11.87,19.08.55.63.59,1.29,1.73,1.02l6.18-22.33c1.03-1.41,6.89-2.11,7.84-1.49h.01Z"/>
        <path class="cls-3" d="M289.36,5.29c27.51-2.65,30.29,37.27,5.89,40.22-29.65,3.59-32.73-37.64-5.89-40.22ZM289.97,12c-16.14,1.76-15.14,28.02,2.88,26.83,16.66-1.1,14.72-28.74-2.88-26.83Z"/>
        <path class="cls-3" d="M377.22,449.48c3.01.42,5.67,4.75,8.05,5.74,1.4.58,3.31.2,4.16.74.67.43,1.55,3.88,1.13,4.54-.12.19-3.64,1.69-4.05,1.78-6.46,1.38-11.92-8.59-16.35-8.42-.85.03-3.99,1.16-4.39,1.8-1.2,1.9,4.8,9.97,4.07,13.1-.08.35-5.11,2.38-5.77,2.19-1.46-.42-10.82-24.61-12.6-27.77-.83-1.08-3.3.15-4.27-.46-.24-.15-1.59-4.58-1.92-5.43,7.59-1.71,18.22-10.06,25.92-7.23,5.26,1.93,8.49,8.16,7.74,13.61-.31,2.25-2.15,3.62-1.71,5.81h-.01ZM363.5,436.82c-1.05.18-5.09,1.73-5.31,2.67-.11.48,3.21,8.11,3.75,9.01,1.3,2.17,5.62-.54,7.18-1.77,2.74-2.16,3.34-3.77,1.75-7.16-1.48-3.17-4.26-3.29-7.38-2.75h.01Z"/>
        <path class="cls-3" d="M407.19,52.92l14.94,7.42c3.47-3.81,4.53-13.45,10.97-12.18.65.13,5.95,2.99,6.02,3.33.2.92-1.44,4.69-1.97,5.08-.42.3-2.99-1.18-4.12-.47-1.85,3.23-14.3,27.04-15.84,27.42-1.07.27-5.74-2.1-5.76-3.28-.05-3.43,7.66-11.14,6.74-14.01-.29-.91-12.3-6.97-14.31-7.8l-7.11,13.51c-.58.44-6.42-2.42-6.66-3.42-.39-1.65,13.18-23,14.39-26.59,1.39-2.05-1.58-3.28-1.48-4.49.14-1.68,2.14-4.58,4.16-3.8,12.35,4.78,2.56,11.35.04,19.3v-.02Z"/>
        <path class="cls-3" d="M214.77,454.39c.53.62,13.83,3.32,15.86,3.71,1.32-4.33,1.64-14.27,7.65-14.1.6.02,6.23,1.03,6.46,1.26.33.34-.47,4.9-.91,5.53-.75,1.07-3.13-.62-3.99,1.04-1.48,3.39-6.19,28.05-7.42,28.9-.72.5-6.52-.8-6.71-1.56l3.05-14.87c-2.77-.35-14.66-4.8-16.43-3.65-.74.48-2.89,12.86-4.36,13.76-.54.33-6.15-1.08-6.49-1.54-.54-.72-.12-1.21.03-1.87,1.05-4.6,8.37-25.75,7.59-28.37-.49-1.65-3.43-3.17-.81-6.58.74-.96,5.97.97,7.05,1.53,6.32,3.3-2.72,14.28-.56,16.81h0Z"/>
        <path class="cls-3" d="M359.97,16.17c.26.29-.52,4.44-.89,4.9-.89,1.12-3.32-.03-3.91,1.61-3.92,13.14-2.97,30.62-21.79,28.34-6.98-.85-13.79-6.33-13.86-13.73-.04-4.23,4.69-20.29,3.36-22.37-.38-.6-1.75-.7-2.07-1.63-.52-1.49.78-3.51.55-5.11,3.9.71,10.69.17,10.29,5.64-.48,6.51-5.15,17.58-4.75,23.41.46,6.7,9.61,9.33,14.39,5.29,4.63-3.92,4.72-23.18,8.28-26.67,1.59-1.56,9.69-.49,10.4.32h0Z"/>
        <path class="cls-3" d="M337.36,449.5c-.4-.28-.21-2.25-1.07-2.45-2.19-.51-7.41,2.05-10.02,1.89l2.51,9.75c1.11.79,11.28-3.17,12.18-2.38.21.18,1.19,5.25,1,5.52-.77,1.1-9.49,2.48-11.35,3.09l1.84,9.11c.43.31,9.84-1.66,10.39-2.08,1.09-.85.25-2.6.68-3.3.27-.44,4.68-1.54,5.64-1.36.91.21,1.94,7.05,1.65,8.21-.25.99-17.35,5.54-19.5,5.79-4.61.54-4.69-.91-5.97-4.76-2.61-7.83-3.68-16.99-5.94-25.01-.8-1.13-3.42,0-3.55-.12-.23-.21-1-5.24-1.23-6.13l24.8-5.54c2.11-.15,4.17,6.55,3.92,7.62-.27,1.15-5.21,2.7-5.98,2.15h0Z"/>
        <path class="cls-3" d="M281.53,486.94c-8.92.87-9.87-2.77-11.73-10.34-4.26-.03-8.64-1.42-12.79-1.01-3.84,6.69-3.75,11.36-13.41,8.21-.26-.41.37-5.22.58-5.4.26-.23,1.83.11,2.61-.13,2.48-.77,12.51-28.67,15.12-30.26,1.47-.89,7.35-.67,8.12,1.7l8.53,30.09c3.84,1.78,3.05,3.25,2.98,7.14h0ZM268.04,470.38c.37-.36-1.97-9.18-2.41-10.15-.28-.62-1-2.17-1.87-1.49-.47.37-3.83,9.54-4.3,11.03l8.58.61Z"/>
        <path class="cls-3" d="M142.45,70.19c-1.11,1.9,5.47,8.87,5.42,11.27-.03,1.69-5.23,4.29-6.13,3.71l-15.42-26.61c-4.78,1.33-5.15-.73-6.6-4.95,9.45-3.96,23.23-17.91,32.11-5.53,4.08,5.7,3.85,12.71-1.49,17.44-1.5,1.33-7.66,4.29-7.89,4.68h0ZM138.09,65.19c5.39-1.91,12.23-5.68,7.61-12.21-3.99-5.64-9.05-1.57-13.74.88l5.76,9.58.37,1.75h0Z"/>
        <path class="cls-3" d="M393.74,450.71c-.46-.66,2.77-5.2,3.43-5.39s3.72.69,5.42.55c4.66-.37,8.74-5.73,4.6-8.89-4.3-3.28-16.86,3.42-23.01-3.35-8.59-9.45,4.11-21.85,14.09-20.22,1.49.24,6.81,3.75,6.47,5.15-.08.32-4.97,3.9-5.3,3.96-1.51.27-2.21-4.14-7.39-1.3-4.03,2.21-4.96,7.23.16,8.05s11.73-2.13,17.58.2c1.56.62,3.76,2.48,4.66,3.93,7.38,11.88-10.29,24.99-20.7,17.31h0Z"/>
        <path class="cls-3" d="M390.13,36.9c-.49-.83.29-2.64-.2-3.49-.27-.46-6.27-2.27-6.64-1.94l-10.5,29.35c-2.65.64-4.75-1.47-7.29-1.77l11.08-30.28c-.07-.42-6.02-2.51-6.68-2.12-.32.19-.48,1.99-1.7,2.24-1.29.26-3.8-1.27-5.06-1.81-.54-.94,3.06-9.11,5.45-8.26l28.81,11.11c1.42,1.23-.93,8.07-1.84,8.64-.88.39-5.28-1.43-5.42-1.67h0Z"/>
        <path class="cls-3" d="M210.96,14.36c.46,1.56,1.73,3.33,1.32,5.04-.14.57-1.62.9-2.22,1.6-.93,1.09-5.6,16.55-5.61,18.26l4.78,15.14-6.41,2.26c-1.2-.19-4.37-13.49-5.88-15.54-.51-.69-12.49-10.39-13.28-10.8-1.77-.91-4.82-.53-5.08-.75-.18-.15-1.29-4.26-1.23-4.49.37-1.46,6.51-2.46,8.08-2.05,2.71.72,12.12,10.48,13.02,10.27,3.91-7.19,1.31-18.82,12.51-18.95h0Z"/>
        <path class="cls-3" d="M174.9,60.25c.48.42,10.02-2.65,10.31-3.11.84-1.38-1.47-4.9,4.1-4.86,2.73.02,5.05,6.54,3.18,8.47-.66.68-15.51,7.02-17.29,7.55-2.87.85-3.68.42-5.35-2.06-4.87-7.23-6.65-18.42-11.93-25.46-2.98,1.35-6.17-3.75-5.03-5.55.21-.33,6.49-2.97,7.13-3.02,1.32-.12,2.34.45,3.23,1.41,1.57,1.69,6.08,12.79,7.45,15.84,1.55,3.45,3.04,7.21,4.22,10.8h-.02Z"/>
        <path class="cls-3" d="M316.47,475.29c.29.3.71,7.19-.05,8.24-1.89,2.62-16.26,1.43-19.91,2.82-2.1.13-3.96-.8-4.43-2.92l-2.71-27.94c-.65-1.74-3.18-1.36-3.49-1.72-.42-.48.15-4.35-.07-5.45,3.56.62,8.2-2.4,10.29,1.67.81,1.57,1.12,6.33,1.36,8.45.32,2.89.76,19.54,1.8,20.27,2.26.4,8.77.64,10.46-.66.79-.61.48-2.28,1.61-2.68.54-.19,4.96-.26,5.14-.08Z"/>
        <path class="cls-3" d="M309.7,444.67l.64,6.1c-1.63-.33-8.37,1.37-9.17.58-.21-.21-1.31-5.43-.66-5.82.39-.24,8.86-1.19,9.19-.87h0Z"/>
        <path class="cls-3" d="M231.26,440.97c.21.23-2.37,5.31-2.84,5.47-.64.21-6.12-.96-6.31-1.23-.5-.72,1.12-4.72.57-6.09l8.58,1.85h0Z"/>
        <path class="cls-3" d="M257,445.26c-.3.86-1.68,5.27-1.92,5.43-.81.53-4.71-.19-6.05.08l.61-6.13,7.35.62h.01Z"/>
        <path class="cls-3" d="M280.91,446.48v6.14c-5.99.94-5.47-1.34-6.74-6.13h6.74Z"/>
        <path class="cls-3" d="M192.64,429.31c-2.5.07-2.43,3.7-4.9,3.69l.61-6.13c.54-.53,4.86.59,4.28,2.44h0Z"/>
        <path class="cls-3" d="M168.73,423.18c-.21-.23.99-5.93,1.23-6.13.79-.67,3.45.88,2.99,2.64-.18.69-3.65,4.13-4.22,3.49Z"/>
        <path class="cls-3" d="M377.15,422.58l-.62,4.9c-1.24-1.69-6.81-1.43-4.11-3.21.63-.41,4.21-2.16,4.72-1.69h0Z"/>
        <path class="cls-1" d="M289.97,12c17.6-1.91,19.54,25.72,2.88,26.83-18.02,1.19-19.02-25.07-2.88-26.83ZM296.06,18.17c-.47-.31-4.28-1.47-4.96-1.41-7.22.59-9.95,11.4-4.19,15.3,7.55,5.12,14.78-3.17,11.52-10.42-.2-.45-2.15-3.33-2.36-3.46h-.01Z"/>
        <path class="cls-1" d="M363.5,436.82c3.12-.54,5.89-.42,7.38,2.75,1.59,3.39.99,5.01-1.75,7.16-1.57,1.23-5.88,3.94-7.18,1.77-.54-.9-3.86-8.53-3.75-9.01.21-.94,4.26-2.49,5.31-2.67h-.01Z"/>
        <path class="cls-1" d="M268.04,470.38l-8.58-.61c.46-1.49,3.83-10.66,4.3-11.03.87-.68,1.59.87,1.87,1.49.44.97,2.78,9.79,2.41,10.15Z"/>
        <path class="cls-1" d="M138.09,65.19l-.37-1.75-5.76-9.58c4.7-2.46,9.75-6.52,13.74-.88,4.62,6.53-2.22,10.3-7.61,12.21h0Z"/>
        <path class="cls-4" d="M315.85,230.7v46.59c-19.23-.12-45.68,7.2-54.89,25.72-9.98,20.06-9.92,45.35-25.71,63.79-12.55,14.66-39.98,22.33-57.93,14.7-.29-1.59.23-.95.87-1.27,10.46-5.35,12.5-10.47,13.25-22.29,1.54-24.03-.77-50.02.56-74.22.21-3.83.55-9.58,2.58-12.75,4.03-6.29,16.08-7.87,18.23-11.22s-3.8-5.07-6.01-6.71c-10.7-7.91-15.78-15.62-16.64-29.34-1.04-16.67,1.11-35.32,1.28-52.11.08-7.69,1.13-23.04-1.75-29.56s-8.04-5.61-13.92-6.32c-.86-.1-1.77-.35-.9-1.22.22-.22,4.8-2.45,5.52-2.76,11.81-5,28.08-3.4,38.93,3.35,28.3,17.59,30.43,56.82,48.82,81.75,3.46,4.69,12.49,13.9,18.59,13.9h29.12v-.03Z"/>
        <path class="cls-3" d="M320.76,278.52v-45.06c0-1.66,4.14-.31,5.19-.28,17.16.51,39.16-.29,43.58-20.84,11.08-51.53-60.69-34.76-90.17-37.4-14.74-1.32-22.13-17.97-28.71-28.92l-12.64-17.69,110.06-.03c48.3,3.4,82.75,42.37,71.81,91.48-9.81,44.03-57.38,64.49-99.11,58.73h-.01Z"/>
        <path class="cls-4" d="M365.5,206.8c-.41,9.5-5.93,15.9-15.02,18.37,2.47-4.31,6.38-7.91,9.39-12.05.84-1.16,3.81-7.95,5.63-6.32h0Z"/>
        <g>
          <path class="cls-2" d="M223.28,424.71c31.74,10.11,66.06,11.35,98.59,4.19,2.12-.47,16.13-3.81,16.66-4.5l-57.3-76.62-57.94,76.93h0Z"/>
          <path class="cls-2" d="M456.24,199.12c-6.19-17.05-15.2-33.57-26.37-47.82-.44-.56-.91.29-1.22.64-2.94,3.37-5.74,8.62-8.54,11.55-.49.51-.41.56-1.27.39-2.01-5.31-6.19-9.55-9.78-13.87l9.11-12.71c-41.24-43.93-101.34-65-161.41-57.94-42.58,5.01-83.64,25.16-113.11,56.1l39.64,52.77c1.5,2.31.14,4.34.11,6.58-.09,7.49-.49,14.92-.59,22.4l-50.6-68.06-1.55.42c-34.27,43.63-46.2,99.14-31.04,152.99,13.16,46.77,50.91,89.92,94.62,110.74,1.67.8,8.45,4.09,9.62,3.7,11.06-13.74,21.26-28.17,32.31-41.91,6.42-7.99,9.37-11.84,15.06-20.5,4.89-7.45,12.09-14.61,17.11-22.15,1.49-3.3-6.35-9.2-6.3-11.81.03-1.22,4.12-12.79,4.92-14.68.8-1.9,1.76-4.82,3.84-5.38,1.99,0,7.82,10.52,9.82,12.27.62.54.78.83,1.73.57,2.19-.6,17.64-24.31,21.29-27.18,3.64-2.21,10.13-.16,14.23-1.09,1.8-.41,2.29-2.2,4.41-2.38,2.19-.18,4.87.98,7.06,1.29l-34.87,47.37,63.68,84.77c.43.42.79.13,1.24.02,2.19-.53,10.1-5.01,12.66-6.39,74.65-40.35,113.85-128.95,84.19-210.68v-.02ZM315.85,277.29c-19.23-.12-45.68,7.2-54.89,25.72-9.98,20.06-9.92,45.35-25.71,63.79-12.55,14.66-39.98,22.33-57.93,14.7-.29-1.59.23-.95.87-1.27,10.46-5.35,12.5-10.47,13.25-22.29,1.54-24.03-.77-50.02.56-74.22.21-3.83.55-9.58,2.58-12.75,4.03-6.29,16.08-7.87,18.23-11.22s-3.8-5.07-6.01-6.71c-10.7-7.91-15.78-15.62-16.64-29.34-1.04-16.67,1.11-35.32,1.28-52.11.08-7.69,1.13-23.04-1.75-29.56-3.02-6.83-8.04-5.61-13.92-6.32-.86-.1-1.77-.35-.9-1.22.22-.22,4.8-2.45,5.52-2.76,11.81-5,28.08-3.4,38.93,3.35,28.3,17.59,30.43,56.82,48.82,81.75,3.46,4.69,12.49,13.9,18.59,13.9h29.12v46.59-.03ZM419.87,219.78c-9.81,44.03-57.38,64.49-99.11,58.73v-45.06c0-1.66,4.14-.31,5.19-.28,17.16.51,39.16-.29,43.58-20.84,11.08-51.53-60.69-34.76-90.17-37.4-14.74-1.32-22.13-17.97-28.71-28.92l-12.64-17.69,110.06-.03c48.3,3.4,82.75,42.37,71.81,91.48h-.01ZM350.48,225.17c2.47-4.31,6.38-7.91,9.39-12.05.84-1.16,3.81-7.95,5.63-6.32-.41,9.5-5.93,15.9-15.02,18.37h0Z"/>
        </g>
      </g>
    </g>
  </g>
</svg>