<?xml version="1.0" encoding="UTF-8" standalone="no"?>
<!-- Created with Inkscape (http://www.inkscape.org/) -->

<svg
   width="123.96225mm"
   height="156.36971mm"
   viewBox="0 0 123.96225 156.36971"
   version="1.1"
   id="svg1"
   xml:space="preserve"
   xmlns="http://www.w3.org/2000/svg"
   xmlns:svg="http://www.w3.org/2000/svg"><defs
     id="defs1" /><g
     id="layer1"
     transform="translate(-76.263407,-55.543642)"><path
       style="fill:#a59696;fill-opacity:1;stroke:none;stroke-opacity:1"
       d="m 102.72779,199.74225 v -12.17154 h 4.76249 4.7625 v -2.51354 -2.51354 l -5.62239,-0.001 -5.6224,-0.001 -1.227625,-1.12333 c -0.6752,-0.61784 -2.75676,-2.55209 -4.6257,-4.29834 -1.86893,-1.74625 -4.35461,-4.06797 -5.52371,-5.15937 -1.16911,-1.09141 -4.65507,-4.29903 -7.7466,-7.12806 l -5.62095,-5.14368 0.0692,-10.33444 0.0692,-10.33445 12.83229,-0.0733 c 7.05776,-0.0403 13.100185,-0.008 13.427605,0.0712 l 0.59531,0.14452 0.001,6.01423 0.001,6.01422 4.27488,2.77813 c 2.35119,1.52797 4.37463,2.81781 4.49654,2.86632 l 0.22166,0.0882 v -14.57413 -14.57413 l -6.41615,-2.7e-4 -6.416145,-2.7e-4 -2.77812,-1.89885 c -1.52797,-1.04437 -5.87375,-3.97675 -9.65729,-6.5164 -3.78354,-2.53965 -7.44472,-5.02893 -8.13594,-5.53174 l -1.25677,-0.9142 V 93.650206 74.387261 l 2.71198,-2.476498 c 1.49159,-1.362074 2.77151,-2.541864 2.84427,-2.621755 0.0728,-0.07989 3.22791,-2.95097 7.01146,-6.380173 3.78354,-3.429203 7.10598,-6.489227 7.38319,-6.800054 l 0.50402,-0.56514 h 31.776125 31.77611 l 4.23236,3.308292 c 2.3278,1.819561 6.37549,4.955611 8.99485,6.969 l 4.7625,3.660708 0.0688,12.347923 0.0688,12.347922 -13.9594,-0.0685 -13.95938,-0.0685 -0.0707,-6.36883 -0.0707,-6.36883 -1.26373,-1.56867 -1.26372,-1.568669 -20.13544,-0.06779 -20.13543,-0.06779 -0.56073,0.207429 c -0.30841,0.114086 -1.68736,1.037561 -3.06434,2.052167 l -2.5036,1.844737 -0.006,9.20741 -0.006,9.20742 0.42811,0.84675 c 0.23546,0.46572 0.71777,1.23371 1.0718,1.70666 l 0.64368,0.85989 h 3.69071 3.6907 V 101.978 99.993616 h -1.96274 c -1.0795,0 -2.15106,-0.0723 -2.38125,-0.1606 l -0.41851,-0.1606 v -8.969245 -8.969265 l 19.11614,0.06789 19.11615,0.06789 0.0696,9.061979 0.0696,9.061971 h -3.17848 -3.17847 v 1.984384 1.98437 l 10.12031,0.003 10.12031,0.003 3.43959,2.94143 c 1.89177,1.61778 3.74104,3.19391 4.10949,3.5025 0.36846,0.30859 1.44002,1.22132 2.38125,2.02829 0.94124,0.80696 2.08228,1.75946 2.53564,2.11667 0.45337,0.3572 2.20954,1.81982 3.90261,3.25027 l 3.0783,2.60081 0.003,0.57419 c 0.002,0.3158 3.5e-4,9.06811 -0.003,19.44959 l -0.007,18.8754 -2.17755,2.02668 c -1.19765,1.11467 -4.2907,4.05074 -6.87343,6.52459 -2.58273,2.47386 -7.09807,6.78987 -10.03409,9.59115 l -5.33821,5.09323 h -7.48081 -7.48082 l -0.13794,0.2232 c -0.0759,0.12276 -0.0652,1.25386 0.0237,2.51354 l 0.16163,2.29034 h 15.96394 15.96393 l 0.0702,-7.60677 0.0702,-7.60677 h 14.1552 14.1552 v 19.71146 19.71145 l -48.74946,0.0668 -48.74948,0.0669 z m 92.80299,-6.74758 c 0.0366,-7.56708 -4.7e-4,-14.26435 -0.0824,-14.88281 l -0.1489,-1.12448 h -9.37649 -9.3765 v 7.67291 7.67292 h -20.76872 -20.76872 l -0.0672,-31.81614 -0.0672,-31.81615 -8.92969,-0.0697 -8.92969,-0.0697 v 31.87984 31.87984 l -4.82864,0.0721 -4.82865,0.0721 -0.0704,7.21067 -0.0704,7.21068 44.12353,-0.0669 44.12351,-0.0669 z m -83.33994,-15.34775 0.33492,-0.11699 -0.0703,-7.34699 -0.0703,-7.34699 -1.85208,-1.21632 c -3.90533,-2.56476 -7.50123,-4.97002 -9.85573,-6.59239 l -2.447405,-1.68639 v -4.7132 -4.71319 h -8.73124 -8.73125 v 6.84782 6.84781 l 3.24115,2.87137 c 1.78263,1.57926 4.25317,3.83086 5.4901,5.00356 1.23693,1.17271 2.97629,2.78196 3.86526,3.57613 0.88897,0.79416 3.38928,3.11081 5.55625,5.1481 l 3.939945,3.70417 4.49792,-0.0748 c 2.47385,-0.0411 4.64863,-0.1274 4.83284,-0.19174 z m 46.04522,-4.82673 c 2.85727,-2.72851 6.80943,-6.50875 8.7826,-8.40052 1.97317,-1.89177 4.4479,-4.25797 5.4994,-5.25821 l 1.91181,-1.81864 v -17.41419 -17.41419 l -4.0349,-3.34464 c -2.21919,-1.83955 -5.03829,-4.19806 -6.26467,-5.24113 -1.22637,-1.04307 -3.12282,-2.64064 -4.21432,-3.55014 l -1.98455,-1.65365 h -27.67259 -27.6726 l -2.44277,-3.16589 -2.442765,-3.16591 V 91.187198 79.981318 l 1.65364,-1.210467 c 0.909505,-0.665757 2.891445,-2.116109 4.404315,-3.223006 l 2.75067,-2.012539 h 22.66503 22.66503 l 2.29654,3.108854 2.29654,3.108854 0.003,4.832074 0.003,4.832075 9.19427,-0.06958 9.19427,-0.06957 -0.0142,-2.844271 c -0.008,-1.564349 -0.0376,-5.515372 -0.0661,-8.780052 l -0.052,-5.935782 -2.8021,-2.200155 c -1.54116,-1.210086 -3.79606,-2.926202 -5.01089,-3.813593 -1.21483,-0.88739 -2.90068,-2.204617 -3.74633,-2.927171 -0.84566,-0.722554 -1.95427,-1.603851 -2.46359,-1.958438 l -0.92605,-0.644703 -29.88377,0.08279 -29.883795,0.08279 -1.38406,1.240129 c -0.76123,0.68207 -3.54222,3.204659 -6.17996,5.605753 -2.63774,2.401093 -5.95034,5.385767 -7.36132,6.632608 l -2.56543,2.266984 -0.068,17.200494 -0.068,17.200494 2.05243,1.4159 c 1.12883,0.77874 3.5407,2.40485 5.35971,3.61357 3.1402,2.08664 4.28172,2.86337 8.97343,6.10575 l 2.006775,1.38686 24.69857,0.002 24.69856,0.002 1.75977,0.96011 c 0.96787,0.52806 2.56344,1.42628 3.54571,1.99605 l 1.78593,1.03593 -0.0197,14.20969 -0.0197,14.20968 -2.03084,1.74251 c -1.11696,0.95838 -3.22146,2.70112 -4.67667,3.87275 -1.45521,1.17163 -3.05614,2.56039 -3.55763,3.08613 l -0.9118,0.9559 h -3.25539 -3.25539 v 6.35 6.35 h 6.76809 6.76808 z m -9.66921,-16.25031 4.16719,-3.72465 V 141.36167 129.8781 l -1.65365,-1.0491 -1.65365,-1.04909 -4.81303,-0.003 -4.81303,-0.003 -0.12565,0.20331 c -0.0691,0.11181 -0.0576,7.43416 0.0256,16.27187 l 0.15125,16.06857 2.27389,-0.012 2.27388,-0.012 z m -13.61968,-56.898364 0.0725,-4.42317 2.9702,-0.0748 2.97021,-0.0747 V 90.468639 85.838431 H 126.2757 111.59133 v 4.630208 4.630207 l 2.71198,0.0754 2.71197,0.0754 v 4.31228 4.312274 l 0.1799,0.17989 0.1799,0.1799 8.74979,-0.0696 8.74979,-0.0697 z"
       id="path12" /><path
       style="fill:#d10a2d;stroke:#d10a2d;stroke-opacity:1"
       d="m 107.55218,199.6754 0.0704,-7.2099 1.19062,-0.0188 c 0.65485,-0.0103 2.79797,-0.0401 4.7625,-0.0661 l 3.57188,-0.0473 v -31.81622 -31.81616 l 8.79739,-0.0697 8.7974,-0.0697 v 31.86039 31.8604 l 2.71198,0.17219 2.71198,0.1722 18.25625,-0.0806 18.25625,-0.0806 v -7.67291 -7.67292 h 9.26041 9.26041 l 0.0684,14.88281 0.0683,14.88281 h -43.92728 -43.92729 z m -8.073975,-25.00313 c -1.7804,-1.70987 -5.3533,-5.07338 -7.93979,-7.47447 -4.25934,-3.95405 -5.9685,-5.49857 -9.36765,-8.46528 l -1.11014,-0.9689 -0.0805,-6.85843 -0.0805,-6.85843 8.65912,-0.0698 8.65912,-0.0697 0.0721,4.79633 0.0721,4.79634 2.381255,1.68628 c 2.73008,1.93332 6.48778,4.4541 9.45544,6.343 l 2.0471,1.30297 0.003,7.47448 0.003,7.47448 h -4.76874 -4.76875 z m 40.145435,2.77214 c -0.0711,-0.18519 -0.0971,-3.01293 -0.0579,-6.28385 l 0.0714,-5.94714 2.98388,0.0972 2.98387,0.0972 2.04321,-1.82574 c 1.12376,-1.00416 2.57899,-2.23458 3.23383,-2.73428 0.65485,-0.49971 2.41102,-1.96857 3.90261,-3.26414 l 2.71198,-2.35559 v -13.97232 -13.97232 l -0.37097,-0.37096 c -0.20402,-0.20403 -1.7956,-1.16503 -3.53684,-2.13556 l -3.16588,-1.76461 h -24.73022 -24.73019 l -2.755345,-1.90326 c -1.51543,-1.0468 -4.06502,-2.76769 -5.66575,-3.82422 -1.60073,-1.05653 -4.54753,-3.06601 -6.54844,-4.46552 l -3.63802,-2.54457 4e-5,-16.980684 3e-5,-16.980695 3.5057,-3.108595 c 5.01602,-4.447843 7.57707,-6.758006 11.11411,-10.02536 l 3.110515,-2.873336 h 29.91646 29.91646 l 3.25099,2.579688 c 1.78805,1.418828 5.11127,4.008437 7.38495,5.754687 l 4.13395,3.175 0.003,8.800869 0.003,8.800868 -9.06198,-0.06962 -9.06198,-0.06962 0.0765,-4.630208 0.0765,-4.630208 -2.0149,-2.778125 c -1.1082,-1.527969 -2.26471,-3.046016 -2.57002,-3.373437 l -0.55511,-0.595313 h -22.41327 -22.41289 l -2.213,1.598044 c -1.21716,0.878924 -3.25283,2.33744 -4.52372,3.241146 l -2.310705,1.643101 -0.004,11.378962 -0.004,11.378966 1.49444,1.9825 c 0.821945,1.09037 1.901485,2.48851 2.398965,3.10696 l 0.90452,1.12448 27.69739,0.003 27.69739,0.003 4.38309,3.76734 c 2.4107,2.07204 4.85148,4.11754 5.42396,4.54555 1.35023,1.00951 4.17968,3.40805 5.59242,4.74075 l 1.11197,1.04896 -0.0913,17.35354 -0.0914,17.35354 -2.19006,1.98438 c -3.14095,2.84596 -14.28295,13.49811 -16.81224,16.0731 l -2.14441,2.18315 h -6.66129 -6.66129 z m -14.97527,-73.41565 -7.31588,-0.0747 -0.1251,-1.25263 c -0.0688,-0.68895 -0.0858,-2.38356 -0.0378,-3.765814 0.048,-1.38225 0.0211,-2.77706 -0.0599,-3.09959 l -0.14718,-0.58641 -2.55333,-0.0754 -2.55333,-0.0754 -0.0722,-4.696355 -0.0722,-4.696354 h 14.55819 14.55819 v 4.7625 4.762499 h -3.04271 -3.04271 v 4.49792 4.497924 l -1.38906,-0.0618 c -0.76399,-0.034 -4.68121,-0.0954 -8.70494,-0.13643 z"
       id="path10" /></g></svg>
