<?xml version="1.0" encoding="UTF-8"?>
<svg id="Layer_2" data-name="Layer 2" xmlns="http://www.w3.org/2000/svg" viewBox="0 0 496.11 624.83">
  <defs>
    <style>
      .cls-1 {
        fill: #262122;
      }

      .cls-2 {
        fill: #847349;
      }

      .cls-3 {
        fill: #fcfcfc;
      }

      .cls-4 {
        fill: #07683a;
      }
    </style>
  </defs>
  <g id="Layer_1-2" data-name="Layer 1">
    <path class="cls-1" d="M382.1,76.47l-6.96,15.95,107.41.17-.22,165.39-.25,93.26c-.03,11.83-2.48,22.99-5.09,34.44-9.32,40.95-28.11,79.03-54.47,111.72-44.29,54.95-106.3,89.55-173.2,109.37-34.52-10.43-66.58-24.02-97.15-43.08-22.48-14.08-43.16-30.74-61.35-50.1-33.6-35.76-57.32-79.57-68.44-127.35-2.81-12.08-4.63-23.76-5.41-36.15l.2-138.96.1-119.05,103.79.1-6.56-15.87-21.25-52.2,56.58,22.93,13.52-30.27,38.42,21.49L247.67,0l45.09,38.38,37.77-20.06,14.17,28.27,62.02-25.49-24.61,55.38ZM345.36,120.36l31.56-69.17-36.31,13.23-16.16-24.89-31.7,18.81-44.86-41.13-46.1,40.34-32.37-20.94-14.21,26.27-32.18-11.88,25.38,69.26,196.94.1ZM349.06,282.79l-6.37,6c-1.46,1.37-3.87,2.17-5.89,1.62-3.36-.91-6.65-1.91-9.69-3.58-8.27-4.54-14.96-18.44-18.23-27.29l-11.16-2.66c.82,3.2,1.49,5.99,1.52,8.96.05,4.76-3.24,7.54-7.61,7.83-7.19.48-13.12-3.25-15.14-10.69-5.77,4.85-7.76,12.08-3.26,18.07,1.88,2.49,4.48,4.83,7.21,6.67l16.88-1.28c9.1,5.57,22.21,16.99,18.46,29.13l9.85,8.5c.19.16.73.43.88.52s.12-.72.07-.9l-2.83-11.55c13.55,3,27.96,7.49,41.7,7.43-1.58-16.03-3.6-34.67-10.58-49.28l16.11-3.49c4.65,15.07,9.77,29.18,11.62,44.53,3.83.03,15.26.02,16.67,4.4s-7.41,11.54-10.03,12.65c-11.51,4.85-22.99,8.86-34.91,12.45-3.61,1.09-6.98,1.77-10.89,1.73l-102.1-1.12-129.38-1.91c-16.93-16.58-23.23-40.96-16.11-63.69,6.18-19.72,18.4-35.02,33.01-49.5-8.08-30.85,3.28-62.88,21.44-88.68l-10.68-.35-7.24-17.53-90.19-.05-.13,134.33.09,96.65c.01,13.21,3.08,25.81,6.36,38.46,10.68,41.16,32.13,78.56,61.59,109.2,37.96,39.48,87.02,65.18,139.27,80.84,48.57-14.45,94.2-37.39,131.25-72.41,31.84-30.09,55.38-67.71,67.98-109.66,4.51-15.04,7.57-30.09,8.73-45.81l.16-136.72.07-94.5-94.98-.09-7.87,17.59-75.43-.02c-6.46,20.56-9.04,41.47-6.71,62.78,3.19-4.37,7.01-7.44,11.77-9.61,11.33-4.89,24.72-4.28,36.73-2,2.17,6.47,4.05,12.31,9.94,16.36-9.81,9.09-19.63,23.69-13.33,36.59,3.42-15.47,14.27-23.32,29.63-21.27.17-4.42.85-8.51,2.36-12.46,2.88-7.53,10.81-10.63,17.97-7.48-1.05,9-.9,24.44,8.68,28.14.11,5.86-4.05,9.15-9.33,9.5s-9.28-2.27-14.21-2.99c-3.55-.52-16.35,4.39-16.23,10.08,6.85.35,26.81-.2,31.16,4.26,2.37,2.43-2.79,7.5-9.48,7.34l-24.94-.61c-.86-.02-2.3.88-2.9,1.38-2.71,2.23,2.1,8.03,4.74,9.28,3.81,1.79,21.2,9.05,13.92,15.91ZM202.36,243.27c-3.34-21.2-3.73-41.36-.64-61.79,2.5-15.51,6.9-29.84,14.74-43.89l-10.27-.1c-9.96,24.75-21.66,65.03-13.35,90.67,1.87,5.76,4.7,11.36,9.52,15.1ZM265.13,243.67c-8.78-5.76-15.78-11.98-21.48-20.08-8.73-12.15-12.53-26.61-11.09-41.54,1.72-16.48,8.22-30.2,16.93-44.36l-5.72-.18c-7.79,12.49-19.86,34.75-19.9,49.43-.03,8.85,1.74,17.38,4.02,25.82,4.85,17.9,16.99,32.41,37.24,30.9ZM123.22,324.17l161.58.02-147.21-80.4c-21.65,21.53-34.5,52.79-14.36,80.38Z"/>
    <path class="cls-4" d="M114.51,76.31l6.56,15.87-103.79-.1-.1,119.05-.2,138.96c.78,12.39,2.6,24.08,5.41,36.15,11.12,47.77,34.84,91.59,68.44,127.35,18.18,19.35,38.86,36.02,61.35,50.1,30.57,19.06,62.64,32.66,97.15,43.08,66.9-19.82,128.91-54.43,173.2-109.37,26.36-32.7,45.15-70.77,54.47-111.72,2.6-11.45,5.06-22.61,5.09-34.44l.25-93.26.22-165.39-107.41-.17,6.96-15.95,114.01.26-.46,275.56c-.02,14.77-3.6,29.55-7.18,43.76-12.2,48.52-37.07,92.74-71.18,129.21-15.93,17.03-33.72,32-52.88,45.22-35.87,24.58-75.46,42.02-116.95,54.34-41.73-12.66-80.24-29.67-116.03-54.15-60.36-41.17-105.62-102.01-123.82-173.16-3.55-13.86-7.38-28.4-7.39-42.89l-.22-278.45,114.51.12Z"/>
    <path class="cls-3" d="M349.06,282.79c7.28-6.86-10.11-14.12-13.92-15.91-2.63-1.24-7.44-7.05-4.74-9.28.6-.5,2.04-1.4,2.9-1.38l24.94.61c6.69.16,11.85-4.91,9.48-7.34-4.35-4.46-24.31-3.91-31.16-4.26-.12-5.69,12.68-10.6,16.23-10.08,4.92.71,9.15,3.32,14.21,2.99s9.44-3.64,9.33-9.5c-9.57-3.7-9.72-19.13-8.68-28.14-7.16-3.15-15.1-.05-17.97,7.48-1.51,3.96-2.19,8.05-2.36,12.46-15.36-2.05-26.21,5.8-29.63,21.27-6.3-12.9,3.52-27.5,13.33-36.59-5.89-4.05-7.77-9.89-9.94-16.36-12-2.28-25.4-2.89-36.73,2-4.77,2.17-8.58,5.24-11.77,9.61-2.33-21.31.25-42.22,6.71-62.78l75.43.02,7.87-17.59,94.98.09-.07,94.5-.16,136.72c-1.15,15.72-4.21,30.77-8.73,45.81-12.59,41.95-36.14,79.56-67.98,109.66-37.05,35.02-82.68,57.95-131.25,72.41-52.25-15.67-101.31-41.36-139.27-80.84-29.46-30.64-50.91-68.03-61.59-109.2-3.28-12.65-6.35-25.25-6.36-38.46l-.09-96.65.13-134.33,90.19.05,7.24,17.53,10.68.35c-18.16,25.8-29.53,57.83-21.44,88.68-14.61,14.48-26.83,29.78-33.01,49.5-7.12,22.73-.82,47.12,16.11,63.69l129.38,1.91,102.1,1.12c3.91.04,7.28-.64,10.89-1.73,11.92-3.59,23.4-7.6,34.91-12.45,2.63-1.11,11.48-8.16,10.03-12.65s-12.84-4.37-16.67-4.4c-1.85-15.35-6.97-29.46-11.62-44.53l-16.11,3.49c6.98,14.61,8.99,33.26,10.58,49.28-13.74.06-28.15-4.43-41.7-7.43l2.83,11.55c.04.18.08.99-.07.9s-.69-.36-.88-.52l-9.85-8.5c3.75-12.14-9.36-23.56-18.46-29.13l-16.88,1.28c-2.72-1.84-5.33-4.18-7.21-6.67-4.5-5.99-2.51-13.22,3.26-18.07,2.01,7.44,7.95,11.18,15.14,10.69,4.38-.3,7.66-3.08,7.61-7.83-.03-2.96-.7-5.75-1.52-8.96l11.16,2.66c3.27,8.85,9.96,22.75,18.23,27.29,3.04,1.67,6.33,2.67,9.69,3.58,2.02.55,4.43-.25,5.89-1.62l6.37-6ZM373.91,167.22l9.94,11.99c.73-10.96-3.11-30.14-17.53-27.56-5.57.99-10.93,2.23-16.45,3.58-4.75,1.16-9.3.77-13.64-1.55s-8.58-4.99-12.86-7.64c-6.07-3.77-12.91-4.55-19.39-1.44-9.37,4.5-16.8,12.16-23.89,19.95,10.97,8.4,28.84,4.23,40.07,2.97l26.69-2.98c4.14-2.04,8.39-3.38,12.96-3.61,5.59-.19,10.47,1.92,14.1,6.29ZM344.57,174.13c0-1.94-.34-4.13-1.34-5.64-8.99-.07-17.1,1.71-25.84,4.03.41,2.63,1.58,5.21,3.1,7.33,2.79,3.88,6.95,4.22,11.33,3.22,2.95-.68,12.78.18,12.75-8.94ZM153.58,517.82l-27.07-131.72,27.22-36.28-27.71-.17-20.11,23.36-.15-23.63-26.26-.05-.06,89.29,16.08,21.48,3.66-42.2,6.58-7.28,14.08,79.15,33.74,28.06ZM183.45,536.59l.2-187.12-20.75-.02-.11,128.08-.08,46.81,20.73,12.24ZM265.37,556.74l.21-207.21h-27.8s-.46,54.91-.46,54.91l-13.75-54.95h-31.34s-.23,190.77-.23,190.77l28.27,11.5.49-94.14,19.79,101.3c13.73,3.3,11.2,1.67,24.82-2.17ZM318.51,461.09l-.05,55-18.68,10.47.17-155.49,20.12-.02.03,31.87,24.79.02.11-53.32-70.35-.07-.23,204.88c3.74-.26,6.94-1.3,10.38-2.4,21.09-8.46,40.39-20.01,60-31.81l.1-86.28-37.92-.06-.04,27.12,11.58.09ZM408.49,454.95c3.99-5.49,7.44-10.62,10.49-16.46l-.02-23.88-43.16-29.81.02-12.12,18.55.03.08,17.2h25.29s0-38.97,0-38.97l-67.28-.06-.04,53.1,41.4,26.8v9.68s-17.03,23.8-17.03,23.8l-.19-27.95h-24.21s-.02,76.42-.02,76.42c20.44-18.14,39.28-36.39,56.09-57.78Z"/>
    <path class="cls-2" d="M345.36,120.36l-196.94-.1-25.38-69.26,32.18,11.88,14.21-26.27,32.37,20.94,46.1-40.34,44.86,41.13,31.7-18.81,16.16,24.89,36.31-13.23-31.56,69.17ZM241.85,73.31c-8.51,1.79-13.25,9.94-11.53,17.83s9.6,12.95,17.35,11.44c8.26-1.61,13.46-9.44,11.9-17.51s-9.26-13.54-17.71-11.77ZM173.28,85.1c-4.31,1.38-6.01,5.9-4.89,9.39,1.37,4.27,5.6,6.14,9.47,4.99,4.08-1.21,6.15-5.44,5.04-9.32s-5.33-6.45-9.62-5.07ZM312.4,85.08c-4.5,1.07-6.66,5.56-5.5,9.5s5.09,6.09,8.94,5.21c4.15-.95,6.64-5.02,5.68-9.1-.91-3.87-4.74-6.65-9.12-5.6Z"/>
    <path class="cls-2" d="M123.22,324.17c-20.13-27.59-7.29-58.85,14.36-80.38l147.21,80.4-161.58-.02ZM143.97,282.15c-2.9-7.96-3.73-11.57.16-18.69-2.68,1.34-5.14,2.99-6.96,5.28-1.95,2.46-1.95,5.72,0,8.15,1.83,2.28,4.17,4.11,6.8,5.27ZM175.99,299.43c-3.02-7.46-3.95-12.19.16-18.7-2.8,1.2-5.4,2.94-7.23,5.38s-1.77,5.48.05,7.87,4.43,4.27,7.02,5.45ZM138.12,314.25c-2.82-7.4-4.23-11.02-.36-18.81-2.92,1.13-5.25,3.01-6.98,5.38-4.15,5.69,2.98,10.97,7.34,13.43ZM191.76,314.19c-3.13-7.08-4.14-12.17-.25-18.72-2.95,1.08-5.49,2.97-7.25,5.53-3.97,5.77,3.31,11.06,7.5,13.2ZM230.36,315.12c-5.22-6.06-7.66-9.45-6.45-17.58-2.36,1.95-4.13,4.59-4.93,7.57-1.79,6.7,6.75,9.24,11.38,10.01Z"/>
    <path class="cls-3" d="M265.13,243.67c-20.24,1.5-32.38-13.01-37.24-30.9-2.29-8.44-4.05-16.98-4.02-25.82.04-14.68,12.11-36.94,19.9-49.43l5.72.18c-8.72,14.16-15.21,27.88-16.93,44.36-1.43,14.93,2.36,29.39,11.09,41.54,5.71,8.1,12.7,14.33,21.48,20.08Z"/>
    <path class="cls-3" d="M202.36,243.27c-4.82-3.74-7.66-9.33-9.52-15.1-8.31-25.64,3.39-65.92,13.35-90.67l10.27.1c-7.84,14.05-12.24,28.38-14.74,43.89-3.1,20.43-2.7,40.59.64,61.79Z"/>
    <path class="cls-1" d="M265.37,556.74c-13.63,3.84-11.09,5.47-24.82,2.17l-19.79-101.3-.49,94.14-28.27-11.5.23-190.78h31.34s13.75,54.96,13.75,54.96l.46-54.91h27.8s-.21,207.22-.21,207.22Z"/>
    <path class="cls-1" d="M318.51,461.09l-11.58-.09.04-27.12,37.92.06-.1,86.28c-19.61,11.8-38.9,23.35-60,31.81-3.43,1.1-6.63,2.14-10.38,2.4l.23-204.88,70.35.07-.11,53.32-24.79-.02-.03-31.87-20.12.02-.17,155.49,18.68-10.47.05-55Z"/>
    <path class="cls-1" d="M408.49,454.95c-16.81,21.39-35.65,39.65-56.09,57.78l.02-76.42h24.21s.19,27.95.19,27.95l17.04-23.8v-9.68s-41.41-26.8-41.41-26.8l.04-53.1,67.28.06v38.97s-25.3,0-25.3,0l-.08-17.2-18.55-.03-.02,12.12,43.16,29.81.02,23.88c-3.05,5.84-6.49,10.97-10.49,16.46Z"/>
    <polygon class="cls-1" points="153.58 517.82 119.84 489.77 105.76 410.61 99.17 417.89 95.52 460.09 79.44 438.61 79.49 349.32 105.76 349.36 105.9 373 126.01 349.64 153.73 349.82 126.51 386.1 153.58 517.82"/>
    <polygon class="cls-1" points="183.45 536.59 162.72 524.35 162.8 477.53 162.9 349.45 183.65 349.47 183.45 536.59"/>
    <path class="cls-1" d="M373.91,167.22c-3.63-4.37-8.51-6.48-14.1-6.29-4.57.23-8.82,1.56-12.96,3.61l-26.69,2.98c-11.22,1.25-29.1,5.43-40.07-2.97,7.09-7.78,14.52-15.45,23.89-19.95,6.48-3.11,13.32-2.33,19.39,1.44,4.27,2.65,8.43,5.28,12.86,7.64s8.89,2.71,13.64,1.55c5.52-1.35,10.88-2.59,16.45-3.58,14.42-2.57,18.26,16.6,17.53,27.56l-9.94-11.99Z"/>
    <path class="cls-1" d="M344.57,174.13c.04,9.11-9.8,8.26-12.75,8.94-4.38,1.01-8.54.66-11.33-3.22-1.52-2.12-2.69-4.7-3.1-7.33,8.74-2.32,16.85-4.1,25.84-4.03,1,1.5,1.33,3.69,1.34,5.64Z"/>
    <path class="cls-1" d="M241.85,73.31c8.46-1.77,16.18,3.81,17.71,11.77s-3.64,15.9-11.9,17.51c-7.75,1.51-15.63-3.51-17.35-11.44s3.02-16.05,11.53-17.83Z"/>
    <path class="cls-1" d="M312.4,85.08c4.38-1.04,8.21,1.73,9.12,5.6.96,4.08-1.53,8.15-5.68,9.1-3.85.88-7.8-1.35-8.94-5.21s1-8.43,5.5-9.5Z"/>
    <path class="cls-1" d="M173.28,85.1c4.29-1.38,8.48,1.08,9.62,5.07s-.96,8.1-5.04,9.32-8.1-.72-9.47-4.99c-1.12-3.49.58-8.01,4.89-9.39Z"/>
    <path class="cls-1" d="M143.97,282.15c-2.63-1.15-4.97-2.99-6.8-5.27-1.95-2.43-1.96-5.69,0-8.15,1.82-2.29,4.28-3.94,6.96-5.28-3.89,7.13-3.06,10.73-.16,18.69Z"/>
    <path class="cls-1" d="M138.12,314.25c-4.36-2.46-11.49-7.75-7.34-13.43,1.73-2.37,4.07-4.25,6.98-5.38-3.87,7.79-2.47,11.42.36,18.81Z"/>
    <path class="cls-1" d="M191.76,314.19c-4.19-2.13-11.47-7.42-7.5-13.2,1.76-2.56,4.3-4.45,7.25-5.53-3.89,6.55-2.88,11.64.25,18.72Z"/>
    <path class="cls-1" d="M230.36,315.12c-4.64-.76-13.17-3.31-11.38-10.01.8-2.98,2.57-5.62,4.93-7.57-1.2,8.13,1.23,11.51,6.45,17.58Z"/>
    <path class="cls-1" d="M175.99,299.43c-2.59-1.18-5.18-3.02-7.02-5.45s-1.86-5.46-.05-7.87,4.43-4.18,7.23-5.38c-4.11,6.52-3.18,11.25-.16,18.7Z"/>
  </g>
</svg>