<?xml version="1.0" encoding="UTF-8"?>
<svg id="Layer_2" data-name="Layer 2" xmlns="http://www.w3.org/2000/svg" viewBox="0 0 500 428.66">
  <defs>
    <style>
      .cls-1 {
        fill: #b3b7bc;
      }

      .cls-2 {
        fill: #f47e32;
      }

      .cls-3 {
        fill: #fbfbfc;
      }

      .cls-4 {
        fill: #1e3361;
      }

      .cls-5 {
        fill: #d6d7d8;
      }
    </style>
  </defs>
  <g id="Layer_1-2" data-name="Layer 1">
    <path class="cls-4" d="M430.66,259.18l7.49-.06,19.47-.13-3.32,5.92c8.59-2.76,19.93-2.06,28.62-.27l17.07,3.52-5.32,8.95,4.72,1.11-17.07,28.37-10.64-.79c.02,3.23-.33,5.78-.64,8.71-.25,2.3.18,4.63-.19,6.95-.85,5.32-3.01,10.36-6.56,14.45-10.13,11.65-31.12,14.78-45.71,14.81l-16.92.04,1.05-3.27c-10.07-.14-19.75.08-29.48.85l-13.23,1.04-6.49.58c-53.41,34.14-121.7,38.08-178.76,10.52l-4.92,1.09c-1.1.24-2.14.26-3.19.44l.54-1.63c-3.45.43-6.75,1.49-10.08,2.23l-30.01,6.62,4.43-10.79-3.83.74,5.35-12.91c.09-.38-.65-1.02-1.07-1.07-4.29,2.1-8.41,3.8-12.81,5.39l-10.03,19.61-27.42,7.46c-3.25,5.47-7.18,10.13-11.73,14.54-12.4,12.07-31.54,23.14-47.82,28.78l-22.16,7.68,3.07-10.73-2.47.63,15.08-51.67c7.36-3.02,14.28-6.22,21-10,2.79-1.57,4.79-3.77,5.08-7.04l-.91-12.21c-.42-5.61.04-10.84.19-16.35.22-7.85,1.35-15.07,4.83-22.15s7.83-13.75,13.07-19.86c4.45-5.2,8.91-10.31,14.55-13.91l3.31-2.11c-.97-1.57-1.64-3.2-1.25-5.11.28-1.37.73-3.05,1.48-4.2.68-1.04,1.47-1.89,2.23-2.94-16.57-51.51-9.75-108.27,19.05-154.16l-1.29-3.67c-1.04-2.97-1.95-5.81-2.83-8.57l-7.91-24.81c-1.89-5.93.37-12.11,5.3-15.75,4.63-3.42,10.3-5.07,16.09-4.6,7.89.65,16.3,2.01,23.38,5.07,2.1,1.15,4.17,2.38,6.04,3.88.78.63,1.31,1.68,2.1,2.4,73.76-59.44,180.85-53.12,247.19,14.67,33.9,34.64,52.99,81.38,52.57,130.1-.19,21.68-3.98,43.17-11.69,63.54l3.4.04ZM253,40.85l8.53,6.01-3.33-9.92,8.17-6.24-10.27.07-3.41-9.78-3.14,9.84-10.39.22,8.45,6-2.95,9.86,8.33-6.06ZM316.13,53.36l5.28,8.82,1.02-10.3,10.06-2.35-9.44-4.16.85-10.27-6.89,7.69-9.5-4.01,5.22,8.91-6.78,7.82,10.18-2.15ZM190.29,55.11l10.13,1.92-7.02-7.64,4.92-9.03-9.36,4.27-7.13-7.62,1.22,10.38-9.44,4.4,10.22,2.07,1.35,10.25,5.12-9.01ZM141.17,61.72c-1.87-5.63-3.06-9.81-8.19-13.11-6.87-4.42-15.93-5.53-23.95-6.5-5.89-.72-11.9.62-16.5,4.51,10.52-2.49,22.01-1.32,31.75,2.8,6.1,2.58,12.54,7.22,13.72,14.18l3.17-1.88ZM91.29,67.06l44.98-2.74c-.63-6.39-7.15-10.96-12.59-13.23-8.84-3.69-18.57-4.92-28.04-3.25-2.11.37-4.79,1.02-6.05,2.72-1.79,2.42-1.69,6-.82,8.71l2.51,7.78ZM155.45,112.57c.72,2.54,1.62,5.21,3.16,7.29l1.66,3.04c10.2-2.84,20.45-4.6,31.05-4.38,3.26.07,6.37.42,9.18,1.75s4.21,4.14,3.32,7.19c-1.74,5.49-7.36,10.31-11.72,14.27,14.25,4.04,26.89,5.97,41.59,5.7,4.57-.08,8.93-.16,13.4-.71,9.98-1.21,18.46-.61,28.32.35,10.27-10.32,27.97-14.33,41.87-11.57,7.64-2.41,16.77-1.47,24.57.37l15.09-6.93,6.68-2.82c.82-.34,1.93-.52,2.94-1.11-15.36-24.66-38.4-43.66-65.63-53.89-28.61-10.74-60.24-11.16-89.15-1.21-22.41,7.72-42.18,21.34-57.52,39.37l1.19,3.28ZM140.13,74.05l3.81-.31-2.43-10.68-2.76,1.59,1.38,9.4ZM128.01,80.1l8.99-5.23-1.38-9.23-43.9,2.68,3.13,9.68,33.15,2.1ZM374.95,91.77l10.14,1.93-6.93-7.64,4.96-8.97-9.43,4.18-6.98-7.47,1.09,10.21-9.49,4.39,10.23,2.1,1.27,10.27,5.14-9ZM147.29,92.46l-2.66-15.48-3.92.3,3.16,15.2,3.43-.02ZM104.3,106.64l36.45-13.43-3.16-14.98-35.85,20.81,2.55,7.6ZM122.83,83.06l-26.88-1.74,4.78,14.61,22.1-12.87ZM148.43,97.92l-.46-2.19-3.23.02.54,2.2,3.16-.03ZM142.18,99.06l-.68-2.7-36.28,13.36,3.94,12.04,33.02-22.7ZM151.77,110.27l-2.58-9.06-3.04.02,3.03,10.34,2.59-1.3ZM145.95,112.15l-2.89-9.82-15.16,10.47,18.05-.66ZM156.98,122.95c-1.69-3.31-2.85-6.18-4.13-9.61l-2.58,1.35c1.39,3.69,2.76,6.87,4.63,10.3l2.08-2.03ZM110.89,126l37.3-7.71-1.14-2.94-24.29.94-12.32,8.47c-.31.21-.06,1.33.45,1.23ZM414.65,126.67c.79-1.83,1.3-3.9.86-5.95-1.08-5.07-9.54-4.44-13.41-3.86-7.51,1.14-14.76,3.12-21.89,5.51,11.09.04,24.1.04,34.44,4.29ZM199.82,121.53c-2.77-1.09-5.34-1.47-8.23-1.54-10.28-.23-20.32,1.38-30.46,4.23,3.08,4.17,6.7,7.71,10.62,11.18l11.78,3.83c5.67-4.9,13.12-10.89,16.3-17.71ZM113.69,135.47l38.38-8.9-2.6-5.25-37.9,7.83,2.11,6.32ZM190.37,141.23c3.7-3.23,16.3-13.75,10.9-18.63-1.63,3.15-3.77,5.77-6.15,8.38l-9.6,8.81,4.85,1.44ZM413.29,129.76c-.04.08,0,.33-.08.37l-.5.18c-2.9-1.42-5.89-2.49-9.16-3.3-10.3-2.18-20.49-2.37-31.04-2.04-9.38,3.5-18.41,7.34-27.53,11.75l5.37,2.21c-.26-.74-.56-1.54-.43-2.12.56-2.46,8.58-3.1,10.89-3.22,8.46-.44,16.76.34,25.04,1.82l3.02-1.03,5.47,1.71-2.94,1.05c2.53,1.26,5.04,2.66,6.49,5.03-.4-.13-1.12-.31-1.51-.36-.81-1.84-5.32-4-7.38-4.69l2.38-1.04c-1.09-.73-2.92.73-4.06.56l2.6-1.08c-.4-.15-1.12-.21-1.61-.06l-2.59.78c-8.79-1.63-17.56-2.36-26.48-1.73-1.86.13-7.84.84-8.49,2.51-.95,2.45,10.33,5.72,12.48,6.55l-3.2,1.2c.73.91,3.55-1.03,4.73-.73l-3.07,1.26c.4.16,1.04.23,1.42.1l2.91-1,5.65,1.75-.73.49c-1.5-.3-2.86-.74-4.58-1.21-1.12-.31-2.94,1.38-5.26.86,2.92,2.94,1.07,1.85,4.82,2.91-1.14,1.23-2.85,1.85-4.15,2.85-4.42-1.41-9.31-2.23-14.04-1.53-1.24.18-1.85-.14-2.98-.27-6.18-.69-12.31-.08-18.53.88-11,1.7-21.5,4.83-31.69,9.29-5.71,2.5-10.92,5.57-16.25,8.72-2.23,1.32-4.21,2.84-6.18,4.43-1.29,1.04-1.69,2.39-2.17,3.86-.91,2.82-1.46,5.43-.91,8.46.1.53.2,1.38.53,1.66.37.31,1.45.47,2,.29,7.79-2.55,11.95-6.35,19.95-8.91.19-.06.7,0,.82.13.14.16.2.62.12.84-2.54,6.6-4.54,13.86-4.46,21.09,1.42-.78,2.55-1.96,4.2-1.92,1.46.04,2.95,1.12,4.01,1.99-1.52,1.91-2.57,3.62-2.02,5.93l3.27.75c-.34-10.53.25-21.57,4.02-31.5.3-.8.92-1.4,1.72-1.72,13.76-5.55,28.8-8.93,43.53-8.08-.2.48-.64.97-1.04,1.29-14.45-.69-28.92,2.16-42.06,8.49-3.23,10.08-5.43,21.14-4.76,31.69l5.63,1.09c.02-7.52.31-14.78,1.61-22.15.55-3.14,1.27-6.04,2.61-8.86,9.62-3.9,19.59-5.89,29.72-6.45l4.5.06-1.36,1.78c-10.88-.48-21.88,1.73-31.85,6.3-.43,1.03-.69,1.9-.85,2.77,5.31-4.06,11.78-4.23,15.96,1.16,3.22,4.16,9.29,10.17,15.06,8.11s6.2-6.58,7.8-5.17c.3.26.24,1.02-.07,1.43-2.32,3.05-5.29,5.39-9.21,5.99.61,4.74.44,8.95-1.79,13.14l4.14,1.93c.33.15.56.98.43,1.3s-.97.58-1.34.37c-7.55-4.23-16.67-4.79-23.39,1.24-.24.21-1.04.16-1.27-.03-1.84-1.47,5.85-5.24,7.35-5.52-4.69-6.04-3.54-16.25.05-22.55-3.53-3.87-9.02-2.84-12.65.19-.27.23-1,.14-1.54.04-1.8,8.34-2.38,17.47-2.5,26.21,0,.25-.04.58-.12.71-.09.17-.64.3-.92.26l-10.51-1.6c2.35,6.78,2.36,13.22-.02,19.65-.55,1.49-1.27,2.7-2.25,4.15,6.7,6.54,16.02,13.24,25.31,14.03-.03.62-.03,1.24-.18,1.8-4.89-.37-9.48-2.23-13.89-4.77-8.51,5.04-23.47,2.6-31.68-2.14-2.14-1.4-3.67-3.06-4.39-5.7l-9.33,2.87c1.69-2.84,1.78-6.14.01-8.8,1.51-.74,3.23-1.13,5.06-1.68.22-6.58,2.68-9.43,4.84-15.37-3.35-1.98-6.38-3.71-9.84-5.36-6.84-3.27-13.54-6.46-20.72-9.07-12.3-4.48-24.84-7.61-37.63-10.17-1.93-.39-3.71-.53-5.64-.7,2.42,4.28,1.4,10.72-1.84,13.85-1.91,1.84-4.49,2.51-6.92,3.96,17.71,3.1,37.73,7.21,54.3,13.57,5.29,2.03,15.15,6.39,18.16,10.98l-.49.52c1.26,1.84,1.59,4.37.58,6.45l-1.11,2.27-5.65,1.67c1.64-2.9,1.76-6.22-.13-8.71-.01-.1.33-.55.56-.62l5.32-1.5c-7.29-8.21-28.15-14.1-38.66-16.84-11.44-2.98-22.81-5.19-34.48-7.19l-4.23,1.81c18.1,3.13,50.41,9.79,65.49,19.33,2.23,1.41,4.5,2.9,5.76,5.03l-.47.45c1.36,1.85,1.59,4.17.79,6.35l-1.19,2.36-13.72,4.26,37.67,13.33,43.64-5.25.47,7.2-.94.3h-2.76s1.8-3.65,1.8-3.65l-37.67,4.56c.57,1.53,0,2.9-1.15,3.81-1.63,1.04-3.47.29-5.43.48-2.68-.68-5.18-1.61-7.94-2.76l-3.84.26-.12-.78c-17.73,1.63-35.39,5.72-53.13,5.82h-2.21s-31.55,4.25-31.55,4.25l-6.58,12.02c-2.71-4.81-8.95-7.25-14.28-7.72-11.79-1.06-26.39,2.18-37.82,5.89l5.42-12.47-5.11.2c-5.76.22-11.51-.17-17.36-.9-4.48-.56-8.7-1.56-12.85-2.95-1.35-.45-2.69-1.51-4.13-2.08-6.06,3.77-11.14,8.46-15.86,13.75-10.01,11.21-19.69,26.69-18.67,42.35l.98,15.05c.3,4.64.31,9.09-.39,13.62-.57,3.72-2.51,6.65-5.77,8.57-6.65,3.93-13.59,7.09-20.84,10.16l-12.52,42.92,13.29-4.59c20.21-6.98,47.97-23.7,58.52-43.07l27.35-7.47,10.01-19.56c12.42-4.01,23.49-10.32,33.6-18.83l-15.06,34.94,32.09-7.11c7.15-17.39,15.06-34.18,23.76-50.73l7.76-.91c-8.71,17.16-16.58,34.01-24.11,51.84l31.98-6.04,11.77-24.79,12.72-25.1,14.4-1.43c-9.03,17.24-17.12,34.36-24.88,52.3l31.94-4.84,12.48-25.55c5.56-1.1,11-1.7,16.93-1.86l-12.57,28.38,24.15-2.74c.28-.03.61.63.48.48l-.4.81c-.08.16.33.17.71.14l17.92-1.63,13.25-1.13c.05-.16.15-.5.19-.58l4.81-9.06.69-1.2.21-.36.21-.37c.28-.5.34,5.61.33,6.24-.05,2.92-.3,5.83-.08,8.73l26.65-6.44c.35-.08.48.46.45.52l-1.46,3.11-.43.91-.23.49s.27.15.46.25c17.46-1.87,34.73-2.62,52.4-2.03l-.81,2.49-.14.43c-.04.12.27.21.43.21l6-.05c11.56-.1,22.16-.65,33.08-4.88,3.78-1.46,7.17-3.35,10.3-5.85,5.88-4.69,9.54-13.03,8.97-20.53l-.94-12.46-.07-.88c-.02-.23.58-.68.82-.66l13.06.86,12.98-21.6c.14-.24.5-.79.3-.85l-1.05-.29c-.11-.03-.31-.07-.45-.1l-12.58-2.47c-5.26-1.03-10.48-1.19-15.84-.69-7.55.7-14.19,3.96-20.12,8.44l7.16-12.6-.6-.08-37.03.23c3.53-7.14,6.42-14.23,8.76-21.76l.13-.42.12-.42.12-.42.12-.4.12-.41.16-.51c2.47-8.08,4.38-18.47,5.17-26.28.02-.16.56-.56.59-.59.05-.06.19-.23.14-.17s-.6-.31-.57-.63c1.13-14.41.3-30.5-5.55-44.64-3.86-9.35-10.08-17.92-19.33-22.2.12-.27.35-.67.61-.96,3.46-3.96,6.83-7.93,9.3-12.46,3.83,1.17,2.13,5.42,3.03,4.5,1.2-1.22.36-3.78-2.45-5.28l.99-2.27c-9.62-4.25-24.83-4.36-35.3-4.25-1.34.01-2.54.23-3.69.76,10.55-.04,20.59.11,30.75,2.78,2.65.7,4.98,1.76,7.25,2.98ZM169.87,137.19c-4.61-4.23-8.59-7.97-12.01-13.23l-2.77,2.73c3.07,5.17,6.91,9.45,12.14,12.42l2.64-1.92ZM417.56,131.28c.74-1.64-.14-3.25-1.79-3.98-.27-.11-.49-.27-.57-.14-.14.21-.34.48-.25.6.07.09.4.34.55.38,2.11.63,1.33,4.78,2.07,3.14ZM145.6,147.09c4.02,1.89,7.49,3.91,10.88,6.58,2.18-5.09,5.2-9.44,9.36-13.31-5.29-3.15-9.21-7.61-12.33-12.82l-39.38,9.12.9,2.93c2.65-.96,5.13-1,7.85-.3,7.79,2,15.26,4.39,22.72,7.79ZM96.58,149.85l10.59-5.94-1.72-.14-3.4-9.65-3.11,9.87-10.27.25,7.92,5.61ZM291.94,139.94c-.09.04-.23.17-.3.25h-.26s-.27.25-.27.25c-.11.08-.33.21-.46.25-13.24,5-24.21,20.24-24.68,34.61-.98.4-2.41.83-2.88,1.74-.67,1.32.4,2.6,1.67,2.97.58.17,1.32.46,1.44.87.63,2.18-2.26,1.82-1.64,6.1.82,5.73,2.02,11.24,3.47,16.84.15.57.98.98,1.51.81l-.15-2.6c1.03-.99,2.58-2.5,4.16-2.15,2.28.5,1.5,5.16,3.42,4.69l-1.43-12.18c-1.33.22-2.77.43-3.97.22l-1.44-3.37c-1.31.02-2.33-.68-2.48-1.98-.59-4.91.02-9.85,2.21-14.31l4.13-3.42c4.01-3.32,8.6-5.72,13.38-8.19,12.6-6.51,25.81-11.2,39.92-13.67-6.76-5.98-16.42-7.5-24.89-5.75-.13-.28.22-1.27.59-1.34,9.01-1.71,18.72-1.02,26.89,3.52.7.39,2.01.23,2.6-.15l2.16-1.41-8.48-2.62.86-.99c7.71,1.4,14.99,3.88,21.86,7.74l7.64.9c-3.38-3.05-7.21-5.26-11.41-7.03-7.8-3.28-20.25-5.48-28.3-2.15-8.4-1.86-16.92-1.51-24.84,1.56ZM172.51,141.08l2.03-2.02-3.97-1.37-2.37,1.95,4.31,1.43ZM152.45,159.27c1.65-.67,3.07-1.46,4.61-2.59-7.24-7.79-25.46-13.55-35.65-15.95-2.57-.61-5.01-.04-7.27,1.23l-25.4,14.31c-2.77,1.56-4.81,3.88-6.2,6.78,6.12,4.49,19.15,4.77,26.45,4.42,13.3-.64,31.13-3.22,43.45-8.21ZM160.82,161.13c1.99-7.35,5.55-13.41,10.46-18.82l-4.52-1.46c-4.21,3.88-7.43,8.33-9.53,13.54,2.55,2.57,3.51,3.43,3.6,6.74ZM169.91,178.53c-.17-13.89,5.11-26.68,14.9-36.15l-2.25-.76c-10.33,9.57-15.65,22.18-14.43,36.29.52.39,1.28.7,1.78.62ZM360.33,143.56c-1.65-.65-2.98-1.16-4.68-1.54l2.89,2.08c.4.29,1.55-.3,1.8-.54ZM178.68,182.64c-1.06-14.68,4.25-27.89,14.64-37.86l-5.96-1.74c-10.46,9.43-15.76,22.49-15.33,36.71l6.66,2.89ZM183.01,184.52c-1-14.8,4.7-28.66,15.71-38.35l-2.75-.8c-11,9.63-16.67,23.79-15.03,38.35.77.34,1.42.61,2.07.79ZM252.8,161.77c.3-5.54,1.04-9.26,5.05-13.58-4.82-.05-10.35.11-14.61,2.05-2.87,1.39-4.69,4.1-4.64,7.27l14.2,4.26ZM264.05,166.42l2.71-6.99c.69-4.38,3.21-7.72,6.87-10.4l-11.77-.79c-2.43,1.16-4.11,3.04-5.27,5.44-1.23,2.8-1.75,5.93-1.5,8.94l8.96,3.8ZM261.42,180.07c-1.35-.95-1.59-2.66-.41-3.8l1.13-1.1,1.24-6.59c-8.72-4.22-17.62-7.11-26.99-9.38-.32-3.46.78-6.85,3.48-9.4-10.32.52-20.08.09-29.97-1.43-11.85,9.75-17.96,23.25-15.97,38.64,8.78.94,17.2,2.66,25.67,4.99,16.96,4.68,33.06,11.28,48.71,19.75.54-1.48.94-3.01,1.31-4.65-1-.07-2.59.05-2.94-1.15-1.52-5.16-2.82-10.3-3.89-15.6-1.26-6.22.77-8.79-1.36-10.3ZM90.73,172.65c4.83.68,9.44.84,14.4.71,15.37-.41,30.5-2.77,45.29-6.8,2.83-.77,7.99-2.35,8.6-5.29.26-1.26-.17-2.47-.85-3.32-4.23,3.14-12.47,5.59-17.66,6.77-14.74,3.36-45.59,8.21-58.66-.1-2.43,4.52,6.01,7.62,8.89,8.03ZM154.25,171.47l5.24,2.46c-.04-3.75.25-7.09.86-11.24-1.24,2.28-3.4,3.5-6.06,4.37-.09,1.45-.1,3-.04,4.41ZM153.23,170.97l.1-3.51-4.62,1.41,4.53,2.1ZM135.23,171.83l-7.3,1.21-3.25.51c-2.7,17.15-2.08,34.44,1.9,51.25,1.08-.33,1.99-.67,2.89-1.19,2.19-.57,4.26-1.62,6.6-2.41l33.42-11.4c6.46-2.2,25.91-9.25,22.5-18.51-13.18-5.59-25.84-11.66-38.8-17.53l-8.61-3.9-9.35,1.97ZM286.31,218.03c-2.93-.85-5.97-6.51-7.23-8.93-.19-.36.24-1.18.6-1.25.33-.06.97.23,1.14.55,1.4,2.66,2.8,5.01,4.83,7.16-.89-3.46-.7-6.68-.38-10.19-.2-.69-.61-1.69-.52-2.58.68-7.15,2.34-13.88,4.68-20.7-5.62,1.33-9.99,4.82-10.07,10.84-.04,3.7.61,7.25,1.75,10.8s-5.42,4.53-4.44,6.02l9.2,14.11c.55-2.01.72-3.97.43-5.82ZM334.7,206.56c2.34-3.42,2.52-8.53,1.81-12.55-5.59-.87-8.95-4.45-12.67-8.49-.6,1.13-1.07,2.25-1.43,3.42,5.57,3.96,6.93,10.38,6.56,16.7l5.74.93ZM323.23,192.66c-1.98.06-2.1,6.4,0,6.54s2.07-6.6,0-6.54ZM275.48,237.57c1.64,1.63,4.61,1.54,6.72.93,4.29-1.23,7.91-4.24,9.97-8.17,3.24-6.19,2.05-14.19.4-20.68-.74-2.89-.94-5.99,1.65-7.98-1.54-1.28-3.91-1.12-5.16.59-2.94,3.99-3.38,8.97-1.61,13.56.76,1.97,1.29,4.1,1.08,6.21-.56,5.66-5.41,12.19-11.94,11.54-.89.71-2.24,2.88-1.1,4.01ZM269.75,228.2c-1.08-2.01-1.19-3.78-.42-5.58l3.52-8.18c1.55-3.6,3.96-9.77.86-12.99-.81-.33-2.27.36-2.75,1.04,1.52,6.57-2.31,14.11-4.95,20.03-1.64,3.68-1.91,7.83,0,11.45.64-2.43,1.84-4.14,3.75-5.77ZM99,219.79l10.15,1.92-7.03-7.62,4.92-9.05-9.4,4.29-7.1-7.53,1.19,10.3-9.33,4.44,10.14,2.06,1.33,10.22,5.14-9.02ZM226.8,238.88l22.79-6.03c-4.86-5.14-12.85-8.24-19.15-10.72l-18.67-5.74c-11.32-2.89-22.57-5.27-34.13-7.11l-16.66,6.25c13.08,2.98,25.52,5.98,38,10.03,9.11,3.11,20.66,6.9,27.86,13.39l-.49.79c.87,1.01,1.39,2.12,1.57,3.44.2,1.53,2.44.26-1.11-4.3ZM280.01,218.25l-4.21-6.39-1.41,2.97,5.61,3.41ZM217.91,241.15l7.74-2.04c-6.24-5.67-19.13-10.19-27.13-12.77-12.97-4.2-26.02-7.38-39.34-10.26l-5.82,2.13c12.61,2.89,24.86,5.85,37.09,9.85,8.55,2.79,20.82,7.15,27.46,13.09ZM275.35,220.6c-.52-1.06-1.21-1.89-2.21-2.85-1.22,2.89-2.52,5.5-2.34,8.75,2.85-.77,5.99-2.96,4.55-5.9ZM133.8,260.79l23.49-5.05,59.51-14.33c-2.9-2.63-6.14-4.25-9.51-5.96-6.23-2.85-12.45-5.12-19.03-7.19-12.09-3.81-24.19-6.79-36.69-9.52l-32.22,11.12c-11,3.8-21,9.66-30.69,15.94,10.49,2.45,20.54,5.05,30.52,8.62,4.97,1.77,9.66,3.71,14.19,6.22l-.22.69c-.12.38,5.01,1.82,2.1,8.36-.08.19-.04.6,0,.75.41,1.41,4.47-6.45-1.44-9.65ZM289.06,245.97c2.83.51,9.82-.28,12.84-2.21l-4.05-2.77c-3.3,1.05-6.51,1.98-9.85,2.07-4.49.12-8.95-1.04-12.6-3.72-1.32-.97-1.91-2.17-1.45-3.83.51-1.86,1.66-3.31,3.21-4.83-3.15-1.88-5.82-2.35-8.32.69-1.21,1.48-1.13,2.67-.57,4.35s.98,3.26,2.43,4.43c1.24.99,2.62,1.91,4.17,2.54,4.57,1.87,9.36,3.07,14.18,3.29ZM296.55,240.05l-5.87-5.23c-1.98,1.73-4.16,3.2-6.45,4.51-1.31.55-2.48.96-3.77,1.34,5.33,1.83,10.79,1.19,16.09-.61ZM157.36,267.03l-7.52,1.49c-1.08.21-2.16.14-3.58.56l4,5.49,4.22.43c3.69.38,7.1,2.02,10.37,4.12.47-.48.63-1.39,1.03-2.01,1.29-2,2.41-4.03,3.71-6.32l40.9-5.52,2.43-.03,41.17-4.48-28.66-11.25-6.71,1.86c3.63-6.29-.78-11.14-.96-9.35-.03.3,2.68,3.18,1.07,6.89l-1.22,2.83-33.26,9.02-26.99,6.25ZM276.59,264.42c.21-1.22-1.45-2.24-2.62-2.66l-48.72-17.2c-1.26-.45-2.68.04-3.34,1.16.34.42.97.83,1.61,1.07l45.89,17.87c1.74.68,6.88,1.52,7.19-.24ZM121.71,262.82l-.35.98c2.74,1.19,3.04,4.66,1.61,6.85-.12.18-.2.66-.2.81s.52.23.61.12l.31-.42c1.94-3.05.95-6.15-1.67-8.29l10.03-1.9c-4.99-2.73-9.74-4.54-14.86-6.31-9.71-3.36-19.43-5.86-29.42-8.14-.8.55-1.52,1.11-2.23,1.74,13.42,2.54,25.14,7.01,36.16,14.58ZM120.45,263.15c-10.43-7.46-23.7-12.1-36.01-14.19-3.04,2.54-6.37,5.36-7.64,8.92-.37,1.82.17,3.45,1.78,4.44,11.12,6.87,29.49,3,41.88.84ZM127.43,276.72l-4.3-1.88-1.3,3.13,5.6-1.26ZM269.75,325.17c.14-.64.28-.96.11-.94l-.74.06c-.9.08-1.79.03-2.01,1.11l2.64-.23ZM292.35,365.19l1.13-10.34,10.19-2.24-9.56-4.24.79-8.12-2.02.16-4.75,5.33-9.51-4.11,5.17,8.99-6.77,7.72,10.08-2.06,5.25,8.91ZM221.53,355.9l1.35,10.37,5.06-9.18,10.16,1.82-7.03-7.53,4.37-8.11c-.85.03-1.8.04-2.33.29l-6.55,3.04-1.7-1.78-4.65.75.49,3.85-9.42,4.51,10.26,1.97Z"/>
    <path class="cls-2" d="M438.15,259.11l-7.49.06c25.16-69.36,8.17-146.52-44.52-198.38C318.23-6.04,211.09-11.12,137.09,48.41c-1.87-1.5-3.94-2.73-6.04-3.88C164.1,16.69,206.7,1.04,250.06.05c32.32-.74,64.14,6.41,92.86,21.08,32.96,16.83,60.42,42.68,79.26,74.52,29.33,49.58,34.72,109.28,15.97,163.46Z"/>
    <path class="cls-2" d="M373.22,348.33c-34,26.74-77.12,40.91-120.52,40.46-33.75-.35-66.62-9.36-95.6-26.2,3.32-.73,6.63-1.8,10.08-2.23l-.54,1.63c1.05-.17,2.09-.19,3.19-.44,60.48,30.77,134.21,26.26,190.16-12.18l13.23-1.04Z"/>
    <path class="cls-2" d="M97.02,93.17c-18.95,29-29.17,63.29-29.72,98.08-.34,21.31,2.79,42.69,9.73,62.7-.75,1.15-1.2,2.83-1.48,4.2-.39,1.91.28,3.54,1.25,5.11l-3.31,2.11c-8.98-23.69-13.62-48.61-13.21-74.11.61-38.19,12.41-75.29,33.91-106.65.88,2.76,1.78,5.6,2.83,8.57Z"/>
    <path class="cls-3" d="M390.9,141.2h1.29s4.2.6,4.2.6c.39.06,1.11.23,1.51.36,1.65.53,3.34,1.06,4.91,1.79,9.25,4.28,15.46,12.85,19.33,22.2,5.85,14.14,6.68,30.23,5.55,44.64-.02.32.52.7.57.63s-.09.1-.14.17c-.03.03-.57.43-.59.59-.79,7.81-2.7,18.2-5.17,26.28l-.16.51-.12.41-.12.4-.12.42-.12.42-.13.42c-2.34,7.53-5.24,14.61-8.76,21.76l37.03-.23.6.08-7.16,12.6c5.93-4.48,12.57-7.73,20.12-8.44,5.36-.5,10.58-.34,15.84.69l12.58,2.47c.15.03.34.07.45.1l1.05.29c.2.06-.16.61-.3.85l-12.98,21.6-13.06-.86c-.24-.02-.84.43-.82.66l.07.88.94,12.46c.57,7.51-3.1,15.85-8.97,20.53-3.14,2.5-6.53,4.39-10.3,5.85-10.92,4.23-21.52,4.78-33.08,4.88l-6,.05c-.15,0-.46-.09-.43-.21l.14-.43.81-2.49c-17.68-.59-34.94.15-52.4,2.03-.19-.1-.48-.26-.46-.25l.23-.49.43-.91,1.46-3.11c.03-.06-.1-.6-.45-.52l-26.65,6.44c-.22-2.91.03-5.81.08-8.73.01-.63-.04-6.74-.33-6.24l-.21.37-.21.36-.69,1.2-4.81,9.06c-.04.08-.14.42-.19.58l-13.25,1.13-17.92,1.63c-.37.03-.78.02-.71-.14l.4-.81c.13.15-.2-.51-.48-.48l-24.15,2.74,12.57-28.38c-5.93.16-11.37.76-16.93,1.86l-12.48,25.55-31.94,4.84c7.75-17.94,15.84-35.06,24.88-52.3l-14.4,1.43-12.72,25.1-11.77,24.79-31.98,6.04c7.53-17.83,15.41-34.68,24.11-51.84l-7.76.91c-8.7,16.55-16.61,33.34-23.76,50.73l-32.09,7.11,15.06-34.94c-10.1,8.52-21.18,14.82-33.6,18.83l-10.01,19.56-27.35,7.47c-10.56,19.37-38.31,36.09-58.52,43.07l-13.29,4.59,12.52-42.92c7.25-3.07,14.19-6.23,20.84-10.16,3.26-1.93,5.2-4.86,5.77-8.57.7-4.53.7-8.98.39-13.62l-.98-15.05c-1.02-15.66,8.66-31.14,18.67-42.35,4.72-5.29,9.81-9.98,15.86-13.75,1.45.57,2.78,1.63,4.13,2.08-5.98,3.82-11.29,8.37-16.09,13.77-5.5,6.19-10.16,12.77-13.77,20.21-8.88,18.29-1.07,30.81-3.79,49.5-.66,4.57-3.12,8.24-7.09,10.63-6.39,3.85-13.08,6.88-20,9.89l-9.93,34.05c10.8-3.55,20.76-8.14,30.3-13.93,7-4.4,13.57-9.11,19.48-14.85,14.65-13.74,20.67-32.28,20.13-52.13l-.61-22.23c-.06-2.19,1.91-3.83,3.23-5.25,5.89-4.49,13.12-5.51,20.26-7.03l8.08-18.76,5.11-.2-5.42,12.47c11.43-3.71,26.02-6.94,37.82-5.89,5.32.48,11.56,2.91,14.28,7.72l6.58-12.02,31.55-4.23h2.21c17.74-.11,35.4-4.2,53.13-5.84l.12.78,3.84-.26c2.76,1.15,5.25,2.08,7.94,2.76l-16.58,1.67-8.44,16.77,5.73-.1c-9.02,16.86-17.24,33.69-25.02,51.47l21.35-3.16,12.65-25.47c7.19-1.59,14.29-2.22,21.84-2.45l8.81-17.47-21.77,1.98,3.59-7.26,24.79-2.5,9.75-17.64-31.25,3.67c1.15-.91,1.72-2.28,1.15-3.81l37.67-4.56-1.8,3.66h2.76s1,.1,1,.1l.33,3.36-8.24.25c-12.77,21.8-24.04,44.25-34.17,67.8l21.29-2.32c7.5-17.14,15.57-33.84,24.75-49.89.97,2.68,1.99,5.8,3.36,8.28-8.67,13.85-16.56,28.13-24.64,42.8l21.21-1.79,8.94-16.3c3.32,2.17,4.85,5.68,5.29,9.56l.05,8.5,22.02-5.29c-.67-6.69-2.06-11.94-6.04-17.09l5.16.29c2.51,4.09,4.06,8.42,4.96,13.57l8.29-17.06.79-.53c-2.94.82-5.59,1.62-8.6,2.03-14.72,2.01-26.24-6.01-33.2-18.43-3.26-5.82-5.56-12-6.78-18.44l-1.07-5.65c-.05-.24-.7-.45-.81-.37-.46-.95-.76-2.19-.98-3.29.56-.07,1.06-.16,1.28-.31l-.61-7.64-1.94.16c-.14-1.54-.74-3.26-.34-4.76l2.23.13c.06-.65.13-1.34.14-1.91l.09-4.71.26,2.87.18,2.05.09,1.84c13.26,1.14,20.4-.07,32.01-6.21.86.74,1.71,1.29,2.68,1.65l7.87,2.86-4.94,9.29c-1.04-.13-2.36-.07-3.43-.06.06,0-.44-.23-.59-.23h-6.9c-.14,0-.62.22-.56.23l-8.31.51-11.39.25.28-1.98c.02-.17-.31-.72-.43-.62s-.44.44-.47.61l-.34,2.07-4.27.06.7,3.5,3.16.03c-.08,1.09-.08,2.37-.02,3.46l-2.16.2,2.47,6.92.48-.15c1.15,5.33,4.02,9.75,7.8,13.53,2.49,2.49,4.62,5.55,8.03,7.21l6.91-12.11c2.46-.17,4.82.08,7.24.62.47.3.98.6,1.23.85.29.29.24,1.29.19,1.76-1.79,5.5-7.73,8.39-12.72,10.7,6.89,3.63,14.51,4.7,22.1,3.33,4.12-3.31,7.68-7.04,10.63-11.44,3.67-5.47,5.33-12.36-.69-16.88-6.5-4.89-17.26-5.32-25.01-5.42-.72-.89-1.16-2.28-1.31-3.45,1.95.4,3.77.03,5.5.06,4.33.07,8.65.64,12.99,1.63,5.14,1.18,10.42,3.63,13.86,7.91l1.3-2.53c1.64-1.09,2.98-2.57,4.05-4.37.33-.56.73-.99,1.34-1.25-.66,2.3-1.78,4.57-2.91,6.59-.09.16-.15.78.02.77s.57-.1.72-.2l1.38-.94-6.61,13.52,5.44.21-4.61,8.56-1.71,1.64c13.01-7.38,23.44-21.33,29.99-34.7,7.56-15.44,11.77-32.29,12.35-49.5.57-16.97-3.32-37.22-15.93-49.37-10.95-10.55-26.2-11.81-39.75-5.51-.08.04-.21.24-.14.25.08,0,.39.03.47.06l4.59,1.78c2.77,1.08,4.46,3.41,5.36,6.15s1.61,9.47-1.04,11.75c-8.93-3.67-18.24-5.78-27.9-6.66-.38.1-.77.8-1.02,1.03-.92.84-2.75,2.5-3.2,3.77-.44.22-.86.51-1.29.81,0-.12,0-.35,0-.47l.05-1.21c1.02-1.15,2.34-2.04,3.27-3.23,4.82-6.19,10.14-11.68,16.36-16.43.9-.69,1.83-1.44,2.72-1.95,1.32-.75,2.65-1.52,3.91-2.37l.73-.49c.74-.22,1.46-.58,2.09-1.03l1.32-.54,4.13-1.6c.73-.28,1.87-.65,2.64-.8,2.98-.58,6-1.05,9.03-1.03ZM363.37,156.27c-.44.3-1.63.53-1.54,1.24.28,1.97.41,3.89-.93,5.42l-1.72,1.34c-.12,0-.34.04-.47.05l-.3.02c-1.88.09-3.68.01-5.72-.11-.56.4-1.18.99-1.83,1.76,2.79.26,13.68,1.91,15.17-.51,2.21-3.58,1.74-12.19-1.11-10.26l-1.56,1.05ZM376.88,170.76c.75-3.65.92-7.22.77-11l-5.44-2.04c.32,4.02.19,7.44-.37,11.4l5.04,1.64ZM323.64,253.74l-2.06.21.47,2.58,1.58-2.79ZM396.99,306.57c7.42-.76,14.25-.59,21.56,0l8.67-16.59-21.34-.43,3.53-6.93,24.3.24,9.57-16.67-32.32.14c-4.84,8.86-10.46,16.92-17.34,24.09-4.91,5.05-10.17,9.38-16.35,12.81l-13.95,28.64c15.4-1.36,30.4-1.83,45.78-1.31l8.65-16.68-24.62-.21c1.22-2.73,2.39-4.89,3.85-7.1ZM202.79,337.76c7.94-17.02,15.9-33.56,24.66-50.05l15.34-1.64,9.7-17.82-51.67,5.91-9.71,18.04,14.67-1.67c-8.82,17.05-16.84,33.76-24.38,51.24l21.39-3.99ZM457.75,320.9c2.61-3.24,4.28-7.05,4.83-11.07.41-3.04.06-6.02-.17-9.07l-.67-9.12c-.24-3.22,4.92-3.31,7.12-3.15l8.25.6,9.92-16.52c-7.13-1.7-15.2-2.95-22.33-2.23-9.38.94-17.85,5.95-23.32,13.48-2.38,3.27-3.47,6.98-2.95,10.96l.82,6.23c.4,3.04.57,5.99.16,8.99-.28,1.77-1.54,2.75-3.25,3.26-4.75,1.23-9.56,1.49-14.56,1.69l-7.11,18.68c11.31.09,24.49-1.02,34.64-6.16,3.28-1.66,6.25-3.62,8.63-6.58ZM163.29,343.64c5.91-14.25,12.18-27.77,19.01-41.24l14.87-28.04-21.02,2.85c-12.82,23.13-24.13,46.61-34.27,71.16l21.41-4.72ZM112.71,334.84c18.97-5.91,36.77-17.84,47.28-34.49,1.61-2.55,2.7-5.2,3.09-8.14.49-3.71-1.25-6.95-4.56-8.58-2.62-1.3-5.45-1.89-8.43-1.99-11.41-.41-27.12,3.12-38.02,7.47l-5.59,17.67,4.07-1.48-28.05,54.47,20.24-5.47,9.98-19.46ZM426,286.45l4.66.18,3.27.18-12.25,23.44-3.99-.32-6.51-.28c-2.38-.1-8.88-.33-10.93.41l12.7.07,6.37.35,4.16.09c.34,0,.78.29,1.07.62,3.3-.09,6.83-.54,10.25-1.46,1.74-8.07-2.78-14.98.08-23.23l-3.45-.25c-1.28-.09-4.18.16-5.42-.05l-1.52-.26c-1.59-.28-3.03.01-4.49.12l6.01.41ZM87.17,340.85l14.02-27.21-1.78.49,6.14-19.46c-5.47.94-12.13,2.4-16.39,5.97-.82.89-1.5,1.78-1.85,2.95l.64,20.27c.18,5.74-.15,11.08-.78,16.99Z"/>
    <path class="cls-3" d="M344.64,172.34c-.02.28-.24.76-.41,1.03-.04.02-.25.12-.33.16-.09.04-.17-.05-.28-.14.3-.43.63-.77,1.01-1.04Z"/>
    <path class="cls-3" d="M356.95,128.94l-15.09,6.93c-7.8-1.84-16.92-2.78-24.57-.37-13.89-2.76-31.6,1.25-41.87,11.57-9.86-.95-18.34-1.56-28.32-.35-4.47.54-8.83.62-13.4.71-14.7.27-27.34-1.66-41.59-5.7,4.36-3.96,9.98-8.78,11.72-14.27.89-3.05-.44-5.82-3.32-7.19s-5.92-1.68-9.18-1.75c-10.61-.22-20.85,1.53-31.05,4.38l-1.66-3.04c13.53-17.04,30.95-30.43,51.38-38.49,28.15-11.11,59.67-11.36,88.02-.52,24.2,9.25,45.22,26.26,58.94,48.09ZM212.49,117.76c2.76-.05,4.36-1.87,4.51-4.37.13-2.2-.66-3.96-2.5-5.24s-4.73-2.9-3.85-4.83c.22-.47,1.01-.83,1.74-.74.53.06,1.23.79,1.28,1.41l.14,1.62h2.83c.1-1.38-.07-2.78-.81-3.94-.87-1.38-2.42-1.72-3.94-1.73-2.6-.02-4.37,1.81-4.39,4.39-.02,1.57.47,2.96,1.74,3.95l3.65,2.84c1.1.85,1.52,2.44.48,3.56-.47.5-2.06.71-2.48,0-.55-.93-.49-2.1-.56-3.34l-2.97.05c-.08,1.73,0,3.32.86,4.69s2.59,1.73,4.27,1.7ZM220.51,116.69c1.73,1.48,5.11,1.55,6.74-.08,2.68-2.69,1.54-6.97-1.44-8.77-1.71-1.04-4.5-2.87-3.37-4.68.28-.44,1.2-.69,1.84-.53.45.11,1.05.84,1.1,1.35l.14,1.64,2.88-.04c0-1.42-.13-2.64-.75-3.75-.79-1.41-2.3-1.82-3.78-1.89-2.71-.12-4.64,1.7-4.66,4.39-.01,1.57.46,2.95,1.74,3.94l3.65,2.83c1.05.82,1.47,2.29.61,3.43-.51.68-2.26.94-2.69-.01s-.4-2.04-.48-3.19h-2.94c-.04,1.82-.24,3.92,1.44,5.35ZM248.88,113.8c-.1.89-.98,1.4-1.81,1.31-.56-.06-1.29-.76-1.35-1.52-.26-3.21-.27-6.29-.01-9.49.07-.93.85-1.61,1.65-1.6.68,0,1.42.65,1.52,1.4l.23,1.76,2.84-.04c.02-1.51-.15-2.9-.9-4.1s-2.19-1.5-3.55-1.59c-2.43-.17-4.47,1.28-4.8,3.78-.44,3.4-.45,6.91.02,10.29.36,2.53,2.35,3.89,4.77,3.78,2.07-.09,3.85-1.12,4.29-3.26.21-1.02.27-1.98.33-3.2l-2.93-.04-.28,2.51ZM284.72,117.76c2.79-.06,4.35-1.92,4.49-4.41.25-4.45-2.73-4.97-6.12-8.01-.45-.41-.47-1.7-.13-2.19.27-.39,1.07-.64,1.64-.58.46.05,1.2.77,1.25,1.24l.21,1.79h2.81c.07-1.67-.05-3.47-1.45-4.64-1.63-1.35-4.46-1.47-6.19-.04-1.94,1.6-2.09,5.06-.32,6.8,2.48,2.45,6.77,4.08,4.81,6.82-.44.61-2.08.91-2.6.12-.58-.89-.49-2.1-.55-3.33l-2.98.04c-.1,1.73-.03,3.32.84,4.69s2.62,1.74,4.29,1.7ZM328.13,117.75c2.67-.1,4.18-1.92,4.35-4.33.31-4.38-2.69-5.09-6.06-8.02-.46-.4-.55-1.53-.3-2.06s1.05-.87,1.74-.78c.58.07,1.23.8,1.31,1.43l.19,1.64,2.84-.06c0-1.31-.14-2.59-.71-3.67-.79-1.49-2.39-1.92-3.94-1.97-2.55-.09-4.38,1.6-4.54,4.07-.12,1.82.45,3.34,1.93,4.46l3.38,2.58c1.11.85,1.56,2.4.59,3.59-.53.65-2.29.79-2.67-.18-.35-.89-.32-1.97-.37-3.08l-3.01-.04c-.11,1.73-.04,3.43.91,4.82s2.68,1.66,4.37,1.6ZM190.44,106.52l.02,10.81,2.91-.02v-16.92s-4.59-.01-4.59-.01l-2.19,10.55-2.15-10.54h-4.57s0,16.92,0,16.92l2.9.02.07-13.86,2.77,13.66c.49.28,1.37.27,1.96.1l2.59-12.95c.14.72.28,1.48.28,2.25ZM202.1,113.12l.84,4.25,3.24-.06-3.64-16.92h-4.09s-3.59,16.9-3.59,16.9l3.11.03.79-4.26,3.34.05ZM237.15,113.13l.79,4.24,3.25-.11-3.62-16.87h-4.09s-3.59,16.89-3.59,16.89l3.1.02.8-4.24,3.36.07ZM264.49,117.13l-.02-16.72-2.99-.02-.06,6.59-4.01-.03-.03-6.57-3.01.03v16.9s3.01.02,3.01.02l.04-7.71,4.03.04.02,7.65c1.13.06,2.14.08,3.02-.19ZM277.22,100.38h-2.97s-.04,12.48-.04,12.48c0,1.35-.78,2.27-1.95,2.29s-2.05-.81-2.05-2.16l-.03-12.58h-3.01s.02,12.76.02,12.76c0,1.38.47,3.08,1.67,3.8,1.79,1.07,4.03,1.03,5.93.31,1.43-.54,2.4-2.01,2.41-3.6l.03-13.29ZM299.51,109.8l-.04-2.65-4.92-.08.06-3.85,5.29-.03-.06-2.83-8.23.02v16.96s8.38,0,8.38,0l.03-2.9-5.45-.03v-4.59s4.94-.04,4.94-.04ZM307.44,117.3v-14.05s3.42-.06,3.42-.06v-2.82s-9.87,0-9.87,0l-.04,2.78,3.43.1v14.09s3.06-.04,3.06-.04ZM318.17,117.31v-14.07s3.41-.06,3.41-.06l-.02-2.81h-9.87s.01,2.82.01,2.82l3.41.07v14.07s3.07-.02,3.07-.02Z"/>
    <path class="cls-2" d="M114.5,271.89l-8.08,18.76c-7.14,1.52-14.37,2.54-20.26,7.03-1.32,1.42-3.29,3.07-3.23,5.25l.61,22.23c.54,19.86-5.47,38.4-20.13,52.13-5.91,5.74-12.48,10.44-19.48,14.85-9.54,5.79-19.5,10.38-30.3,13.93l9.93-34.05c6.92-3.01,13.6-6.04,20-9.89,3.97-2.39,6.43-6.07,7.09-10.63,2.72-18.68-5.08-31.2,3.79-49.5,3.61-7.44,8.27-14.02,13.77-20.21,4.8-5.4,10.11-9.95,16.09-13.77,4.15,1.39,8.37,2.39,12.85,2.95,5.85.73,11.6,1.12,17.36.9Z"/>
    <path class="cls-5" d="M261.42,180.07c2.13,1.5.1,4.08,1.36,10.3,1.08,5.29,2.37,10.44,3.89,15.6.35,1.2,1.94,1.08,2.94,1.15-.37,1.65-.77,3.17-1.31,4.65-15.66-8.48-31.75-15.07-48.71-19.75-8.46-2.34-16.89-4.05-25.67-4.99-1.99-15.39,4.12-28.9,15.97-38.64,9.9,1.53,19.65,1.95,29.97,1.43-2.7,2.55-3.81,5.94-3.48,9.4,9.37,2.27,18.27,5.15,26.99,9.38l-1.24,6.59-1.13,1.1c-1.18,1.15-.94,2.85.41,3.8Z"/>
    <path class="cls-2" d="M341.57,173.42c-.29.38-.54,1.01-.78,1.6.62-.62,1.16-1.11,1.62-1.68l1.21.05c.11.09.19.18.28.14.08-.04.29-.14.33-.16,3.89.24,7.75.79,11.71,1.47,4.16.71,10.42,1.02,11.37,6.5-3.89-.88-6.93,2.23-8.98,5.17l-3.97,5.7c-.65.93-1.84,1.72-2.82,1.74-2.61.05-3.64-2.54-4.69-1.31-1.26,1.48,3.38,3.34,4.75,3.25-.37,2.8-.06,5.53.98,8.19-1.84.85-3.59,1.76-4.93,3.19-.24.25.11,1.23.43,1.31s.91-.07,1.23-.35c3.73-3.21,8.86-4.16,13.2-1.57-6.98,4.14-9.86,14.05-11.5,21.6-7.13-.91-13.26-1.94-19.99-4.8l-17.61-8.71c-3.16,5.49-5.26,13.62-2.72,19.65,2.02,4.76,6.36,7.71,11.54,7.99,3.47.19,6.89-.24,10.13-1.53l9.43-3.74c2.7-1.07,5.92-.64,8.72-.89.35,2.13.75,3.63,1.55,5.69-10.83,6.14-18.8,7.13-31.03,6.01l-.18-2.05-.26-2.87-.09,4.71c-.85,0-1.71-.07-2.56-.18l-.47-2.71-.12,2.67c-9.29-.79-18.61-7.49-25.31-14.03.99-1.44,1.7-2.66,2.25-4.15,2.38-6.43,2.37-12.87.02-19.65l10.51,1.6c.28.04.83-.08.92-.26.07-.13.11-.46.12-.71.13-8.73.7-17.87,2.5-26.21.54.1,1.27.19,1.54-.04,3.64-3.03,9.13-4.05,12.65-.19-3.58,6.3-4.73,16.51-.05,22.55-1.5.29-9.19,4.05-7.35,5.52.23.18,1.03.24,1.27.03,6.72-6.03,15.84-5.47,23.39-1.24.37.21,1.2-.03,1.34-.37s-.1-1.15-.43-1.3l-4.14-1.93c2.23-4.18,2.4-8.4,1.79-13.14,3.92-.6,6.89-2.94,9.21-5.99.31-.41.37-1.17.07-1.43-1.6-1.41-2.26,3.18-7.8,5.17s-11.84-3.95-15.06-8.11c-4.17-5.39-10.64-5.22-15.96-1.16.17-.88.42-1.75.85-2.77,9.98-4.57,20.98-6.78,31.85-6.3Z"/>
    <path class="cls-2" d="M271.65,267.18c1.96-.2,3.8.56,5.43-.48l31.25-3.67-9.75,17.64-24.79,2.5-3.59,7.26,21.77-1.98-8.81,17.47c-7.55.23-14.65.86-21.84,2.45l-12.65,25.47-21.35,3.16c7.79-17.77,16-34.6,25.02-51.47l-5.73.1,8.44-16.77,16.58-1.67Z"/>
    <path class="cls-5" d="M133.8,260.79c5.91,3.19,1.85,11.06,1.44,9.65-.04-.15-.08-.56,0-.75,2.91-6.54-2.22-7.98-2.1-8.36l.22-.69c-4.52-2.51-9.21-4.45-14.19-6.22-9.99-3.57-20.03-6.17-30.52-8.62,9.69-6.28,19.7-12.14,30.69-15.94l32.22-11.12c12.5,2.73,24.6,5.71,36.69,9.52,6.58,2.08,12.81,4.34,19.03,7.19,3.37,1.71,6.61,3.33,9.51,5.96l-59.51,14.33-23.49,5.05ZM173.16,248.16c3.31-.06,6.42-.77,9.15-2.43s3.41-4.98,1.5-7.7-5.03-4.71-8.33-6.23l3.58-1.3c-2.42-.95-4.4-1.59-6.65-2.1l-3.98,1.25c-10.75-2-21.53-2.88-32.44-2.25-2.8.16-12.27,1.01-12.86,4.16-.78,4.17,10.13,7,13.49,8.46l-4.58,1.6,6.88,2.04,4.84-1.46c9.1,2.9,20.03,6.13,29.42,5.96Z"/>
    <path class="cls-3" d="M136.07,221.2c-3.52-16.29-3.88-32.97-.84-49.37l9.35-1.97,8.61,3.9c12.96,5.87,25.62,11.94,38.8,17.53,3.41,9.26-16.03,16.31-22.5,18.51l-33.42,11.4Z"/>
    <path class="cls-2" d="M363.63,126.12l-6.68,2.82c-13.71-21.83-34.73-38.84-58.94-48.09-28.35-10.83-59.88-10.59-88.02.52-20.43,8.06-37.85,21.45-51.38,38.49-1.54-2.08-2.44-4.75-3.16-7.29,14.91-17.59,33.67-31.18,55.58-39.07,28.82-10.38,60.68-10.14,89.33.76,26.31,10.01,48.28,28.3,63.27,51.87Z"/>
    <path class="cls-3" d="M430.66,259.18l-3.4-.04c7.72-20.38,11.5-41.87,11.69-63.54.42-48.72-18.67-95.46-52.57-130.1C320.04-2.3,212.95-8.62,139.19,50.82c-.79-.73-1.32-1.78-2.1-2.4,74-59.53,181.13-54.46,249.04,12.38,52.7,51.87,69.68,129.02,44.52,198.38Z"/>
    <path class="cls-5" d="M257.9,230.76l-.23.03c-3-4.59-12.87-8.95-18.16-10.98-16.57-6.36-36.59-10.48-54.3-13.57,2.43-1.45,5.01-2.12,6.92-3.96,3.24-3.13,4.26-9.57,1.84-13.85,1.93.16,3.7.31,5.64.7,12.79,2.55,25.33,5.69,37.63,10.17,7.18,2.61,13.88,5.8,20.72,9.07,3.46,1.65,6.49,3.38,9.84,5.36-2.15,5.93-4.62,8.79-4.84,15.37-1.83.56-3.55.94-5.06,1.68Z"/>
    <path class="cls-3" d="M361.78,152.09c-4.57,3.54-8.7,7.49-12.68,11.67-1.71-.26-3.54-.55-5.32-1.13s-.54-7.87-.25-9.4c-.94-.35-2.01.25-2.14,1.33-.32,2.66-.56,5.21-.31,7.97.07.8,1.58,1.77,2.34,1.96l3.9,1c.07.17.15.37.04.46l-.65.52c-14.73-.85-29.77,2.53-43.53,8.08-.8.32-1.42.92-1.72,1.72-3.77,9.93-4.36,20.96-4.02,31.5l-3.27-.75c-.55-2.31.5-4.02,2.02-5.93-1.06-.87-2.56-1.95-4.01-1.99-1.65-.04-2.78,1.14-4.2,1.92-.08-7.22,1.92-14.48,4.46-21.09.08-.22.02-.69-.12-.84-.11-.12-.63-.19-.82-.13-8,2.56-12.16,6.36-19.95,8.91-.54.18-1.63.01-2-.29-.34-.28-.44-1.13-.53-1.66-.55-3.03,0-5.64.91-8.46.48-1.48.87-2.82,2.17-3.86,1.97-1.6,3.95-3.11,6.18-4.43,5.33-3.15,10.54-6.22,16.25-8.72,10.19-4.46,20.69-7.58,31.69-9.29,6.21-.96,12.34-1.57,18.53-.88,1.13.13,1.75.45,2.98.27,4.73-.7,9.61.12,14.04,1.53ZM325.1,154.77l-1.65.36c-.69,3.76-.78,7.39-.27,11.24.95-.02,2.02-.09,2.56-.69l.44-.08.71.34c.18.08.44-.46.41-.58l.45-.04c.64.6,1.91.23,2.38-.48.65-.1,1.41-.18,1.97-.78-.64-3.21-.13-6.43.63-9.64.04-.18.01-.65-.03-.82s-.59-.3-.8-.27l-5.93.82c-.26.04-.76.45-.85.61ZM316.38,156.54c-.1.03-.26.16-.35.23l-.08.24c-.53.12-1.16.31-1.75.53-.34,3.69-.23,7.02.36,10.7.87-.07,1.64-.25,2.24-.65l.54-.13.42.23c.11.06.18-.43.17-.47l.45-.02.48.28c.16.09.42-.47.38-.55l.42-.03s.41.42.45.29l.17-.51,2.1-.51c-.47-3.87-.39-7.33.05-11.24l-6.05,1.61ZM309.82,159.18l-1.71.58c-.44,3.45-.17,6.74.97,10.07.63-.04,1.2-.39,1.81-.61l2.47-.88c-1.02-3.58-1.42-6.55-.9-10.32l-2.64,1.16Z"/>
    <path class="cls-5" d="M152.45,159.27c-12.32,4.99-30.15,7.57-43.45,8.21-7.31.35-20.33.07-26.45-4.42,1.39-2.9,3.43-5.22,6.2-6.78l25.4-14.31c2.25-1.27,4.69-1.84,7.27-1.23,10.2,2.4,28.41,8.16,35.65,15.95-1.54,1.12-2.96,1.92-4.61,2.59Z"/>
    <path class="cls-5" d="M226.8,238.88c3.56,4.56,1.31,5.82,1.11,4.3-.18-1.32-.7-2.43-1.57-3.44l.49-.79c-7.2-6.5-18.75-10.28-27.86-13.39-12.48-4.05-24.92-7.05-38-10.03l16.66-6.25c11.57,1.84,22.81,4.22,34.13,7.11l18.67,5.74c6.3,2.48,14.3,5.58,19.15,10.72l-22.79,6.03Z"/>
    <path class="cls-3" d="M257.9,230.76c1.77,2.66,1.68,5.96-.01,8.8l9.33-2.87c.72,2.64,2.25,4.3,4.39,5.7,8.21,4.74,23.17,7.18,31.68,2.14,4.41,2.55,9,4.4,13.89,4.77.45,1.65.05,3.47.16,5.17l-43.64,5.25-37.67-13.33,13.72-4.26,1.19-2.36c.8-2.18.57-4.5-.79-6.35l.47-.45h.24c1.89,2.48,1.76,5.8.13,8.71l5.65-1.67,1.11-2.27c1.01-2.07.68-4.61-.58-6.45l.49-.52.23-.03Z"/>
    <path class="cls-3" d="M273.98,169.52c-3.34-11.71,7.22-22.29,16.15-28.13.21-.14.49-.6.52-.7.12-.05.35-.18.46-.25.08-.05.2-.18.27-.25h.26s.3-.25.3-.25c7.92-3.07,16.45-3.42,24.84-1.56,8.06-3.33,20.5-1.13,28.3,2.15,4.2,1.77,8.03,3.98,11.41,7.03l-7.64-.9c-6.87-3.87-14.15-6.34-21.86-7.74l-.86.99,8.48,2.62-2.16,1.41c-.6.39-1.91.54-2.6.15-8.17-4.54-17.88-5.23-26.89-3.52-.37.07-.72,1.06-.59,1.34,8.47-1.75,18.13-.23,24.89,5.75-14.11,2.47-27.32,7.16-39.92,13.67-4.77,2.47-9.37,4.87-13.38,8.19Z"/>
    <path class="cls-3" d="M165.88,277.12c-3.16-3.02-5.96-6.53-8.52-10.1l26.99-6.25,33.26-9.02,1.22-2.83c1.6-3.71-1.11-6.59-1.07-6.89.18-1.79,4.59,3.06.96,9.35l6.71-1.86,28.66,11.25-41.17,4.48-2.43.03-40.9,5.52c-1.3,2.28-2.41,4.32-3.71,6.32Z"/>
    <path class="cls-3" d="M363.63,126.12c-14.99-23.57-36.96-41.86-63.27-51.87-28.65-10.9-60.5-11.14-89.33-.76-21.91,7.89-40.67,21.48-55.58,39.07l-1.19-3.28c15.34-18.03,35.11-31.65,57.52-39.37,28.91-9.96,60.54-9.53,89.15,1.21s50.28,29.23,65.63,53.89c-1.01.58-2.12.76-2.94,1.11Z"/>
    <path class="cls-2" d="M91.29,67.06l-2.51-7.78c-.87-2.71-.98-6.3.82-8.71,1.26-1.7,3.94-2.34,6.05-2.72,9.47-1.67,19.19-.44,28.04,3.25,5.44,2.27,11.96,6.84,12.59,13.23l-44.98,2.74Z"/>
    <path class="cls-3" d="M360,349.37c-55.96,38.44-129.68,42.96-190.16,12.18l4.92-1.09c57.05,27.56,125.35,23.62,178.76-10.52l6.49-.58Z"/>
    <path class="cls-2" d="M145.6,147.09c-7.46-3.4-14.92-5.79-22.72-7.79-2.72-.7-5.21-.66-7.85.3l-.9-2.93,39.38-9.12c3.12,5.21,7.04,9.67,12.33,12.82-4.16,3.87-7.18,8.22-9.36,13.31-3.38-2.67-6.86-4.69-10.88-6.58Z"/>
    <path class="cls-3" d="M77.03,253.95c-6.94-20-10.06-41.38-9.73-62.7.55-34.78,10.77-69.07,29.72-98.08l1.29,3.67c-28.8,45.89-35.62,102.66-19.05,154.16-.76,1.05-1.56,1.9-2.23,2.94Z"/>
    <polygon class="cls-3" points="128.01 80.1 94.86 78.01 91.73 68.32 135.63 65.64 137 74.87 128.01 80.1"/>
    <path class="cls-5" d="M120.45,263.15c-12.39,2.16-30.76,6.03-41.88-.84-1.6-.99-2.15-2.62-1.78-4.44,1.27-3.56,4.6-6.38,7.64-8.92,12.31,2.09,25.58,6.73,36.01,14.19Z"/>
    <path class="cls-5" d="M199.82,121.53c-3.18,6.82-10.63,12.81-16.3,17.71l-11.78-3.83c-3.92-3.47-7.54-7.01-10.62-11.18,10.14-2.86,20.18-4.46,30.46-4.23,2.89.06,5.47.45,8.23,1.54Z"/>
    <polygon class="cls-3" points="104.3 106.64 101.75 99.04 137.6 78.23 140.75 93.21 104.3 106.64"/>
    <path class="cls-2" d="M135.23,171.83c-3.03,16.4-2.68,33.08.84,49.37-2.34.8-4.4,1.84-6.6,2.41-3.77-16.63-4.35-33.75-1.55-50.58l7.3-1.21Z"/>
    <path class="cls-5" d="M90.73,172.65c-2.87-.4-11.32-3.51-8.89-8.03,13.07,8.31,43.92,3.46,58.66.1,5.19-1.18,13.43-3.63,17.66-6.77.68.85,1.11,2.06.85,3.32-.6,2.94-5.77,4.52-8.6,5.29-14.79,4.03-29.92,6.39-45.29,6.8-4.96.13-9.57-.03-14.4-.71Z"/>
    <path class="cls-5" d="M345.69,167.77c-.73,1.15-1.7,2.45-2.59,3.55l-4.67.26c-10.13.56-20.09,2.55-29.72,6.45-1.33,2.82-2.05,5.72-2.61,8.86-1.3,7.37-1.59,14.62-1.61,22.15l-5.63-1.09c-.67-10.55,1.53-21.6,4.76-31.69,13.14-6.33,27.61-9.18,42.06-8.49Z"/>
    <path class="cls-5" d="M217.91,241.15c-6.64-5.95-18.9-10.3-27.46-13.09-12.24-3.99-24.48-6.96-37.09-9.85l5.82-2.13c13.32,2.87,26.37,6.06,39.34,10.26,7.99,2.59,20.88,7.11,27.13,12.77l-7.74,2.04Z"/>
    <polygon class="cls-3" points="142.18 99.06 109.16 121.76 105.22 109.72 141.5 96.36 142.18 99.06"/>
    <path class="cls-5" d="M290.65,140.68c-.03.09-.31.56-.52.7-8.93,5.85-19.5,16.43-16.15,28.13l-4.13,3.42c-2.19,4.46-2.8,9.4-2.21,14.31.16,1.31,1.17,2,2.48,1.98l1.44,3.37c1.2.2,2.64,0,3.97-.22l1.43,12.18c-1.92.46-1.13-4.19-3.42-4.69-1.59-.35-3.13,1.15-4.16,2.15l.15,2.6c-.53.17-1.36-.24-1.51-.81-1.44-5.6-2.64-11.1-3.47-16.84-.62-4.28,2.27-3.92,1.64-6.1-.12-.41-.85-.7-1.44-.87-1.27-.37-2.34-1.65-1.67-2.97.47-.92,1.9-1.35,2.88-1.74.47-14.37,11.44-29.6,24.68-34.61Z"/>
    <path class="cls-2" d="M178.68,182.64l-6.66-2.89c-.42-14.22,4.87-27.28,15.33-36.71l5.96,1.74c-10.39,9.97-15.7,23.18-14.64,37.86Z"/>
    <path class="cls-5" d="M250.86,232.98h-.24c-1.26-2.11-3.53-3.61-5.76-5.02-15.07-9.54-47.39-16.19-65.49-19.33l4.23-1.81c11.67,1.99,23.03,4.2,34.48,7.19,10.52,2.74,31.38,8.63,38.66,16.84l-5.32,1.5c-.23.06-.57.52-.56.62Z"/>
    <path class="cls-3" d="M275.48,237.57c-1.14-1.13.21-3.3,1.1-4.01,6.53.66,11.38-5.88,11.94-11.54.21-2.11-.32-4.24-1.08-6.21-1.77-4.59-1.33-9.56,1.61-13.56,1.25-1.7,3.62-1.87,5.16-.59-2.6,1.99-2.39,5.09-1.65,7.98,1.65,6.49,2.84,14.49-.4,20.68-2.06,3.93-5.68,6.94-9.97,8.17-2.11.6-5.08.7-6.72-.93Z"/>
    <polygon class="cls-3" points="113.69 135.47 111.58 129.14 149.48 121.32 152.07 126.57 113.69 135.47"/>
    <polygon class="cls-5" points="253 40.85 244.67 46.91 247.61 37.05 239.17 31.05 249.56 30.84 252.69 20.99 256.1 30.77 266.37 30.7 258.21 36.94 261.53 46.86 253 40.85"/>
    <polygon class="cls-5" points="316.13 53.36 305.96 55.52 312.73 47.7 307.51 38.79 317.01 42.79 323.9 35.1 323.05 45.37 332.49 49.54 322.43 51.88 321.41 62.18 316.13 53.36"/>
    <polygon class="cls-5" points="99 219.79 93.87 228.81 92.53 218.59 82.4 216.52 91.73 212.09 90.54 201.79 97.64 209.33 107.04 205.04 102.12 214.08 109.16 221.71 99 219.79"/>
    <polygon class="cls-5" points="374.95 91.77 369.81 100.76 368.55 90.5 358.31 88.4 367.8 84.01 366.71 73.8 373.69 81.26 383.12 77.09 378.16 86.06 385.09 93.7 374.95 91.77"/>
    <polygon class="cls-5" points="190.29 55.11 185.17 64.12 183.82 53.87 173.61 51.8 183.05 47.4 181.83 37.02 188.96 44.64 198.32 40.36 193.4 49.39 200.42 57.03 190.29 55.11"/>
    <polygon class="cls-5" points="292.35 365.19 287.1 356.28 277.02 358.34 283.79 350.62 278.62 341.63 288.13 345.74 292.88 340.41 294.9 340.26 294.11 348.37 303.67 352.61 293.48 354.85 292.35 365.19"/>
    <path class="cls-1" d="M317.94,247.56c.09.52-.19,1.45.18,1.96-.39,1.51.2,3.22.34,4.76.23,2.49.64,4.95,1.17,7.5h1.38c-.22.13-.73.22-1.28.29.22,1.1.52,2.34.98,3.29-.08.7,1.42,5.59,1.89,6.02,1.22,6.44,3.52,12.61,6.78,18.44,6.96,12.42,18.48,20.43,33.2,18.43,3.01-.41,5.66-1.21,8.6-2.03l-.79.53c-4.29,1.76-8.7,2.78-13.24,3.49l-5.16-.29c-11.95-.66-21.35-10.45-26.82-20.38-1.37-2.48-2.39-5.6-3.36-8.28-1.84-5.11-3.11-10.48-3.62-15.84l-.33-3.36-1-.11.94-.3-.47-7.2c-.11-1.71.29-3.52-.16-5.17.15-.56.15-1.18.18-1.8l.12-2.67.47,2.71Z"/>
    <path class="cls-5" d="M221.53,355.9l-10.26-1.97,9.42-4.51-.49-3.85,4.65-.75,1.7,1.78,6.55-3.04c.53-.24,1.47-.26,2.33-.29l-4.37,8.11,7.03,7.53-10.16-1.82-5.06,9.18-1.35-10.37Z"/>
    <path class="cls-2" d="M141.17,61.72l-3.17,1.88c-1.18-6.96-7.62-11.6-13.72-14.18-9.74-4.11-21.23-5.29-31.75-2.8,4.61-3.89,10.61-5.22,16.5-4.51,8.02.97,17.08,2.08,23.95,6.5,5.13,3.3,6.32,7.48,8.19,13.11Z"/>
    <path class="cls-5" d="M276.59,264.42c-.31,1.77-5.45.92-7.19.24l-45.89-17.87c-.63-.25-1.27-.65-1.61-1.07.66-1.11,2.07-1.6,3.34-1.16l48.72,17.2c1.18.42,2.84,1.43,2.62,2.66Z"/>
    <path class="cls-2" d="M286.31,218.03c.29,1.85.12,3.81-.43,5.82l-9.2-14.11c-.98-1.5,5.61-2.38,4.44-6.02s-1.8-7.1-1.75-10.8c.07-6.02,4.45-9.51,10.07-10.84-2.34,6.82-4.01,13.56-4.68,20.7-.08.89.32,1.89.52,2.58-.33,3.5-.51,6.73.38,10.19-2.03-2.15-3.43-4.49-4.83-7.16-.16-.31-.81-.6-1.14-.55-.35.06-.79.88-.6,1.25,1.26,2.42,4.31,8.08,7.23,8.93Z"/>
    <polygon class="cls-3" points="122.83 83.06 100.73 95.93 95.95 81.32 122.83 83.06"/>
    <path class="cls-3" d="M264.05,166.42l-8.96-3.8c-.24-3,.27-6.14,1.5-8.94,1.16-2.4,2.85-4.27,5.27-5.44l11.77.79c-3.66,2.67-6.18,6.02-6.87,10.4l-2.71,6.99Z"/>
    <path class="cls-3" d="M110.89,126c-.51.1-.75-1.02-.45-1.23l12.32-8.47,24.29-.94,1.14,2.94-37.3,7.71Z"/>
    <path class="cls-5" d="M414.65,126.67c-10.35-4.26-23.35-4.25-34.44-4.29,7.14-2.4,14.38-4.37,21.89-5.51,3.87-.59,12.33-1.21,13.41,3.86.44,2.05-.07,4.12-.86,5.95Z"/>
    <path class="cls-3" d="M129.47,223.62c-.9.51-1.81.85-2.89,1.19-3.98-16.82-4.6-34.1-1.9-51.25l3.25-.51c-2.8,16.82-2.22,33.95,1.55,50.58Z"/>
    <path class="cls-5" d="M122.01,262.85l-.31-.03c-11.02-7.57-22.74-12.04-36.16-14.58.7-.63,1.42-1.19,2.23-1.74,9.98,2.28,19.71,4.78,29.42,8.14,5.11,1.77,9.86,3.58,14.86,6.31l-10.03,1.9Z"/>
    <path class="cls-3" d="M252.8,161.77l-14.2-4.26c-.05-3.17,1.78-5.88,4.64-7.27,4.26-1.94,9.79-2.1,14.61-2.05-4.01,4.31-4.75,8.03-5.05,13.58Z"/>
    <path class="cls-3" d="M334.7,206.56l-5.74-.93c.37-6.32-.99-12.74-6.56-16.7.36-1.16.83-2.28,1.43-3.42,3.72,4.04,7.08,7.62,12.67,8.49.72,4.03.54,9.13-1.81,12.55Z"/>
    <path class="cls-2" d="M396.38,141.81l-4.2-.59c-4.13-5.37-21.4-5.71-27.69-5.35-1.58.09-5.95.69-6.48,2.19-.9,2.57,13.72,6.77,15.75,7.11-.63.45-1.35.8-2.09,1.03l-5.65-1.75-2.91,1c-.38.13-1.02.06-1.42-.1l3.07-1.26c-1.18-.29-4,1.65-4.73.73l3.2-1.2c-2.14-.83-13.43-4.1-12.48-6.55.65-1.66,6.63-2.37,8.49-2.51,8.92-.63,17.68.1,26.48,1.73l2.59-.78c.48-.15,1.21-.09,1.61.06l-2.6,1.08c1.14.17,2.97-1.29,4.06-.56l-2.38,1.04c2.06.69,6.57,2.85,7.38,4.69Z"/>
    <path class="cls-3" d="M288,243.06l3.72,2.76c-1.04.08-1.86.19-2.66.15-4.82-.22-9.61-1.42-14.18-3.29-1.55-.63-2.93-1.55-4.17-2.54-1.46-1.17-1.89-2.81-2.43-4.43s-.65-2.87.57-4.35c2.5-3.04,5.17-2.57,8.32-.69-1.55,1.52-2.71,2.97-3.21,4.83-.45,1.67.14,2.87,1.45,3.83,3.65,2.68,8.11,3.84,12.6,3.72Z"/>
    <path class="cls-5" d="M183.01,184.52c-.65-.19-1.31-.45-2.07-.79-1.64-14.57,4.04-28.73,15.03-38.35l2.75.8c-11.01,9.69-16.7,23.55-15.71,38.35Z"/>
    <path class="cls-3" d="M269.75,228.2c-1.9,1.63-3.11,3.33-3.75,5.77-1.91-3.61-1.63-7.76,0-11.45,2.63-5.92,6.46-13.45,4.95-20.03.48-.68,1.95-1.37,2.75-1.04,3.1,3.21.69,9.39-.86,12.99l-3.52,8.18c-.77,1.79-.66,3.56.42,5.58Z"/>
    <path class="cls-5" d="M169.91,178.53c-.5.08-1.26-.24-1.78-.62-1.22-14.12,4.1-26.72,14.43-36.29l2.25.76c-9.79,9.47-15.07,22.27-14.9,36.15Z"/>
    <path class="cls-5" d="M160.82,161.13c-.09-3.3-1.05-4.16-3.6-6.74,2.1-5.21,5.33-9.66,9.53-13.54l4.52,1.46c-4.91,5.4-8.47,11.47-10.46,18.82Z"/>
    <polygon class="cls-3" points="145.95 112.15 127.9 112.81 143.06 102.33 145.95 112.15"/>
    <polygon class="cls-5" points="96.58 149.85 88.66 144.24 98.93 143.99 102.04 134.12 105.45 143.77 107.16 143.91 96.58 149.85"/>
    <path class="cls-5" d="M190.37,141.23l-4.85-1.44,9.6-8.81c2.39-2.61,4.52-5.23,6.15-8.38,5.4,4.88-7.21,15.4-10.9,18.63Z"/>
    <path class="cls-2" d="M157.36,267.03c2.57,3.56,5.36,7.07,8.52,10.1-.4.61-.56,1.52-1.03,2.01-3.28-2.1-6.68-3.74-10.37-4.12l-4.64-6.49,7.52-1.49Z"/>
    <path class="cls-2" d="M169.87,137.19l-2.64,1.92c-5.24-2.98-9.07-7.25-12.14-12.42l2.77-2.73c3.43,5.26,7.41,9,12.01,13.23Z"/>
    <polygon class="cls-3" points="147.29 92.46 143.87 92.49 140.71 77.29 144.63 76.99 147.29 92.46"/>
    <path class="cls-3" d="M296.55,240.05c-5.3,1.8-10.75,2.44-16.09.61,1.3-.37,2.46-.78,3.77-1.34,2.28-1.31,4.47-2.77,6.45-4.51l5.87,5.23Z"/>
    <path class="cls-5" d="M413.29,129.76c-2.28-1.21-4.61-2.28-7.25-2.98-10.15-2.67-20.2-2.81-30.75-2.78,1.15-.53,2.34-.75,3.69-.76,10.47-.11,25.68,0,35.3,4.25l-.99,2.27Z"/>
    <path class="cls-1" d="M289.06,245.97c.8.04,1.63-.07,2.66-.15l-3.72-2.76c3.35-.09,6.56-1.02,9.85-2.07l4.05,2.77c-3.02,1.94-10.02,2.73-12.84,2.21Z"/>
    <path class="cls-5" d="M154.25,171.47c-.06-1.41-.05-2.96.04-4.41,2.66-.87,4.81-2.09,6.06-4.37-.61,4.15-.9,7.49-.86,11.24l-5.24-2.46Z"/>
    <polygon class="cls-3" points="140.13 74.05 138.74 64.65 141.5 63.06 143.94 73.74 140.13 74.05"/>
    <path class="cls-1" d="M367.03,149.05c-.89.51-1.82,1.26-2.72,1.95-6.22,4.75-11.54,10.24-16.36,16.43-.93,1.19-2.24,2.07-3.27,3.23l-.05,1.21c-.04-.11-.1-.27-.15-.37s-.62.05-.68.13l-1.4,1.71c-.46.57-1,1.06-1.62,1.68.23-.59.49-1.23.78-1.6l1.36-1.78-4.5-.06,4.67-.26c.89-1.1,1.86-2.4,2.59-3.55.39-.33.84-.81,1.04-1.29l.65-.52c.11-.09.02-.29-.04-.46.83-.05,1.24-1.18,1.77-1.73,3.98-4.18,8.11-8.13,12.68-11.67,1.3-1.01,3.01-1.62,4.15-2.85l1.11-.19Z"/>
    <path class="cls-3" d="M156.98,122.95l-2.08,2.03c-1.87-3.42-3.24-6.6-4.63-10.3l2.58-1.35c1.28,3.43,2.45,6.3,4.13,9.61Z"/>
    <polygon class="cls-3" points="151.77 110.27 149.18 111.56 146.15 101.23 149.19 101.21 151.77 110.27"/>
    <path class="cls-5" d="M275.35,220.6c1.44,2.94-1.7,5.13-4.55,5.9-.18-3.25,1.12-5.85,2.34-8.75,1,.95,1.69,1.79,2.21,2.85Z"/>
    <path class="cls-3" d="M149.83,268.52l4.64,6.49-4.22-.43-4-5.49c1.42-.42,2.51-.35,3.58-.56Z"/>
    <path class="cls-5" d="M370.95,146.68c-1.26.85-2.6,1.61-3.91,2.37l-1.11.19c-3.75-1.06-1.89.02-4.82-2.91,2.31.52,4.13-1.17,5.26-.86,1.72.47,3.08.92,4.58,1.21Z"/>
    <path class="cls-3" d="M323.23,192.66c2.07-.06,2.02,6.67,0,6.54s-1.97-6.48,0-6.54Z"/>
    <polygon class="cls-5" points="172.51 141.08 168.19 139.65 170.56 137.7 174.53 139.07 172.51 141.08"/>
    <polygon class="cls-5" points="280.01 218.25 274.4 214.83 275.8 211.86 280.01 218.25"/>
    <path class="cls-3" d="M121.71,262.82l.31.03c2.62,2.14,3.61,5.24,1.67,8.29l-.31.42c-.09.12-.61.03-.61-.12s.08-.63.2-.81c1.43-2.18,1.13-5.65-1.61-6.85l.35-.98Z"/>
    <polygon class="cls-2" points="153.23 170.97 148.71 168.86 153.33 167.46 153.23 170.97"/>
    <polygon class="cls-5" points="127.43 276.72 121.82 277.98 123.12 274.85 127.43 276.72"/>
    <polygon class="cls-3" points="148.43 97.92 145.27 97.96 144.73 95.75 147.96 95.74 148.43 97.92"/>
    <path class="cls-3" d="M412.71,130.54v-.23s.51-.18.51-.18c.09-.03.04-.28.08-.37,2.81,1.5,3.65,4.05,2.45,5.28-.9.92.8-3.33-3.03-4.5Z"/>
    <path class="cls-5" d="M417.56,131.28c-.74,1.64.04-2.52-2.07-3.14-.15-.04-.48-.29-.55-.38-.09-.12.11-.38.25-.6.08-.13.3.04.57.14,1.65.73,2.53,2.34,1.79,3.98Z"/>
    <path class="cls-5" d="M360.33,143.56c-.24.24-1.39.83-1.8.54l-2.89-2.08c1.7.38,3.03.89,4.68,1.54Z"/>
    <path class="cls-5" d="M269.75,325.17l-2.64.23c.23-1.07,1.11-1.03,2.01-1.11l.74-.06c.17-.01.03.3-.11.94Z"/>
    <path class="cls-5" d="M412.71,130.31v.23c-2.47,4.52-5.84,8.49-9.3,12.46-.26.3-.49.69-.61.96-1.57-.73-3.26-1.26-4.91-1.79-1.45-2.37-3.96-3.77-6.49-5.03l2.94-1.05-5.47-1.71-3.02,1.03c-8.28-1.48-16.58-2.26-25.04-1.82-2.31.12-10.33.76-10.89,3.22-.13.58.17,1.38.43,2.12l-5.37-2.21c9.12-4.41,18.14-8.26,27.53-11.75,10.55-.33,20.74-.14,31.04,2.04,3.27.8,6.26,1.87,9.16,3.3Z"/>
    <path class="cls-5" d="M291.64,140.18c.08-.07.21-.21.3-.25l-.3.25Z"/>
    <path class="cls-5" d="M291.1,140.43l.27-.25c-.07.07-.2.19-.27.25Z"/>
    <path class="cls-4" d="M344.64,171.87c0,.12,0,.36,0,.47-.38.27-.71.62-1.01,1.04l-1.21-.05,1.4-1.71c.07-.08.64-.22.68-.13s.1.25.15.37Z"/>
    <path class="cls-4" d="M374.24,152.31c4.17,2.18,4.64,1.31,7.48,5.49.66.98,2,1.81,2.98,2.79l8.32-7.52c4.32,1.53,8.43,3.36,12.01,6.87,3.91,3.84,7.16,8.19,9.56,13.25,5.55,11.69,6.9,22.59,6.72,35.1-.75-.25-1.58-.61-2.29-1l.87-10.19-6.85,7.67-9.55-4.04,5.22,8.98-6.77,7.78,10.13-2.19,5.31,8.91,1.06-10.37,2.8-.63c-.24,17.2-5.29,34.73-14.01,49.58l-2.54-.04c.36-1.12,2.74-8.71,1.91-9.21-.14-.08-.56.28-.62.44-1.23,3.07-2.58,6.07-4.22,8.82-.39-.02-.85-.05-1.23-.05l-1.52-.3.78-4.51c.03-.17-.32-.81-.45-.72s-.48.36-.54.5l-2.18,4.79c-.53.03-1.37-.01-1.67-.08l.96-4.2c.04-.2-.33-.86-.46-.77s-.41.33-.48.48l-2.36,4.71-1.21-.25c.49-1.01,1.1-6.58.13-6.05s-1.96,6.5-3.75,6.45c.65-2.32,1.22-4.89,1.19-7.12,0-.24-.41-.86-.55-.73-.61.61-2.28,5.58-3.96,7.09.39-1.22,3.04-8.55.97-8.42-1.19,2.08-1.73,4.33-3.38,6.08.12-1.51,2.29-6.02,1.16-6.98-.54-.46-2.71,4.28-3.56,4.81.11-1.66.34-2.59.08-4.2l-1.83,1.66c-.11-1.09.1-1.98-.84-2.19-.18,1.69-.44,3.35-.81,4.87-.04.16.09.6.23.56.11-.03.47-.19.56-.3l1.77-2.13c.02,1.79-.87,2.77-.72,4.12.02.15.75.02.87-.12l3.08-3.72c.26.94-3.03,7.16-2.16,7.12,1.76-.09,4.13-4.72,5.02-6.13.32,1.67-3.4,8.1-2.64,8.2,1.45.19,4.81-5.28,5.49-6.64-.3,2.92-1.56,5.62-2.79,8.03-.17.33-.08.98.05,1.26l-1.3,2.53c-3.45-4.27-8.72-6.73-13.86-7.91-4.34-.99-8.66-1.56-12.99-1.63l-.25-.21h-3.44s-1.87-3.35-1.87-3.35l4-.06c1.07-.02,2.38-.07,3.43.06l7.52.91,3.2.59s8.1-14.79,5.57-12.74c-1.07.86-2.79,2.2-4.14,2.87-1.17.58-2.94.47-4.14.08l-3.07-1-7.87-2.86c-.97-.35-1.82-.9-2.68-1.65-11.61,6.15-18.75,7.35-32.01,6.21l-.09-1.84c12.23,1.12,20.21.13,31.03-6.01-.8-2.06-1.2-3.56-1.55-5.69-2.8.25-6.03-.18-8.72.89l-9.43,3.74c-3.25,1.29-6.66,1.72-10.13,1.53-5.18-.28-9.52-3.23-11.54-7.99-2.54-6.03-.44-14.16,2.72-19.65l17.61,8.71c6.73,2.86,12.86,3.89,19.99,4.8,1.64-7.55,4.51-17.47,11.5-21.6-4.34-2.6-9.47-1.64-13.2,1.57-.32.28-.91.43-1.23.35s-.66-1.06-.43-1.31c1.34-1.43,3.09-2.34,4.93-3.19-1.04-2.66-1.35-5.39-.98-8.19-1.36.09-6-1.77-4.75-3.25,1.05-1.23,2.08,1.36,4.69,1.31.97-.02,2.17-.81,2.82-1.74l3.97-5.7c2.05-2.94,5.1-6.05,8.98-5.17-.95-5.49-7.21-5.8-11.37-6.5s-7.82-1.23-11.71-1.47c.16-.27.39-.75.41-1.03.42-.3.85-.59,1.29-.81,9.69.6,19.13,2.77,27.87,7.12l3.39-4.31c-8.87-3.66-18.11-5.52-27.55-6.39-.13-.01-.54-.18-.51-.19.25-.23.65-.93,1.02-1.03,9.65.88,18.96,2.99,27.9,6.66,2.65-2.29,1.95-8.98,1.04-11.75s-2.59-5.07-5.36-6.15l-4.59-1.78c1.55-.78,3.38-1.52,5.1-1.4ZM394.72,186.92l-19.81-4.49-2.75,3.1,20.04,5.05,1.08.47c1.17,1.28,2.12,2.52,2.89,4.12l-3.58-2.38c-.49-.32-1.68-.18-1.87.3,1.23,1.78,2.43,3.45,3.26,5.26-1.29-.36-2.04-.59-3.22-.35l1.39,2.95c-1.02-.09-1.82-.34-2.14.69,1.28.18,2.19.38,3.16.92l.48.27c.13.07.39-.48.33-.6l-1.71-3.32c1.75.23,1.7,1.11,3.06,1.18,1.1.06-2.62-5.81-2.69-6.1,1.33.19,4.78,4.26,5.13,3.58.61-1.17-1.91-4.91-2.83-6.14,2.38-.27,2.7,1.89,4.58,2.86.06-.93.03-1.82-.29-2.38,1.33.01,2.91.18,3.89-1.25.27-.39-.61-1.14-1.02-1.36-.34-.17-.8-.8-.93-1.21-.87-2.77-2.59-4.73-4.63-6.9,2.61.65,4.28,2.81,5.78,4.72,2.13,2.71.87-2.53-2.5-7.36l-1.24-1.78c2.6,1.59,5.22,4.64,7.07,6.54.13.14.71.12.71,0,0-3.07-4.72-8.9-6.71-11.33l-1.13-1.38c4.26,1.69,8.18,7.78,10.3,11.65.12.22.67.58.77.39.08-.15.17-.58.12-.76-1.81-7.16-5.55-13.4-10.37-18.96-.38-.44-.75-.98-1.09-1.49,7.73,4.55,13.3,16.71,15.76,25l.57.35c.1.06.3-.6.23-.83-2.92-9.75-9.25-23.19-19.59-27.19-.16-.06-.71-.02-.74.14s.07.52.2.64c5.34,4.97,9.94,10.81,12.58,17.95-2.24-2.49-6.85-9.16-11.44-8.28,3.15,3.61,6.53,6.6,8.38,11.02-1.75-1.26-6.34-6.58-8.69-5.41,2.22,2.7,4.56,4.96,5.83,8.27-1.7-1.35-4.93-4.35-7.07-2.33,2.38,1.85,4.52,3.73,5.52,6.56-1.82-1.28-4.51-3.56-6.92-2.3l1.84,1.88ZM383.72,161.02l-1.29-1.3.55,2.25c.26-.04.98-.71.74-.95ZM385.84,169.32c2.18-1.62,1.47-6.63-.95-8.28l-.42.57c-.08.11.2.46.32.57,3.46,3.17-.51,8.31,1.05,7.15ZM381.62,175.04l-5.49,6.06c2.17.57,4.21,1,6.51,1.43.95.18,1.92.66,3.22.8l-1.71-12.81c-.31.33-.76.84-.9,1.15l-1.63,3.37ZM369.05,183.05c1.1-1.39,2.02-2.27,3.34-3.26l-3.11-1.81c-.41.3-1.29,1.02-1.35,1.5-.14,1.17.53,2.6,1.12,3.57ZM365.04,205.81l2.25.04c1-5.13,3.13-17.21.87-21.69-.75-1.5-3.21-1.29-4.4-.51-1.26.83-2.22,1.8-3.1,2.93,1.42.99,2.36,2.04,2.93,3.57,1.63,4.29,2.05,10.37-1.36,14.2l2.82,1.45ZM375.51,207.95l3.71,1.14c.78.24,2.19.55,2.92,1.2,1.2,1.07,1.82,2.64,2.61,4.24,1.3-7.91,1.68-15.66,1.52-23.71-.97-.43-2.07-.44-3.18-.78-2.25-.68-4.56-1.12-7.05-1.81l-4.82-1.34c-.25,1.09-.3,1.9-.29,2.91.06,5.59-.8,10.82-1.91,16.56l6.47,1.59ZM359.75,203.85c4.78-2.17,3.83-14.14-.31-15.7l-1.57,2.33c4.17,4.24,2.96,8.23,1.88,13.37ZM354.71,195.32c-1.76.38-1.56,5.89.19,5.66s1.52-6.04-.19-5.66ZM364.44,218.8l1.18,6.89c2.11-6.23,5.17-11.55,10.54-15.33l-9.64-2.42c-3.42,1.27-5.86,3.67-7.57,6.83l.32,3.15,2.32-2.4.94,5.63,1.91-2.34ZM325.08,230.78c.75-2.47,1.54-4.45,2.69-6.64l-13.65-6.81c-1.3,2.84-2.22,5.6-2.56,8.58,4.21,2.55,8.75,4.1,13.52,4.87ZM396.85,235.12c.53-.42.51-1.48.31-1.94-1.27-2.83-2.83-5.27-5.05-7.44-3.39-3.32-7.39-5.76-11.88-7.35-.83-.29-1.83-.11-2.56.28-7.75,4.21-9.15,15.33-5.58,22.64,5.06,4.17,8.42,3.84,13.97,1.01,3.89-1.99,7.3-4.41,10.79-7.21ZM333.51,231.47l1.44-4.52-5.44-2.11c-1.11,1.98-1.92,3.9-2.62,6.26l6.61.36ZM350.48,231.47c.15-.56.22-1.06.17-1.36-4.81-.66-9.25-1.43-13.89-2.58-.56,1.38-.97,2.57-1.28,4.03l15-.09ZM324.56,240.57c-.26-2.65-.23-4.94-.05-7.36-4.73-.85-8.99-2.27-13.09-4.5.09,7.51,5.7,12.47,13.14,11.85ZM361.89,233.36l-2.54,4.34-2.65-5.89-1.61,3.06-1.43-2.95c-.5,4,.35,7.77,2.01,11.25l9.07,3.34c-1.03-3.38-1.23-6.29-1.08-9.66l-1.78-3.48ZM333.1,238.66l-.13-4.66-6.61-.44c-.29,2.3-.34,4.53.11,6.82,2.31-.41,4.54-.99,6.62-1.73ZM349.7,234.37c.17-.18-.05-.38-.32-.39l-14.49.05c-.1,1.34-.09,2.62.03,3.95l6.43-2.65c2.57-1.06,5.42-.58,8.36-.95Z"/>
    <path class="cls-2" d="M112.71,334.84l-9.98,19.46-20.24,5.47,28.05-54.47-4.07,1.48,5.59-17.67c10.9-4.35,26.61-7.88,38.02-7.47,2.98.11,5.81.7,8.43,1.99,3.31,1.64,5.05,4.87,4.56,8.58-.38,2.93-1.48,5.58-3.09,8.14-10.51,16.65-28.31,28.58-47.28,34.49ZM139.77,301.4c1.06-3.53-7.32-1.84-8.88-1.42l-8.67,16.56c6.51-2.57,15.52-8.58,17.55-15.14Z"/>
    <path class="cls-2" d="M396.99,306.57c-1.46,2.22-2.63,4.37-3.85,7.1l24.62.21-8.65,16.68c-15.38-.52-30.38-.05-45.78,1.31l13.95-28.64c6.17-3.43,11.43-7.76,16.35-12.81,6.88-7.17,12.5-15.23,17.34-24.09l32.32-.14-9.57,16.67-24.3-.24-3.53,6.93,21.34.43-8.67,16.59c-7.31-.6-14.14-.77-21.56,0Z"/>
    <path class="cls-2" d="M457.75,320.9c-2.39,2.95-5.36,4.92-8.63,6.58-10.15,5.14-23.33,6.26-34.64,6.16l7.11-18.68c5.01-.2,9.81-.47,14.56-1.69,1.71-.51,2.97-1.49,3.25-3.26.41-3,.24-5.96-.16-8.99l-.82-6.23c-.52-3.97.57-7.69,2.95-10.96,5.47-7.53,13.95-12.54,23.32-13.48,7.13-.71,15.2.54,22.33,2.23l-9.92,16.52-8.25-.6c-2.2-.16-7.36-.07-7.12,3.15l.67,9.12c.23,3.04.58,6.02.17,9.07-.55,4.03-2.22,7.84-4.83,11.07Z"/>
    <path class="cls-2" d="M202.79,337.76l-21.39,3.99c7.53-17.47,15.55-34.19,24.38-51.24l-14.67,1.67,9.71-18.04,51.67-5.91-9.7,17.82-15.34,1.64c-8.76,16.49-16.72,33.03-24.66,50.05Z"/>
    <path class="cls-2" d="M163.29,343.64l-21.41,4.72c10.14-24.55,21.45-48.03,34.27-71.16l21.02-2.85-14.87,28.04c-6.83,13.47-13.1,26.99-19.01,41.24Z"/>
    <path class="cls-2" d="M318.19,265.45c.52,5.36,1.78,10.73,3.62,15.84-9.18,16.05-17.25,32.75-24.75,49.89l-21.29,2.32c10.13-23.55,21.4-46,34.17-67.8l8.24-.25Z"/>
    <path class="cls-2" d="M351.99,309.95c3.99,5.14,5.37,10.39,6.04,17.09l-22.02,5.29-.05-8.5c-.45-3.88-1.98-7.38-5.29-9.56l-8.94,16.3-21.21,1.79c8.07-14.67,15.96-28.95,24.64-42.8,5.47,9.93,14.87,19.72,26.82,20.38Z"/>
    <path class="cls-2" d="M348.1,264.43l1.52-.06c.7.99,2.12,1.58,3.45,1.85-.04-.73-.19-1.33-.39-1.89,7.74.1,18.5.54,25.01,5.42,6.02,4.52,4.36,11.41.69,16.88-2.94,4.39-6.5,8.13-10.63,11.44-7.6,1.37-15.21.3-22.1-3.33,4.99-2.31,10.93-5.2,12.72-10.7.05-.48.1-1.48-.19-1.76-.26-.25-.76-.55-1.23-.85-2.42-.54-4.78-.78-7.24-.62l-6.91,12.11c-3.41-1.66-5.54-4.72-8.03-7.21l.59-.15c.18-.04.1-.58,0-.77-2.56-4.68-4.22-9.62-4.74-14.95-.12-1.24.03-2.39.44-3.5.84,2.51,1.45,4.54,2.67,6.67,1.94,3.38,5.94,6.05,4.94,3.81-1.54-3.47-3.45-7.17-3.35-11.34l3.07,5.46c1.37,2.43,4.12,3.94,3.42,2.28-1.08-2.55-2.25-5.19-2.04-8.21,1.22,1.98,3.47,6.21,6.41,5.43-1.2-2.17-2.62-3.67-2.56-6.31,1.42.25,3.29,4.47,6.13,4.05-.7-1.49-1.27-2.59-1.66-3.78Z"/>
    <path class="cls-1" d="M383.86,290.85c.51-.18,1-.47,1.46-.87,9.52-8.19,13.62-13.06,19.89-23.73l2.02-3.44c8.72-14.85,13.77-32.38,14.01-49.58l.07-4.93c.18-12.51-1.17-23.41-6.72-35.1-2.4-5.06-5.65-9.41-9.56-13.25-3.59-3.52-7.7-5.35-12.01-6.87-5.61-1.99-12.34-2.72-18.31-1.03-.27.08-.48.22-.47.27-1.73-.12-3.55.62-5.1,1.4-.07-.03-.38-.05-.47-.06-.08,0,.06-.21.14-.25,13.55-6.3,28.8-5.04,39.75,5.51,12.61,12.16,16.5,32.4,15.93,49.37-.58,17.21-4.79,34.06-12.35,49.5-6.55,13.37-16.97,27.32-29.99,34.7l1.71-1.64Z"/>
    <path class="cls-4" d="M87.17,340.85c.63-5.91.96-11.25.78-16.99l-.64-20.27c.35-1.17,1.03-2.05,1.85-2.95,4.26-3.56,10.92-5.03,16.39-5.97l-6.14,19.46,1.78-.49-14.02,27.21ZM92.42,321.12l3.22-10.05c-1.49.62-2.48,1.27-3.59,2.1l.38,7.95Z"/>
    <path class="cls-1" d="M400.53,262.76h-1.65s-1.03,3.4-1.03,3.4l-4.11,7.98c2.66-2.19,4.33-5.12,5.97-7.89l2.05-3.44c1.63-2.75,2.98-5.75,4.22-8.82.06-.16.48-.52.62-.44.83.5-1.56,8.09-1.91,9.21s-1.01,2.4-1.49,3.44c-3.51,7.53-8.93,14.66-15.16,19.87-.34.28-.74.35-.91.33s-.19-.56.01-.74c6.01-5.23,11.76-11.95,14.75-19.4.43-1.06,1.81-2.06,1.27-3.68-.91,1.23-1.41,2.55-2.1,3.62-1.69,2.62-7.73,11.82-11.42,12.28,2.64-4.27,5.49-7.91,6.99-12.3.37-1.08,1.18-2.1,1.1-3.49-1.01,1.1-1.26,2.48-1.9,3.5-.21.33-5.66,8.79-6.31,7.47-.09-.18-.14-.58-.03-.81,1.05-2.2,2.12-4.48,2.95-6.68.34-.92,1.02-1.67.98-2.98-.74,1.05-1.27,1.96-1.77,2.9-.66.69-1.58,1.55-2.02,2.45l-1.38.94c-.15.1-.55.19-.72.2s-.11-.62-.02-.77c1.13-2.02,2.25-4.29,2.91-6.59-.61.26-1.01.69-1.34,1.25-1.07,1.8-2.42,3.28-4.05,4.37-.12-.28-.22-.93-.05-1.26,1.24-2.41,2.49-5.11,2.79-8.03-.67,1.36-4.03,6.84-5.49,6.64-.76-.1,2.96-6.52,2.64-8.2-.89,1.41-3.26,6.04-5.02,6.13-.87.04,2.42-6.18,2.16-7.12l-3.08,3.72c-.12.14-.85.27-.87.12-.15-1.35.74-2.33.72-4.12l-1.77,2.13c-.09.11-.45.27-.56.3-.14.04-.27-.4-.23-.56.37-1.52.63-3.18.81-4.87.94.21.74,1.1.84,2.19l1.83-1.66c.26,1.61.03,2.55-.08,4.2.85-.53,3.02-5.28,3.56-4.81,1.13.97-1.04,5.47-1.16,6.98,1.64-1.76,2.18-4.01,3.38-6.08,2.06-.13-.58,7.2-.97,8.42,1.69-1.51,3.36-6.48,3.96-7.09.14-.14.55.49.55.73.03,2.22-.54,4.8-1.19,7.12,1.79.05,2.8-5.94,3.75-6.45s.36,5.04-.13,6.05l1.21.25,2.36-4.71c.08-.15.35-.39.48-.48s.5.57.46.77l-.96,4.2c.3.07,1.13.11,1.67.08l2.18-4.79c.06-.14.41-.4.54-.5s.48.55.45.72l-.78,4.51,1.52.3ZM392.5,262.89l-1.24-.05-1.3,3.63,2.54-3.58ZM393.78,262.94c0-.07-.06-.13-.13-.13s-.13.06-.13.13.06.13.13.13.13-.06.13-.13ZM393.68,266.17c-.7,1.16-1.22,2.41-1.74,3.93,1.16-1.16,1.73-2.5,2.56-3.9l1.96-3.28-1.67-.14-1.11,3.39ZM393.78,274.37c0-.07-.06-.13-.13-.13s-.13.06-.13.13.06.13.13.13.13-.06.13-.13Z"/>
    <path class="cls-4" d="M426,286.45v-.26c1.25.22,4.14-.04,5.42.05l3.45.25c-2.86,8.25,1.67,15.16-.08,23.23-3.42.92-6.95,1.37-10.25,1.46-.28-.34-.72-.61-1.07-.62l-4.16-.09-6.37-.35-12.7-.07c2.05-.75,8.55-.51,10.93-.41l6.51.28,3.99.32,12.25-23.44-3.27-.18-4.66-.18Z"/>
    <path class="cls-1" d="M327.56,258.08l-.41,3.44c1.22-.01,2.13.01,3.13-.16,2.38-.4-.44.26,2.96.14l-1.91.3c.2,1.43.54,3,.83,4.35.74,3.35,1.97,6.78,4.71,9.22-1.25-3.27-2.34-6.28-2.66-9.52-.12-1.2-.03-2.38.58-3.84.78,1.31,1.38,2.32,1.85,3.42.8,1.89,1.56,3.83,3.07,5.55-.41-2.15-.88-3.91-.99-5.79-.07-1.18.12-2.31.77-3.69l1.55,3.39c.66,1.45,1.3,2.98,2.88,3.94-.52-1.49-1.04-2.73-1.36-4.01-.23-.92,0-2.69.01-3.59,0-.32.49-1.09.69-1.04.42.35.84.81,1.16.81-.92.99,1.17,3.13,1.56,3.56.53.6.64,1.62,1.81,1.81l-.79-1.8-.5-3.59.48-2.46c.93-.17.9,1.25,1.48,1.98.22.28,1.11.27,1.44.29l-1.16.32c.64,1.14,1.18,2.38,2.58,3.24l-1.02-3.57c-.28-.97,0-2.29.08-3.4l-3.1-.05c-.06-.01.43-.22.56-.22h6.9c.16,0,.66.22.59.22l-4,.06,1.87,3.36h3.44s.25.2.25.2c-1.73-.03-3.55.34-5.5-.06.15,1.17.58,2.56,1.31,3.45.2.55.35,1.15.39,1.89-1.33-.26-2.76-.86-3.45-1.85s-1.3-2.12-2.04-3.36c0,1.13.15,2.32.52,3.42.4,1.19.96,2.29,1.66,3.78-2.84.42-4.71-3.8-6.13-4.05-.06,2.64,1.36,4.14,2.56,6.31-2.94.78-5.2-3.45-6.41-5.43-.21,3.02.96,5.66,2.04,8.21.7,1.66-2.05.15-3.42-2.28l-3.07-5.46c-.11,4.17,1.81,7.87,3.35,11.34.99,2.24-3-.43-4.94-3.81-1.22-2.13-1.84-4.16-2.67-6.67-.42,1.1-.56,2.26-.44,3.5.51,5.33,2.18,10.27,4.74,14.95.1.18.18.72,0,.77l-.59.15c-3.78-3.78-6.65-8.2-7.8-13.53-.49-2.26-.67-4.66-.8-6.97-.06-1.1-.06-2.37.02-3.46.08-1.18.22-2.42.41-3.59l.34-2.07c.03-.17.35-.51.47-.61s.45.45.43.62l-.28,1.98ZM327.25,265.17c-.16,1.71-.02,3.53.51,5.16,0,1.15.25,2.34.77,3.36.62,2.91,1.97,5.82,4.18,8.23-1.35-4.01-2.69-7.65-2.94-11.57l-.13-2.04c0-.12-.29-.56-.31-.54.43-.78.13-1.81.29-2.63l.69-3.35-3.17-.07c-.09,1.18-.15,2.42.1,3.46ZM339.99,271.25c0-.07-.06-.13-.13-.13s-.13.06-.13.13.06.13.13.13.13-.06.13-.13ZM332.97,282.17c0-.07-.06-.13-.13-.13s-.13.06-.13.13.06.13.13.13.13-.06.13-.13Z"/>
    <path class="cls-2" d="M391.65,266.11l.78.07c-.83,2.2-1.9,4.48-2.95,6.68-.11.23-.06.63.03.81.66,1.31,6.1-7.14,6.31-7.47h.8c-1.5,4.39-4.35,8.03-6.99,12.29,3.7-.46,9.73-9.66,11.42-12.28l.83.06c-3,7.44-8.75,14.16-14.75,19.4-.2.18-.18.72-.01.74s.57-.05.91-.33c6.24-5.21,11.65-12.34,15.16-19.87l2.02.04c-6.27,10.67-10.37,15.54-19.89,23.73-.46.4-.95.69-1.46.87l4.61-8.56-5.44-.21,6.61-13.52c.44-.9,1.36-1.76,2.02-2.45Z"/>
    <path class="cls-5" d="M345.93,171.53c.45-1.27,2.28-2.93,3.2-3.77-.03,0,.37.18.51.19,9.45.87,18.68,2.73,27.55,6.39l-3.39,4.31c-8.74-4.35-18.18-6.51-27.87-7.12Z"/>
    <path class="cls-5" d="M390.9,141.2c-3.03-.03-6.05.45-9.03,1.03.16-.42.35-1.2.28-1.63-.41-2.72-12.23-3.94-12.48-.77-.21,2.68,7.7,3.62,9.55,3.19l-4.13,1.6c-3.85-1.01-13.51-3.3-16.33-6.46,5.67-3.07,20.28-1.12,26.22.15,2.27.49,4.33,1.47,5.92,2.89Z"/>
    <path class="cls-4" d="M370.4,306.75l-8.29,17.06c-.9-5.15-2.45-9.49-4.96-13.57,4.55-.7,8.96-1.73,13.24-3.49Z"/>
    <path class="cls-4" d="M347.26,257.32l3.1.05c-.08,1.11-.35,2.43-.08,3.4h-.4c-.33,0-1.22,0-1.44-.28-.58-.74-.55-2.16-1.48-1.98l-.48,2.46-2.08.02c-.32,0-.74-.46-1.16-.81-.2-.05-.68.72-.69,1.04l-3.14.19-6.19.09c-3.4.12-.58-.55-2.96-.14-1,.17-1.91.14-3.13.16l.41-3.44,11.39-.25,8.31-.51Z"/>
    <path class="cls-2" d="M370.89,249.01c-1.22,3.22-3.06,6.2-4.63,9.28l-7.52-.91,4.94-9.29,3.07,1c1.2.39,2.97.5,4.14-.08Z"/>
    <path class="cls-4" d="M358.42,164.35l.3-.02c.13,0,.35-.06.47-.05,1.69.13,3.73-.49,4.42-2.3s.52-3.98-.23-5.7l1.56-1.05c2.85-1.92,3.31,6.68,1.11,10.26-1.49,2.42-12.39.78-15.17.51.65-.77,1.26-1.36,1.83-1.76,2.05.12,3.85.2,5.72.11Z"/>
    <path class="cls-4" d="M376.88,170.76l-5.04-1.64c.56-3.97.69-7.39.37-11.4l5.44,2.04c.15,3.79-.03,7.35-.77,11Z"/>
    <path class="cls-4" d="M392.19,141.21h-1.29c-1.59-1.43-3.65-2.41-5.92-2.9-5.94-1.27-20.55-3.22-26.22-.15,2.83,3.16,12.49,5.44,16.33,6.46l-1.32.54c-2.03-.34-16.65-4.53-15.75-7.11.53-1.51,4.9-2.1,6.48-2.19,6.3-.36,23.56-.01,27.69,5.35Z"/>
    <path class="cls-4" d="M381.87,142.23c-.77.15-1.91.51-2.64.8-1.86.43-9.77-.51-9.55-3.19.25-3.18,12.07-1.95,12.48.77.06.43-.13,1.21-.28,1.63ZM381.36,141.08c-.15-2.32-9.93-3.07-10.77-1.29-.92,1.96,10.92,3.71,10.77,1.29Z"/>
    <path class="cls-5" d="M363.37,156.27c.76,1.72.95,3.82.23,5.7s-2.73,2.43-4.42,2.3l1.72-1.34c1.34-1.52,1.21-3.45.93-5.42-.1-.71,1.1-.94,1.54-1.24Z"/>
    <path class="cls-4" d="M321.02,261.77h-1.38c-.53-2.53-.93-4.99-1.17-7.48l1.94-.16.61,7.64Z"/>
    <path class="cls-4" d="M326.6,258.15c-.19,1.17-.33,2.41-.41,3.59l-3.16-.03-.7-3.5,4.27-.06Z"/>
    <path class="cls-2" d="M326.17,265.21c.13,2.31.31,4.71.8,6.97l-.48.15-2.47-6.92,2.16-.2Z"/>
    <path class="cls-4" d="M320.5,247.74c-.01.57-.08,1.26-.14,1.91l-2.23-.13c-.37-.52-.09-1.44-.18-1.96.85.11,1.71.17,2.56.18Z"/>
    <path class="cls-2" d="M322.6,271.38c-.47-.43-1.97-5.32-1.89-6.02.11-.08.77.13.81.37l1.07,5.65Z"/>
    <polygon class="cls-4" points="323.64 253.74 322.06 256.53 321.58 253.95 323.64 253.74"/>
    <path class="cls-1" d="M426,286.19v.26l-6.01-.41c1.46-.1,2.9-.39,4.49-.12l1.52.26Z"/>
    <path class="cls-5" d="M358.72,164.32l-.3.02.3-.02Z"/>
    <path class="cls-4" d="M190.44,106.52c0-.77-.13-1.52-.28-2.25l-2.59,12.95c-.59.17-1.47.18-1.96-.1l-2.77-13.66-.07,13.86-2.9-.02v-16.93s4.57.01,4.57.01l2.15,10.54,2.19-10.55h4.59s0,16.93,0,16.93l-2.91.02-.02-10.81Z"/>
    <path class="cls-4" d="M264.49,117.13c-.88.26-1.89.25-3.02.19l-.02-7.65-4.03-.04-.04,7.71-3-.02v-16.9s3.01-.03,3.01-.03l.03,6.57,4.01.03.06-6.59,2.99.02.02,16.72Z"/>
    <path class="cls-4" d="M284.72,117.76c-1.67.03-3.39-.29-4.29-1.7s-.94-2.96-.84-4.69l2.98-.04c.05,1.22-.03,2.44.55,3.33.52.8,2.16.5,2.6-.12,1.96-2.74-2.33-4.37-4.81-6.82-1.77-1.75-1.62-5.2.32-6.8,1.73-1.43,4.56-1.31,6.19.04,1.41,1.17,1.53,2.97,1.45,4.62h-2.81s-.21-1.78-.21-1.78c-.05-.47-.79-1.19-1.25-1.24-.57-.06-1.37.19-1.64.58-.35.49-.33,1.78.13,2.19,3.39,3.05,6.36,3.56,6.12,8.01-.14,2.49-1.7,4.36-4.49,4.41Z"/>
    <path class="cls-4" d="M212.49,117.76c-1.68.03-3.37-.29-4.27-1.7s-.94-2.96-.86-4.69l2.97-.05c.08,1.24.01,2.41.56,3.34.42.71,2.01.5,2.48,0,1.04-1.12.62-2.7-.48-3.56l-3.65-2.84c-1.27-.99-1.76-2.37-1.74-3.95.03-2.58,1.79-4.41,4.39-4.39,1.52.01,3.07.35,3.94,1.73.74,1.16.91,2.56.81,3.93h-2.83s-.14-1.61-.14-1.61c-.06-.62-.75-1.35-1.28-1.41-.73-.09-1.53.27-1.74.74-.88,1.93,1.95,3.5,3.85,4.83s2.63,3.04,2.5,5.24c-.15,2.5-1.75,4.33-4.51,4.37Z"/>
    <path class="cls-4" d="M220.51,116.69c-1.67-1.44-1.47-3.53-1.44-5.34h2.94c.08,1.13.07,2.26.48,3.17s2.18.69,2.69.01c.87-1.14.45-2.61-.61-3.43l-3.65-2.83c-1.28-.99-1.75-2.37-1.74-3.94.02-2.7,1.95-4.52,4.66-4.39,1.48.07,2.99.48,3.78,1.89.62,1.11.76,2.33.75,3.75l-2.88.04-.14-1.64c-.05-.51-.64-1.24-1.1-1.35-.63-.15-1.56.09-1.84.53-1.14,1.81,1.66,3.64,3.37,4.68,2.99,1.81,4.12,6.09,1.44,8.77-1.62,1.63-5.01,1.57-6.74.08Z"/>
    <path class="cls-4" d="M328.13,117.75c-1.69.06-3.43-.22-4.37-1.6s-1.01-3.09-.91-4.82l3.01.04c.05,1.1.02,2.19.37,3.08.38.97,2.14.83,2.67.18.97-1.19.52-2.74-.59-3.59l-3.38-2.58c-1.48-1.12-2.05-2.64-1.93-4.46.16-2.47,1.99-4.16,4.54-4.07,1.56.05,3.15.48,3.94,1.97.58,1.09.72,2.36.71,3.67l-2.84.06-.19-1.64c-.07-.62-.73-1.35-1.31-1.43-.69-.09-1.47.24-1.74.78s-.16,1.66.3,2.06c3.37,2.93,6.37,3.63,6.06,8.02-.17,2.41-1.68,4.23-4.35,4.33Z"/>
    <path class="cls-4" d="M277.22,100.38l-.03,13.29c0,1.59-.98,3.06-2.41,3.6-1.89.72-4.13.76-5.93-.31-1.2-.72-1.67-2.41-1.67-3.8l-.02-12.76h3.01s.03,12.58.03,12.58c0,1.35.87,2.17,2.05,2.16s1.94-.94,1.95-2.29l.04-12.46h2.97Z"/>
    <path class="cls-4" d="M202.1,113.12l-3.34-.05-.79,4.26-3.11-.03,3.59-16.91h4.09s3.64,16.92,3.64,16.92l-3.24.06-.84-4.25ZM201.67,110.41l-1.28-6.37-1.19,6.42,2.47-.04Z"/>
    <path class="cls-4" d="M237.15,113.13l-3.36-.07-.8,4.24-3.1-.02,3.59-16.89h4.09s3.62,16.87,3.62,16.87l-3.25.11-.79-4.24ZM236.7,110.41l-1.26-6.59-1.19,6.65,2.46-.06Z"/>
    <path class="cls-4" d="M248.88,113.8l.28-2.51,2.93.04c-.06,1.22-.12,2.18-.33,3.2-.44,2.14-2.22,3.17-4.29,3.26-2.42.1-4.41-1.25-4.77-3.78-.47-3.37-.46-6.89-.02-10.29.32-2.5,2.37-3.95,4.8-3.78,1.36.09,2.79.38,3.55,1.59s.93,2.59.9,4.1l-2.84.04-.23-1.76c-.1-.75-.84-1.4-1.52-1.4-.8-.01-1.58.67-1.65,1.6-.25,3.2-.25,6.28.01,9.49.06.77.79,1.47,1.35,1.52.84.09,1.72-.42,1.81-1.31Z"/>
    <polygon class="cls-4" points="299.51 109.8 294.58 109.84 294.57 114.43 300.02 114.46 299.99 117.35 291.61 117.34 291.61 100.38 299.84 100.36 299.9 103.19 294.61 103.22 294.55 107.07 299.47 107.15 299.51 109.8"/>
    <polygon class="cls-4" points="318.17 117.31 315.11 117.32 315.1 103.25 311.69 103.19 311.68 100.37 321.55 100.37 321.57 103.18 318.16 103.24 318.17 117.31"/>
    <polygon class="cls-4" points="307.44 117.3 304.39 117.33 304.39 103.25 300.96 103.15 300.99 100.37 310.87 100.37 310.86 103.19 307.45 103.25 307.44 117.3"/>
    <path class="cls-4" d="M173.16,248.16c-9.39.17-20.32-3.06-29.42-5.96l-4.84,1.46-6.88-2.04,4.58-1.6c-3.36-1.46-14.27-4.29-13.49-8.46.59-3.15,10.06-4,12.86-4.16,10.91-.63,21.69.25,32.44,2.25l3.98-1.25c2.25.51,4.22,1.16,6.65,2.1l-3.58,1.3c3.31,1.52,6.33,3.39,8.33,6.23s1.32,5.97-1.5,7.7-5.84,2.37-9.15,2.43ZM173.99,247.04c2.87-.14,5.65-.84,7.97-2.39,1.83-1.22,2.45-3.31,1.39-5.26-2.07-3.8-7.1-6.34-11.01-7.65l3.49-1.27-1.34-.29c-1.2.35-2.69,1.03-4.09,1.05,1.15-.68,2.19-.95,3.31-1.34-.69-.29-1.36-.35-1.9-.18l-3.29,1.05c-10.12-1.92-20.26-2.79-30.54-2.41-2.29.09-13.81.91-13.82,3.68-.01,3.15,12.91,6.81,15.88,7.97l-4.16,1.51c1.22,1.15,4.58-1.44,6.19-.91l-4.25,1.59c.54.22,1.24.33,1.64.21l4.26-1.34c9.15,2.93,20.77,6.44,30.28,5.98Z"/>
    <path class="cls-4" d="M330.11,164.85c-.79.13-1.61.3-2.38.48l-.45.04c-.36.04-.86.14-1.12.24l-.44.08c-1.83,1.33-.85-10.24-.63-10.92.09-.15.59-.57.85-.61l5.93-.82c.21-.03.76.11.8.27s.08.64.03.82c-.76,3.21-1.27,6.42-.63,9.64-.57.6-1.33.67-1.97.78Z"/>
    <path class="cls-4" d="M320.29,166.68c-.17.04-.48.16-.62.23l-.42.03c-.24.01-.73.18-.86.27l-.45.02c-.17,0-.55.18-.59.24l-.54.13c-1.24.08-1.03-9.49-.85-10.59l.08-.24.35-.23,6.05-1.61c-.43,3.91-.52,7.37-.05,11.24l-2.1.51Z"/>
    <path class="cls-4" d="M349.1,163.76c-.52.55-.94,1.68-1.77,1.73l-3.9-1c-.76-.2-2.26-1.16-2.34-1.96-.26-2.76,0-5.32.31-7.97.13-1.08,1.2-1.68,2.14-1.33-.3,1.53-1.59,8.8.25,9.4s3.61.88,5.32,1.13Z"/>
    <path class="cls-4" d="M310.89,169.22c-1.13-3.23-1.38-6.64-1.07-10.04l2.64-1.16c-.53,3.77-.13,6.74.9,10.32l-2.47.88Z"/>
    <path class="cls-5" d="M325.72,165.69c-.54.6-1.61.67-2.56.69-.51-3.85-.41-7.49.27-11.24l1.65-.36c-.22.67-1.2,12.24.63,10.92Z"/>
    <path class="cls-5" d="M315.95,157.01c-.18,1.1-.39,10.67.85,10.59-.61.4-1.38.58-2.24.65-.59-3.69-.7-7.01-.36-10.7.6-.22,1.22-.41,1.75-.53Z"/>
    <path class="cls-5" d="M309.82,159.18c-.3,3.4-.05,6.81,1.07,10.04-.6.22-1.18.57-1.81.61-1.14-3.33-1.42-6.62-.97-10.07l1.71-.58Z"/>
    <path class="cls-5" d="M330.11,164.85c-.46.72-1.74,1.09-2.38.48.77-.19,1.59-.36,2.38-.48Z"/>
    <path class="cls-5" d="M327.29,165.37c.04.12-.23.66-.41.58l-.71-.34c.26-.1.76-.21,1.12-.24Z"/>
    <path class="cls-5" d="M319.25,166.94c.05.08-.21.64-.38.55l-.48-.28c.13-.09.62-.26.86-.27Z"/>
    <path class="cls-5" d="M317.94,167.23s-.06.53-.17.47l-.42-.23c.04-.06.42-.24.59-.24Z"/>
    <path class="cls-5" d="M320.29,166.68l-.17.51c-.04.13-.41-.25-.45-.29.14-.06.45-.18.62-.23Z"/>
    <path class="cls-5" d="M316.04,156.78c.08-.07.24-.2.35-.23l-.35.23Z"/>
    <path class="cls-5" d="M396.85,235.12c-3.49,2.8-6.9,5.23-10.79,7.21-5.55,2.83-8.91,3.15-13.97-1.01-3.57-7.32-2.18-18.43,5.58-22.64.73-.4,1.73-.58,2.56-.28,4.49,1.58,8.5,4.03,11.88,7.35,2.22,2.18,3.78,4.61,5.05,7.44.2.46.22,1.52-.31,1.94ZM394.31,233.18c-3.56-5.84-9.05-9.58-15.36-11.27-3.18.59-5.51,3.33-5.16,6.75,7.38-4.12,14.56.31,20.52,4.51Z"/>
    <path class="cls-5" d="M421.31,208.29l-.07,4.93-2.8.63-1.06,10.37-5.31-8.91-10.13,2.19,6.77-7.78-5.22-8.98,9.55,4.04,6.85-7.67-.87,10.19c.71.39,1.53.75,2.29,1Z"/>
    <path class="cls-1" d="M402.09,189.31c-.1-.02-.3-.08-.33,0l-.16.45-.15.45c-.24.69-1.73-1.85-2.79-2.29-.75-1.02-1.91-1.73-3.37-2.11.47.92,1.08,1.51,1.8,1.88l-.13.23,2.26,3.99c.32.56.35,1.45.29,2.38-1.88-.97-2.2-3.14-4.58-2.86.93,1.23,3.44,4.97,2.83,6.14-.35.68-3.8-3.4-5.13-3.58.07.3,3.8,6.17,2.69,6.1-1.36-.08-1.31-.96-3.06-1.18l1.71,3.32c.07.13-.2.68-.33.6l-.48-.27c-.97-.53-1.87-.74-3.16-.92.32-1.03,1.12-.78,2.14-.69l-1.39-2.95c1.18-.24,1.93-.01,3.22.35-.83-1.81-2.03-3.48-3.26-5.26.19-.48,1.39-.62,1.87-.3l3.58,2.38c-.76-1.6-1.72-2.83-2.89-4.12l-1.08-.47c1.1-.05-1.15-1-.36-1.53.67-.46,2.23-.32,2.96.17l2.87,1.93c-.79-1.72-1.77-3.01-2.96-4.22l-1.84-1.88c2.41-1.27,5.1,1.01,6.92,2.3-.99-2.83-3.14-4.71-5.52-6.56,2.13-2.02,5.36.98,7.07,2.33-1.27-3.31-3.61-5.57-5.83-8.27,2.35-1.17,6.94,4.15,8.69,5.41-1.85-4.42-5.23-7.41-8.38-11.02,4.59-.88,9.19,5.79,11.44,8.28-2.64-7.15-7.24-12.98-12.58-17.95-.13-.12-.23-.48-.2-.64s.58-.2.74-.14c10.33,4,16.67,17.44,19.59,27.19.07.23-.12.89-.23.83l-.57-.35c-2.47-8.29-8.03-20.45-15.76-25,.34.51.71,1.05,1.09,1.49,4.82,5.56,8.56,11.79,10.37,18.96.04.17-.04.61-.12.76-.1.18-.65-.17-.77-.39-2.12-3.87-6.04-9.96-10.3-11.65l1.13,1.38c2,2.43,6.71,8.26,6.71,11.33,0,.12-.58.14-.71,0-1.85-1.9-4.47-4.95-7.07-6.54l1.24,1.78c3.37,4.84,4.63,10.08,2.5,7.36-1.5-1.91-3.18-4.08-5.78-4.72,2.03,2.17,3.76,4.13,4.63,6.9.13.41.59,1.04.93,1.21Z"/>
    <path class="cls-2" d="M383.1,190.05c.21,6.76.01,13.56-.95,20.25-.74-.66-2.15-.96-2.92-1.2l-3.71-1.14c.59-6.56.85-13.13.55-19.71,2.49.69,4.8,1.13,7.05,1.81Z"/>
    <path class="cls-5" d="M364.44,218.8l-1.91,2.34-.94-5.63-2.32,2.4-.32-3.15c1.71-3.16,4.14-5.56,7.57-6.83l9.64,2.42c-5.37,3.78-8.42,9.1-10.54,15.33l-1.18-6.89Z"/>
    <path class="cls-3" d="M325.08,230.78c-4.77-.78-9.3-2.32-13.52-4.87.33-2.99,1.26-5.75,2.56-8.58l13.65,6.81c-1.15,2.19-1.95,4.18-2.69,6.64Z"/>
    <path class="cls-3" d="M376.06,188.24c.3,6.58.05,13.15-.55,19.71l-6.47-1.59c1.11-5.74,1.97-10.97,1.91-16.56-.01-1.01.04-1.82.29-2.91l4.82,1.34Z"/>
    <path class="cls-2" d="M365.04,205.81l-2.82-1.45c3.41-3.83,2.99-9.91,1.36-14.2-.58-1.53-1.51-2.58-2.93-3.57.89-1.13,1.85-2.1,3.1-2.93,1.19-.79,3.65-.99,4.4.51,2.26,4.48.13,16.56-.87,21.69l-2.25-.04Z"/>
    <path class="cls-5" d="M361.89,233.36l1.78,3.48c-.15,3.37.05,6.28,1.08,9.66l-9.07-3.34c-1.66-3.48-2.52-7.25-2.01-11.25l1.43,2.95,1.61-3.06,2.65,5.89,2.54-4.34Z"/>
    <path class="cls-3" d="M324.56,240.57c-7.45.62-13.05-4.34-13.14-11.85,4.11,2.23,8.37,3.65,13.09,4.5-.18,2.42-.21,4.7.05,7.36Z"/>
    <path class="cls-5" d="M393.02,153.06l-8.32,7.52c-.98-.98-2.32-1.81-2.98-2.79-2.84-4.18-3.31-3.3-7.48-5.49-.01-.05.2-.2.47-.27,5.97-1.69,12.7-.96,18.31,1.03Z"/>
    <path class="cls-3" d="M382.15,210.3c.97-6.69,1.16-13.49.95-20.25,1.1.33,2.21.35,3.18.78.16,8.05-.22,15.8-1.52,23.71-.78-1.6-1.41-3.17-2.61-4.24Z"/>
    <path class="cls-3" d="M350.48,231.47l-15,.09c.31-1.46.72-2.65,1.28-4.03,4.63,1.15,9.07,1.92,13.89,2.58.06.3-.02.8-.17,1.36Z"/>
    <path class="cls-3" d="M366.27,258.29c1.57-3.08,3.41-6.06,4.63-9.28,1.36-.67,3.08-2.01,4.14-2.87,2.53-2.05-5.56,12.76-5.57,12.74l-3.2-.59Z"/>
    <path class="cls-3" d="M333.1,238.66c-2.07.74-4.31,1.32-6.62,1.73-.45-2.29-.4-4.52-.11-6.82l6.61.44.13,4.66Z"/>
    <path class="cls-3" d="M333.51,231.47l-6.61-.36c.7-2.36,1.51-4.28,2.62-6.26l5.44,2.11-1.44,4.52Z"/>
    <path class="cls-3" d="M359.75,203.85c1.08-5.14,2.29-9.13-1.88-13.37l1.57-2.33c4.14,1.57,5.09,13.53.31,15.7Z"/>
    <path class="cls-3" d="M382.65,182.53c-.24-2.52-.49-5.06-1.02-7.49l1.63-3.37c.14-.31.59-.82.9-1.15l1.71,12.81c-1.3-.14-2.27-.63-3.22-.8Z"/>
    <path class="cls-2" d="M382.65,182.53c-2.31-.43-4.34-.86-6.51-1.43l5.49-6.06c.54,2.43.78,4.97,1.02,7.49Z"/>
    <path class="cls-3" d="M349.7,234.37c-2.94.37-5.78-.11-8.36.95l-6.43,2.65c-.13-1.33-.13-2.61-.03-3.95l14.49-.05c.27.01.49.21.32.39Z"/>
    <path class="cls-5" d="M398.66,187.92c1.06.44,2.55,2.99,2.79,2.29l.15-.45.16-.45c.03-.08.23-.02.33,0,.41.21,1.29.97,1.02,1.36-.98,1.42-2.56,1.26-3.89,1.25l-2.26-3.99.13-.23c.41.03,1.21.08,1.57.23Z"/>
    <path class="cls-5" d="M369.05,183.05c-.59-.97-1.26-2.4-1.12-3.57.06-.48.94-1.2,1.35-1.5l3.11,1.81c-1.32.99-2.24,1.87-3.34,3.26Z"/>
    <path class="cls-3" d="M354.71,195.32c1.71-.37,1.97,5.44.19,5.66s-1.95-5.28-.19-5.66Z"/>
    <path class="cls-3" d="M400.53,262.76c.38,0,.84.02,1.23.05l-2.05,3.44-1.86-.08,1.03-3.39h1.65Z"/>
    <path class="cls-3" d="M407.23,262.8l-2.02,3.44-2.02-.04c.49-1.05,1.15-2.37,1.49-3.44l2.54.04Z"/>
    <path class="cls-3" d="M385.84,169.32c-1.57,1.16,2.41-3.98-1.05-7.15-.12-.11-.4-.46-.32-.57l.42-.57c2.43,1.66,3.13,6.67.95,8.28Z"/>
    <path class="cls-1" d="M383.72,161.02c.24.24-.48.91-.74.95l-.55-2.25,1.29,1.3Z"/>
    <path class="cls-3" d="M139.77,301.4c-2.03,6.56-11.05,12.57-17.55,15.14l8.67-16.56c1.56-.43,9.94-2.11,8.88,1.42Z"/>
    <path class="cls-3" d="M349.62,264.37l-1.52.06c-.37-1.1-.51-2.29-.52-3.42.74,1.23,1.33,2.35,2.04,3.36Z"/>
    <path class="cls-3" d="M92.42,321.12l-.38-7.95c1.11-.83,2.11-1.48,3.59-2.1l-3.22,10.05Z"/>
    <polygon class="cls-3" points="394.5 266.2 393.68 266.17 394.79 262.78 396.46 262.92 394.5 266.2"/>
    <path class="cls-3" d="M401.89,266.27l-.83-.06c.69-1.07,1.19-2.39,2.1-3.62.54,1.62-.84,2.62-1.27,3.68Z"/>
    <path class="cls-3" d="M396.62,266.18h-.8c.65-1.01.89-2.39,1.9-3.49.07,1.39-.73,2.41-1.1,3.49Z"/>
    <path class="cls-2" d="M394.5,266.2c-.83,1.4-1.41,2.74-2.56,3.9.52-1.52,1.04-2.77,1.74-3.93l.82.03Z"/>
    <polygon class="cls-3" points="392.5 262.89 389.95 266.47 391.25 262.84 392.5 262.89"/>
    <path class="cls-3" d="M392.43,266.18l-.78-.07c.5-.94,1.03-1.85,1.77-2.9.04,1.3-.64,2.06-.98,2.98Z"/>
    <circle class="cls-2" cx="393.65" cy="274.37" r=".13"/>
    <path class="cls-2" d="M399.72,266.25c-1.65,2.77-3.32,5.71-5.97,7.89l4.11-7.98,1.86.08Z"/>
    <circle class="cls-3" cx="393.65" cy="262.94" r=".13"/>
    <path class="cls-3" d="M342.56,261.23c-.02.9-.24,2.68-.01,3.59l-1.52.07-1.55-3.39c-.65,1.38-.84,2.51-.77,3.69l-2.07.24c-.47-1.1-1.07-2.11-1.85-3.42-.61,1.46-.7,2.64-.58,3.84l-2.06.29c-.3-1.35-.64-2.93-.83-4.35l1.91-.3,6.19-.09,3.14-.19Z"/>
    <path class="cls-3" d="M329.64,265.13l-2.38.04c-.25-1.05-.19-2.28-.1-3.46l3.17.07-.69,3.35Z"/>
    <path class="cls-2" d="M329.64,265.13c-.17.82.14,1.85-.29,2.63-.49.88-1,1.77-1.58,2.57-.53-1.63-.67-3.45-.51-5.16l2.38-.04Z"/>
    <path class="cls-3" d="M346.48,260.97l.5,3.59h-1.02c-.38-.44-2.47-2.58-1.56-3.57l2.08-.02Z"/>
    <path class="cls-2" d="M338.72,265.2c.11,1.87.58,3.64.99,5.79-1.5-1.71-2.26-3.65-3.07-5.55l2.07-.24Z"/>
    <path class="cls-3" d="M329.78,270.34l-1.25,3.35c-.52-1.01-.77-2.21-.77-3.36.59-.8,1.1-1.69,1.58-2.57.01-.02.3.42.31.54l.13,2.04Z"/>
    <path class="cls-2" d="M342.55,264.82c.32,1.28.84,2.52,1.36,4.01-1.58-.96-2.22-2.49-2.88-3.94l1.52-.07Z"/>
    <path class="cls-3" d="M350.29,260.77l1.02,3.57c-1.4-.86-1.95-2.1-2.58-3.24l1.16-.32h.4Z"/>
    <path class="cls-2" d="M346.98,264.56l.79,1.8c-1.17-.18-1.29-1.21-1.81-1.81h1.02Z"/>
    <circle class="cls-2" cx="332.84" cy="282.17" r=".13"/>
    <path class="cls-2" d="M328.53,273.69l1.25-3.35c.25,3.93,1.59,7.56,2.94,11.57-2.21-2.41-3.56-5.31-4.18-8.23Z"/>
    <path class="cls-2" d="M334.22,265.87c.32,3.24,1.4,6.24,2.66,9.52-2.74-2.44-3.97-5.88-4.71-9.22l2.06-.29Z"/>
    <circle class="cls-2" cx="339.86" cy="271.25" r=".13"/>
    <path class="cls-2" d="M381.36,141.08c.16,2.42-11.68.67-10.77-1.29.83-1.78,10.62-1.03,10.77,1.29Z"/>
    <polygon class="cls-3" points="201.67 110.41 199.2 110.45 200.4 104.03 201.67 110.41"/>
    <polygon class="cls-3" points="236.7 110.41 234.25 110.47 235.44 103.82 236.7 110.41"/>
    <path class="cls-2" d="M173.99,247.04c-9.52.46-21.13-3.05-30.28-5.98l-4.26,1.34c-.41.13-1.1.01-1.64-.21l4.25-1.59c-1.61-.52-4.97,2.07-6.19.91l4.16-1.51c-2.97-1.17-15.89-4.82-15.88-7.97,0-2.77,11.53-3.6,13.82-3.68,10.28-.38,20.42.49,30.54,2.41l3.29-1.05c.54-.17,1.21-.11,1.9.18-1.11.38-2.16.66-3.31,1.34,1.4-.02,2.89-.7,4.09-1.05l1.34.29-3.49,1.27c3.92,1.31,8.94,3.85,11.01,7.65,1.06,1.95.44,4.04-1.39,5.26-2.32,1.55-5.1,2.25-7.97,2.39ZM176.7,242.47c.83-.43,1.6-1.41,1.65-2.17.27-3.86-6.97-7.26-10.73-8.07-8.51-1.84-17.13-2.55-25.81-2.05-1.77.1-8.29.88-8.44,2.92-.13,1.67,3.99,3.62,5.51,4.24,7.27,2.98,14.76,5.05,22.56,6.26,4.82.74,10.94,1.12,15.26-1.13Z"/>
    <path class="cls-3" d="M394.31,233.18c-5.96-4.21-13.14-8.63-20.52-4.51-.35-3.42,1.98-6.17,5.16-6.75,6.32,1.69,11.8,5.43,15.36,11.27Z"/>
    <path class="cls-4" d="M398.66,187.92c-.36-.15-1.15-.2-1.57-.23-.72-.37-1.34-.96-1.8-1.88,1.46.38,2.62,1.09,3.37,2.11Z"/>
    <path class="cls-5" d="M394.72,186.92c1.18,1.21,2.17,2.5,2.96,4.22l-2.87-1.93c-.74-.49-2.29-.62-2.96-.17-.78.53,1.46,1.48.36,1.53l-20.04-5.05,2.75-3.1,19.81,4.49Z"/>
    <path class="cls-4" d="M176.7,242.47c-4.32,2.25-10.45,1.87-15.26,1.13-7.8-1.21-15.29-3.28-22.56-6.26-1.53-.62-5.64-2.57-5.51-4.24.15-2.04,6.67-2.82,8.44-2.92,8.68-.5,17.3.2,25.81,2.05,3.76.82,11,4.21,10.73,8.07-.05.76-.82,1.74-1.65,2.17ZM176.28,241.48c3.76-2.01-3.5-6.96-8.3-8.05-8.65-1.97-17.49-2.71-26.33-2.16-2.61.16-5.02.57-7.34,1.89,1.4,1.54,3,2.35,4.83,3.12,8.6,3.59,28.73,9.7,37.14,5.21Z"/>
    <path class="cls-5" d="M176.28,241.48c-8.42,4.49-28.55-1.62-37.14-5.21-1.82-.76-3.42-1.58-4.83-3.12,2.33-1.32,4.73-1.73,7.34-1.89,8.83-.55,17.68.19,26.33,2.16,4.8,1.1,12.06,6.05,8.3,8.05ZM164,236.93c.05-.8-.55-1.87-1.45-2.31-3.89-1.88-8.52-2.22-12.73-1.22-.86.2-1.6,1.08-1.66,1.73-.38,4.14,15.54,6.17,15.84,1.79Z"/>
    <path class="cls-4" d="M164,236.93c-.3,4.38-16.22,2.35-15.84-1.79.06-.65.8-1.53,1.66-1.73,4.21-1.01,8.84-.67,12.73,1.22.9.44,1.5,1.5,1.45,2.31ZM162.9,236.81c.06-.65-.95-1.39-1.58-1.62-3.57-1.31-7.35-1.64-11.07-.8-.4.09-1.07.64-1.02.97.38,2.61,13.39,4.33,13.67,1.45Z"/>
    <path class="cls-2" d="M162.9,236.81c-.28,2.88-13.29,1.17-13.67-1.45-.05-.34.62-.88,1.02-.97,3.71-.84,7.5-.51,11.07.8.63.23,1.65.98,1.58,1.62Z"/>
  </g>
</svg>