<?xml version="1.0" encoding="UTF-8"?>
<svg id="Layer_2" data-name="Layer 2" xmlns="http://www.w3.org/2000/svg" viewBox="0 0 404.77 278.02">
  <defs>
    <style>
      .cls-1 {
        fill: #a2acaf;
      }

      .cls-2 {
        fill: #a5aeb1;
      }

      .cls-3 {
        fill: #065494;
      }

      .cls-4 {
        fill: #fdfdfd;
      }
    </style>
  </defs>
  <g id="Layer_1-2" data-name="Layer 1">
    <path class="cls-3" d="M161.46,132.66c-7.82,16.64-14.15,34.5-17.17,53.27-4.7,29.14,6.93,57.92,28.06,77.26,4.56,4.18,9.19,8.57,14.85,10.69l6.24,4.14H40.64l6-4.04c1.85-1.25,4.55-2.71,6.19-4.8l30.39-38.64,85.59-116.84-7.35,18.96Z"/>
    <path class="cls-2" d="M404.77,14.14v10.79l-2.33,4.94-31.04,60.04h-64.17s13.72-27.01,13.72-27.01l-43.12-.14-79.18,152.41,43.3.07,23.1-44.68-26.74-.33,32.57-62.64,91.21.09-74.7,143.72c-8.54,13.82-21.58,21.83-36.25,26.61h-57.71l-6.24-4.14,59.4-.77c15.3-.2,27.97-11.9,36.3-24.27l70.99-136.71-80.94-.16-27.98,53.8,26.71.46-27.69,53.39-53.41-.19,83.62-160.99h53.35s-13.56,26.81-13.56,26.81l53.86.05,28.79-55.42c2.64-5.08,3.14-10.39,2.31-15.96-2.15-4.83-6.59-9.47-12.97-9.47l-293.41-.05-27.91,53.82,53.41.39L6.31,273.38l40.33.61-6,4.04H0L111.22,63.28l-53.3-.41L90.5,0l297.09.07c9.1,0,14.26,7.25,17.17,14.07Z"/>
    <path class="cls-4" d="M187.2,273.88c-5.66-2.11-10.29-6.51-14.85-10.69-1.25-1.89-2.56-3.72-4.28-5.91-15.92-20.24-23.67-45.94-18.25-71.48,5.32-25.13,16.26-46.93,27.84-71.12-6.55,4.84-10.27,13.13-16.19,17.99l7.35-18.96-85.59,116.84-30.39,38.64c-1.64,2.09-4.34,3.55-6.19,4.8l-40.33-.61L118.08,58.61l-53.41-.39L92.58,4.4l293.41.05c6.38,0,10.82,4.65,12.97,9.47.82,5.56.33,10.88-2.31,15.96l-28.79,55.42-53.86-.05,13.56-26.8h-53.35s-83.62,160.98-83.62,160.98l53.41.19,27.69-53.39-26.71-.46,27.98-53.8,80.94.16-70.99,136.71c-8.33,12.37-21,24.07-36.3,24.27l-59.4.77ZM193.12,101.65c1.94,1.15,2.08,4.01,2.49,6.93l.42,3.01c.1.75,2.96-.88,3.14-1.66l2.83-12.54c.42-1.85,2.38-3.85,3.87-4.55l6.52,19.73,3.87-2.86c1.41.84,1.91,2.36,3.28,5.66l7.07-6.14c4.11-25-.16-29.91,15.27-50.55,4.61-6.17,9.33-10.52,12.29-18.03l-16.04,7.04,4.46-8.98c-7.53,1.04-11.43,5.84-17.41,9.24-23.95,13.58-24.68,8.57-52.49,10.28l-4.27,7.34,25.28,9.4c-3.43,3.32-6.1,6.31-9.08,8.13-3.69,1.96-16.7.34-16.86,4.61l9.86,2.78-2.83,5.87,6.23,6.5,5.89-2.35,2.63,10.02c2.69-2.39,3.11-5.74,3.6-8.87Z"/>
    <path class="cls-1" d="M172.34,263.2c-21.13-19.34-32.76-48.12-28.06-77.26,3.03-18.77,9.36-36.63,17.17-53.27,5.92-4.86,9.64-13.15,16.19-17.99-11.58,24.19-22.52,46-27.84,71.12-5.41,25.55,2.33,51.24,18.25,71.48,1.72,2.19,3.03,4.02,4.28,5.91Z"/>
    <path class="cls-3" d="M238.11,47.69c-1.98,2.13-4.63,4.81-6.32,7.65-15.06,25.3-8.98,20.95-12.75,51.03-.84,1.08-2.01,2.75-2.79,3.33l-3.87,2.86-6.52-19.73-2.52-7.56c-10.25,9.97-8.52,5.51-10.23,16.37-.49,3.14-.91,6.48-3.6,8.87l-2.63-10.02-5.89,2.35-6.23-6.5,2.83-5.87-9.86-2.78c.16-4.27,13.16-2.65,16.86-4.61,2.98-1.82,5.65-4.81,9.08-8.13l-25.28-9.4,4.27-7.34c27.81-1.72,28.53,3.3,52.49-10.28,5.98-3.39,9.89-8.19,17.41-9.24l-4.46,8.98Z"/>
    <path class="cls-1" d="M216.25,109.71c.78-.58,1.95-2.25,2.79-3.33,3.77-30.09-2.31-25.74,12.75-51.03,1.69-2.83,4.34-5.52,6.32-7.65l16.04-7.04c-2.96,7.51-7.68,11.87-12.29,18.03-15.43,20.64-11.16,25.55-15.27,50.55l-7.07,6.14c-1.37-3.3-1.86-4.82-3.28-5.66Z"/>
    <path class="cls-1" d="M205.87,92.84c-1.49.71-3.45,2.7-3.87,4.55l-2.83,12.54c-.18.78-3.03,2.41-3.14,1.66l-.42-3.01c-.41-2.92-.55-5.79-2.49-6.93,1.71-10.86-.02-6.4,10.23-16.37l2.52,7.56Z"/>
  </g>
</svg>