<?xml version="1.0" encoding="UTF-8"?>
<svg id="Layer_2" data-name="Layer 2" xmlns="http://www.w3.org/2000/svg" viewBox="0 0 961.82 961.2">
  <defs>
    <style>
      .cls-1 {
        fill: #020202;
      }

      .cls-2 {
        fill: #d40608;
      }

      .cls-3 {
        fill: #fbfbfb;
      }
    </style>
  </defs>
  <g id="Layer_1-2" data-name="Layer 1">
    <g>
      <path class="cls-2" d="M539.69,2.86c6.5,3.07,35.44,5.53,46.49,7.95,189.61,41.63,339.77,200.11,369.6,392.4,29.08,187.42-48.39,368.25-204.11,474.55-259.64,177.24-618.86,59.59-723.74-234.7C-29.63,481.52,3.07,299.17,113.99,169.07,215.43,50.07,356.27-5.96,512.5.5c3.4.14,25.96,1.77,27.19,2.36ZM801.61,147.89C639.44-6.01,391.7-25.51,209.64,106.73-56.92,300.35-39.92,703.68,241.04,874.96c265.83,162.05,610.19,18,687.63-280.2,41.16-158.47-8.89-334.7-127.07-446.87Z"/>
      <path class="cls-1" d="M801.61,147.89c118.18,112.16,168.23,288.39,127.07,446.87-77.45,298.2-421.81,442.25-687.63,280.2C-39.92,703.68-56.92,300.35,209.64,106.73,391.7-25.51,639.44-6.01,801.61,147.89ZM479.95,82.55l-83.88,8.09.89,17.9,30.52-3.04,2.02,1.01,8.46,84.04,20.07-2.61-8.07-84.4,31.03-3.47.93-1.93-1.97-15.58ZM542.08,131.42l8.79-40.25c-.62-2.13-17.06-5.63-18.79-4.5l-23.71,99.91,18.5,3.87,10.66-40.8,45.43,10.91-10.07,42.41,18.1,4.16,24.53-100.59-16.28-4.81-1.79.76-9.5,40.06-45.88-11.13ZM345.84,105.67c-2.58-1.63-14.64,6.24-17.92,7.45l28.04,61.42-75.73-37.83-16.34,7.43,44.68,94.33c2.96-1.54,16.35-6.53,16.4-9.38l-29-62.54,76.75,37.77c2.65,1.57,16.81-4.79,17.17-6.37l-44.04-92.28ZM724.8,187.39c1.11-3.48,9.78-11.56,7.7-14.85l-62.9-41.09-55.49,81.72-1.04,4.69,64.3,42.75c1.28-3.41,9.78-12.09,8.15-15.08l-47.48-32.62,13.08-20.23,1.27-.19,39.23,25.88,4.2,1.03c.63-3.87,9.81-11.48,7.69-14.86-4.72-3.86-39.7-24.89-40.43-27.7-.97-3.75,10.82-15.72,11.96-20.26l49.76,30.8ZM221.02,323.48c1.33.21,2.71.29,3.93-.44.73-.44,10.97-12.11,10.99-12.96-.88-5.48-10.87-20.43-9.8-24.76.46-1.86,22.03-25.36,25.31-28.78,1.03-1.07,3.57-4.03,4.53-4.48,4.72-2.19,21.21,7.52,27.26,7.35l12.72-14.34-107.29-37.37c-2.88,2.37-12.02,10.79-11.56,14.1l43.92,101.69ZM772.63,211.68l-82.57,61.51,10.47,15.33,28.06-20.9,12.87,15.99-12.5,42.38,12.5,17.55,2.29-1.7c2.16-4.81,11.39-39.64,13.14-40.87,2.1-1.48,4.53,1.55,6.77,2.35,14.29,5.12,28.57,3.25,38.79-8.77,23.9-28.12-13.51-58.74-27.51-81.53l-2.33-1.35ZM683.96,670.54v-16.5c0-1.03,11.11-13.72,12.83-16.17,96.09-136.39,43.1-326.77-108.15-394.51-112.09-50.2-245.5-17.84-321.18,78.18h-18.5c.68,6.95,5.21,15.41,3.77,22.27-.86,4.08-7.94,13.19-10.29,17.71-98.67,189.35,47.06,403.45,257.01,391.01,62.97-3.73,128.13-35.07,170.72-80.77l13.79-1.22ZM167.96,376.53c5.1-15.89,12.97-27.77,10.89-45.38-3.3-27.99-42-38.29-60.4-16.62-5.85,6.89-18.66,37.92-21.53,47.46-.54,1.78-1.36,3.53-.87,5.46l94.34,38.14c1.58-2.7,7.67-15.95,6.44-17.92l-28.87-11.14ZM856.92,399.51c4.67-17.43,5.22-36.02-4.74-51.7-15.39-24.22-51.47-18.32-54.21,12.24-.98,10.93,2.63,26.26-.28,35.72-1.24,4.04-3.97,7.13-8.31,7.71-16.27,2.17-18.54-20.93-17.42-32.43.36-3.66,4.78-14.54,3.54-16.53-.81-1.29-15.54-6.63-16.49-5.94-6.35,16.5-7.36,35.41-.54,51.94,13.49,32.69,56.76,29.84,59.46-7.5.77-10.66-7.95-48.95,14.76-39.73,9.11,3.7,9.87,19.54,9.24,27.73-.28,3.61-3.24,10.68-1.5,13.54,1.04,1.7,15.52,5.8,16.48,4.95ZM745.94,626.54c-1.67-.28-2.23-.02-3.46,1.03-1.9,1.62-10.59,14.12-10.49,16.37l17.96,49.59-50.29-3.85c-2.24,1.81-14.2,17.41-12.7,18.85l71.29,4.21,34.11,23.87,10.53-15.46-32.37-24.68-24.57-69.94ZM203.98,680.58l32.87-24.68c.16-1-9.57-16.64-12.92-13.97l-79.86,61.25c2.09,3.19,8.49,15.09,12.14,14.21l33.77-24.39,27.01,37.11c.32,3.15-30.45,21.06-32.59,25.45-1.05,2.15,8.7,14.89,11.03,14.96l81.56-62.48c-2.42-2.91-8.03-13.84-11.46-13.53l-34,24.1-27.55-38.03ZM634.07,763.66l45.87-28.62c1.32-1.04,1.21-2.29.82-3.74-.45-1.7-7.69-12.88-9.15-12.66l-62.73,40.58,54.69,88.25,64.3-41.57c.48-1.6-7.37-16.16-11.17-14.17-5.82,3.15-44.16,30.62-47.09,29.73-1.22-.37-13.16-19.26-12.57-21.25l41.84-27.26c-1.26-2.73-7.4-14.53-10.26-14.25l-42.65,26.85c-.56-4.19-13.45-19.25-11.9-21.88ZM296.72,735.8c-19.37,2.62-37.99,20.41-42.91,39.09-14.74,56.04,55.46,93.17,92.12,49.12,32.59-39.16.29-94.91-49.21-88.21ZM586.95,770.55l-22.47,5.02-36.03,56.97-8.94-47.05c-1.86-2.71-16.11,1.62-19.57,2.07l19.06,101.93,18.53-2.87-4.56-29.48,10.56-17.66,2.98,1.02,39.49,35.59,22.95-3.54c1.17-1.02-5-6.57-5.98-7.51-14.85-14.19-31.93-26.99-46.91-41.16l.68-4.05c7.85-14.78,22.02-30.22,29.06-44.94.69-1.45,1.51-2.56,1.16-4.33ZM469.61,795.89c-28.68-28.53-78.94-18.91-90.91,20.89-12.07,40.15,17.32,74.88,58.75,70.75,5.01-.5,22.57-7.05,25.05-11,2.07-3.3-6.86-11.7-8.2-15.06-2.68-.56-10.76,5.37-14.37,6.54-21.8,7.07-42.03-7.76-43.85-30.09-2.44-29.98,29-52.54,54.79-32.8,4.16,3.18,6.5,7.92,10.57,10.43l14.46-10.65c.49-1.61-4.85-7.59-6.29-9.02Z"/>
      <path class="cls-3" d="M683.96,670.54l-13.79,1.22c-42.58,45.71-107.75,77.04-170.72,80.77-209.96,12.44-355.68-201.66-257.01-391.01,2.35-4.51,9.44-13.63,10.29-17.71,1.44-6.86-3.09-15.33-3.77-22.27h18.5c75.67-96.02,209.08-128.37,321.18-78.18,151.25,67.73,204.24,258.12,108.15,394.51-1.73,2.45-12.83,15.14-12.83,16.17v16.5ZM312.46,336.54h-44.5l59.1,225.9,36.76-.04,40.15-135.85,41.46,135.02c.78,1.01,1.87.9,2.97,1.03,3.68.43,30.7.52,32.89-.22,1.39-.47,1.68-1.65,2.17-2.83.61-1.5,4.5-15.65,4.5-16.5v-128c.63-.99,1.38-1.29,2.5-1.5,4.95-.91,16.34-.16,22.04-.04,3.29.07,6.91,2.58,9.52-.4l20.94-76.56h-45.5l-34.51,139-2.23-1.28-39.85-136.14c-.72-1.54-1.92-1.48-3.36-1.64-8.69-1-19.18.91-28.09-.01l-41.95,140.07-35.01-140.01ZM623.96,521.54h-75.5c-1.43-.88-1.38-1.99-1.55-3.45-1.2-10.19.95-20.93,1.1-31,.28-18.82.11-37.75-.54-56.55-.92-1.67-2.26-1.82-3.96-2.04-7.84-1.01-25.83-.6-34.08,0-2.24.16-4.26.89-6.46,1.04v224.5l1.5,1.5h42l1.5-1.5v-92.5h76v94h44v-226c-11.16-.22-22.37.27-33.54.05-3.64-.07-6.59-2.03-10.46-.05v92Z"/>
      <path class="cls-3" d="M345.84,105.67l44.04,92.28c-.36,1.58-14.52,7.94-17.17,6.37l-76.75-37.77,29,62.54c-.05,2.84-13.45,7.84-16.4,9.38l-44.68-94.33,16.34-7.43,75.73,37.83-28.04-61.42c3.28-1.2,15.34-9.08,17.92-7.45Z"/>
      <path class="cls-3" d="M772.63,211.68l2.33,1.35c14,22.79,51.41,53.41,27.51,81.53-10.22,12.03-24.5,13.9-38.79,8.77-2.24-.8-4.67-3.84-6.77-2.35-1.75,1.24-10.98,36.06-13.14,40.87l-2.29,1.7-12.5-17.55,12.5-42.38-12.87-15.99-28.06,20.9-10.47-15.33,82.57-61.51ZM768.66,237.66c-1.38.38-21.45,15.4-23.06,17.02-.67.68-1.86.92-1.71,2.35,9.38,11.73,21.72,40.06,40.39,27.35,7.6-5.18,8.36-14.25,4.49-22.15-1.11-2.26-15.9-22.7-17.26-23.75-1-.77-1.5-1.18-2.86-.81Z"/>
      <path class="cls-3" d="M296.72,735.8c49.5-6.7,81.81,49.05,49.21,88.21-36.66,44.05-106.86,6.92-92.12-49.12,4.91-18.69,23.54-36.47,42.91-39.09ZM299.69,754.78c-34.05,5.7-39.5,63.64-2,69.52,50.64,7.95,57.83-78.88,2-69.52Z"/>
      <path class="cls-3" d="M724.8,187.39l-49.76-30.8c-1.14,4.54-12.93,16.51-11.96,20.26.73,2.81,35.7,23.84,40.43,27.7,2.12,3.38-7.05,10.99-7.69,14.86l-4.2-1.03-39.23-25.88-1.27.19-13.08,20.23,47.48,32.62c1.63,2.99-6.87,11.68-8.15,15.08l-64.3-42.75,1.04-4.69,55.49-81.72,62.9,41.09c2.07,3.28-6.59,11.37-7.7,14.85Z"/>
      <path class="cls-3" d="M634.07,763.66c-1.55,2.63,11.35,17.69,11.9,21.88l42.65-26.85c2.86-.27,8.99,11.52,10.26,14.25l-41.84,27.26c-.59,2,11.35,20.88,12.57,21.25,2.93.89,41.27-26.58,47.09-29.73,3.8-2,11.65,12.56,11.17,14.17l-64.3,41.57-54.69-88.25,62.73-40.58c1.46-.22,8.7,10.96,9.15,12.66.38,1.45.5,2.7-.82,3.74l-45.87,28.62Z"/>
      <path class="cls-3" d="M542.08,131.42l45.88,11.13,9.5-40.06,1.79-.76,16.28,4.81-24.53,100.59-18.1-4.16,10.07-42.41-45.43-10.91-10.66,40.8-18.5-3.87,23.71-99.91c1.73-1.13,18.17,2.37,18.79,4.5l-8.79,40.25Z"/>
      <path class="cls-3" d="M203.98,680.58l27.55,38.03,34-24.1c3.44-.31,9.04,10.62,11.46,13.53l-81.56,62.48c-2.33-.07-12.08-12.8-11.03-14.96,2.14-4.39,32.91-22.3,32.59-25.45l-27.01-37.11-33.77,24.39c-3.66.88-10.05-11.02-12.14-14.21l79.86-61.25c3.35-2.67,13.09,12.97,12.92,13.97l-32.87,24.68Z"/>
      <path class="cls-3" d="M586.95,770.55c.35,1.77-.47,2.88-1.16,4.33-7.04,14.72-21.21,30.16-29.06,44.94l-.68,4.05c14.98,14.17,32.06,26.97,46.91,41.16.98.94,7.15,6.49,5.98,7.51l-22.95,3.54-39.49-35.59-2.98-1.02-10.56,17.66,4.56,29.48-18.53,2.87-19.06-101.93c3.46-.45,17.71-4.78,19.57-2.07l8.94,47.05,36.03-56.97,22.47-5.02Z"/>
      <path class="cls-3" d="M221.02,323.48l-43.92-101.69c-.46-3.31,8.68-11.73,11.56-14.1l107.29,37.37-12.72,14.34c-6.05.17-22.53-9.55-27.26-7.35-.96.45-3.5,3.41-4.53,4.48-3.28,3.42-24.85,26.92-25.31,28.78-1.07,4.33,8.92,19.29,9.8,24.76-.01.85-10.26,12.53-10.99,12.96-1.22.73-2.6.66-3.93.44ZM238.96,243.55l-37.99-12.01,15.01,35.99c1.51.41,1.66-.4,2.5-.98,3.55-2.44,16.9-16.75,19.5-20.5.59-.85,1.39-.99.98-2.5Z"/>
      <path class="cls-3" d="M167.96,376.53l28.87,11.14c1.23,1.97-4.86,15.21-6.44,17.92l-94.34-38.14c-.49-1.92.34-3.68.87-5.46,2.87-9.54,15.68-40.57,21.53-47.46,18.41-21.67,57.11-11.38,60.4,16.62,2.07,17.62-5.8,29.49-10.89,45.38ZM151.83,368.41c4.83-11.81,17.18-34.3,2.05-43.29-20.69-12.29-30.01,15.23-34.79,29.82,3.57,2.84,30.64,14.78,32.74,13.47Z"/>
      <path class="cls-3" d="M856.92,399.51c-.97.85-15.45-3.25-16.48-4.95-1.74-2.85,1.22-9.92,1.5-13.54.63-8.18-.13-24.03-9.24-27.73-22.71-9.22-13.99,29.06-14.76,39.73-2.7,37.34-45.98,40.18-59.46,7.5-6.82-16.53-5.81-35.45.54-51.94.95-.69,15.68,4.65,16.49,5.94,1.25,1.99-3.18,12.87-3.54,16.53-1.12,11.5,1.15,34.6,17.42,32.43,4.33-.58,7.07-3.67,8.31-7.71,2.91-9.46-.7-24.79.28-35.72,2.73-30.56,38.82-36.46,54.21-12.24,9.96,15.67,9.41,34.26,4.74,51.7Z"/>
      <path class="cls-3" d="M469.61,795.89c1.44,1.43,6.78,7.41,6.29,9.02l-14.46,10.65c-4.07-2.51-6.41-7.25-10.57-10.43-25.79-19.75-57.23,2.82-54.79,32.8,1.82,22.33,22.04,37.16,43.85,30.09,3.6-1.17,11.69-7.1,14.37-6.54,1.35,3.36,10.28,11.77,8.2,15.06-2.49,3.95-20.04,10.5-25.05,11-41.43,4.13-70.82-30.6-58.75-70.75,11.97-39.81,62.23-49.42,90.91-20.89Z"/>
      <path class="cls-3" d="M745.94,626.54l24.57,69.94,32.37,24.68-10.53,15.46-34.11-23.87-71.29-4.21c-1.5-1.44,10.46-17.04,12.7-18.85l50.29,3.85-17.96-49.59c-.09-2.26,8.6-14.75,10.49-16.37,1.23-1.05,1.78-1.31,3.46-1.03Z"/>
      <polygon class="cls-3" points="479.95 82.55 481.92 98.14 480.99 100.06 449.95 103.54 458.03 187.93 437.95 190.55 429.49 106.51 427.47 105.5 396.95 108.55 396.07 90.65 479.95 82.55"/>
      <path class="cls-1" d="M312.46,336.54l35.01,140.01,41.95-140.07c8.91.92,19.41-.99,28.09.01,1.43.16,2.64.1,3.36,1.64l39.85,136.14,2.23,1.28,34.51-139h45.5l-20.94,76.56c-2.61,2.98-6.24.46-9.52.4-5.7-.11-17.09-.86-22.04.04-1.12.2-1.87.51-2.5,1.5v128c0,.86-3.89,15-4.5,16.5-.48,1.18-.78,2.36-2.17,2.83-2.19.74-29.21.65-32.89.22-1.1-.13-2.19-.02-2.97-1.03l-41.46-135.02-40.15,135.85-36.76.04-59.1-225.9h44.5Z"/>
      <path class="cls-1" d="M623.96,521.54v-92c3.87-1.98,6.82-.03,10.46.05,11.17.23,22.38-.26,33.54-.05v226h-44v-94h-76v92.5l-1.5,1.5h-42l-1.5-1.5v-224.5c2.21-.15,4.22-.88,6.46-1.04,8.26-.6,26.25-1.01,34.08,0,1.7.22,3.03.38,3.96,2.04.65,18.8.82,37.73.54,56.55-.15,10.07-2.29,20.82-1.1,31,.17,1.46.12,2.57,1.55,3.45h75.5Z"/>
      <path class="cls-1" d="M768.66,237.66c1.35-.37,1.86.04,2.86.81,1.36,1.05,16.15,21.49,17.26,23.75,3.87,7.9,3.12,16.97-4.49,22.15-18.67,12.72-31.01-15.62-40.39-27.35-.15-1.43,1.03-1.67,1.71-2.35,1.61-1.62,21.68-16.64,23.06-17.02Z"/>
      <path class="cls-1" d="M299.69,754.78c55.83-9.35,48.65,77.48-2,69.52-37.5-5.89-32.05-63.82,2-69.52Z"/>
      <path class="cls-1" d="M238.96,243.55c.41,1.51-.4,1.66-.98,2.5-2.6,3.75-15.95,18.06-19.5,20.5-.84.58-.99,1.39-2.5.98l-15.01-35.99,37.99,12.01Z"/>
      <path class="cls-1" d="M151.83,368.41c-2.1,1.31-29.17-10.63-32.74-13.47,4.78-14.59,14.11-42.12,34.79-29.82,15.13,8.99,2.78,31.48-2.05,43.29Z"/>
    </g>
  </g>
</svg>