<?xml version="1.0" encoding="UTF-8"?>
<svg id="Layer_2" data-name="Layer 2" xmlns="http://www.w3.org/2000/svg" viewBox="0 0 761.49 761.39">
  <defs>
    <style>
      .cls-1 {
        fill: #0a899b;
      }

      .cls-2 {
        fill: #222021;
      }

      .cls-3 {
        fill: #feffff;
      }
    </style>
  </defs>
  <g id="Layer_1-2" data-name="Layer 1">
    <path class="cls-1" d="M466.8,751.34c-57.73,13.54-115.57,13.32-172.68-.16-47.63-11.24-91.82-30.3-131.76-58.63-37.23-26.4-69.12-58.04-95.03-95.79s-45.7-79.48-55.38-124.58c-16.2-59.02-15.21-120.15-1.35-179.36,10.89-46.52,29.71-89.35,56.84-128.52,24.67-35.61,54.48-65.92,89.38-91.56,41.17-30.24,87.16-50.7,136.82-62.47,57.14-13.54,115.19-13.7,172.46-.43,49.37,11.44,95.02,31.45,136.16,61.11,33.55,24.19,62.34,52.74,86.74,86.13,30.15,41.26,50.62,87.15,62.34,136.9,13.7,58.14,13.51,117.38-.5,175.41-11.24,46.56-30.02,89.66-57.55,128.86-26,37.01-57.38,68.54-94.38,94.58-39.95,28.13-84.06,47.22-132.13,58.5ZM521.27,704.09c140.37-61.3,225.35-205.59,210.46-357.57-4.14-42.26-15.57-82.59-34.16-121.01-23.93-49.44-59.44-91.87-102.51-125.01C485.08,15.87,334.16,4.39,212.58,70.55,110.9,125.87,41.8,228.13,29.92,344.04c-10.16,99.09,21.37,197.36,87.8,271.64,28.02,31.33,60.11,56.37,97.46,76.5,45.4,24.46,95.47,37.77,147.21,40.61,54.24,2.98,108.91-6.88,158.88-28.7Z"/>
    <path class="cls-2" d="M521.27,704.09c-49.97,21.82-104.64,31.68-158.88,28.7-51.74-2.84-101.81-16.15-147.21-40.61-37.35-20.12-69.44-45.16-97.46-76.5C51.28,541.4,19.76,443.13,29.92,344.04c11.88-115.9,80.98-218.16,182.66-273.49C334.16,4.39,485.08,15.87,595.05,100.5c43.07,33.14,78.58,75.57,102.51,125.01,18.59,38.42,30.02,78.75,34.16,121.01,14.89,151.98-70.09,296.27-210.46,357.57ZM384.48,87.39l.31,11-20,.52-1.09-37.82,20.27-.5.58,6.17,14.93-.56c-.88-12.93,2.36-13.12-6.57-21.26l-40.48,1.27c-1.95,2.03-4.69,5.46-5.66,7.67l1.62,53.81,6,7.06,40.98-1.3,5.47-7.46-1.24-34.44-24.92.8.34,15.24,9.46-.18ZM275.76,134.21l23.95-6.96-3.91-14-4.66-.49-8.02-29.29,33.86,39.09,23.2-6.71-14.57-50.65,3.66-2.69-4.14-13.94-24.05,6.89,3.78,13.8,4.91.86c1.99,8.83,5.55,15.86,6.29,26.26l-29.66-36.7-29.66,8.61,3.84,14.22,4.5-.04,10.03,34.63c-.77.75-2,1.72-3.6,2.93l4.27,14.2ZM469.7,100.92l-2.92,10.53-19.24-5.24,9.91-36.54,19.59,5.42-.81,6.2,14.06,3.74,3.45-13.39c.63-2.44-2.44-7.28-4.18-9.14l-38.32-10.44c-2.51,1.57-5.54,3.66-7.68,5.32l-14.15,51.8c.59,2.83,2.52,6.87,4.17,9.23l38.44,10.41c2.56-1.33,6.3-3.88,7.96-5.8l8.88-32.95-24.29-6.48-3.86,14.67,8.99,2.67ZM570.43,101.98l-22.06-12.03-7.1,12.92,3.15,3.15-18,32.59-19.18-10.67,17.62-32.09,4.75.32,6.92-12.86-22.02-11.99-7.12,12.79,3.14,3.2-21.37,38.88c-1.17,2.13.63,7.81,1.49,10.19l37.56,20.77c2.99-.85,6.86-2.29,9.14-3.78l21.66-39.34,4.37,1.02,7.04-13.08ZM190.54,123.72c1.88-.65,3.58-1.17,4.29-1.05l23.27,38.07,9.02,3.44,36.83-22.57c.78-2.45,2.33-8.16,1.03-10.28l-22.89-37.48,2.54-4.03-7.53-12.29-21.39,13.22,6.93,11.49c.55.81,3.64.25,4.85-.19l19.53,31.86-18.76,11.48-19.47-31.92c1.13-.94,2.9-3.5,2.29-4.47l-6.98-11.18-21.48,13.04,7.91,12.85ZM570.71,193.95l17.43,16.47,36.54-37.73,4.45,1.55,9.86-10.29-17.96-17.45-10.14,10.2,1.68,4.49c-6.6,6.72-12.06,13.2-20.19,19.73l17.69-45.1-22.38-21.52-9.94,10.25,1.61,4.49-24.87,25.64-4.49-1.64-9.91,10.68,17.99,17.3,10.17-10.36-2.06-4.19c7.28-7.27,13.13-14.04,21.26-20.85l-16.74,48.33ZM183.77,204.36l27.02-26.94c.23-2.67-.05-7.37-1-10.02l-37.92-38.07-9.33-.81-27.12,27.05c-.26,2.89,0,6.6.46,9.82l37.84,37.94c3.09.65,6.96,1.13,10.05,1.04ZM134.38,229.12l7.79,5.09-.71,4.62,12.41,7.76,13.4-21.06-12.08-7.96-3.99,2.71-8.01-5.29-13.42-28.75,1.42-4.76-12.47-7.55-13.35,21.11,12.02,7.75,3.59-1.96,5.66,13.59-15.13.62c.39-1.83.69-3.33.62-4.01l-12.13-7.57-13.43,21.22,12.41,7.89,3.45-3.31,31.96-.13ZM626.4,255.78l21.86-13.62c1.64-1.02,3.02-5.34,3.58-7.15l-13.11-28.2c2.34-1.83,4.53-3.19,7.48-4.73l9.67,15.59-5.3,3.8,8.78,13.9,11.63-7.43c2.3-1.47,3.23-6.88,3.58-9.42l-21.12-33.85c-2.7-.62-7.04-1.29-9.71-1.18l-20.65,13.23c-1.95,1.25-3.61,7.25-2.8,9.34l12.07,26.06c-2.8,2.26-5.76,4.05-8.79,5.41l-9.48-15.47,5.52-3.99-8.66-13.95-12.79,7.92c-1.09,2.15-2.34,6.39-2.97,8.98l21.38,34.1c2.24.41,7.68,2,9.81.68ZM485.72,348.12c31.11-16.8,60.24-43.05,70.39-76.92,3.6-12.02,4.79-24.43,1.2-36.34-.41-1.38-1.45-2.97-2.23-3.62s-3.78-.43-4.81.19l-21.54,12.92c-19.44,11.66-44.79,26.89-67.73,29.89l2.08,20.59c-9.06,4.46-16.54,9.71-26.67,13.25l23.66-15.1-13.66-108.79-30.25,8.02-13.91-1.48-22.69,19.26-22.48-19.26c-4.63-.24-10.47,2.2-14.86,1.07l-29.33-7.53-13.68,108.66c6.53,4.76,13.51,7.77,19.53,13.19-8.38-3.35-14.92-7.34-22.51-11.37l2.03-20.49c-34.67-5.6-62.02-28.59-92.19-43.93-2.27.52-4.36,4.49-4.83,6.77-9.93,47.84,35.71,92.91,75.29,112.65l91.59,45.68,1.12-8.75c11.22,5.18,9.45,5.33,20.73,0l1.16,8.78c31.92-15.14,62.91-30.26,94.57-47.36ZM320.32,412.18c13-3.08,24.34-4.88,36.46-8.73l-80.1-27.78,34.94,25.83c3.36,2.49,5.39,7.51,8.7,10.68ZM448.79,400.55c11.36-9.05,23.28-15.02,33.9-24.96l-80.22,27.84c12.4,3.9,24.19,5.85,36.83,8.73,3.19-3.55,5.55-8.48,9.48-11.61ZM499.96,394.87c-11.88,13.07-21.31,24.73-35.44,32.18-9.11,5.14-19.22,7.46-29.01,3.45-41.91-21.86-69.1-22.18-111.07-.34-9.06,4.18-18.64,2.43-27.53-2.04-15.08-7.39-25.3-19.58-37.5-33.19,2.82,35.78,19.07,75.71,43.81,101.02-6.89-2.7-11.58-7.5-18.65-11.34,16.58,44.3,50.51,86.68,94.81,103.43,44.22-15.72,78.84-59.53,95.41-103.28-7.45,2.81-10.68,8.93-17.87,10.5,24.77-26.51,39.99-64.65,43.03-100.39ZM122.08,542.26c-.4-1.77-.77-4.32-.16-4.62l32.03-15.6,3.33,3.31,12.99-6.72-10.96-22.43-13.24,6.46.48,4.57-8.97,4.01-9.47-19.4,8.3-4.43,4.35,2.9,12.57-6.35-10.92-22.52-13.23,6.4.79,4.37-33.21,16.08c-1.24-1.43-2.6-2.83-3.4-3.21l-12.59,6.48,10.98,22.45,13.18-6.3-.76-4.53,10.24-4.58,9.35,19.48-9.87,5-3.06-3.45-13.15,6.81,11.01,22.39,13.39-6.57ZM658.36,541.78l20.74-43.88c-.94-2.47-2.44-7.92-4.65-8.98l-17.6-8.43-8.45.69-4.6-6.84-17.72-8.19c-2.39.08-6.96,1.58-9.07,2.5l-20.58,43.79,13.14,6.52,3.3-3.23,32.76,15.43-.36,4.59,13.09,6.01ZM553.67,565.5l11.29,9.5,3.98-2.29,34.47,28.76,9.57.09,27.19-32.64c.37-2.39.15-8.44-1.61-10.21l-34.43-28.82,1.91-3.84-11.41-9.57-16.21,19.31,11.43,9.57,3.55-2.62,28.66,24-14.18,16.69-28.8-24.01,2.14-3.79-11.45-9.41-16.09,19.28ZM161.04,601.47l40.34-34.25c1.08-3.04,1.67-6.59,1.74-9.9l-25.01-29.33c-2.77-.14-8.22-.79-10.08.78l-40.14,33.97c-1.01,2.98-1.78,6.88-1.83,9.96l24.95,29.37c3.3.13,6.69-.02,10.03-.61ZM210.01,631.61l-14.91-11.33,22.48-30.31,15.07,11.16-5.8,8.26,12.24,9,10.6-14.61c.57-2.09.03-6.83-.28-9.36l-31.35-23.21-9.29,2.43-31.99,43.34.63,9.6,31.08,22.89c2.32-.38,7.87-.8,9.32-2.73l10.61-14.08-12.16-8.96-6.26,7.91ZM578.03,600.37l-12.06,9.17,5.85,8.33-12.65,9.03-22.09-29.69,2.54-4.02-8.93-11.21-19.96,14.91,8.82,11.89,3.92-1.85,21.87,29.28-2.38,4.04,8.89,11.54,41.48-30.9-15.29-20.5ZM293.37,673.52c-2.97-1.94-3.77-3.22-3.65-5.37l1.41-26.3c4.21-3.17,10.1-5.29,15.94-5.15l5.51-13.44-23.89-9.9-4.93,11.38c-.22.51-.58,1.9-.22,2.3l1.67,1.83-18.56,6.7,4.54-12.2,4.56.57,5.62-13.67-23.08-9.67-5.79,13.47,3.48,2.88-14.23,33.96-4.38-.69-5.58,13.7,23.32,9.66,5.49-13.94-3.25-2.54c-3.69-2.88,13.72-8.41,15.95-8.74l-2.22,32.1,16.63,6.6,5.66-13.53ZM509.66,644.96l3.96,9.23-17.24,7.59-15.3-34.65,17.23-7.6,4.19,9.17,14.01-6.17-7.55-16.34c-.97-2.11-6.41-3.69-8.57-4.33l-35.51,15.61-2.28,9.13,21.67,49.17c2.46,1.57,5.91,3.27,8.63,4.39l35.5-15.72c.86-2.39,2.32-6.9,2.33-9.26l-7-16.2-14.06,5.97ZM328.84,679.66l1.95-11.61,27.43,4.79,2.53-16.19-27.71-3.78,1.7-10.65,16.03,2.53-.5,6.33,14.82,2.12,3.22-21.31-51.96-8.05-2.27,14.7,4,1.75-5.51,35.91-4.57,1.2-2.01,14.25,51.89,8.04,3.28-21.42-14.85-2.28-1.31,6.14-16.14-2.46ZM397.49,673.35l1.01,9.79-4.31,1.94,1.22,14.54,24.95-1.94-1.06-15.18-4.26.1-.81-10.41,14.86-28.06,4.55-1.81-1.33-14.43-24.94,2.03,1.03,14.15,3.89,1.67-7.65,12.79-9.68-11.7,3.74-1.69-1.25-14.41-24.94,2.03,1.02,14.7,5.02,1.01,18.94,24.9Z"/>
    <path class="cls-3" d="M485.72,348.12c-31.66,17.1-62.66,32.21-94.57,47.36l-1.16-8.78c-11.28,5.33-9.51,5.18-20.73,0l-1.12,8.75-91.59-45.68c-39.58-19.74-85.22-64.81-75.29-112.65.47-2.28,2.56-6.25,4.83-6.77,30.17,15.34,57.53,38.33,92.19,43.93l-2.03,20.49c7.59,4.03,14.13,8.02,22.51,11.37-6.03-5.41-13-8.42-19.53-13.19l13.68-108.66,29.33,7.53c4.39,1.13,10.23-1.3,14.86-1.07l22.48,19.26,22.69-19.26,13.91,1.48,30.25-8.02,13.66,108.79-23.66,15.1c10.12-3.54,17.61-8.79,26.67-13.25l-2.08-20.59c22.94-3,48.3-18.24,67.73-29.89l21.54-12.92c1.03-.62,4.03-.84,4.81-.19s1.81,2.24,2.23,3.62c3.58,11.9,2.4,24.31-1.2,36.34-10.15,33.87-39.28,60.11-70.39,76.92ZM451,351.24c4.67-.12,6.75-4.2,6.13-7.99-.7-4.31-3.46-7.22-7.98-7.56l-30.52-2.26c-4.08-.3-8.64-2.74-10.73-6.1l-21.83-35.09,34.36-54.92c.79-1.26,2.3-3.54,1.84-4.62-1.22-2.88-7.94-4.88-9.84-3.22-.9.79-1.74,2.94-2.62,4.36l-30.11,48.36-30.26-48.71c-.98-1.58-1.48-3.48-2.53-4.09-2.63-1.53-8.89.61-9.78,3.47-.39,1.25,1.39,3.82,2.24,5.17l34,54.18-20.68,33.24c-2.06,3.31-5.27,7.2-9.55,7.54l-32.58,2.58c-4.47.35-7.69,3.15-8.23,7.71-.19,1.62.17,4.7,1.11,5.74,5.34,5.88,46.95.06,52.64-8.91l23.78-37.49,21.34,34.19c8.35,13.38,35.72,14.79,49.81,14.41ZM321.94,308.8c-1.08-1.45-1.83-2.16-2.79-2.7l2.79,2.7Z"/>
    <path class="cls-3" d="M499.96,394.87c-3.04,35.74-18.26,73.88-43.03,100.39,7.19-1.56,10.42-7.69,17.87-10.5-16.57,43.75-51.19,87.56-95.41,103.28-44.29-16.74-78.23-59.12-94.81-103.43,7.07,3.85,11.76,8.64,18.65,11.34-24.74-25.31-40.99-65.25-43.81-101.02,12.2,13.61,22.42,25.8,37.5,33.19,8.89,4.47,18.47,6.21,27.53,2.04,41.97-21.84,69.16-21.53,111.07.34,9.78,4.01,19.89,1.69,29.01-3.45,14.13-7.44,23.55-19.11,35.44-32.18Z"/>
    <path class="cls-3" d="M275.76,134.21l-4.27-14.2c1.6-1.22,2.83-2.18,3.6-2.93l-10.03-34.63-4.5.04-3.84-14.22,29.66-8.61,29.66,36.7c-.73-10.4-4.3-17.43-6.29-26.26l-4.91-.86-3.78-13.8,24.05-6.89,4.14,13.94-3.66,2.69,14.57,50.65-23.2,6.71-33.86-39.09,8.02,29.29,4.66.49,3.91,14-23.95,6.96ZM317.11,96.5c0-.28-.22-.5-.5-.5s-.5.22-.5.5.22.5.5.5.5-.22.5-.5Z"/>
    <path class="cls-3" d="M570.71,193.95l16.74-48.33c-8.13,6.81-13.98,13.58-21.26,20.85l2.06,4.19-10.17,10.36-17.99-17.3,9.91-10.68,4.49,1.64,24.87-25.64-1.61-4.49,9.94-10.25,22.38,21.52-17.69,45.1c8.14-6.52,13.59-13.01,20.19-19.73l-1.68-4.49,10.14-10.2,17.96,17.45-9.86,10.29-4.45-1.55-36.54,37.73-17.43-16.47Z"/>
    <path class="cls-3" d="M122.08,542.26l-13.39,6.57-11.01-22.39,13.15-6.81,3.06,3.45,9.87-5-9.35-19.48-10.24,4.58.76,4.53-13.18,6.3-10.98-22.45,12.59-6.48c.79.38,2.15,1.77,3.4,3.21l33.21-16.08-.79-4.37,13.23-6.4,10.92,22.52-12.57,6.35-4.35-2.9-8.3,4.43,9.47,19.4,8.97-4.01-.48-4.57,13.24-6.46,10.96,22.43-12.99,6.72-3.33-3.31-32.03,15.6c-.62.3-.24,2.85.16,4.62Z"/>
    <path class="cls-3" d="M658.36,541.78l-13.09-6.01.36-4.59-32.76-15.43-3.3,3.23-13.14-6.52,20.58-43.79c2.11-.92,6.69-2.42,9.07-2.5l17.72,8.19,4.6,6.84,8.45-.69,17.6,8.43c2.21,1.06,3.71,6.5,4.65,8.98l-20.74,43.88ZM629.12,504.74l7.14-15.43-9.73-4.66-7.41,15.56,10,4.53ZM653.55,516.26l7.1-15.44-10.44-5-7.37,15.6,10.71,4.83Z"/>
    <path class="cls-3" d="M293.37,673.52l-5.66,13.53-16.63-6.6,2.22-32.1c-2.23.33-19.63,5.86-15.95,8.74l3.25,2.54-5.49,13.94-23.32-9.66,5.58-13.7,4.38.69,14.23-33.96-3.48-2.88,5.79-13.47,23.08,9.67-5.62,13.67-4.56-.57-4.54,12.2,18.56-6.7-1.67-1.83c-.36-.39,0-1.79.22-2.3l4.93-11.38,23.89,9.9-5.51,13.44c-5.83-.14-11.73,1.99-15.94,5.15l-1.41,26.3c-.11,2.15.68,3.43,3.65,5.37Z"/>
    <polygon class="cls-3" points="328.84 679.66 344.99 682.12 346.3 675.98 361.15 678.26 357.87 699.68 305.98 691.64 307.99 677.39 312.56 676.2 318.07 640.29 314.07 638.54 316.34 623.84 368.3 631.89 365.09 653.2 350.27 651.08 350.77 644.75 334.74 642.22 333.04 652.87 360.75 656.65 358.23 672.84 330.79 668.05 328.84 679.66"/>
    <path class="cls-3" d="M626.4,255.78c-2.13,1.33-7.57-.26-9.81-.68l-21.38-34.1c.63-2.59,1.88-6.83,2.97-8.98l12.79-7.92,8.66,13.95-5.52,3.99,9.48,15.47c3.03-1.36,5.99-3.15,8.79-5.41l-12.07-26.06c-.81-2.08.85-8.09,2.8-9.34l20.65-13.23c2.67-.11,7.01.56,9.71,1.18l21.12,33.85c-.36,2.54-1.29,7.96-3.58,9.42l-11.63,7.43-8.78-13.9,5.3-3.8-9.67-15.59c-2.95,1.54-5.14,2.9-7.48,4.73l13.11,28.2c-.55,1.81-1.94,6.12-3.58,7.15l-21.86,13.62Z"/>
    <path class="cls-3" d="M553.67,565.5l16.09-19.28,11.45,9.41-2.14,3.79,28.8,24.01,14.18-16.69-28.66-24-3.55,2.62-11.43-9.57,16.21-19.31,11.41,9.57-1.91,3.84,34.43,28.82c1.76,1.77,1.98,7.82,1.61,10.21l-27.19,32.64-9.57-.09-34.47-28.76-3.98,2.29-11.29-9.5Z"/>
    <path class="cls-3" d="M570.43,101.98l-7.04,13.08-4.37-1.02-21.66,39.34c-2.28,1.49-6.15,2.93-9.14,3.78l-37.56-20.77c-.87-2.38-2.66-8.07-1.49-10.19l21.37-38.88-3.14-3.2,7.12-12.79,22.02,11.99-6.92,12.86-4.75-.32-17.62,32.09,19.18,10.67,18-32.59-3.15-3.15,7.1-12.92,22.06,12.03Z"/>
    <path class="cls-3" d="M190.54,123.72l-7.91-12.85,21.48-13.04,6.98,11.18c.61.98-1.16,3.53-2.29,4.47l19.47,31.92,18.76-11.48-19.53-31.86c-1.22.44-4.3,1-4.85.19l-6.93-11.49,21.39-13.22,7.53,12.29-2.54,4.03,22.89,37.48c1.29,2.12-.25,7.83-1.03,10.28l-36.83,22.57-9.02-3.44-23.27-38.07c-.71-.12-2.41.39-4.29,1.05Z"/>
    <path class="cls-3" d="M469.7,100.92l-8.99-2.67,3.86-14.67,24.29,6.48-8.88,32.95c-1.65,1.92-5.4,4.47-7.96,5.8l-38.44-10.41c-1.66-2.36-3.58-6.39-4.17-9.23l14.15-51.8c2.14-1.66,5.16-3.76,7.68-5.32l38.32,10.44c1.75,1.86,4.81,6.7,4.18,9.14l-3.45,13.39-14.06-3.74.81-6.2-19.59-5.42-9.91,36.54,19.24,5.24,2.92-10.53Z"/>
    <path class="cls-3" d="M384.48,87.39l-9.46.18-.34-15.24,24.92-.8,1.24,34.44-5.47,7.46-40.98,1.3-6-7.06-1.62-53.81c.97-2.21,3.71-5.64,5.66-7.67l40.48-1.27c8.92,8.14,5.69,8.33,6.57,21.26l-14.93.56-.58-6.17-20.27.5,1.09,37.82,20-.52-.31-11Z"/>
    <path class="cls-3" d="M183.77,204.36c-3.09.09-6.96-.39-10.05-1.04l-37.84-37.94c-.47-3.22-.72-6.92-.46-9.82l27.12-27.05,9.33.81,37.92,38.07c.95,2.65,1.23,7.35,1,10.02l-27.02,26.94ZM193.6,172.71l-26.61-26.67-13.47,13.44,26.8,26.69,13.28-13.45Z"/>
    <path class="cls-3" d="M161.04,601.47c-3.34.59-6.72.74-10.03.61l-24.95-29.37c.05-3.07.82-6.97,1.83-9.96l40.14-33.97c1.85-1.57,7.31-.92,10.08-.78l25.01,29.33c-.07,3.31-.66,6.86-1.74,9.9l-40.34,34.25ZM156.98,584.93l28.69-24.53-12.42-14.28-28.81,24.58,12.54,14.23Z"/>
    <path class="cls-3" d="M509.66,644.96l14.06-5.97,7,16.2c0,2.35-1.47,6.86-2.33,9.26l-35.5,15.72c-2.71-1.12-6.16-2.82-8.63-4.39l-21.67-49.17,2.28-9.13,35.51-15.61c2.15.64,7.59,2.22,8.57,4.33l7.55,16.34-14.01,6.17-4.19-9.17-17.23,7.6,15.3,34.65,17.24-7.59-3.96-9.23Z"/>
    <path class="cls-3" d="M210.01,631.61l6.26-7.91,12.16,8.96-10.61,14.08c-1.45,1.93-7,2.35-9.32,2.73l-31.08-22.89-.63-9.6,31.99-43.34,9.29-2.43,31.35,23.21c.3,2.54.84,7.27.28,9.36l-10.6,14.61-12.24-9,5.8-8.26-15.07-11.16-22.48,30.31,14.91,11.33Z"/>
    <polygon class="cls-3" points="397.49 673.35 378.55 648.45 373.53 647.44 372.5 632.74 397.44 630.71 398.69 645.13 394.95 646.82 404.63 658.52 412.28 645.74 408.39 644.06 407.36 629.91 432.3 627.88 433.64 642.31 429.08 644.12 414.22 672.18 415.03 682.59 419.29 682.49 420.36 697.67 395.41 699.61 394.19 685.07 398.5 683.13 397.49 673.35"/>
    <path class="cls-3" d="M134.38,229.12l-31.96.13-3.45,3.31-12.41-7.89,13.43-21.22,12.13,7.57c.07.68-.23,2.18-.62,4.01l15.13-.62-5.66-13.59-3.59,1.96-12.02-7.75,13.35-21.11,12.47,7.55-1.42,4.76,13.42,28.75,8.01,5.29,3.99-2.71,12.08,7.96-13.4,21.06-12.41-7.76.71-4.62-7.79-5.09Z"/>
    <polygon class="cls-3" points="578.03 600.37 593.32 620.87 551.84 651.78 542.95 640.24 545.34 636.2 523.46 606.92 519.54 608.77 510.73 596.88 530.69 581.97 539.62 593.18 537.08 597.21 559.17 626.9 571.82 617.87 565.97 609.54 578.03 600.37"/>
    <path class="cls-3" d="M448.79,400.55c-3.93,3.13-6.29,8.06-9.48,11.61-12.64-2.88-24.44-4.82-36.83-8.73l80.22-27.84c-10.62,9.94-22.54,15.91-33.9,24.96Z"/>
    <path class="cls-3" d="M320.32,412.18c-3.31-3.17-5.34-8.19-8.7-10.68l-34.94-25.83,80.1,27.78c-12.12,3.85-23.46,5.65-36.46,8.73Z"/>
    <path class="cls-1" d="M451,351.24c-14.1.38-41.46-1.04-49.81-14.41l-21.34-34.19-23.78,37.49c-5.69,8.97-47.3,14.79-52.64,8.91-.94-1.04-1.3-4.12-1.11-5.74.54-4.55,3.76-7.35,8.23-7.71l32.58-2.58c4.28-.34,7.49-4.22,9.55-7.54l20.68-33.24-34-54.18c-.84-1.35-2.63-3.92-2.24-5.17.89-2.86,7.15-5,9.78-3.47,1.05.61,1.55,2.51,2.53,4.09l30.26,48.71,30.11-48.36c.88-1.42,1.71-3.57,2.62-4.36,1.9-1.66,8.62.34,9.84,3.22.46,1.08-1.05,3.36-1.84,4.62l-34.36,54.92,21.83,35.09c2.09,3.36,6.65,5.8,10.73,6.1l30.52,2.26c4.53.34,7.28,3.25,7.98,7.56.62,3.78-1.46,7.86-6.13,7.99Z"/>
    <path class="cls-2" d="M321.94,308.8l-2.79-2.7c.96.54,1.71,1.25,2.79,2.7Z"/>
    <circle class="cls-2" cx="316.61" cy="96.5" r=".5"/>
    <polygon class="cls-2" points="653.55 516.26 642.85 511.43 650.22 495.83 660.65 500.83 653.55 516.26"/>
    <polygon class="cls-2" points="629.12 504.74 619.12 500.21 626.53 484.65 636.26 489.31 629.12 504.74"/>
    <polygon class="cls-2" points="193.6 172.71 180.32 186.16 153.52 159.47 166.99 146.04 193.6 172.71"/>
    <polygon class="cls-2" points="156.98 584.93 144.44 570.7 173.25 546.12 185.67 560.39 156.98 584.93"/>
  </g>
</svg>